<?xml version="1.0" encoding="UTF-8"?>
<!-- Generator: Adobe Illustrator 19.2.1, SVG Export Plug-In . SVG Version: 6.00 Build 0)  -->
<svg version="1.1" id="Capa_1" xmlns="http://www.w3.org/2000/svg" xmlns:xlink="http://www.w3.org/1999/xlink" x="0px" y="0px" viewBox="0 0 173 32" style="enable-background:new 0 0 173 32;" xml:space="preserve">
<style type="text/css">
	.st0{fill:#414959;}
	.st1{fill:#EE6130;}
	.st2{fill:#B04D20;}
	.st3{fill:#00A4AC;}
</style>
<g id="Conekta_2_">
	<g id="Logotipo_5_">
		<g>
			<g>
				<g>
					<path class="st0" d="M16.2,21.6c0.2,0,0.4,0.1,0.6,0.2l1.6,1.7c-0.9,1.1-1.9,1.9-3.2,2.4c-1.3,0.6-2.8,0.8-4.5,0.8       c-1.6,0-3-0.3-4.2-0.8c-1.3-0.5-2.3-1.3-3.2-2.2c-0.9-1-1.6-2.1-2-3.4C0.6,19,0.4,17.6,0.4,16c0-1.6,0.3-3,0.8-4.4       c0.5-1.3,1.3-2.5,2.2-3.4c1-1,2.1-1.7,3.4-2.2c1.3-0.5,2.8-0.8,4.4-0.8c1.6,0,2.9,0.3,4.1,0.8c1.2,0.5,2.2,1.2,3,2l-1.3,1.8       c-0.1,0.1-0.2,0.2-0.3,0.3c-0.1,0.1-0.3,0.1-0.5,0.1c-0.2,0-0.5-0.1-0.7-0.3c-0.2-0.2-0.5-0.4-0.9-0.6       c-0.4-0.2-0.8-0.4-1.4-0.6c-0.6-0.2-1.3-0.3-2.1-0.3c-1,0-1.9,0.2-2.7,0.5c-0.8,0.3-1.6,0.8-2.2,1.5c-0.6,0.6-1.1,1.4-1.4,2.4       c-0.3,0.9-0.5,2-0.5,3.1c0,1.2,0.2,2.3,0.5,3.2c0.3,0.9,0.8,1.7,1.4,2.3c0.6,0.6,1.3,1.1,2,1.5c0.8,0.3,1.6,0.5,2.5,0.5       c0.5,0,1,0,1.5-0.1c0.4-0.1,0.8-0.2,1.2-0.3c0.4-0.1,0.7-0.3,1-0.5c0.3-0.2,0.7-0.4,1-0.7c0.1-0.1,0.2-0.2,0.3-0.2       C15.9,21.6,16,21.6,16.2,21.6z"/>
				</g>
			</g>
			<g>
				<g>
					<path class="st0" d="M41.6,16c0,1.6-0.3,3-0.8,4.3c-0.5,1.3-1.2,2.5-2.2,3.4c-0.9,1-2.1,1.7-3.4,2.3c-1.3,0.5-2.8,0.8-4.4,0.8       c-1.6,0-3.1-0.3-4.4-0.8c-1.3-0.5-2.5-1.3-3.4-2.3c-0.9-1-1.7-2.1-2.2-3.4c-0.5-1.3-0.8-2.8-0.8-4.3c0-1.6,0.3-3,0.8-4.3       c0.5-1.3,1.2-2.5,2.2-3.4c0.9-1,2.1-1.7,3.4-2.3c1.3-0.5,2.8-0.8,4.4-0.8c1.6,0,3.1,0.3,4.4,0.8c1.3,0.5,2.4,1.3,3.4,2.3       c0.9,1,1.7,2.1,2.2,3.4C41.3,13,41.6,14.4,41.6,16z M37.5,16c0-1.2-0.2-2.2-0.5-3.1c-0.3-0.9-0.7-1.7-1.3-2.4       c-0.6-0.6-1.3-1.1-2.1-1.5c-0.8-0.3-1.8-0.5-2.8-0.5c-1,0-2,0.2-2.8,0.5c-0.8,0.3-1.5,0.8-2.1,1.5c-0.6,0.6-1,1.4-1.3,2.4       c-0.3,0.9-0.5,2-0.5,3.1c0,1.2,0.2,2.2,0.5,3.1c0.3,0.9,0.8,1.7,1.3,2.3c0.6,0.6,1.3,1.1,2.1,1.5c0.8,0.3,1.8,0.5,2.8,0.5       c1,0,2-0.2,2.8-0.5c0.8-0.3,1.5-0.8,2.1-1.5c0.6-0.6,1-1.4,1.3-2.3C37.4,18.2,37.5,17.2,37.5,16z"/>
				</g>
			</g>
			<g>
				<g>
					<path class="st0" d="M47.2,5.4c0.1,0,0.2,0,0.3,0.1c0.1,0,0.2,0.1,0.3,0.2C47.8,5.8,47.9,5.9,48,6l11.1,14.2       c0-0.3-0.1-0.7-0.1-1c0-0.3,0-0.6,0-0.9V5.4h3.5v21.2h-2c-0.3,0-0.6,0-0.8-0.1c-0.2-0.1-0.4-0.3-0.6-0.5L48,11.8       c0,0.3,0.1,0.6,0.1,0.9c0,0.3,0,0.6,0,0.8v13h-3.5V5.4h2.1C46.9,5.4,47,5.4,47.2,5.4z"/>
				</g>
			</g>
			<g>
				<g>
					<path class="st0" d="M80.2,5.4v3.1h-9.4v5.9h7.4v3h-7.4v6h9.4v3.1H66.8V5.4H80.2z"/>
				</g>
			</g>
			<g>
				<g>
					<path class="st0" d="M87.6,14.3h0.9c0.4,0,0.7-0.1,0.9-0.2c0.2-0.1,0.5-0.3,0.6-0.5L96,6.2c0.2-0.3,0.5-0.5,0.8-0.6       c0.3-0.1,0.6-0.2,1-0.2h3.4L94,14.2c-0.2,0.3-0.4,0.5-0.6,0.7c-0.2,0.2-0.4,0.3-0.7,0.5c0.3,0.1,0.6,0.3,0.9,0.5       c0.3,0.2,0.5,0.5,0.8,0.8l7.4,9.9h-3.5c-0.5,0-0.8-0.1-1-0.2c-0.2-0.1-0.4-0.3-0.6-0.6l-6-7.8c-0.2-0.3-0.4-0.4-0.7-0.5       c-0.2-0.1-0.6-0.2-1-0.2h-1.2v9.3h-3.9V5.4h3.9V14.3z"/>
				</g>
			</g>
			<g>
				<g>
					<path class="st0" d="M120.2,5.4l0,3.2h-7.8v17.9h-3.9V8.6h-6.7l2.6-3.2H120.2z"/>
				</g>
			</g>
			<g>
				<g>
					<path class="st0" d="M137.2,26.6h-3c-0.3,0-0.6-0.1-0.8-0.3c-0.2-0.2-0.4-0.4-0.5-0.6l-1.6-4.3h-8.8l-1.6,4.3       c-0.1,0.2-0.2,0.4-0.5,0.6c-0.2,0.2-0.5,0.3-0.8,0.3h-3.1l8.3-21.2h4L137.2,26.6z M123.5,18.6h6.7l-2.6-7       c-0.1-0.3-0.2-0.7-0.4-1.1c-0.1-0.4-0.3-0.9-0.4-1.4c-0.1,0.5-0.3,1-0.4,1.4c-0.1,0.4-0.3,0.8-0.4,1.1L123.5,18.6z"/>
				</g>
			</g>
		</g>
	</g>
	<g id="Símbolo_5_">
		<g>
			<polygon class="st1" points="155.6,26.7 147.6,16 155.6,5.3 160.1,11.5 156.8,16 160.1,20.5    "/>
			<polygon class="st2" points="155.6,5.3 160.1,11.5 158.6,13.6    "/>
		</g>
		<polygon class="st3" points="160.8,32 172.6,16 160.7,0 151.6,0 163.5,16 151.6,32   "/>
	</g>
</g>
</svg>