<svg xmlns="http://www.w3.org/2000/svg" xmlns:xlink="http://www.w3.org/1999/xlink" viewBox="0 0 960 270"><defs><style>.cls-1{fill:none;}.cls-11,.cls-2{fill:#ccc;}.cls-3{isolation:isolate;}.cls-4{clip-path:url(#clip-path);}.cls-5{opacity:0.5;}.cls-6{fill:#b3b3b3;}.cls-7{clip-path:url(#clip-path-2);}.cls-8{clip-path:url(#clip-path-3);}.cls-9{mix-blend-mode:overlay;}.cls-10,.cls-12{fill:#f2f2f2;}.cls-11,.cls-12{stroke:#f2f2f2;stroke-miterlimit:10;}.cls-13{clip-path:url(#clip-path-4);}.cls-14{clip-path:url(#clip-path-5);}</style><clipPath id="clip-path"><rect class="cls-1" width="960" height="270"/></clipPath><clipPath id="clip-path-2"><path class="cls-2" d="M137.81,167.77c.21,5.57,3.28,7.59,5.07,8.27a12.78,12.78,0,0,0,5.23.88h.15a10.45,10.45,0,0,1,10.45,10.45v18.28a10.45,10.45,0,0,0,20.9,0V145.57a10.45,10.45,0,0,1,9.7-10.42l0,0c2.76-.14,3.57.06,6.14-.92,1.79-.68,4.86-2.7,5.07-8.27V103.78a10.45,10.45,0,0,1,20.9,0v14.41c.21,5.57,3.28,7.59,5.07,8.27a11.55,11.55,0,0,0,4.56.86c.27,0,.54,0,.82,0a10.45,10.45,0,0,1,10.45,10.45V331a10.45,10.45,0,1,1-20.9,0V314a10.45,10.45,0,1,0-20.9,0v35.27a10.45,10.45,0,0,1-20.9,0V318a10.45,10.45,0,1,0-20.9,0v73.14a10.45,10.45,0,0,1-20.9,0V331a10.45,10.45,0,1,0-20.9,0v-2.32a10.45,10.45,0,1,1-20.9,0v-4.22a10.45,10.45,0,0,0-20.9,0v-1.3a10.45,10.45,0,1,1-20.9,0V129.9a10.45,10.45,0,0,1,20.9,0v5.22a10.45,10.45,0,0,0,20.9,0V100.87a10.45,10.45,0,0,1,20.9,0v1.67c.62,4.55,3.32,6.29,5,6.91a12.25,12.25,0,0,0,5,.87h.52a10.45,10.45,0,0,1,10.45,10.45Z"/></clipPath><clipPath id="clip-path-3"><rect class="cls-2" x="137.81" y="52.55" width="108.4" height="359.58"/></clipPath><clipPath id="clip-path-4"><path class="cls-2" d="M853.49,53.42c-.21-5.57-3.28-7.59-5.07-8.27a12.78,12.78,0,0,0-5.23-.88H843A10.45,10.45,0,0,1,832.6,33.82V15.54a10.45,10.45,0,0,0-20.9,0V75.62A10.45,10.45,0,0,1,802,86l0,0c-2.76.14-3.57-.06-6.14.92-1.79.68-4.86,2.7-5.07,8.27v22.15a10.45,10.45,0,1,1-20.9,0V103c-.21-5.57-3.28-7.59-5.07-8.27a11.55,11.55,0,0,0-4.56-.86c-.27,0-.54,0-.82,0A10.45,10.45,0,0,1,749,83.45V-109.84a10.45,10.45,0,0,1,10.45-10.45,10.45,10.45,0,0,1,10.45,10.45v17a10.45,10.45,0,0,0,10.45,10.45,10.45,10.45,0,0,0,10.45-10.45v-35.27a10.45,10.45,0,0,1,10.45-10.45,10.45,10.45,0,0,1,10.45,10.45v31.35a10.45,10.45,0,0,0,10.45,10.45A10.45,10.45,0,0,0,832.6-96.78v-73.14A10.45,10.45,0,0,1,843-180.37a10.45,10.45,0,0,1,10.45,10.45v60.08a10.45,10.45,0,0,0,10.45,10.45,10.45,10.45,0,0,0,10.45-10.45v2.32A10.45,10.45,0,0,1,884.84-118a10.45,10.45,0,0,1,10.45,10.45v4.22a10.45,10.45,0,0,0,10.45,10.45,10.45,10.45,0,0,0,10.45-10.45v1.3a10.45,10.45,0,0,1,10.45-10.45A10.45,10.45,0,0,1,937.08-102V91.29a10.45,10.45,0,0,1-20.9,0V86.07a10.45,10.45,0,1,0-20.9,0v34.25a10.45,10.45,0,0,1-20.9,0v-1.67c-.62-4.55-3.32-6.29-5-6.91a12.25,12.25,0,0,0-5-.87h-.52a10.45,10.45,0,0,1-10.45-10.45Z"/></clipPath><clipPath id="clip-path-5"><rect class="cls-2" x="745.1" y="-190.94" width="108.4" height="359.58"/></clipPath></defs><title>03</title><g class="cls-3"><g id="Layer_1" data-name="Layer 1"><g class="cls-4"><g class="cls-5"><path class="cls-6" d="M80.65,84.84c0,1.25,1.15,1.85,2.26,2.43s2,1,2,2-1,1.48-2,2-2.26,1.18-2.26,2.43,1.15,1.85,2.26,2.43,2,1,2,2-1,1.48-2,2-2.26,1.18-2.26,2.43,1.15,1.85,2.26,2.43,2,1,2,2-1,1.48-2,2-2.26,1.18-2.26,2.43,1.15,1.85,2.26,2.43,2,1,2,2-1,1.48-2,2-2.26,1.18-2.26,2.43,1.15,1.85,2.26,2.43,2,1,2,2-1,1.48-2,2-2.26,1.18-2.26,2.43,1.15,1.85,2.26,2.43,2,1,2,2h.46c0-1.25-1.15-1.85-2.26-2.43s-2-1-2-2,1-1.48,2-2,2.26-1.18,2.26-2.43-1.15-1.85-2.26-2.43-2-1-2-2,1-1.48,2-2,2.26-1.18,2.25-2.43-1.15-1.85-2.26-2.43-2-1-2-2,1-1.48,2-2,2.26-1.18,2.26-2.43-1.15-1.85-2.26-2.43-2-1-2-2,1-1.48,2-2,2.26-1.18,2.26-2.43-1.15-1.85-2.26-2.43-2-1-2-2,1-1.48,2-2,2.26-1.18,2.26-2.43-1.15-1.85-2.26-2.43-2-1-2-2,1-1.48,2-2,2.26-1.18,2.26-2.43h-.46c0,1-1,1.48-2,2S80.65,83.59,80.65,84.84Z"/><path class="cls-2" d="M137.81,167.77c.21,5.57,3.28,7.59,5.07,8.27a12.78,12.78,0,0,0,5.23.88h.15a10.45,10.45,0,0,1,10.45,10.45v18.28a10.45,10.45,0,0,0,20.9,0V145.57a10.45,10.45,0,0,1,9.7-10.42l0,0c2.76-.14,3.57.06,6.14-.92,1.79-.68,4.86-2.7,5.07-8.27V103.78a10.45,10.45,0,0,1,20.9,0v14.41c.21,5.57,3.28,7.59,5.07,8.27a11.55,11.55,0,0,0,4.56.86c.27,0,.54,0,.82,0a10.45,10.45,0,0,1,10.45,10.45V331a10.45,10.45,0,1,1-20.9,0V314a10.45,10.45,0,1,0-20.9,0v35.27a10.45,10.45,0,0,1-20.9,0V318a10.45,10.45,0,1,0-20.9,0v73.14a10.45,10.45,0,0,1-20.9,0V331a10.45,10.45,0,1,0-20.9,0v-2.32a10.45,10.45,0,1,1-20.9,0v-4.22a10.45,10.45,0,0,0-20.9,0v-1.3a10.45,10.45,0,1,1-20.9,0V129.9a10.45,10.45,0,0,1,20.9,0v5.22a10.45,10.45,0,0,0,20.9,0V100.87a10.45,10.45,0,0,1,20.9,0v1.67c.62,4.55,3.32,6.29,5,6.91a12.25,12.25,0,0,0,5,.87h.52a10.45,10.45,0,0,1,10.45,10.45Z"/><g class="cls-7"><rect class="cls-2" x="137.81" y="52.55" width="108.4" height="359.58"/><g class="cls-8"><g class="cls-9"><polygon class="cls-2" points="142.73 437.39 145.22 439.89 395.76 188.35 393.27 185.85 142.73 437.39"/><polygon class="cls-2" points="137.37 432.01 139.86 434.51 390.4 182.97 387.91 180.47 137.37 432.01"/><polygon class="cls-2" points="132.01 426.63 134.5 429.13 385.04 177.58 382.55 175.08 132.01 426.63"/><polygon class="cls-2" points="126.65 421.25 129.14 423.75 379.68 172.2 377.19 169.7 126.65 421.25"/><polygon class="cls-2" points="121.29 415.87 123.78 418.37 374.32 166.82 371.83 164.32 121.29 415.87"/><polygon class="cls-2" points="115.93 410.48 118.42 412.98 368.96 161.44 366.47 158.94 115.93 410.48"/><polygon class="cls-2" points="110.57 405.1 113.06 407.6 363.6 156.06 361.11 153.56 110.57 405.1"/><polygon class="cls-2" points="105.21 399.72 107.7 402.22 358.24 150.67 355.75 148.17 105.21 399.72"/><polygon class="cls-2" points="99.85 394.34 102.34 396.84 352.88 145.29 350.39 142.79 99.85 394.34"/><polygon class="cls-2" points="94.49 388.96 96.98 391.46 347.52 139.91 345.03 137.41 94.49 388.96"/><polygon class="cls-2" points="89.13 383.57 91.62 386.07 342.16 134.53 339.67 132.03 89.13 383.57"/><polygon class="cls-2" points="83.77 378.19 86.26 380.69 336.8 129.15 334.31 126.65 83.77 378.19"/><polygon class="cls-2" points="78.41 372.81 80.9 375.31 331.44 123.76 328.95 121.26 78.41 372.81"/><polygon class="cls-2" points="73.05 367.43 75.54 369.93 326.08 118.38 323.59 115.88 73.05 367.43"/><polygon class="cls-2" points="67.69 362.05 70.18 364.55 320.72 113 318.23 110.5 67.69 362.05"/><polygon class="cls-2" points="62.33 356.66 64.82 359.17 315.36 107.62 312.87 105.12 62.33 356.66"/><polygon class="cls-2" points="56.97 351.28 59.46 353.78 310 102.24 307.51 99.74 56.97 351.28"/><polygon class="cls-2" points="51.61 345.9 54.1 348.4 304.64 96.85 302.15 94.35 51.61 345.9"/><polygon class="cls-2" points="46.25 340.52 48.74 343.02 299.28 91.47 296.79 88.97 46.25 340.52"/><polygon class="cls-2" points="40.89 335.14 43.38 337.64 293.92 86.09 291.43 83.59 40.89 335.14"/><polygon class="cls-2" points="35.53 329.75 38.02 332.25 288.56 80.71 286.07 78.21 35.53 329.75"/><polygon class="cls-2" points="30.17 324.37 32.66 326.87 283.2 75.33 280.71 72.83 30.17 324.37"/><polygon class="cls-2" points="24.8 318.99 27.3 321.49 277.84 69.94 275.35 67.44 24.8 318.99"/><polygon class="cls-2" points="19.45 313.61 21.93 316.11 272.48 64.56 269.99 62.06 19.45 313.61"/><polygon class="cls-2" points="14.09 308.23 16.57 310.73 267.12 59.18 264.63 56.68 14.09 308.23"/><polygon class="cls-2" points="8.72 302.85 11.21 305.35 261.75 53.8 259.26 51.3 8.72 302.85"/><polygon class="cls-2" points="3.36 297.46 5.86 299.96 256.39 48.42 253.9 45.92 3.36 297.46"/><polygon class="cls-2" points="-2 292.08 0.49 294.58 251.03 43.04 248.54 40.53 -2 292.08"/><polygon class="cls-2" points="-7.36 286.7 -4.87 289.2 245.67 37.65 243.18 35.15 -7.36 286.7"/></g></g><rect class="cls-2" x="52.98" y="95.94" width="43.24" height="259.76"/><g class="cls-9"><circle class="cls-2" cx="57.01" cy="113.18" r="1.94"/><circle class="cls-2" cx="57.01" cy="118.36" r="1.94"/><circle class="cls-2" cx="57.01" cy="123.54" r="1.94"/><circle class="cls-2" cx="57.01" cy="128.72" r="1.94"/><circle class="cls-2" cx="57.01" cy="133.9" r="1.94"/><circle class="cls-2" cx="57.01" cy="139.08" r="1.94"/><circle class="cls-2" cx="57.01" cy="144.26" r="1.94"/><circle class="cls-2" cx="57.01" cy="149.43" r="1.94"/><circle class="cls-2" cx="57.01" cy="154.61" r="1.94"/><circle class="cls-2" cx="57.01" cy="159.79" r="1.94"/><circle class="cls-2" cx="57.01" cy="164.97" r="1.94"/><circle class="cls-2" cx="57.01" cy="170.15" r="1.94"/><circle class="cls-2" cx="57.01" cy="175.33" r="1.94"/><circle class="cls-2" cx="57.01" cy="180.51" r="1.94"/><circle class="cls-2" cx="57.01" cy="185.69" r="1.94"/><circle class="cls-2" cx="57.01" cy="190.86" r="1.94"/><circle class="cls-2" cx="57.01" cy="196.04" r="1.94"/><circle class="cls-2" cx="57.01" cy="201.22" r="1.94"/><circle class="cls-2" cx="57.01" cy="206.4" r="1.94"/><circle class="cls-2" cx="57.01" cy="211.58" r="1.94"/><circle class="cls-2" cx="57.01" cy="216.76" r="1.94"/><circle class="cls-2" cx="57.01" cy="221.94" r="1.94"/><circle class="cls-2" cx="57.01" cy="227.12" r="1.94"/><circle class="cls-2" cx="57.01" cy="232.3" r="1.94"/><circle class="cls-2" cx="57.01" cy="237.47" r="1.94"/><circle class="cls-2" cx="57.01" cy="242.65" r="1.94"/><circle class="cls-2" cx="57.01" cy="247.83" r="1.94"/><circle class="cls-2" cx="57.01" cy="253.01" r="1.94"/><circle class="cls-2" cx="57.01" cy="258.19" r="1.94"/><circle class="cls-2" cx="57.01" cy="263.37" r="1.94"/><circle class="cls-2" cx="57.01" cy="268.55" r="1.94"/><circle class="cls-2" cx="62.19" cy="113.18" r="1.94"/><circle class="cls-2" cx="62.19" cy="118.36" r="1.94"/><circle class="cls-2" cx="62.19" cy="123.54" r="1.94"/><circle class="cls-2" cx="62.19" cy="128.72" r="1.94"/><circle class="cls-2" cx="62.19" cy="133.9" r="1.94"/><circle class="cls-2" cx="62.19" cy="139.08" r="1.94"/><circle class="cls-2" cx="62.19" cy="144.26" r="1.94"/><circle class="cls-2" cx="62.19" cy="149.43" r="1.94"/><circle class="cls-2" cx="62.19" cy="154.61" r="1.94"/><circle class="cls-2" cx="62.19" cy="159.79" r="1.94"/><circle class="cls-2" cx="62.19" cy="164.97" r="1.94"/><circle class="cls-2" cx="62.19" cy="170.15" r="1.94"/><circle class="cls-2" cx="62.19" cy="175.33" r="1.94"/><circle class="cls-2" cx="62.19" cy="180.51" r="1.94"/><circle class="cls-2" cx="62.19" cy="185.69" r="1.94"/><circle class="cls-2" cx="62.19" cy="190.86" r="1.94"/><circle class="cls-2" cx="62.19" cy="196.04" r="1.94"/><circle class="cls-2" cx="62.19" cy="201.22" r="1.94"/><circle class="cls-2" cx="62.19" cy="206.4" r="1.94"/><circle class="cls-2" cx="62.19" cy="211.58" r="1.94"/><circle class="cls-2" cx="62.19" cy="216.76" r="1.94"/><circle class="cls-2" cx="62.19" cy="221.94" r="1.94"/><circle class="cls-2" cx="62.19" cy="227.12" r="1.94"/><circle class="cls-2" cx="62.19" cy="232.3" r="1.94"/><circle class="cls-2" cx="62.19" cy="237.47" r="1.94"/><circle class="cls-2" cx="62.19" cy="242.65" r="1.94"/><circle class="cls-2" cx="62.19" cy="247.83" r="1.94"/><circle class="cls-2" cx="62.19" cy="253.01" r="1.94"/><circle class="cls-2" cx="62.19" cy="258.19" r="1.94"/><circle class="cls-2" cx="62.19" cy="263.37" r="1.94"/><circle class="cls-2" cx="62.19" cy="268.55" r="1.94"/><circle class="cls-2" cx="67.37" cy="113.18" r="1.94"/><circle class="cls-2" cx="67.37" cy="118.36" r="1.94"/><circle class="cls-2" cx="67.37" cy="123.54" r="1.94"/><circle class="cls-2" cx="67.37" cy="128.72" r="1.94"/><circle class="cls-2" cx="67.37" cy="133.9" r="1.94"/><circle class="cls-2" cx="67.37" cy="139.08" r="1.94"/><circle class="cls-2" cx="67.37" cy="144.26" r="1.94"/><circle class="cls-2" cx="67.37" cy="149.43" r="1.94"/><circle class="cls-2" cx="67.37" cy="154.61" r="1.94"/><circle class="cls-2" cx="67.37" cy="159.79" r="1.94"/><circle class="cls-2" cx="67.37" cy="164.97" r="1.94"/><circle class="cls-2" cx="67.37" cy="170.15" r="1.94"/><circle class="cls-2" cx="67.37" cy="175.33" r="1.94"/><circle class="cls-2" cx="67.37" cy="180.51" r="1.94"/><circle class="cls-2" cx="67.37" cy="185.69" r="1.94"/><circle class="cls-2" cx="67.37" cy="190.87" r="1.94"/><circle class="cls-2" cx="67.37" cy="196.04" r="1.94"/><circle class="cls-2" cx="67.37" cy="201.22" r="1.94"/><circle class="cls-2" cx="67.37" cy="206.4" r="1.94"/><circle class="cls-2" cx="67.37" cy="211.58" r="1.94"/><circle class="cls-2" cx="67.37" cy="216.76" r="1.94"/><circle class="cls-2" cx="67.37" cy="221.94" r="1.94"/><circle class="cls-2" cx="67.37" cy="227.12" r="1.94"/><circle class="cls-2" cx="67.37" cy="232.3" r="1.94"/><circle class="cls-2" cx="67.37" cy="237.47" r="1.94"/><circle class="cls-2" cx="67.37" cy="242.65" r="1.94"/><circle class="cls-2" cx="67.37" cy="247.83" r="1.94"/><circle class="cls-2" cx="67.37" cy="253.01" r="1.94"/><circle class="cls-2" cx="67.37" cy="258.19" r="1.94"/><circle class="cls-2" cx="67.37" cy="263.37" r="1.94"/><circle class="cls-2" cx="67.37" cy="268.55" r="1.94"/><circle class="cls-2" cx="72.55" cy="113.18" r="1.94"/><circle class="cls-2" cx="72.55" cy="118.36" r="1.94"/><circle class="cls-2" cx="72.55" cy="123.54" r="1.94"/><circle class="cls-2" cx="72.55" cy="128.72" r="1.94"/><circle class="cls-2" cx="72.55" cy="133.9" r="1.94"/><circle class="cls-2" cx="72.55" cy="139.08" r="1.94"/><circle class="cls-2" cx="72.55" cy="144.26" r="1.94"/><circle class="cls-2" cx="72.55" cy="149.43" r="1.94"/><circle class="cls-2" cx="72.55" cy="154.61" r="1.94"/><circle class="cls-2" cx="72.55" cy="159.79" r="1.94"/><circle class="cls-2" cx="72.55" cy="164.97" r="1.94"/><circle class="cls-2" cx="72.55" cy="170.15" r="1.94"/><circle class="cls-2" cx="72.55" cy="175.33" r="1.94"/><circle class="cls-2" cx="72.55" cy="180.51" r="1.94"/><circle class="cls-2" cx="72.55" cy="185.69" r="1.94"/><circle class="cls-2" cx="72.55" cy="190.86" r="1.94"/><circle class="cls-2" cx="72.55" cy="196.04" r="1.94"/><circle class="cls-2" cx="72.55" cy="201.22" r="1.94"/><circle class="cls-2" cx="72.55" cy="206.4" r="1.94"/><circle class="cls-2" cx="72.55" cy="211.58" r="1.94"/><circle class="cls-2" cx="72.55" cy="216.76" r="1.94"/><circle class="cls-2" cx="72.55" cy="221.94" r="1.94"/><circle class="cls-2" cx="72.55" cy="227.12" r="1.94"/><circle class="cls-2" cx="72.55" cy="232.3" r="1.94"/><circle class="cls-2" cx="72.55" cy="237.47" r="1.94"/><circle class="cls-2" cx="72.55" cy="242.65" r="1.94"/><circle class="cls-2" cx="72.55" cy="247.83" r="1.94"/><circle class="cls-2" cx="72.55" cy="253.01" r="1.94"/><circle class="cls-2" cx="72.55" cy="258.19" r="1.94"/><circle class="cls-2" cx="72.55" cy="263.37" r="1.94"/><circle class="cls-2" cx="72.55" cy="268.55" r="1.94"/><circle class="cls-2" cx="77.73" cy="113.18" r="1.94"/><circle class="cls-2" cx="77.73" cy="118.36" r="1.94"/><circle class="cls-2" cx="77.73" cy="123.54" r="1.94"/><circle class="cls-2" cx="77.73" cy="128.72" r="1.94"/><circle class="cls-2" cx="77.73" cy="133.9" r="1.94"/><circle class="cls-2" cx="77.73" cy="139.08" r="1.94"/><circle class="cls-2" cx="77.73" cy="144.26" r="1.94"/><circle class="cls-2" cx="77.73" cy="149.43" r="1.94"/><circle class="cls-2" cx="77.73" cy="154.61" r="1.94"/><circle class="cls-2" cx="77.73" cy="159.79" r="1.94"/><circle class="cls-2" cx="77.73" cy="164.97" r="1.94"/><circle class="cls-2" cx="77.73" cy="170.15" r="1.94"/><circle class="cls-2" cx="77.73" cy="175.33" r="1.94"/><circle class="cls-2" cx="77.73" cy="180.51" r="1.94"/><circle class="cls-2" cx="77.73" cy="185.69" r="1.94"/><circle class="cls-2" cx="77.73" cy="190.87" r="1.94"/><circle class="cls-2" cx="77.73" cy="196.04" r="1.94"/><circle class="cls-2" cx="77.73" cy="201.22" r="1.94"/><circle class="cls-2" cx="77.73" cy="206.4" r="1.94"/><circle class="cls-2" cx="77.73" cy="211.58" r="1.94"/><circle class="cls-2" cx="77.73" cy="216.76" r="1.94"/><circle class="cls-2" cx="77.73" cy="221.94" r="1.94"/><circle class="cls-2" cx="77.73" cy="227.12" r="1.94"/><circle class="cls-2" cx="77.73" cy="232.3" r="1.94"/><circle class="cls-2" cx="77.73" cy="237.47" r="1.94"/><circle class="cls-2" cx="77.73" cy="242.65" r="1.94"/><circle class="cls-2" cx="77.73" cy="247.83" r="1.94"/><circle class="cls-2" cx="77.73" cy="253.01" r="1.94"/><circle class="cls-2" cx="77.73" cy="258.19" r="1.94"/><circle class="cls-2" cx="77.73" cy="263.37" r="1.94"/><circle class="cls-2" cx="77.73" cy="268.55" r="1.94"/><circle class="cls-2" cx="82.91" cy="113.18" r="1.94"/><circle class="cls-2" cx="82.91" cy="118.36" r="1.94"/><circle class="cls-2" cx="82.91" cy="123.54" r="1.94"/><circle class="cls-2" cx="82.91" cy="128.72" r="1.94"/><circle class="cls-2" cx="82.91" cy="133.9" r="1.94"/><circle class="cls-2" cx="82.91" cy="139.08" r="1.94"/><circle class="cls-2" cx="82.91" cy="144.26" r="1.94"/><circle class="cls-2" cx="82.91" cy="149.43" r="1.94"/><circle class="cls-2" cx="82.91" cy="154.61" r="1.94"/><circle class="cls-2" cx="82.91" cy="159.79" r="1.94"/><circle class="cls-2" cx="82.91" cy="164.97" r="1.94"/><circle class="cls-2" cx="82.91" cy="170.15" r="1.94"/><circle class="cls-2" cx="82.91" cy="175.33" r="1.94"/><circle class="cls-2" cx="82.91" cy="180.51" r="1.94"/><circle class="cls-2" cx="82.91" cy="185.69" r="1.94"/><circle class="cls-2" cx="82.91" cy="190.86" r="1.94"/><circle class="cls-2" cx="82.91" cy="196.04" r="1.94"/><circle class="cls-2" cx="82.91" cy="201.22" r="1.94"/><circle class="cls-2" cx="82.91" cy="206.4" r="1.94"/><circle class="cls-2" cx="82.91" cy="211.58" r="1.94"/><circle class="cls-2" cx="82.91" cy="216.76" r="1.94"/><circle class="cls-2" cx="82.91" cy="221.94" r="1.94"/><circle class="cls-2" cx="82.91" cy="227.12" r="1.94"/><circle class="cls-2" cx="82.91" cy="232.3" r="1.94"/><circle class="cls-2" cx="82.91" cy="237.47" r="1.94"/><circle class="cls-2" cx="82.91" cy="242.65" r="1.94"/><circle class="cls-2" cx="82.91" cy="247.83" r="1.94"/><circle class="cls-2" cx="82.91" cy="253.01" r="1.94"/><circle class="cls-2" cx="82.91" cy="258.19" r="1.94"/><circle class="cls-2" cx="82.91" cy="263.37" r="1.94"/><circle class="cls-2" cx="82.91" cy="268.55" r="1.94"/><circle class="cls-2" cx="88.09" cy="113.18" r="1.94"/><circle class="cls-2" cx="88.09" cy="118.36" r="1.94"/><circle class="cls-2" cx="88.09" cy="123.54" r="1.94"/><circle class="cls-2" cx="88.08" cy="128.72" r="1.94"/><circle class="cls-2" cx="88.09" cy="133.9" r="1.94"/><circle class="cls-2" cx="88.08" cy="139.08" r="1.94"/><circle class="cls-2" cx="88.09" cy="144.26" r="1.94"/><circle class="cls-2" cx="88.09" cy="149.43" r="1.94"/><circle class="cls-2" cx="88.09" cy="154.61" r="1.94"/><circle class="cls-2" cx="88.09" cy="159.79" r="1.94"/><circle class="cls-2" cx="88.09" cy="164.97" r="1.94"/><circle class="cls-2" cx="88.09" cy="170.15" r="1.94"/><circle class="cls-2" cx="88.09" cy="175.33" r="1.94"/><circle class="cls-2" cx="88.09" cy="180.51" r="1.94"/><circle class="cls-2" cx="88.09" cy="185.69" r="1.94"/><circle class="cls-2" cx="88.09" cy="190.87" r="1.94"/><circle class="cls-2" cx="88.09" cy="196.04" r="1.94"/><circle class="cls-2" cx="88.09" cy="201.22" r="1.94"/><circle class="cls-2" cx="88.08" cy="206.4" r="1.94"/><circle class="cls-2" cx="88.09" cy="211.58" r="1.94"/><circle class="cls-2" cx="88.09" cy="216.76" r="1.94"/><circle class="cls-2" cx="88.09" cy="221.94" r="1.94"/><circle class="cls-2" cx="88.08" cy="227.12" r="1.94"/><circle class="cls-2" cx="88.08" cy="232.3" r="1.94"/><circle class="cls-2" cx="88.09" cy="237.48" r="1.94"/><circle class="cls-2" cx="88.09" cy="242.65" r="1.94"/><circle class="cls-2" cx="88.09" cy="247.83" r="1.94"/><circle class="cls-2" cx="88.09" cy="253.01" r="1.94"/><circle class="cls-2" cx="88.09" cy="258.19" r="1.94"/><circle class="cls-2" cx="88.09" cy="263.37" r="1.94"/><circle class="cls-2" cx="88.08" cy="268.55" r="1.94"/><circle class="cls-2" cx="93.26" cy="113.18" r="1.94"/><circle class="cls-2" cx="93.26" cy="118.36" r="1.94"/><circle class="cls-2" cx="93.26" cy="123.54" r="1.94"/><circle class="cls-2" cx="93.26" cy="128.72" r="1.94"/><circle class="cls-2" cx="93.26" cy="133.9" r="1.94"/><circle class="cls-2" cx="93.26" cy="139.08" r="1.94"/><circle class="cls-2" cx="93.26" cy="144.26" r="1.94"/><circle class="cls-2" cx="93.26" cy="149.43" r="1.94"/><circle class="cls-2" cx="93.26" cy="154.61" r="1.94"/><circle class="cls-2" cx="93.26" cy="159.79" r="1.94"/><circle class="cls-2" cx="93.26" cy="164.97" r="1.94"/><circle class="cls-2" cx="93.26" cy="170.15" r="1.94"/><circle class="cls-2" cx="93.26" cy="175.33" r="1.94"/><circle class="cls-2" cx="93.26" cy="180.51" r="1.94"/><circle class="cls-2" cx="93.26" cy="185.69" r="1.94"/><circle class="cls-2" cx="93.26" cy="190.86" r="1.94"/><circle class="cls-2" cx="93.26" cy="196.04" r="1.94"/><circle class="cls-2" cx="93.26" cy="201.22" r="1.94"/><circle class="cls-2" cx="93.26" cy="206.4" r="1.94"/><circle class="cls-2" cx="93.26" cy="211.58" r="1.94"/><circle class="cls-2" cx="93.26" cy="216.76" r="1.94"/><circle class="cls-2" cx="93.26" cy="221.94" r="1.94"/><circle class="cls-2" cx="93.26" cy="227.12" r="1.94"/><circle class="cls-2" cx="93.26" cy="232.3" r="1.94"/><circle class="cls-2" cx="93.26" cy="237.48" r="1.94"/><circle class="cls-2" cx="93.26" cy="242.65" r="1.94"/><circle class="cls-2" cx="93.26" cy="247.83" r="1.94"/><circle class="cls-2" cx="93.26" cy="253.01" r="1.94"/><circle class="cls-2" cx="93.26" cy="258.19" r="1.94"/><circle class="cls-2" cx="93.26" cy="263.37" r="1.94"/><circle class="cls-2" cx="93.26" cy="268.55" r="1.94"/></g><rect class="cls-2" x="95.93" y="86.65" width="42.08" height="259.76"/></g><path class="cls-10" d="M159.9,41.72a10.45,10.45,0,0,0-10.45,10.45v92.29a10.45,10.45,0,0,0,10.45,10.45h0a10.45,10.45,0,0,0,10.45-10.45V52.17A10.45,10.45,0,0,0,159.9,41.72Z"/><path class="cls-11" d="M126.29,25.17a10.45,10.45,0,0,0-10.45,10.45V78a10.45,10.45,0,0,0,10.45,10.45h0A10.45,10.45,0,0,0,136.74,78V35.62a10.45,10.45,0,0,0-10.45-10.45Z"/><path class="cls-12" d="M261.86,165.11a10.45,10.45,0,0,0-10.45,10.45v72.94a10.45,10.45,0,0,0,10.45,10.45h0a10.45,10.45,0,0,0,10.45-10.45V175.55a10.45,10.45,0,0,0-10.45-10.45Z"/><path class="cls-2" d="M33.94,159.21a10.45,10.45,0,0,0-10.45,10.45V242.6A10.45,10.45,0,0,0,33.94,253h0A10.45,10.45,0,0,0,44.39,242.6V169.66a10.45,10.45,0,0,0-10.45-10.45Z"/><circle class="cls-10" cx="210.46" cy="76.58" r="10.86"/><circle class="cls-10" cx="160.36" cy="25.49" r="10.86"/><circle class="cls-10" cx="34.61" cy="271.09" r="10.86"/></g><g class="cls-5"><path class="cls-6" d="M910.66,136.34c0-1.25-1.15-1.85-2.26-2.43s-2-1-2-2,1-1.48,2-2,2.26-1.18,2.26-2.43-1.15-1.85-2.26-2.43-2-1-2-2,1-1.48,2-2,2.26-1.18,2.26-2.43-1.15-1.85-2.26-2.43-2-1-2-2,1-1.48,2-2,2.26-1.18,2.26-2.43-1.15-1.85-2.26-2.43-2-1-2-2,1-1.48,2-2,2.26-1.18,2.26-2.43-1.15-1.85-2.26-2.43-2-1-2-2,1-1.48,2-2,2.26-1.18,2.26-2.43S909.51,90,908.4,89.4s-2-1-2-2h-.46c0,1.25,1.15,1.85,2.26,2.43s2,1,2,2-1,1.48-2,2-2.26,1.18-2.26,2.43,1.15,1.85,2.26,2.43,2,1,2,2-1,1.48-2,2-2.26,1.18-2.25,2.43,1.15,1.85,2.26,2.43,2,1,2,2-1,1.48-2,2-2.26,1.18-2.26,2.43,1.15,1.85,2.26,2.43,2,1,2,2-1,1.48-2,2-2.26,1.18-2.26,2.43,1.15,1.85,2.26,2.43,2,1,2,2-1,1.48-2,2-2.26,1.18-2.26,2.43,1.15,1.85,2.26,2.43,2,1,2,2-1,1.48-2,2-2.26,1.18-2.26,2.43h.46c0-1,1-1.48,2-2S910.66,137.6,910.66,136.34Z"/><path class="cls-2" d="M853.49,53.42c-.21-5.57-3.28-7.59-5.07-8.27a12.78,12.78,0,0,0-5.23-.88H843A10.45,10.45,0,0,1,832.6,33.82V15.54a10.45,10.45,0,0,0-20.9,0V75.62A10.45,10.45,0,0,1,802,86l0,0c-2.76.14-3.57-.06-6.14.92-1.79.68-4.86,2.7-5.07,8.27v22.15a10.45,10.45,0,1,1-20.9,0V103c-.21-5.57-3.28-7.59-5.07-8.27a11.55,11.55,0,0,0-4.56-.86c-.27,0-.54,0-.82,0A10.45,10.45,0,0,1,749,83.45V-109.84a10.45,10.45,0,0,1,10.45-10.45,10.45,10.45,0,0,1,10.45,10.45v17a10.45,10.45,0,0,0,10.45,10.45,10.45,10.45,0,0,0,10.45-10.45v-35.27a10.45,10.45,0,0,1,10.45-10.45,10.45,10.45,0,0,1,10.45,10.45v31.35a10.45,10.45,0,0,0,10.45,10.45A10.45,10.45,0,0,0,832.6-96.78v-73.14A10.45,10.45,0,0,1,843-180.37a10.45,10.45,0,0,1,10.45,10.45v60.08a10.45,10.45,0,0,0,10.45,10.45,10.45,10.45,0,0,0,10.45-10.45v2.32A10.45,10.45,0,0,1,884.84-118a10.45,10.45,0,0,1,10.45,10.45v4.22a10.45,10.45,0,0,0,10.45,10.45,10.45,10.45,0,0,0,10.45-10.45v1.3a10.45,10.45,0,0,1,10.45-10.45A10.45,10.45,0,0,1,937.08-102V91.29a10.45,10.45,0,0,1-20.9,0V86.07a10.45,10.45,0,1,0-20.9,0v34.25a10.45,10.45,0,0,1-20.9,0v-1.67c-.62-4.55-3.32-6.29-5-6.91a12.25,12.25,0,0,0-5-.87h-.52a10.45,10.45,0,0,1-10.45-10.45Z"/><g class="cls-13"><rect class="cls-2" x="745.1" y="-190.94" width="108.4" height="359.58"/><g class="cls-14"><g class="cls-9"><polygon class="cls-2" points="848.57 -216.21 846.08 -218.71 595.54 32.84 598.03 35.34 848.57 -216.21"/><polygon class="cls-2" points="853.93 -210.82 851.44 -213.32 600.9 38.22 603.39 40.72 853.93 -210.82"/><polygon class="cls-2" points="859.29 -205.44 856.8 -207.94 606.26 43.6 608.75 46.1 859.29 -205.44"/><polygon class="cls-2" points="864.65 -200.06 862.16 -202.56 611.62 48.98 614.11 51.48 864.65 -200.06"/><polygon class="cls-2" points="870.01 -194.68 867.52 -197.18 616.98 54.37 619.47 56.87 870.01 -194.68"/><polygon class="cls-2" points="875.37 -189.3 872.88 -191.8 622.34 59.75 624.83 62.25 875.37 -189.3"/><polygon class="cls-2" points="880.73 -183.91 878.24 -186.42 627.7 65.13 630.19 67.63 880.73 -183.91"/><polygon class="cls-2" points="886.09 -178.53 883.6 -181.03 633.06 70.51 635.55 73.01 886.09 -178.53"/><polygon class="cls-2" points="891.45 -173.15 888.96 -175.65 638.42 75.89 640.91 78.39 891.45 -173.15"/><polygon class="cls-2" points="896.81 -167.77 894.32 -170.27 643.78 81.28 646.27 83.78 896.81 -167.77"/><polygon class="cls-2" points="902.17 -162.39 899.68 -164.89 649.14 86.66 651.63 89.16 902.17 -162.39"/><polygon class="cls-2" points="907.53 -157.01 905.04 -159.51 654.5 92.04 656.99 94.54 907.53 -157.01"/><polygon class="cls-2" points="912.89 -151.62 910.4 -154.12 659.86 97.42 662.35 99.92 912.89 -151.62"/><polygon class="cls-2" points="918.25 -146.24 915.76 -148.74 665.22 102.8 667.71 105.3 918.25 -146.24"/><polygon class="cls-2" points="923.62 -140.86 921.13 -143.36 670.58 108.19 673.08 110.69 923.62 -140.86"/><polygon class="cls-2" points="928.98 -135.48 926.49 -137.98 675.95 113.57 678.43 116.07 928.98 -135.48"/><polygon class="cls-2" points="934.34 -130.1 931.85 -132.6 681.3 118.95 683.79 121.45 934.34 -130.1"/><polygon class="cls-2" points="939.7 -124.71 937.21 -127.22 686.66 124.33 689.16 126.83 939.7 -124.71"/><polygon class="cls-2" points="945.06 -119.33 942.57 -121.83 692.03 129.71 694.52 132.21 945.06 -119.33"/><polygon class="cls-2" points="950.42 -113.95 947.93 -116.45 697.39 135.09 699.88 137.59 950.42 -113.95"/><polygon class="cls-2" points="955.78 -108.57 953.29 -111.07 702.75 140.48 705.24 142.98 955.78 -108.57"/><polygon class="cls-2" points="961.14 -103.19 958.65 -105.69 708.11 145.86 710.6 148.36 961.14 -103.19"/><polygon class="cls-2" points="966.5 -97.81 964.01 -100.31 713.47 151.24 715.96 153.74 966.5 -97.81"/><polygon class="cls-2" points="971.86 -92.42 969.37 -94.92 718.83 156.62 721.32 159.12 971.86 -92.42"/><polygon class="cls-2" points="977.22 -87.04 974.73 -89.54 724.19 162.01 726.68 164.5 977.22 -87.04"/><polygon class="cls-2" points="982.58 -81.66 980.09 -84.16 729.55 167.39 732.04 169.89 982.58 -81.66"/><polygon class="cls-2" points="987.94 -76.28 985.45 -78.78 734.91 172.77 737.4 175.27 987.94 -76.28"/><polygon class="cls-2" points="993.3 -70.89 990.81 -73.39 740.27 178.15 742.76 180.65 993.3 -70.89"/><polygon class="cls-2" points="998.66 -65.51 996.17 -68.01 745.63 183.53 748.12 186.03 998.66 -65.51"/></g></g><rect class="cls-2" x="895.08" y="-134.51" width="43.24" height="259.76"/><g class="cls-9"><circle class="cls-2" cx="934.29" cy="108" r="1.94"/><circle class="cls-2" cx="934.29" cy="102.83" r="1.94"/><circle class="cls-2" cx="934.29" cy="97.65" r="1.94"/><circle class="cls-2" cx="934.29" cy="92.47" r="1.94"/><circle class="cls-2" cx="934.29" cy="87.29" r="1.94"/><circle class="cls-2" cx="934.29" cy="82.11" r="1.94"/><circle class="cls-2" cx="934.29" cy="76.93" r="1.94"/><circle class="cls-2" cx="934.29" cy="71.75" r="1.94"/><circle class="cls-2" cx="934.29" cy="66.57" r="1.94"/><circle class="cls-2" cx="934.29" cy="61.39" r="1.94"/><circle class="cls-2" cx="934.29" cy="56.22" r="1.94"/><circle class="cls-2" cx="934.29" cy="51.04" r="1.94"/><circle class="cls-2" cx="934.29" cy="45.86" r="1.94"/><circle class="cls-2" cx="934.29" cy="40.68" r="1.94"/><circle class="cls-2" cx="934.29" cy="35.5" r="1.94"/><circle class="cls-2" cx="934.29" cy="30.32" r="1.94"/><circle class="cls-2" cx="934.29" cy="25.14" r="1.94"/><circle class="cls-2" cx="934.29" cy="19.96" r="1.94"/><circle class="cls-2" cx="934.29" cy="14.78" r="1.94"/><circle class="cls-2" cx="934.29" cy="9.61" r="1.94"/><circle class="cls-2" cx="934.29" cy="4.43" r="1.94"/><circle class="cls-2" cx="934.29" cy="-0.75" r="1.94"/><circle class="cls-2" cx="929.11" cy="108" r="1.94"/><circle class="cls-2" cx="929.11" cy="102.82" r="1.94"/><circle class="cls-2" cx="929.11" cy="97.65" r="1.94"/><circle class="cls-2" cx="929.11" cy="92.47" r="1.94"/><circle class="cls-2" cx="929.11" cy="87.29" r="1.94"/><circle class="cls-2" cx="929.11" cy="82.11" r="1.94"/><circle class="cls-2" cx="929.11" cy="76.93" r="1.94"/><circle class="cls-2" cx="929.11" cy="71.75" r="1.94"/><circle class="cls-2" cx="929.11" cy="66.57" r="1.94"/><circle class="cls-2" cx="929.11" cy="61.39" r="1.94"/><circle class="cls-2" cx="929.11" cy="56.22" r="1.94"/><circle class="cls-2" cx="929.11" cy="51.04" r="1.94"/><circle class="cls-2" cx="929.11" cy="45.86" r="1.94"/><circle class="cls-2" cx="929.11" cy="40.68" r="1.94"/><circle class="cls-2" cx="929.11" cy="35.5" r="1.94"/><circle class="cls-2" cx="929.11" cy="30.32" r="1.94"/><circle class="cls-2" cx="929.11" cy="25.14" r="1.94"/><circle class="cls-2" cx="929.11" cy="19.96" r="1.94"/><circle class="cls-2" cx="929.11" cy="14.78" r="1.94"/><circle class="cls-2" cx="929.11" cy="9.61" r="1.94"/><circle class="cls-2" cx="929.11" cy="4.43" r="1.94"/><circle class="cls-2" cx="929.11" cy="-0.75" r="1.94"/><circle class="cls-2" cx="923.93" cy="108" r="1.94"/><circle class="cls-2" cx="923.93" cy="102.83" r="1.94"/><circle class="cls-2" cx="923.93" cy="97.65" r="1.94"/><circle class="cls-2" cx="923.93" cy="92.47" r="1.94"/><circle class="cls-2" cx="923.93" cy="87.29" r="1.94"/><circle class="cls-2" cx="923.93" cy="82.11" r="1.94"/><circle class="cls-2" cx="923.93" cy="76.93" r="1.94"/><circle class="cls-2" cx="923.93" cy="71.75" r="1.94"/><circle class="cls-2" cx="923.93" cy="66.57" r="1.94"/><circle class="cls-2" cx="923.93" cy="61.39" r="1.94"/><circle class="cls-2" cx="923.93" cy="56.22" r="1.94"/><circle class="cls-2" cx="923.93" cy="51.04" r="1.94"/><circle class="cls-2" cx="923.93" cy="45.86" r="1.94"/><circle class="cls-2" cx="923.93" cy="40.68" r="1.94"/><circle class="cls-2" cx="923.93" cy="35.5" r="1.94"/><circle class="cls-2" cx="923.93" cy="30.32" r="1.94"/><circle class="cls-2" cx="923.93" cy="25.14" r="1.94"/><circle class="cls-2" cx="923.93" cy="19.96" r="1.94"/><circle class="cls-2" cx="923.93" cy="14.78" r="1.94"/><circle class="cls-2" cx="923.93" cy="9.61" r="1.94"/><circle class="cls-2" cx="923.93" cy="4.43" r="1.94"/><circle class="cls-2" cx="923.93" cy="-0.75" r="1.94"/><circle class="cls-2" cx="918.76" cy="108" r="1.94"/><circle class="cls-2" cx="918.76" cy="102.82" r="1.94"/><circle class="cls-2" cx="918.75" cy="97.65" r="1.94"/><circle class="cls-2" cx="918.76" cy="92.47" r="1.94"/><circle class="cls-2" cx="918.75" cy="87.29" r="1.94"/><circle class="cls-2" cx="918.75" cy="82.11" r="1.94"/><circle class="cls-2" cx="918.75" cy="76.93" r="1.94"/><circle class="cls-2" cx="918.75" cy="71.75" r="1.94"/><circle class="cls-2" cx="918.76" cy="66.57" r="1.94"/><circle class="cls-2" cx="918.75" cy="61.39" r="1.94"/><circle class="cls-2" cx="918.76" cy="56.22" r="1.94"/><circle class="cls-2" cx="918.75" cy="51.04" r="1.94"/><circle class="cls-2" cx="918.75" cy="45.86" r="1.94"/><circle class="cls-2" cx="918.75" cy="40.68" r="1.94"/><circle class="cls-2" cx="918.75" cy="35.5" r="1.94"/><circle class="cls-2" cx="918.76" cy="30.32" r="1.94"/><circle class="cls-2" cx="918.76" cy="25.14" r="1.94"/><circle class="cls-2" cx="918.75" cy="19.96" r="1.94"/><circle class="cls-2" cx="918.75" cy="14.78" r="1.94"/><circle class="cls-2" cx="918.76" cy="9.61" r="1.94"/><circle class="cls-2" cx="918.76" cy="4.43" r="1.94"/><circle class="cls-2" cx="918.76" cy="-0.75" r="1.94"/><circle class="cls-2" cx="913.58" cy="108" r="1.94"/><circle class="cls-2" cx="913.58" cy="102.82" r="1.94"/><circle class="cls-2" cx="913.58" cy="97.65" r="1.94"/><circle class="cls-2" cx="913.58" cy="92.47" r="1.94"/><circle class="cls-2" cx="913.58" cy="87.29" r="1.94"/><circle class="cls-2" cx="913.58" cy="82.11" r="1.94"/><circle class="cls-2" cx="913.58" cy="76.93" r="1.94"/><circle class="cls-2" cx="913.58" cy="71.75" r="1.94"/><circle class="cls-2" cx="913.58" cy="66.57" r="1.94"/><circle class="cls-2" cx="913.58" cy="61.39" r="1.94"/><circle class="cls-2" cx="913.58" cy="56.22" r="1.94"/><circle class="cls-2" cx="913.58" cy="51.04" r="1.94"/><circle class="cls-2" cx="913.58" cy="45.86" r="1.94"/><circle class="cls-2" cx="913.58" cy="40.68" r="1.94"/><circle class="cls-2" cx="913.58" cy="35.5" r="1.94"/><circle class="cls-2" cx="913.58" cy="30.32" r="1.94"/><circle class="cls-2" cx="913.58" cy="25.14" r="1.94"/><circle class="cls-2" cx="913.58" cy="19.96" r="1.94"/><circle class="cls-2" cx="913.58" cy="14.78" r="1.94"/><circle class="cls-2" cx="913.58" cy="9.61" r="1.94"/><circle class="cls-2" cx="913.58" cy="4.43" r="1.94"/><circle class="cls-2" cx="913.58" cy="-0.75" r="1.94"/><circle class="cls-2" cx="908.4" cy="108" r="1.94"/><circle class="cls-2" cx="908.4" cy="102.83" r="1.94"/><circle class="cls-2" cx="908.4" cy="97.65" r="1.94"/><circle class="cls-2" cx="908.4" cy="92.47" r="1.94"/><circle class="cls-2" cx="908.4" cy="87.29" r="1.94"/><circle class="cls-2" cx="908.4" cy="82.11" r="1.94"/><circle class="cls-2" cx="908.4" cy="76.93" r="1.94"/><circle class="cls-2" cx="908.4" cy="71.75" r="1.94"/><circle class="cls-2" cx="908.4" cy="66.57" r="1.94"/><circle class="cls-2" cx="908.4" cy="61.39" r="1.94"/><circle class="cls-2" cx="908.4" cy="56.22" r="1.94"/><circle class="cls-2" cx="908.4" cy="51.04" r="1.94"/><circle class="cls-2" cx="908.4" cy="45.86" r="1.94"/><circle class="cls-2" cx="908.4" cy="40.68" r="1.94"/><circle class="cls-2" cx="908.4" cy="35.5" r="1.94"/><circle class="cls-2" cx="908.4" cy="30.32" r="1.94"/><circle class="cls-2" cx="908.4" cy="25.14" r="1.94"/><circle class="cls-2" cx="908.4" cy="19.96" r="1.94"/><circle class="cls-2" cx="908.4" cy="14.78" r="1.94"/><circle class="cls-2" cx="908.4" cy="9.61" r="1.94"/><circle class="cls-2" cx="908.4" cy="4.43" r="1.94"/><circle class="cls-2" cx="908.4" cy="-0.75" r="1.94"/><circle class="cls-2" cx="903.22" cy="108" r="1.94"/><circle class="cls-2" cx="903.22" cy="102.82" r="1.94"/><circle class="cls-2" cx="903.22" cy="97.65" r="1.94"/><circle class="cls-2" cx="903.22" cy="92.47" r="1.94"/><circle class="cls-2" cx="903.22" cy="87.29" r="1.94"/><circle class="cls-2" cx="903.22" cy="82.11" r="1.94"/><circle class="cls-2" cx="903.22" cy="76.93" r="1.94"/><circle class="cls-2" cx="903.22" cy="71.75" r="1.94"/><circle class="cls-2" cx="903.22" cy="66.57" r="1.94"/><circle class="cls-2" cx="903.22" cy="61.39" r="1.94"/><circle class="cls-2" cx="903.22" cy="56.22" r="1.94"/><circle class="cls-2" cx="903.22" cy="51.04" r="1.94"/><circle class="cls-2" cx="903.22" cy="45.86" r="1.94"/><circle class="cls-2" cx="903.22" cy="40.68" r="1.94"/><circle class="cls-2" cx="903.22" cy="35.5" r="1.94"/><circle class="cls-2" cx="903.22" cy="30.32" r="1.94"/><circle class="cls-2" cx="903.22" cy="25.14" r="1.94"/><circle class="cls-2" cx="903.22" cy="19.96" r="1.94"/><circle class="cls-2" cx="903.22" cy="14.78" r="1.94"/><circle class="cls-2" cx="903.22" cy="9.6" r="1.94"/><circle class="cls-2" cx="903.22" cy="4.43" r="1.94"/><circle class="cls-2" cx="903.22" cy="-0.75" r="1.94"/><circle class="cls-2" cx="898.04" cy="108" r="1.94"/><circle class="cls-2" cx="898.04" cy="102.83" r="1.94"/><circle class="cls-2" cx="898.04" cy="97.65" r="1.94"/><circle class="cls-2" cx="898.04" cy="92.47" r="1.94"/><circle class="cls-2" cx="898.04" cy="87.29" r="1.94"/><circle class="cls-2" cx="898.04" cy="82.11" r="1.94"/><circle class="cls-2" cx="898.04" cy="76.93" r="1.94"/><circle class="cls-2" cx="898.04" cy="71.75" r="1.94"/><circle class="cls-2" cx="898.04" cy="66.57" r="1.94"/><circle class="cls-2" cx="898.04" cy="61.39" r="1.94"/><circle class="cls-2" cx="898.04" cy="56.22" r="1.94"/><circle class="cls-2" cx="898.04" cy="51.04" r="1.94"/><circle class="cls-2" cx="898.04" cy="45.86" r="1.94"/><circle class="cls-2" cx="898.04" cy="40.68" r="1.94"/><circle class="cls-2" cx="898.04" cy="35.5" r="1.94"/><circle class="cls-2" cx="898.04" cy="30.32" r="1.94"/><circle class="cls-2" cx="898.04" cy="25.14" r="1.94"/><circle class="cls-2" cx="898.04" cy="19.96" r="1.94"/><circle class="cls-2" cx="898.04" cy="14.78" r="1.94"/><circle class="cls-2" cx="898.04" cy="9.61" r="1.94"/><circle class="cls-2" cx="898.04" cy="4.43" r="1.94"/><circle class="cls-2" cx="898.04" cy="-0.75" r="1.94"/></g><rect class="cls-2" x="853.29" y="-125.22" width="42.08" height="259.76"/></g><path class="cls-10" d="M831.41,179.47A10.45,10.45,0,0,0,841.86,169V76.73a10.45,10.45,0,0,0-10.45-10.45h0A10.45,10.45,0,0,0,821,76.73V169a10.45,10.45,0,0,0,10.45,10.45Z"/><path class="cls-11" d="M865,196a10.45,10.45,0,0,0,10.45-10.45V143.19A10.45,10.45,0,0,0,865,132.75h0a10.45,10.45,0,0,0-10.45,10.45v42.37A10.45,10.45,0,0,0,865,196Z"/><path class="cls-12" d="M729.44,56.08a10.45,10.45,0,0,0,10.45-10.45V-27.31a10.45,10.45,0,0,0-10.45-10.45h0A10.45,10.45,0,0,0,719-27.31V45.63a10.45,10.45,0,0,0,10.45,10.45Z"/><path class="cls-2" d="M957.36,62a10.45,10.45,0,0,0,10.45-10.45V-21.41a10.45,10.45,0,0,0-10.45-10.45h0a10.45,10.45,0,0,0-10.45,10.45V51.53A10.45,10.45,0,0,0,957.36,62Z"/><circle class="cls-10" cx="780.84" cy="144.61" r="10.86"/><circle class="cls-10" cx="830.94" cy="195.69" r="10.86"/></g></g></g></g></svg>