<svg id="Layer_1" data-name="Layer 1" xmlns="http://www.w3.org/2000/svg" xmlns:xlink="http://www.w3.org/1999/xlink" viewBox="0 0 29.81 36.79"><defs><style>.cls-1{fill:none;}.cls-2{fill:#ffebb7;}.cls-3{fill:#fff;}.cls-4{clip-path:url(#clip-path);}.cls-5{fill:#5d647f;}.cls-6{fill:#b4b6bc;}.cls-7{fill:#868491;}.cls-8{fill:#60dc4d;}.cls-9{fill:#00c37a;}.cls-10{fill:#ff4f19;}.cls-11{fill:#5c546a;}</style><clipPath id="clip-path"><rect class="cls-1" width="29.8" height="36.79"/></clipPath></defs><title>04</title><path class="cls-2" d="M26.93,20.66a12,12,0,1,1-12-12,12,12,0,0,1,12,12Zm0,0"/><path class="cls-3" d="M24.07,20.66a9.17,9.17,0,1,1-9.17-9.17,9.18,9.18,0,0,1,9.17,9.17Zm0,0"/><g class="cls-4"><path class="cls-5" d="M21.34,8.15a.57.57,0,0,0,.51-.31L23,5.61a.57.57,0,1,0-1-.53L20.83,7.31a.57.57,0,0,0,.51.84Zm0,0"/><path class="cls-6" d="M17.81,2.87a5.31,5.31,0,0,1,9.4,4.93.57.57,0,0,1-.77.24l-8.39-4.4a.57.57,0,0,1-.24-.77Zm0,0"/></g><path class="cls-7" d="M25,.64h0a5.31,5.31,0,0,1,2.23,7.17.57.57,0,0,1-.77.24l-4.2-2.2Zm0,0"/><path class="cls-5" d="M8.45,8.15a.57.57,0,0,1-.51-.31L6.76,5.61a.57.57,0,1,1,1-.53L9,7.31a.57.57,0,0,1-.51.84Zm0,0"/><path class="cls-5" d="M5.73,36.7a.57.57,0,0,1-.49-.87L6.94,33a.57.57,0,0,1,1,.58l-1.7,2.87a.57.57,0,0,1-.49.28Zm0,0"/><path class="cls-5" d="M24.07,36.7a.57.57,0,0,1-.49-.28l-1.72-2.9a.57.57,0,1,1,1-.58l1.72,2.9a.57.57,0,0,1-.49.87Zm0,0"/><path class="cls-8" d="M14.9,5.76a14.9,14.9,0,1,0,14.9,14.9A14.92,14.92,0,0,0,14.9,5.76Zm11.46,14.9A11.46,11.46,0,1,1,14.9,9.2,11.47,11.47,0,0,1,26.36,20.66Zm0,0"/><path class="cls-9" d="M14.88,32.12a11.46,11.46,0,0,1,0-22.92V5.76a14.9,14.9,0,0,0,0,29.8Zm0,0"/><path class="cls-7" d="M7.45,21.23H5.16a.57.57,0,1,1,0-1.15H7.45a.57.57,0,1,1,0,1.15Zm0,0"/><path class="cls-7" d="M24.64,21.23H22.35a.57.57,0,1,1,0-1.15h2.29a.57.57,0,1,1,0,1.15Zm0,0"/><path class="cls-7" d="M14.9,31a.57.57,0,0,1-.57-.57V28.11a.57.57,0,0,1,1.15,0V30.4a.57.57,0,0,1-.57.57Zm0,0"/><g class="cls-4"><path class="cls-7" d="M14.9,13.78a.57.57,0,0,1-.57-.57V10.92a.57.57,0,0,1,1.15,0v2.29a.57.57,0,0,1-.57.57Zm0,0"/><path class="cls-6" d="M12,2.87a5.31,5.31,0,0,0-9.4,4.93A.57.57,0,0,0,3.34,8l8.39-4.4A.57.57,0,0,0,12,2.87Zm0,0"/></g><path class="cls-5" d="M13.18,21.23H10.31a.57.57,0,0,1,0-1.15h2.87a.57.57,0,1,1,0,1.15Zm0,0"/><path class="cls-5" d="M14.9,20.08a.57.57,0,0,1-.57-.57v-4a.57.57,0,0,1,1.15,0v4a.57.57,0,0,1-.57.57Zm0,0"/><path class="cls-10" d="M20.63,27a.57.57,0,0,1-.4-.17l-5.73-5.73a.57.57,0,1,1,.81-.81L21,26a.57.57,0,0,1-.41,1Zm0,0"/><path class="cls-7" d="M4.8.64h0A5.31,5.31,0,0,0,2.57,7.81.57.57,0,0,0,3.34,8l4.2-2.2Zm0,0"/><path class="cls-11" d="M16.62,20.66a1.72,1.72,0,1,1-1.72-1.72,1.72,1.72,0,0,1,1.72,1.72Zm0,0"/></svg>