<svg id="Layer_1" data-name="Layer 1" xmlns="http://www.w3.org/2000/svg" viewBox="0 0 36.79 36.79"><defs><style>.cls-1{fill:#ecf0f1;}.cls-2{fill:#546a79;}.cls-3{fill:#ed7161;}.cls-4{fill:#f0c419;}.cls-5{fill:#4fba6f;}.cls-6{fill:#bdc3c7;}.cls-7{fill:#24ae5f;}.cls-8{fill:#fff;}</style></defs><title>05</title><rect class="cls-1" width="36.79" height="36.79"/><rect class="cls-2" width="36.79" height="7.61"/><path class="cls-3" d="M5.71,3.81A1.9,1.9,0,1,1,3.81,1.9a1.9,1.9,0,0,1,1.9,1.91Zm0,0"/><path class="cls-4" d="M11.42,3.81A1.9,1.9,0,1,1,9.51,1.9a1.9,1.9,0,0,1,1.9,1.91Zm0,0"/><path class="cls-5" d="M17.13,3.81A1.9,1.9,0,1,1,15.22,1.9a1.9,1.9,0,0,1,1.91,1.91Zm0,0"/><path class="cls-6" d="M22.2,30.45H14a.63.63,0,1,1,0-1.27H22.2a.63.63,0,1,1,0,1.27Zm0,0"/><path class="cls-6" d="M25.37,33H10.79a.64.64,0,1,1,0-1.27H25.37a.64.64,0,0,1,0,1.27Zm0,0"/><path class="cls-7" d="M26,19a7.61,7.61,0,1,1-7.61-7.61A7.62,7.62,0,0,1,26,19Zm0,0"/><path class="cls-8" d="M22.65,16.68a.64.64,0,0,0-.9,0l-4,4-2.09-2.09a.63.63,0,0,0-.9.9L17.31,22a.63.63,0,0,0,.9,0l4.44-4.44a.63.63,0,0,0,0-.9Zm0,0"/></svg>