<svg id="Layer_1" data-name="Layer 1" xmlns="http://www.w3.org/2000/svg" xmlns:xlink="http://www.w3.org/1999/xlink" viewBox="0 0 44 36.79"><defs><style>.cls-1{fill:none;}.cls-2{fill:#05365b;}.cls-3{fill:#008c61;}.cls-4{clip-path:url(#clip-path);}.cls-5{fill:#e29d81;}.cls-6{fill:#d3856a;}.cls-7{fill:#fff;}.cls-8{fill:#dfe2e5;}.cls-9{fill:#006d49;}.cls-10{fill:#f9bda0;}.cls-11{fill:#ffe4c7;}.cls-12{fill:#00263d;}.cls-13{fill:#ffc114;}.cls-14{fill:#e8ab92;}</style><clipPath id="clip-path"><rect class="cls-1" width="44" height="36.79"/></clipPath></defs><title>06</title><path class="cls-2" d="M0,.09v21l3.12,2,9.51-15Zm0,0"/><path class="cls-3" d="M44,.45V.09l-12.63,8,9.51,15,3.12-2Zm0,0"/><g class="cls-4"><path class="cls-5" d="M35.82,26.13a5.88,5.88,0,0,0,1.56-8.23l-2.27-3.55A6,6,0,0,0,27,12.29L18.87,17.4a5.88,5.88,0,0,0-1.56,8.23l2.27,3.55a6,6,0,0,0,8.16,2.06Zm0,0"/><path class="cls-5" d="M34.83,26.77a2.15,2.15,0,0,0-2.34-3.62l-14.9,9.43a2.15,2.15,0,0,0,2.34,3.62Zm0,0"/></g><path class="cls-6" d="M17.38,25.63l2.27,3.55a6,6,0,0,0,8.16,2.06l8.09-5.11a5.88,5.88,0,0,0,1.56-8.23l-2.27-3.55"/><path class="cls-5" d="M25.61,23.29a2.15,2.15,0,1,0-2.34-3.62L8.37,29.18a2.15,2.15,0,1,0,2.34,3.62Zm0,0"/><path class="cls-5" d="M28.73,26.13a2.15,2.15,0,1,0-2.34-3.62L11.49,32a2.15,2.15,0,0,0,2.34,3.62Zm0,0"/><path class="cls-5" d="M25.54,18.4a2.15,2.15,0,1,0-2.34-3.62L8.3,24.28a2.15,2.15,0,0,0,2.34,3.62Zm0,0"/><path class="cls-5" d="M28.52,11.59S20.15,12.79,19.44,13s-2.62,5-.35,5.6,6-2.41,6-2.41Zm0,0"/><path class="cls-7" d="M30.56,10.33l2.22-1.41L41,21.85l-2.21,1.41Zm0,0"/><polyline class="cls-8" points="32.77 8.96 30.57 10.38 38.8 23.29"/><g class="cls-4"><polyline class="cls-9" points="43.98 0.09 31.35 8.11 40.86 23.08"/><path class="cls-10" d="M35.61,29.11l-1.35-.85a2.19,2.19,0,0,0,2.06-1,2.17,2.17,0,0,0-.64-3L25.75,18c.71-1.49-.71-4.68-1.21-4.89s-8.3-1.28-9-1.42a6,6,0,0,0-6.67,2.7L6.6,17.9a5.88,5.88,0,0,0,1.56,8.23l.64.43a1.55,1.55,0,0,0,.35.28L24,36.34a2.17,2.17,0,0,0,3-.64,2,2,0,0,0,.21-1.77l2.84,1.84a2.17,2.17,0,0,0,3-.64,2,2,0,0,0,0-2.27l.14.07a2.26,2.26,0,0,0,2.41-3.83Zm0,0"/></g><path class="cls-11" d="M24.76,35.49a.84.84,0,0,1-.28-1.21l.28-.5a.88.88,0,0,1,1.49.92l-.28.5a.83.83,0,0,1-1.21.28Zm0,0"/><path class="cls-11" d="M34,32a.84.84,0,0,1-.28-1.21l.28-.5a.88.88,0,1,1,1.49.92l-.28.5A.83.83,0,0,1,34,32Zm0,0"/><path class="cls-11" d="M30.86,34.85a.84.84,0,0,1-.28-1.21l.28-.5a.88.88,0,0,1,1.49.92l-.28.5a.84.84,0,0,1-1.21.28Zm0,0"/><path class="cls-11" d="M34,27.19A.84.84,0,0,1,33.77,26l.28-.5a.88.88,0,1,1,1.49.92l-.21.5a1,1,0,0,1-1.28.28Zm0,0"/><path class="cls-7" d="M5.18,23.29,3,21.89,11.19,9l2.21,1.41Zm0,0"/><polyline class="cls-8" points="11.21 8.96 13.41 10.38 5.18 23.29"/><polyline class="cls-12" points="0 0.09 12.63 8.11 3.12 23.08"/><path class="cls-13" d="M5,13.71a1.41,1.41,0,0,1-2,.43,1.44,1.44,0,1,1,1.56-2.41,1.47,1.47,0,0,1,.43,2Zm0,0"/><path class="cls-14" d="M35.68,24.21,25.75,17.9c.71-1.49-.71-4.68-1.21-4.89a39.66,39.66,0,0,0-4.33-.71l-2.27,7.09,18.66,6a2,2,0,0,0-.92-1.13Zm0,0"/><path class="cls-5" d="M26.25,13.5c.64,1.06.92,3.83.07,4.33l-7.16,1.56a2.05,2.05,0,0,1-2.62-1A2,2,0,0,1,17,15.63l5.11-3c.85-.5,3.48-.36,4.11.64Zm0,0"/></svg>