<svg id="Layer_1" data-name="Layer 1" xmlns="http://www.w3.org/2000/svg" viewBox="0 0 169.17 112.32"><defs><style>.cls-1{fill:#ed1e79;}.cls-2{fill:#95d600;}.cls-3{fill:#00adee;}.cls-4{fill:#daefa9;}.cls-5{fill:#0e9347;}.cls-6{fill:#0d8944;}.cls-7{fill:#3bb54a;}.cls-8{fill:#89c763;}.cls-9{fill:#ffca5d;}.cls-10{fill:#f6b545;}.cls-11{fill:#ffcb5b;}.cls-12{fill:#ffe27a;}.cls-13{fill:#f19920;}.cls-14{fill:#e78825;}</style></defs><title>09</title><rect class="cls-1" width="169.17" height="29.85" rx="10.64" ry="10.64"/><path class="cls-2" d="M9.76,10.87l.3,5.48v6.33H7.68V16.36L8,10.87Zm-2-1.06V7.51H10v2.3Z"/><path class="cls-2" d="M15,7.34c2.32,0,3.51,1.39,3.51,3.81v.48H16.26V11c0-1.08-.43-1.5-1.19-1.5s-1.19.41-1.19,1.5c0,3.12,4.66,3.71,4.66,8,0,2.43-1.21,3.81-3.55,3.81S11.43,21.47,11.43,19v-.93h2.25v1.08c0,1.08.48,1.47,1.24,1.47s1.24-.39,1.24-1.47c0-3.12-4.66-3.71-4.66-8C11.49,8.73,12.69,7.34,15,7.34Z"/><path class="cls-2" d="M19.71,11.15c0-2.43,1.28-3.81,3.62-3.81s3.62,1.39,3.62,3.81V19c0,2.43-1.28,3.81-3.62,3.81S19.71,21.47,19.71,19Zm2.38,8c0,1.08.48,1.5,1.23,1.5s1.24-.41,1.24-1.5V11c0-1.08-.48-1.5-1.24-1.5s-1.23.41-1.23,1.5Z"/><path class="cls-2" d="M28.48,7.51h2.38v13h3.92v2.17H28.48Z"/><path class="cls-2" d="M35.83,7.51h2.38V22.68H35.83Z"/><path class="cls-2" d="M46.86,17v2c0,2.43-1.21,3.81-3.55,3.81S39.75,21.47,39.75,19V11.15c0-2.43,1.21-3.81,3.55-3.81s3.55,1.39,3.55,3.81v1.47H44.6V11c0-1.08-.48-1.5-1.24-1.5s-1.23.41-1.23,1.5v8.19c0,1.08.48,1.47,1.23,1.47s1.24-.39,1.24-1.47V17Z"/><path class="cls-2" d="M48.31,7.51h2.38V22.68H48.31Z"/><path class="cls-2" d="M51.73,7.51H59.1V9.68H56.61v13H54.23v-13H51.73Z"/><path class="cls-2" d="M67,22.68H64.63l-.41-2.75H61.29l-.41,2.75H58.69L61.12,7.51h3.49Zm-5.44-4.81h2.3L62.74,10.2Z"/><path class="cls-3" d="M70.8,7.51h7.37V9.68H75.68v13H73.29v-13H70.8Z"/><path class="cls-3" d="M81.49,7.51v11.7c0,1.08.48,1.47,1.24,1.47S84,20.3,84,19.22V7.51h2.25V19.06c0,2.43-1.21,3.81-3.55,3.81s-3.55-1.39-3.55-3.81V7.51Z"/><path class="cls-4" d="M98.91,22.68H96.5l-.41-2.75H93.17l-.41,2.75H90.57L93,7.51h3.49Zm-5.44-4.81h2.3L94.62,10.2Z"/><path class="cls-4" d="M100,7.51h3.77c2.38,0,3.55,1.32,3.55,3.75v7.67c0,2.43-1.17,3.75-3.55,3.75H100Zm2.38,2.17V20.52h1.34c.76,0,1.21-.39,1.21-1.47V11.15c0-1.08-.46-1.47-1.21-1.47Z"/><path class="cls-4" d="M111.24,13.91h3.27v2.17h-3.27v4.44h4.12v2.17h-6.5V7.51h6.5V9.68h-4.12Z"/><path class="cls-4" d="M116.83,7.51h2.38v13h3.92v2.17h-6.31Z"/><path class="cls-4" d="M131.89,22.68h-2.41l-.41-2.75h-2.93l-.41,2.75h-2.19L126,7.51h3.49Zm-5.44-4.81h2.3L127.6,10.2Z"/><path class="cls-4" d="M135.12,11.7v11H133V7.51h3l2.45,9.08V7.51h2.12V22.68h-2.45Z"/><path class="cls-4" d="M141.55,7.51h7.37V9.68h-2.49v13H144v-13h-2.49Z"/><path class="cls-4" d="M149.77,11.15c0-2.43,1.28-3.81,3.62-3.81S157,8.73,157,11.15V19c0,2.43-1.28,3.81-3.62,3.81s-3.62-1.39-3.62-3.81Zm2.38,8c0,1.08.48,1.5,1.23,1.5s1.24-.41,1.24-1.5V11c0-1.08-.48-1.5-1.24-1.5s-1.23.41-1.23,1.5Z"/><path class="cls-2" d="M158.85,19.32l-.3-5.48V7.51h2.38v6.33l-.3,5.48Zm2,1.06v2.3h-2.3v-2.3Z"/><path class="cls-5" d="M127.18,82.84H43a4.22,4.22,0,0,1-4.21-4.21V32.32A4.22,4.22,0,0,1,43,28.11h84.21a4.22,4.22,0,0,1,4.21,4.21V78.63A4.22,4.22,0,0,1,127.18,82.84Z"/><path class="cls-6" d="M116.66,66a14.09,14.09,0,0,0-11.79,6.11,15.7,15.7,0,0,0-7.16-1.89A14.73,14.73,0,0,0,83.19,82.84h44a4.28,4.28,0,0,0,4.21-3.58A15,15,0,0,0,116.66,66Z"/><path class="cls-7" d="M118.76,78.63H51.4A8.45,8.45,0,0,0,43,70.21V40.74a8.45,8.45,0,0,0,8.42-8.42h67.37a8.45,8.45,0,0,0,8.42,8.42V70.21A8.45,8.45,0,0,0,118.76,78.63Z"/><path class="cls-5" d="M116.66,66a14.09,14.09,0,0,0-11.79,6.11,15.7,15.7,0,0,0-7.16-1.89,14.46,14.46,0,0,0-13.26,8.42h34.31A8.4,8.4,0,0,1,127,70.21,15.22,15.22,0,0,0,116.66,66Z"/><ellipse class="cls-5" cx="85.08" cy="55.48" rx="16.84" ry="18.95"/><circle class="cls-5" cx="59.82" cy="55.48" r="4.21"/><circle class="cls-5" cx="110.34" cy="55.48" r="4.21"/><path class="cls-8" d="M87.19,53.37H83a2.11,2.11,0,0,1,0-4.21h6.32a2.11,2.11,0,1,0,0-4.21H87.19A2.11,2.11,0,1,0,83,45a6.32,6.32,0,0,0,0,12.63h4.21a2.11,2.11,0,0,1,0,4.21H80.87a2.11,2.11,0,0,0,0,4.21H83a2.11,2.11,0,0,0,4.21,0,6.32,6.32,0,1,0,0-12.63Z"/><circle class="cls-9" cx="93.5" cy="84.95" r="14.74"/><circle class="cls-10" cx="112.45" cy="80.74" r="14.74"/><path class="cls-11" d="M112.45,66a14.74,14.74,0,1,0,14.74,14.74A14.65,14.65,0,0,0,112.45,66Zm0,25.26A10.53,10.53,0,1,1,123,80.74,10.42,10.42,0,0,1,112.45,91.26Z"/><path class="cls-10" d="M112.45,95.26h0a14.47,14.47,0,0,0,14.74-14.53H127a2.24,2.24,0,0,0-2.11,1.89,12.73,12.73,0,0,1-4,7.58,11.93,11.93,0,0,1-6.53,3.16A1.89,1.89,0,0,0,112.45,95.26Z"/><path class="cls-12" d="M112.45,66.21h0A14.47,14.47,0,0,0,97.71,80.74h.21A2.24,2.24,0,0,0,100,78.84a12.73,12.73,0,0,1,4-7.58,11.93,11.93,0,0,1,6.53-3.16A1.89,1.89,0,0,0,112.45,66.21Z"/><path class="cls-13" d="M103.4,82.21a10.42,10.42,0,0,1,10.53-10.53,9.93,9.93,0,0,1,6.74,2.53,10.49,10.49,0,0,0-18.74,6.53,10.09,10.09,0,0,0,3.79,8A9.87,9.87,0,0,1,103.4,82.21Z"/><path class="cls-11" d="M118.76,87.27a.77.77,0,0,1-.63-.21,1,1,0,0,1,0-1.47A7,7,0,0,0,120,80.74a1.05,1.05,0,0,1,2.11,0,9.72,9.72,0,0,1-2.32,6.32A2.29,2.29,0,0,1,118.76,87.27Z"/><path class="cls-13" d="M112.45,87.05a2,2,0,0,1-2.11-2.11V76.53a2.11,2.11,0,1,1,4.21,0v8.42A2,2,0,0,1,112.45,87.05Z"/><path class="cls-13" d="M120.24,93.16a17.11,17.11,0,0,0-10.1-11.37,17.6,17.6,0,0,0-8-11.58,15.22,15.22,0,0,0-4.21,10.32,14.65,14.65,0,0,0,14.74,14.74A12.21,12.21,0,0,0,120.24,93.16Z"/><path class="cls-14" d="M105.71,88.74A11.07,11.07,0,0,1,103.18,82a10.19,10.19,0,0,1,3.37-7.58,9.16,9.16,0,0,0-1.26-1.47,10.31,10.31,0,0,0-3.37,7.79A10.09,10.09,0,0,0,105.71,88.74Z"/><path class="cls-14" d="M110.34,82v2.95a2.11,2.11,0,1,0,4.21,0v-.42A17.21,17.21,0,0,0,110.34,82Z"/><path class="cls-10" d="M120.24,93.16a13.45,13.45,0,0,0-1.68-4,10.19,10.19,0,0,1-6.11,2.11,10.42,10.42,0,0,1-10.53-10.53,10.31,10.31,0,0,1,3.37-7.79,12.84,12.84,0,0,0-3.37-2.53,15.22,15.22,0,0,0-4.21,10.32,14.65,14.65,0,0,0,14.74,14.74A14.12,14.12,0,0,0,120.24,93.16Z"/><path class="cls-13" d="M119.61,91.26a14.55,14.55,0,0,1-5.26,2.11,2.24,2.24,0,0,0-1.89,2.11h0a14.12,14.12,0,0,0,7.79-2.32Z"/><path class="cls-11" d="M101.92,70.42a15.22,15.22,0,0,0-4.21,10.32h.21A2.24,2.24,0,0,0,100,78.84a13.1,13.1,0,0,1,3.79-7.37A8.53,8.53,0,0,1,101.92,70.42Z"/><circle class="cls-10" cx="93.5" cy="84.95" r="14.74"/><path class="cls-13" d="M91.4,95.48A14.59,14.59,0,0,0,92,99.69H93.5a14.69,14.69,0,0,0,14.1-18.95h-1.47A14.65,14.65,0,0,0,91.4,95.48Z"/><path class="cls-11" d="M93.5,70.21a14.74,14.74,0,1,0,14.74,14.74A14.65,14.65,0,0,0,93.5,70.21Zm0,25.26A10.53,10.53,0,1,1,104,84.95,10.42,10.42,0,0,1,93.5,95.48Z"/><path class="cls-10" d="M93.5,99.48h0a14.47,14.47,0,0,0,14.74-14.53H108a2.24,2.24,0,0,0-2.11,1.89,12.73,12.73,0,0,1-4,7.58,11.93,11.93,0,0,1-6.53,3.16A1.89,1.89,0,0,0,93.5,99.48Z"/><path class="cls-12" d="M93.5,70.42h0A14.47,14.47,0,0,0,78.76,84.95H79a2.24,2.24,0,0,0,2.11-1.89,12.73,12.73,0,0,1,4-7.58,11.93,11.93,0,0,1,6.53-3.16A1.89,1.89,0,0,0,93.5,70.42Z"/><path class="cls-13" d="M84.45,86.42A10.42,10.42,0,0,1,95,75.9a9.93,9.93,0,0,1,6.74,2.53A10.49,10.49,0,0,0,83,84.95a10.09,10.09,0,0,0,3.79,8A9.87,9.87,0,0,1,84.45,86.42Z"/><path class="cls-11" d="M99.82,91.48a.77.77,0,0,1-.63-.21,1,1,0,0,1,0-1.47,7,7,0,0,0,1.89-4.84,1.05,1.05,0,1,1,2.11,0,9.72,9.72,0,0,1-2.32,6.32A2.29,2.29,0,0,1,99.82,91.48Z"/><path class="cls-13" d="M93.5,91.26a2,2,0,0,1-2.11-2.11V80.74a2.11,2.11,0,0,1,4.21,0v8.42A2,2,0,0,1,93.5,91.26Z"/><path class="cls-10" d="M103.18,80.95a12.31,12.31,0,0,1,.84,4A10.42,10.42,0,0,1,93.5,95.48a7.16,7.16,0,0,1-2.11-.21v.21A14.59,14.59,0,0,0,92,99.69H93.5a14.69,14.69,0,0,0,14.1-18.95h-1.47A13.9,13.9,0,0,0,103.18,80.95Z"/><circle class="cls-10" cx="104.03" cy="97.58" r="14.74"/><path class="cls-11" d="M104,82.84a14.74,14.74,0,1,0,14.74,14.74A14.65,14.65,0,0,0,104,82.84Zm0,25.26a10.53,10.53,0,1,1,10.53-10.53A10.42,10.42,0,0,1,104,108.11Z"/><path class="cls-10" d="M104,112.11h0a14.47,14.47,0,0,0,14.74-14.53h-.21a2.24,2.24,0,0,0-2.11,1.89,12.73,12.73,0,0,1-4,7.58,11.93,11.93,0,0,1-6.53,3.16A1.89,1.89,0,0,0,104,112.11Z"/><path class="cls-12" d="M104,83.05h0A14.47,14.47,0,0,0,89.29,97.58h.21a2.24,2.24,0,0,0,2.11-1.89,12.73,12.73,0,0,1,4-7.58,11.93,11.93,0,0,1,6.53-3.16A1.89,1.89,0,0,0,104,83.05Z"/><path class="cls-13" d="M95,99.05A10.42,10.42,0,0,1,105.5,88.53a9.93,9.93,0,0,1,6.74,2.53A10.49,10.49,0,0,0,93.5,97.58a10.09,10.09,0,0,0,3.79,8A9.87,9.87,0,0,1,95,99.05Z"/><path class="cls-11" d="M110.34,104.11a.77.77,0,0,1-.63-.21,1,1,0,0,1,0-1.47,7,7,0,0,0,1.89-4.84,1.05,1.05,0,1,1,2.11,0,9.72,9.72,0,0,1-2.32,6.32A2.29,2.29,0,0,1,110.34,104.11Z"/><path class="cls-13" d="M104,103.9a2,2,0,0,1-2.11-2.11V93.37a2.11,2.11,0,1,1,4.21,0v8.42A2,2,0,0,1,104,103.9Z"/></svg>