<svg id="Layer_1" data-name="Layer 1" xmlns="http://www.w3.org/2000/svg" viewBox="0 0 30 30"><defs><style>.cls-1{fill:#ffa91f;}.cls-2{fill:#e67500;}.cls-3{fill:#00b7be;}.cls-4{fill:#004eb1;}.cls-5{fill:#003d8d;}.cls-6{fill:#00f8fe;}.cls-7{fill:#ffc473;}.cls-8{fill:#ffaa20;}.cls-9{fill:#ffdba9;}.cls-10{fill:#ff4f19;}.cls-11{fill:#ee2600;}.cls-12{fill:#fff;}.cls-13{fill:#e1e1e3;}.cls-14{fill:#c8c6cc;}</style></defs><title>10</title><circle class="cls-1" cx="15" cy="15" r="15"/><path class="cls-2" d="M30,15a15,15,0,0,0-1.2-5.89L26.85,7.16h-7L17,4H13V7.16H3.15v15.7l5.93,5.93A15,15,0,0,0,30,15Z"/><rect class="cls-3" x="9.32" y="11.39" width="3.72" height="9.27"/><path class="cls-4" d="M3.15,7.16v15.7h23.7V7.16Zm14.45,2a.69.69,0,0,1-.69.69H13.09a.69.69,0,0,1-.69-.69h0a.69.69,0,0,1,.69-.69h3.82a.69.69,0,0,1,.69.69Z"/><path class="cls-5" d="M15,7.16V8.49h2a.69.69,0,0,1-.06,1.38H15v13H26.85V7.16Z"/><rect class="cls-6" x="5.6" y="11.39" width="7.44" height="9.27"/><rect class="cls-7" x="8.47" y="17.38" width="1.7" height="2.14"/><rect class="cls-8" x="9.32" y="17.38" width="0.85" height="2.14"/><path class="cls-9" d="M11.51,14.55a2.25,2.25,0,0,0-2.18-2.1,2.25,2.25,0,0,0-2.18,2.1.49.49,0,0,0-.39.53l0,.39a.49.49,0,0,0,.53.43h0a2.56,2.56,0,0,0,2,1.86,2.56,2.56,0,0,0,2-1.86h0a.49.49,0,0,0,.53-.43l0-.39A.49.49,0,0,0,11.51,14.55Z"/><path class="cls-7" d="M11.9,15.08l0,.39a.49.49,0,0,1-.53.43h0a2.56,2.56,0,0,1-2,1.86v-5.3A2.25,2.25,0,0,1,11.5,14.5v.05A.49.49,0,0,1,11.9,15.08Z"/><path class="cls-10" d="M12.45,19.67v1H6.19v-1a1.45,1.45,0,0,1,1.13-1.41H8.47l.85,1.29.85-1.29h1.15A1.45,1.45,0,0,1,12.45,19.67Z"/><path class="cls-11" d="M11.32,18.25H10.17l-.85,1.29v1.14h3.13v-1A1.45,1.45,0,0,0,11.32,18.25Z"/><polygon class="cls-12" points="8.47 18.22 7.8 18.66 8.8 20.22 9.32 19.51 8.47 18.22"/><polygon class="cls-13" points="10.17 18.22 10.84 18.66 9.84 20.22 9.32 19.51 10.17 18.22"/><rect class="cls-3" x="15" y="12.78" width="7.1" height="1.22"/><rect class="cls-14" x="15" y="15.57" width="9.4" height="1.22"/><rect class="cls-14" x="15" y="18.05" width="9.4" height="1.22"/><rect class="cls-12" x="13.03" y="3.98" width="3.95" height="5.2"/><rect class="cls-14" x="15" y="3.98" width="1.97" height="5.2"/></svg>