<svg id="Layer_1" data-name="Layer 1" xmlns="http://www.w3.org/2000/svg" xmlns:xlink="http://www.w3.org/1999/xlink" viewBox="0 0 240 240"><defs><style>.cls-1{fill:#dde1e9;}.cls-2{fill:url(#linear-gradient);}.cls-3{fill:url(#linear-gradient-2);}.cls-4{fill:url(#linear-gradient-3);}.cls-5{fill:#92c740;}</style><linearGradient id="linear-gradient" x1="94.54" y1="119.17" x2="126.58" y2="119.17" gradientUnits="userSpaceOnUse"><stop offset="0" stop-color="#b91e8a"/><stop offset="0.3" stop-color="#923293"/><stop offset="0.58" stop-color="#754199"/><stop offset="0.82" stop-color="#634a9d"/><stop offset="0.99" stop-color="#5d4d9e"/></linearGradient><linearGradient id="linear-gradient-2" x1="128.45" y1="96.99" x2="128.45" y2="142.93" gradientUnits="userSpaceOnUse"><stop offset="0" stop-color="#584fa0"/><stop offset="0.17" stop-color="#4465ad"/><stop offset="0.53" stop-color="#1f8cc6"/><stop offset="0.82" stop-color="#08a4d4"/><stop offset="0.99" stop-color="#00adda"/></linearGradient><linearGradient id="linear-gradient-3" x1="94.62" y1="128.37" x2="145.33" y2="128.37" gradientUnits="userSpaceOnUse"><stop offset="0" stop-color="#95c83e"/><stop offset="0.99" stop-color="#00b4dd"/></linearGradient></defs><title>101</title><path class="cls-1" d="M126.46,68a52.44,52.44,0,0,1,46,51.13l34,18.45L240,119.13A120,120,0,0,0,126.84.19l18.3,33.35Z"/><path class="cls-1" d="M68,113.54a52.44,52.44,0,0,1,51.13-46l18.45-34L119.13,0A120,120,0,0,0,.19,113.16l33.35-18.3Z"/><path class="cls-1" d="M239.81,126.84l-33.35,18.3L172,126.46a52.44,52.44,0,0,1-51.13,46l-18.45,34L120.87,240A120,120,0,0,0,239.81,126.84Z"/><path class="cls-1" d="M113.54,172a52.44,52.44,0,0,1-46-51.13l-34-18.45L0,120.87A120,120,0,0,0,113.16,239.81l-18.3-33.35Z"/><path class="cls-2" d="M94.91,134.15s-1.65,4.17,2,6.52c0,0,4.09,2.36,6.92-2.12l14.93-22.64,7.78-12.5s-1.89-4.87-5.42-6.21c0,0-6-1.41-8.33,4.17Z"/><path class="cls-3" d="M111.51,103.78,123.13,123l10.69,18.31s5.5,3.69,9.27,0c0,0,4.09-2.74,1.34-8.4L124.64,100s-2.3-3.53-5.6-3a6.38,6.38,0,0,0-5.26,2.66Z"/><path class="cls-4" d="M94.83,115.17a3.85,3.85,0,0,0,1.36,4.36l37.63,21.76s7,4.88,10.83-1.81c0,0,2.28-3-1.49-8.69l-41-15.92S96.89,112.1,94.83,115.17Z"/><path class="cls-5" d="M95,115.17a3.85,3.85,0,0,0,1.36,4.36l37.63,21.76s7,4.88,10.83-1.81c0,0,2.28-3-1.49-8.69l-41-15.92S97,112.1,95,115.17Z"/></svg>