<svg id="Layer_1" data-name="Layer 1" xmlns="http://www.w3.org/2000/svg" viewBox="0 0 30 30"><defs><style>.cls-1{fill:#efc84a;}.cls-2{opacity:0.1;isolation:isolate;}.cls-3{fill:#ebf0f3;}.cls-4{fill:#2d93ba;}.cls-5{fill:#27a2db;}.cls-6{fill:#fcd462;}.cls-7{fill:#e56353;}.cls-8{fill:#fff;}.cls-9{fill:#64798a;}</style></defs><title>11</title><circle class="cls-1" cx="15" cy="15" r="15"/><path class="cls-2" d="M30,15a15.12,15.12,0,0,0-.12-1.9L23.43,6.66l-.08-.08a.68.68,0,0,0-.45-.17H7.1a.69.69,0,0,0-.69.69V17.7a.67.67,0,0,0,.14.42l0,0,.09.09h0l.92.92H6.41v4.43l6.22,6.22A15,15,0,0,0,30,15Z"/><rect class="cls-3" x="6.41" y="19.16" width="17.19" height="4.43"/><path class="cls-4" d="M22.9,7H7.1a.69.69,0,0,0-.69.69v10a.69.69,0,0,0,.69.69H22.9a.69.69,0,0,0,.69-.69v-10A.69.69,0,0,0,22.9,7Z"/><path class="cls-5" d="M22.9,6.41H7.1a.69.69,0,0,0-.69.69v10a.69.69,0,0,0,.69.69H22.9a.69.69,0,0,0,.69-.69V7.1A.69.69,0,0,0,22.9,6.41Z"/><path class="cls-6" d="M10.06,7.79H7.79A.23.23,0,0,0,7.57,8v2.26a.23.23,0,0,0,.23.23h2.26a.23.23,0,0,0,.23-.23V8A.23.23,0,0,0,10.06,7.79Z"/><circle class="cls-7" cx="21.7" cy="16.23" r="0.89"/><circle class="cls-6" cx="20.55" cy="16.23" r="0.89"/><rect class="cls-8" x="7.57" y="12.08" width="4.48" height="0.55"/><rect class="cls-8" x="7.57" y="15.68" width="1.66" height="0.55"/><rect class="cls-8" x="10.56" y="15.68" width="1.66" height="0.55"/><rect class="cls-8" x="13.55" y="15.68" width="1.66" height="0.55"/><rect class="cls-8" x="16.55" y="15.68" width="1.66" height="0.55"/><rect class="cls-8" x="7.57" y="13.6" width="6.73" height="0.55"/><polygon class="cls-9" points="9.87 20.84 9.64 20.43 8.7 20.97 8.7 19.89 8.23 19.89 8.23 20.97 7.29 20.43 7.06 20.84 8 21.38 7.06 21.92 7.29 22.32 8.23 21.78 8.23 22.86 8.7 22.86 8.7 21.78 9.64 22.32 9.87 21.92 8.94 21.38 9.87 20.84"/><polygon class="cls-9" points="13.52 20.84 13.29 20.43 12.35 20.97 12.35 19.89 11.88 19.89 11.88 20.97 10.95 20.43 10.71 20.84 11.65 21.38 10.71 21.92 10.95 22.32 11.88 21.78 11.88 22.86 12.35 22.86 12.35 21.78 13.29 22.32 13.52 21.92 12.59 21.38 13.52 20.84"/><polygon class="cls-9" points="17.18 20.84 16.94 20.43 16 20.97 16 19.89 15.53 19.89 15.53 20.97 14.6 20.43 14.36 20.84 15.3 21.38 14.36 21.92 14.6 22.32 15.53 21.78 15.53 22.86 16 22.86 16 21.78 16.94 22.32 17.18 21.92 16.24 21.38 17.18 20.84"/><polygon class="cls-9" points="20.83 20.84 20.59 20.43 19.65 20.97 19.65 19.89 19.18 19.89 19.18 20.97 18.25 20.43 18.01 20.84 18.95 21.38 18.01 21.92 18.25 22.32 19.18 21.78 19.18 22.86 19.65 22.86 19.65 21.78 20.59 22.32 20.83 21.92 19.89 21.38 20.83 20.84"/></svg>