<svg id="Layer_1" data-name="Layer 1" xmlns="http://www.w3.org/2000/svg" xmlns:xlink="http://www.w3.org/1999/xlink" viewBox="0 0 18.54 20"><defs><style>.cls-1{fill:none;}.cls-2{clip-path:url(#clip-path);}.cls-3{fill:#3c4380;}</style><clipPath id="clip-path"><rect class="cls-1" width="18.54" height="20"/></clipPath></defs><title>111</title><g class="cls-2"><path class="cls-3" d="M17.16,2.41H15.64v-1A1.38,1.38,0,0,0,14.26,0h-.06a1.38,1.38,0,0,0-1.38,1.38v1H5.71v-1A1.38,1.38,0,0,0,4.33,0H4.28A1.38,1.38,0,0,0,2.9,1.38v1H1.38A1.38,1.38,0,0,0,0,3.79V18.58A1.38,1.38,0,0,0,1.38,20H17.16a1.38,1.38,0,0,0,1.38-1.38V3.79a1.38,1.38,0,0,0-1.38-1.38Zm-.94,15.37H2.32V6.58h13.9Zm0,0"/></g><path class="cls-3" d="M4.21,11.65h2.4a.22.22,0,0,0,.22-.22V9a.22.22,0,0,0-.22-.22H4.21A.22.22,0,0,0,4,9v2.4a.22.22,0,0,0,.22.22Zm0,0"/><path class="cls-3" d="M8.07,11.65h2.4a.22.22,0,0,0,.22-.22V9a.22.22,0,0,0-.22-.22H8.07A.22.22,0,0,0,7.85,9v2.4a.22.22,0,0,0,.22.22Zm0,0"/><path class="cls-3" d="M11.93,11.65h2.4a.22.22,0,0,0,.22-.22V9a.22.22,0,0,0-.22-.22h-2.4a.22.22,0,0,0-.22.22v2.4a.22.22,0,0,0,.22.22Zm0,0"/><path class="cls-3" d="M4.21,15.51h2.4a.22.22,0,0,0,.22-.22v-2.4a.22.22,0,0,0-.22-.22H4.21a.22.22,0,0,0-.22.22v2.4a.22.22,0,0,0,.22.22Zm0,0"/><path class="cls-3" d="M8.07,15.51h2.4a.22.22,0,0,0,.22-.22v-2.4a.22.22,0,0,0-.22-.22H8.07a.22.22,0,0,0-.22.22v2.4a.22.22,0,0,0,.22.22Zm0,0"/><path class="cls-3" d="M11.93,15.51h2.4a.22.22,0,0,0,.22-.22v-2.4a.22.22,0,0,0-.22-.22h-2.4a.22.22,0,0,0-.22.22v2.4a.22.22,0,0,0,.22.22Zm0,0"/></svg>