<svg id="Layer_1" data-name="Layer 1" xmlns="http://www.w3.org/2000/svg" viewBox="0 0 160 38.82"><defs><style>.cls-1{fill:#00c7e8;}.cls-2{fill:#fff;}.cls-3{fill:#13295d;}.cls-4{fill:#fe9923;}.cls-5{fill:#fedb41;}.cls-6{fill:#fc3;}</style></defs><title>113</title><rect class="cls-1" width="160" height="38.82" rx="10" ry="10"/><path class="cls-2" d="M46.33,18.54v1.37H43v4.86h4.1v1.39H41.47V12.49h5.62v1.39H43v4.67Z"/><path class="cls-2" d="M49.65,26.16H48.28V12.49h1.93l3.16,9.88V12.49h1.35V26.16H53.14l-3.5-11.05Z"/><path class="cls-2" d="M57.24,12.49l2.23,11.89,2.21-11.89h1.41L60.52,26.16H58.28L55.7,12.49Z"/><path class="cls-2" d="M65.58,12.49V26.16H64.06V12.49Z"/><path class="cls-2" d="M68.49,23.41,68,26.16H66.56l2.62-13.67h2.21L74,26.16H72.47l-.53-2.75Zm.2-1.31h3l-1.54-7.89Z"/><path class="cls-2" d="M78,12.49c2.15,0,3,1.09,3,3.12v1.11c0,1.5-.53,2.44-1.7,2.81,1.25.37,1.72,1.39,1.72,2.85v2.13a3.42,3.42,0,0,0,.27,1.64H79.84a3.57,3.57,0,0,1-.25-1.66V22.35c0-1.54-.72-2-2-2H76.52v5.84H75V12.49Zm-.39,6.44c1.21,0,1.93-.39,1.93-1.87V15.75c0-1.23-.45-1.87-1.58-1.87H76.52v5.06Z"/><path class="cls-3" d="M91.69,15.87v1.78c0,2.19-1.05,3.38-3.2,3.38h-1v5.13H85.32V12.49h3.16C90.63,12.49,91.69,13.68,91.69,15.87Zm-4.22-1.43v4.63h1c.68,0,1.05-.31,1.05-1.29V15.73c0-1-.37-1.29-1.05-1.29Z"/><path class="cls-3" d="M97.08,26.16a4.21,4.21,0,0,1-.19-1.68V22.33c0-1.27-.43-1.74-1.41-1.74h-.74v5.56H92.59V12.49h3.24c2.23,0,3.18,1,3.18,3.14v1.07a2.73,2.73,0,0,1-1.41,2.77C98.68,19.93,99,21,99,22.39V24.5a4,4,0,0,0,.23,1.66ZM94.73,14.44v4.2h.84c.8,0,1.29-.35,1.29-1.45V15.85c0-1-.33-1.41-1.09-1.41Z"/><path class="cls-3" d="M102.39,18.25h2.95v2h-2.95v4h3.71v2h-5.86V12.49h5.86v2h-3.71Z"/><path class="cls-3" d="M110.45,18.54h3v4.33c0,2.19-1.09,3.44-3.2,3.44s-3.2-1.25-3.2-3.44V15.77c0-2.19,1.09-3.44,3.2-3.44s3.2,1.25,3.2,3.44V17.1h-2V15.63c0-1-.43-1.35-1.11-1.35s-1.11.37-1.11,1.35V23c0,1,.43,1.33,1.11,1.33s1.11-.35,1.11-1.33V20.5h-1Z"/><path class="cls-3" d="M116.7,12.49V23c0,1,.43,1.33,1.11,1.33s1.11-.35,1.11-1.33V12.49h2V22.9c0,2.19-1.09,3.44-3.2,3.44s-3.2-1.25-3.2-3.44V12.49Z"/><path class="cls-3" d="M124.14,16.26v9.9h-1.93V12.49h2.69l2.21,8.18V12.49H129V26.16h-2.21Z"/><path class="cls-3" d="M129.74,12.49h6.64v2h-2.25V26.16H132V14.44h-2.25Z"/><path class="cls-3" d="M143.33,26.16h-2.17l-.37-2.48h-2.64l-.37,2.48h-2L138,12.49h3.14Zm-4.9-4.33h2.07l-1-6.91Z"/><path class="cls-4" d="M17.33,23.48v7.7a.73.73,0,0,0,1.32.44l3.76-5L23.56,26,36,8.45l.23-1.37-2,1.12L17.33,22.84Z"/><path class="cls-5" d="M35.46,7,11.88,18.81a.73.73,0,0,0-.06,1.28l5.51,3.39L36.21,7.09h0A.71.71,0,0,0,35.46,7Z"/><path class="cls-6" d="M36.24,7.12l0,0-.14.2L22.42,26.6l8.45,5.2a.73.73,0,0,0,1.1-.49L36.46,7.78A.73.73,0,0,0,36.24,7.12Z"/></svg>