<svg id="Layer_1" data-name="Layer 1" xmlns="http://www.w3.org/2000/svg" viewBox="0 0 150 39"><defs><style>.cls-1{fill:#01cc9b;}.cls-2{fill:#f8b64c;}.cls-3{fill:#84dbff;}.cls-4{fill:#334a5e;}.cls-5{fill:#fff;}.cls-6{fill:#40596b;}.cls-7{fill:#ff7058;}.cls-8{fill:#f4aa40;}.cls-9{fill:#f2a138;}.cls-10{fill:#ffd15c;}.cls-11{fill:#f2f2f2;}.cls-12{fill:#fcc854;}</style></defs><title>114</title><rect class="cls-1" y="-0.02" width="150" height="38.82" rx="10" ry="10"/><path class="cls-2" d="M32.7,17.78s-6.88,1.59-5.44,4.84c0,0,1.44,2.49,4.84-.76,0,0,1.06-2,2.12-3.78h0L32.7,16.42Z"/><path class="cls-3" d="M54.77,4H34.06a1.44,1.44,0,0,0-1.44,1.44V18.31a1.44,1.44,0,0,0,1.44,1.44H54.62A1.73,1.73,0,0,0,56.13,18V5.46A1.33,1.33,0,0,0,54.77,4Z"/><rect class="cls-4" x="32.7" y="7.05" width="23.51" height="2.72"/><rect class="cls-5" x="35.42" y="12.49" width="4.91" height="0.83"/><rect class="cls-6" x="35.42" y="15.89" width="3.17" height="0.83"/><rect class="cls-7" x="40.33" y="15.89" width="3.17" height="0.83"/><rect class="cls-6" x="45.32" y="15.89" width="3.17" height="0.83"/><rect class="cls-7" x="50.24" y="15.89" width="3.17" height="0.83"/><path class="cls-8" d="M39.35,19.29a3.75,3.75,0,0,1,2.27,2.57,1.28,1.28,0,0,1-1.06,1.59H40s.76,2-.91,2.12a4.07,4.07,0,0,1-.68,1.29,1.19,1.19,0,0,1-1.66,0,3.7,3.7,0,0,1-.91-1.66l.76-4.31Z"/><path class="cls-9" d="M36.4,24.13a9.32,9.32,0,0,0,1.74,1.66c.38.15.83.15.91-.15a3.57,3.57,0,0,1-2.19-2.27Z"/><path class="cls-9" d="M38.14,21.56A2.38,2.38,0,0,0,40,23.45s-.3.53-1.13.23a2.31,2.31,0,0,1-1-.76,5.76,5.76,0,0,1-.53-1C37.08,21.18,38.14,21.56,38.14,21.56Z"/><path class="cls-10" d="M40.71,17.18a36.46,36.46,0,0,1-2.57,4.54A15.25,15.25,0,0,0,35,27.46a15.56,15.56,0,0,1-1.81,5.59c-.15.23-.3.53-.45.76H20.53v-.76a31.79,31.79,0,0,1,.38-4.69,88.11,88.11,0,0,0,.53-8.84s.08-1.21,2.42-2.12l6.65-3.7a4.28,4.28,0,0,1,2.19-.53v4.61a14.34,14.34,0,0,0-4.54,2,2,2,0,0,0,2.19,3.4.07.07,0,0,0,.08-.08,6.09,6.09,0,0,0,2.19-2.19c.83-1.51,2.42-4.31,3.25-4.91,0,0,1.81-2.72,3.78-1.81A2.29,2.29,0,0,1,40.71,17.18Z"/><path class="cls-11" d="M38.82,18.54c-.6.15-2-.83-2.12-1.44s1.59-2.34,1.59-2.34l2.12,1.44S39.5,18.39,38.82,18.54Z"/><path class="cls-12" d="M33.15,33.13c-.15.23-.3.53-.45.76H20.53v-.76Z"/><rect class="cls-11" x="20.3" y="33.88" width="12.7" height="1.29"/><rect class="cls-6" x="19.92" y="35.17" width="13.46" height="3.86"/><circle class="cls-11" cx="31.41" cy="37.13" r="0.91"/><path class="cls-5" d="M76.86,14v3.05c0,3.75-1.81,5.8-5.5,5.8H69.62v8.81H65.93V8.21h5.43C75.05,8.21,76.86,10.26,76.86,14Zm-7.24-2.45v7.94h1.74c1.17,0,1.81-.54,1.81-2.21V13.78c0-1.68-.64-2.21-1.81-2.21Z"/><path class="cls-5" d="M90.23,31.68H86.51l-.64-4.26H81.35l-.64,4.26H77.33L81.08,8.21h5.4Zm-8.41-7.44h3.55L83.6,12.37Z"/><path class="cls-5" d="M97.47,18.6h5.16V26c0,3.75-1.88,5.9-5.5,5.9s-5.5-2.15-5.5-5.9V13.84c0-3.75,1.88-5.9,5.5-5.9s5.5,2.15,5.5,5.9v2.28H99.15V13.61c0-1.68-.74-2.31-1.91-2.31s-1.91.64-1.91,2.31V26.28c0,1.68.74,2.28,1.91,2.28s1.91-.6,1.91-2.28V22H97.47Z"/><path class="cls-5" d="M116.91,31.68h-3.72l-.64-4.26H108l-.64,4.26H104l3.75-23.46h5.4Zm-8.41-7.44H112l-1.78-11.87Z"/><path class="cls-5" d="M126.32,31.68a7.21,7.21,0,0,1-.34-2.88V25.11c0-2.18-.74-3-2.41-3H122.3v9.55h-3.69V8.21h5.56c3.82,0,5.46,1.78,5.46,5.4v1.84c0,2.41-.77,4-2.41,4.76,1.84.77,2.45,2.55,2.45,5v3.62a6.91,6.91,0,0,0,.4,2.85Zm-4-20.11v7.21h1.44c1.37,0,2.21-.6,2.21-2.48V14c0-1.68-.57-2.41-1.88-2.41Z"/></svg>