<svg id="Layer_1" data-name="Layer 1" xmlns="http://www.w3.org/2000/svg" viewBox="0 0 30 30"><defs><style>.cls-1{fill:#ffe670;}.cls-2{fill:#fec000;}.cls-3{fill:#fff;}.cls-4{fill:#9cfdff;}.cls-5{fill:#08f;}.cls-6{fill:#004eb1;}.cls-7{fill:#00e8f2;}.cls-8{fill:#00b7be;}.cls-9{fill:#e02424;}.cls-10{fill:#901;}</style></defs><title>12</title><circle class="cls-1" cx="15" cy="15" r="15"/><path class="cls-2" d="M30,15.91l-4.55-4.55L15,3.45,4.58,11.36,6,13.25,7.53,14.8v6.95H5.59v2.2l5.55,5.55A15,15,0,0,0,30,15.91Z"/><polygon class="cls-3" points="22.46 21.96 7.54 21.96 7.54 11.9 15 6.24 22.46 11.9 22.46 21.96"/><polygon class="cls-4" points="22.46 11.9 22.46 21.96 15 21.96 15 6.24 22.46 11.9"/><rect class="cls-5" x="12.71" y="15.01" width="4.58" height="6.96"/><rect class="cls-6" x="15" y="15.01" width="2.29" height="6.96"/><rect class="cls-7" x="5.59" y="21.75" width="18.83" height="2.2"/><rect class="cls-8" x="15" y="21.75" width="9.41" height="2.2"/><polygon class="cls-9" points="23.99 13.25 15 6.43 6.01 13.25 4.58 11.36 15 3.46 25.42 11.36 23.99 13.25"/><polygon class="cls-10" points="25.42 11.36 23.99 13.25 22.46 12.1 15 6.43 15 3.46 25.42 11.36"/></svg>