<svg id="Layer_1" data-name="Layer 1" xmlns="http://www.w3.org/2000/svg" viewBox="0 0 30 30"><defs><style>.cls-1{fill:#efc84a;}.cls-2{opacity:0.1;isolation:isolate;}.cls-3{fill:#31978c;}.cls-4{fill:#3ea69b;}.cls-5{fill:#44c4a1;}.cls-6{fill:#fff;}.cls-7{fill:#fcd462;}.cls-8{fill:#ebf0f3;}.cls-9{fill:#64798a;}.cls-10{fill:#e56353;}.cls-11{fill:#d5d6db;}</style></defs><title>13</title><circle class="cls-1" cx="15" cy="15" r="15"/><path class="cls-2" d="M30,15a15.1,15.1,0,0,0-.19-2.38L23.59,6.41H9.5v9l-3.09,1,2.24,7.24,6.4,6.4A15,15,0,0,0,30,15Z" transform="translate(0 0)"/><rect class="cls-3" x="9.5" y="19.11" width="14.1" height="1.39"/><rect class="cls-4" x="9.5" y="12.65" width="14.1" height="6.7"/><path class="cls-5" d="M22.57,13.16h-12a.51.51,0,0,1-.51.5v4.68a.51.51,0,0,1,.51.5h12a.51.51,0,0,1,.51-.5V13.66A.51.51,0,0,1,22.57,13.16Z" transform="translate(0 0)"/><ellipse class="cls-4" cx="16.55" cy="16" rx="1.53" ry="2.14"/><ellipse class="cls-4" cx="21.77" cy="16" rx="0.42" ry="0.42"/><ellipse class="cls-4" cx="11.32" cy="16" rx="0.42" ry="0.42"/><rect class="cls-3" x="9.5" y="17.55" width="14.1" height="1.39"/><rect class="cls-4" x="9.5" y="11.09" width="14.1" height="6.7"/><path class="cls-5" d="M22.57,11.59h-12a.51.51,0,0,1-.51.5v4.68a.51.51,0,0,1,.51.5h12a.51.51,0,0,1,.51-.5V12.1A.51.51,0,0,1,22.57,11.59Z" transform="translate(0 0)"/><ellipse class="cls-4" cx="16.55" cy="14.44" rx="1.53" ry="2.14"/><ellipse class="cls-4" cx="21.77" cy="14.44" rx="0.42" ry="0.42"/><ellipse class="cls-4" cx="11.32" cy="14.44" rx="0.42" ry="0.42"/><rect class="cls-3" x="9.5" y="15.99" width="14.1" height="1.39"/><rect class="cls-4" x="9.5" y="9.53" width="14.1" height="6.7"/><path class="cls-5" d="M22.57,10h-12a.51.51,0,0,1-.51.5v4.68a.51.51,0,0,1,.51.5h12a.51.51,0,0,1,.51-.5V10.54A.51.51,0,0,1,22.57,10Z" transform="translate(0 0)"/><ellipse class="cls-4" cx="16.55" cy="12.88" rx="1.53" ry="2.14"/><ellipse class="cls-4" cx="21.77" cy="12.88" rx="0.42" ry="0.42"/><ellipse class="cls-4" cx="11.32" cy="12.88" rx="0.42" ry="0.42"/><rect class="cls-3" x="9.5" y="14.43" width="14.1" height="1.39"/><rect class="cls-4" x="9.5" y="7.97" width="14.1" height="6.7"/><path class="cls-5" d="M22.57,8.47h-12A.51.51,0,0,1,10,9v4.68a.51.51,0,0,1,.51.5h12a.51.51,0,0,1,.51-.5V9A.51.51,0,0,1,22.57,8.47Z" transform="translate(0 0)"/><ellipse class="cls-4" cx="16.55" cy="11.32" rx="1.53" ry="2.14"/><ellipse class="cls-4" cx="21.77" cy="11.32" rx="0.42" ry="0.42"/><ellipse class="cls-4" cx="11.32" cy="11.32" rx="0.42" ry="0.42"/><rect class="cls-3" x="9.5" y="12.87" width="14.1" height="1.39"/><rect class="cls-4" x="9.5" y="6.41" width="14.1" height="6.7"/><path class="cls-5" d="M22.57,6.91h-12a.51.51,0,0,1-.51.5V12.1a.51.51,0,0,1,.51.5h12a.51.51,0,0,1,.51-.5V7.41A.51.51,0,0,1,22.57,6.91Z" transform="translate(0 0)"/><ellipse class="cls-4" cx="16.55" cy="9.76" rx="1.53" ry="2.14"/><ellipse class="cls-4" cx="21.77" cy="9.76" rx="0.42" ry="0.42"/><ellipse class="cls-4" cx="11.32" cy="9.76" rx="0.42" ry="0.42"/><rect class="cls-6" x="15.19" y="13.11" width="2.71" height="7.4"/><rect class="cls-7" x="15.4" y="13.11" width="0.15" height="7.4"/><rect class="cls-7" x="17.54" y="13.11" width="0.15" height="7.4"/><rect class="cls-8" x="7.23" y="14.25" width="13.07" height="7.58" transform="translate(-4.72 4.88) rotate(-17.2)"/><rect class="cls-5" x="7.41" y="16.44" width="13.07" height="4.29" transform="translate(-4.87 4.95) rotate(-17.2)"/><rect class="cls-9" x="11.77" y="20.99" width="5.9" height="0.24" transform="translate(-5.59 5.3) rotate(-17.2)"/><rect class="cls-9" x="9.11" y="16.26" width="4.54" height="0.24" transform="translate(-4.33 4.1) rotate(-17.2)"/><rect class="cls-9" x="8.93" y="15.78" width="3.19" height="0.24" transform="translate(-4.23 3.82) rotate(-17.2)"/><polygon class="cls-10" points="8.2 16.08 7.34 16.35 7.14 17.23 7.8 17.84 8.66 17.57 8.86 16.69 8.2 16.08"/><rect class="cls-11" x="14.94" y="14.46" width="0.54" height="0.84" transform="translate(-3.72 5.17) rotate(-17.2)"/><rect class="cls-11" x="15.53" y="14.28" width="0.54" height="0.84" transform="translate(-3.64 5.33) rotate(-17.2)"/><rect class="cls-11" x="16.12" y="14.09" width="0.54" height="0.84" transform="translate(-3.56 5.5) rotate(-17.2)"/><rect class="cls-11" x="16.71" y="13.91" width="0.54" height="0.84" transform="translate(-3.48 5.66) rotate(-17.2)"/><rect class="cls-11" x="17.3" y="13.73" width="0.54" height="0.84" transform="translate(-3.4 5.83) rotate(-17.2)"/><rect class="cls-11" x="17.89" y="13.55" width="0.54" height="0.84" transform="translate(-3.32 5.99) rotate(-17.2)"/><rect class="cls-8" x="7.84" y="18.08" width="7.35" height="0.24" transform="translate(-4.87 4.22) rotate(-17.2)"/><rect class="cls-8" x="8.16" y="19.13" width="7.35" height="0.24" transform="translate(-5.16 4.36) rotate(-17.2)"/><rect class="cls-8" x="16.52" y="18.28" width="3.43" height="0.24" transform="translate(-4.62 6.22) rotate(-17.2)"/><rect class="cls-8" x="16.01" y="16.18" width="3.43" height="1.12" transform="translate(-4.16 5.99) rotate(-17.2)"/></svg>