<svg id="Layer_1" data-name="Layer 1" xmlns="http://www.w3.org/2000/svg" viewBox="0 0 30 30"><defs><style>.cls-1{fill:#ffc61b;}.cls-2{fill:#eaa22f;}.cls-3{fill:#386895;}.cls-4{fill:#273b7a;}.cls-5{fill:#fff;}.cls-6{fill:#ddd;}</style></defs><title>14</title><circle class="cls-1" cx="15" cy="15" r="15"/><path class="cls-2" d="M18.53,29.58A15,15,0,0,0,29.6,18.45L23,12l-.64,1-2.72-2.69L11,16l0,.47L6.89,17.95Z"/><path class="cls-3" d="M7.69,18.33H19a1,1,0,0,0,1-1V11a1,1,0,0,0-1-1H7.69a1,1,0,0,0-1,1v6.28A1,1,0,0,0,7.69,18.33Z"/><path class="cls-4" d="M19,10H13.35v8.33H19a1,1,0,0,0,1-1V11A1,1,0,0,0,19,10Z"/><path class="cls-5" d="M11,20H22.31a1,1,0,0,0,1-1V12.69a1,1,0,0,0-1-1H11a1,1,0,0,0-1,1V19A1,1,0,0,0,11,20Z"/><path class="cls-6" d="M22.31,11.67H16.73V20h5.57a1,1,0,0,0,1-1V12.69A1,1,0,0,0,22.31,11.67Z"/><rect class="cls-4" x="11.67" y="14.8" width="3.33" height="0.4"/><rect class="cls-4" x="11.67" y="16.46" width="5" height="0.4"/><rect class="cls-4" x="11.67" y="18.13" width="10" height="0.4"/><circle class="cls-4" cx="20" cy="15" r="1.67"/></svg>