<svg id="Layer_1" data-name="Layer 1" xmlns="http://www.w3.org/2000/svg" viewBox="0 0 30 30"><defs><style>.cls-1{fill:#ffd15d;}.cls-2{fill:#f9b54c;}.cls-3{fill:#fff;}.cls-4{fill:#e6f3ff;}.cls-5{fill:#cfdbe6;}.cls-6{fill:#26bebe;}.cls-7{fill:#1ea5a1;}.cls-8{fill:#324a5e;}.cls-9{fill:#2b3b4e;}.cls-10{fill:#2c9984;}.cls-11{fill:#90dfaa;}</style></defs><title>15</title><circle class="cls-1" cx="15" cy="15" r="15"/><path class="cls-2" d="M15.08,30A15,15,0,0,0,29.77,17.62L21.67,9.51l-3,2.86-10.25,11Z"/><polygon class="cls-3" points="18.82 6.67 8.42 6.67 8.42 23.33 21.67 23.33 21.67 9.51 18.82 6.67"/><polygon class="cls-4" points="21.67 9.51 18.82 6.67 13.89 6.67 13.89 23.33 21.67 23.33 21.67 9.51"/><polygon class="cls-5" points="18.82 9.51 21.67 9.51 18.82 6.67 18.82 9.51"/><circle class="cls-6" cx="13.89" cy="12.61" r="2.22"/><path class="cls-7" d="M16.11,12.61a2.22,2.22,0,0,0-2.22-2.22v4.44A2.22,2.22,0,0,0,16.11,12.61Z"/><path class="cls-8" d="M9.31,19.61a4.58,4.58,0,1,1,9.16,0H9.31Z"/><path class="cls-9" d="M13.89,15v4.58h4.58A4.58,4.58,0,0,0,13.89,15Z"/><rect class="cls-10" x="14.14" y="16.4" width="10.33" height="5.16"/><rect class="cls-11" x="14.52" y="16.73" width="9.58" height="4.51"/><ellipse class="cls-10" cx="19.31" cy="18.98" rx="1.03" ry="1.55"/></svg>