<svg id="Layer_1" data-name="Layer 1" xmlns="http://www.w3.org/2000/svg" xmlns:xlink="http://www.w3.org/1999/xlink" viewBox="0 0 269.25 35"><defs><style>.cls-1{fill:none;stroke-linecap:round;stroke-linejoin:round;stroke-width:16px;stroke:url(#radial-gradient);}.cls-2{fill:#3e8ede;}.cls-3{fill:#fff;}.cls-4{fill:#ed1e79;}</style><radialGradient id="radial-gradient" cx="753.52" cy="85.36" r="76.58" gradientTransform="translate(-708.06 -25) scale(1.13 0.5)" gradientUnits="userSpaceOnUse"><stop offset="0.26" stop-color="#ee5ea0"/><stop offset="1" stop-color="#ba1b8c"/></radialGradient></defs><title>16</title><line class="cls-1" x1="252.15" y1="17.68" x2="27.15" y2="17.68"/><circle class="cls-2" cx="17.5" cy="17.5" r="17.5"/><path class="cls-3" d="M20.86,10.5v14H16.7V13.82H14.15V10.5Z"/><circle class="cls-4" cx="95.58" cy="17.5" r="17.5"/><path class="cls-3" d="M96.58,14.79c0-.63-.45-1-1.26-1a6.58,6.58,0,0,0-3.78,1.75l-1.54-3a10.35,10.35,0,0,1,5.95-2.13c2.82,0,4.92,1.48,4.92,3.68,0,1.56-1.16,3.09-2.7,4.65l-2.48,2.48h5.47V24.5H90.47V21.88l4.9-5.08A3.71,3.71,0,0,0,96.58,14.79Z"/><circle class="cls-4" cx="173.67" cy="17.5" r="17.5"/><path class="cls-3" d="M179.31,19.94c0,2.69-2.21,4.56-5.67,4.56A9.77,9.77,0,0,1,168,22.74l1.64-3.12a5,5,0,0,0,3.65,1.82c1.3,0,2-.51,2-1.46s-.69-1.46-2-1.46h-2.47V16.36l2.92-2.82h-5v-3h9.89v2.31L175.17,16l.67.12A3.82,3.82,0,0,1,179.31,19.94Z"/><circle class="cls-4" cx="251.75" cy="17.5" r="17.5"/><path class="cls-3" d="M259.32,11.36H243.91a.54.54,0,0,0-.54.54v9.87a.54.54,0,0,0,.54.54h8.25v3.51a.54.54,0,0,0,.92.38L257,22.31h2.32a.54.54,0,0,0,.54-.54V11.89a.54.54,0,0,0-.54-.54ZM252.77,20a.75.75,0,1,1-1.51,0V16.48h-.79a.65.65,0,0,1,0-1.3H252a.75.75,0,0,1,.75.75Zm-.85-5.29a.83.83,0,1,1,.83-.83.83.83,0,0,1-.83.83Zm0,0"/></svg>