<svg id="Layer_1" data-name="Layer 1" xmlns="http://www.w3.org/2000/svg" viewBox="0 0 125.44 32"><defs><style>.cls-1{fill:#4d5a6a;}</style></defs><title>17</title><path class="cls-1" d="M10.28,31.64a9.65,9.65,0,0,1-.45-3.84V22.88c0-2.9-1-4-3.22-4H4.92V31.64H0V.36H7.42c5.1,0,7.28,2.37,7.28,7.2V10c0,3.22-1,5.32-3.22,6.35,2.46,1,3.26,3.4,3.26,6.66v4.83a9.22,9.22,0,0,0,.54,3.8ZM4.92,4.83v9.61H6.84c1.83,0,2.95-.8,2.95-3.31V8c0-2.23-.76-3.22-2.5-3.22Z"/><path class="cls-1" d="M22.88,13.54h6.75V18H22.88v9.16h8.49v4.47H18V.36H31.37V4.83H22.88Z"/><path class="cls-1" d="M41.78,14.21h6.88v9.92c0,5-2.5,7.87-7.33,7.87S34,29.14,34,24.13V7.87c0-5,2.5-7.87,7.33-7.87s7.33,2.86,7.33,7.87v3H44V7.55c0-2.23-1-3.08-2.55-3.08s-2.55.85-2.55,3.08V24.45c0,2.23,1,3,2.55,3s2.55-.8,2.55-3V18.68H41.78Z"/><path class="cls-1" d="M51.84.36h4.92V31.64H51.84Z"/><path class="cls-1" d="M66.94,0c4.78,0,7.24,2.86,7.24,7.87v1H69.54V7.55c0-2.23-.89-3.08-2.46-3.08s-2.46.85-2.46,3.08c0,6.44,9.61,7.64,9.61,16.58,0,5-2.5,7.87-7.33,7.87s-7.33-2.86-7.33-7.87V22.21h4.65v2.23c0,2.23,1,3,2.55,3s2.55-.8,2.55-3c0-6.44-9.61-7.64-9.61-16.58C59.7,2.86,62.16,0,66.94,0Z"/><path class="cls-1" d="M75.61.36H90.81V4.83H85.67V31.64H80.75V4.83H75.61Z"/><path class="cls-1" d="M103.23,31.64a9.6,9.6,0,0,1-.45-3.84V22.88c0-2.9-1-4-3.22-4h-1.7V31.64H93V.36h7.42c5.1,0,7.29,2.37,7.29,7.2V10c0,3.22-1,5.32-3.22,6.35,2.46,1,3.26,3.4,3.26,6.66v4.83a9.19,9.19,0,0,0,.54,3.8ZM97.87,4.83v9.61h1.92c1.83,0,2.95-.8,2.95-3.31V8c0-2.23-.76-3.22-2.5-3.22Z"/><path class="cls-1" d="M110.51,7.87c0-5,2.64-7.87,7.46-7.87s7.46,2.86,7.46,7.87V24.13c0,5-2.64,7.87-7.46,7.87s-7.46-2.86-7.46-7.87Zm4.92,16.58c0,2.23,1,3.08,2.55,3.08s2.55-.85,2.55-3.08V7.55c0-2.23-1-3.08-2.55-3.08s-2.55.85-2.55,3.08Z"/></svg>