<svg id="Layer_1" data-name="Layer 1" xmlns="http://www.w3.org/2000/svg" viewBox="0 0 150 30"><defs><style>.cls-1{fill:#95d600;}.cls-2{fill:#32450a;}</style></defs><title>19</title><rect class="cls-1" width="150" height="30" rx="7.56" ry="7.56"/><path class="cls-2" d="M23.48,23A5.17,5.17,0,0,1,23.24,21V18.34c0-1.56-.53-2.14-1.73-2.14H20.6V23H18V6.24h4c2.74,0,3.91,1.27,3.91,3.86v1.32c0,1.73-.55,2.86-1.73,3.41,1.32.55,1.75,1.82,1.75,3.58V21a4.94,4.94,0,0,0,.29,2ZM20.6,8.64V13.8h1c1,0,1.58-.43,1.58-1.78V10.37c0-1.2-.41-1.73-1.34-1.73Z"/><path class="cls-2" d="M30.25,13.32h3.62v2.4H30.25v4.92h4.56V23h-7.2V6.24h7.2v2.4H30.25Z"/><path class="cls-2" d="M40.4,13.68h3.7V19c0,2.69-1.34,4.22-3.94,4.22S36.22,21.7,36.22,19V10.27C36.22,7.58,37.57,6,40.16,6s3.94,1.54,3.94,4.22V11.9H41.6V10.1c0-1.2-.53-1.66-1.37-1.66s-1.37.46-1.37,1.66v9.07c0,1.2.53,1.63,1.37,1.63s1.37-.43,1.37-1.63v-3.1H40.4Z"/><path class="cls-2" d="M45.8,6.24h2.64V23H45.8Z"/><path class="cls-2" d="M53.91,6c2.57,0,3.89,1.54,3.89,4.22v.53H55.3v-.7c0-1.2-.48-1.66-1.32-1.66s-1.32.46-1.32,1.66c0,3.46,5.16,4.1,5.16,8.91,0,2.69-1.34,4.22-3.94,4.22S50,21.7,50,19V18h2.5v1.2c0,1.2.53,1.63,1.37,1.63s1.37-.43,1.37-1.63c0-3.46-5.16-4.1-5.16-8.91C50,7.58,51.34,6,53.91,6Z"/><path class="cls-2" d="M58.57,6.24h8.16v2.4H64V23H61.33V8.64H58.57Z"/><path class="cls-2" d="M73.4,23A5.17,5.17,0,0,1,73.16,21V18.34c0-1.56-.53-2.14-1.73-2.14h-.91V23H67.88V6.24h4c2.74,0,3.91,1.27,3.91,3.86v1.32c0,1.73-.55,2.86-1.73,3.41,1.32.55,1.75,1.82,1.75,3.58V21a4.94,4.94,0,0,0,.29,2ZM70.52,8.64V13.8h1c1,0,1.58-.43,1.58-1.78V10.37c0-1.2-.41-1.73-1.34-1.73Z"/><path class="cls-2" d="M86.07,23H83.41L83,20H79.71l-.46,3H76.83l2.69-16.8h3.86Zm-6-5.33h2.54l-1.27-8.5Z"/><path class="cls-2" d="M92.82,23A5.17,5.17,0,0,1,92.58,21V18.34c0-1.56-.53-2.14-1.73-2.14h-.91V23H87.29V6.24h4c2.74,0,3.91,1.27,3.91,3.86v1.32c0,1.73-.55,2.86-1.73,3.41,1.32.55,1.75,1.82,1.75,3.58V21a4.94,4.94,0,0,0,.29,2ZM89.94,8.64V13.8h1c1,0,1.58-.43,1.58-1.78V10.37c0-1.2-.41-1.73-1.34-1.73Z"/><path class="cls-2" d="M102.54,18.17l1.8-11.93H108V23h-2.5V11l-1.82,12h-2.5l-2-11.88V23h-2.3V6.24h3.67Z"/><path class="cls-2" d="M112.57,13.32h3.62v2.4h-3.62v4.92h4.56V23h-7.2V6.24h7.2v2.4h-4.56Z"/><path class="cls-2" d="M135.26,13.77,129,7.51a1.22,1.22,0,0,0-1.74,0l-.72.72a1.21,1.21,0,0,0,0,1.73l2.82,2.83h-6.78a1,1,0,0,0-.81.36,1.29,1.29,0,0,0-.31.87v1.23a1.29,1.29,0,0,0,.31.87,1,1,0,0,0,.81.36h6.78l-2.82,2.82a1.23,1.23,0,0,0,0,1.75l.72.72a1.24,1.24,0,0,0,1.74,0l6.27-6.27a1.19,1.19,0,0,0,.36-.88,1.14,1.14,0,0,0-.36-.87Zm0,0"/></svg>