<svg xmlns="http://www.w3.org/2000/svg" xmlns:xlink="http://www.w3.org/1999/xlink" viewBox="0 0 959 823"><defs><style>.cls-1{fill:none;}.cls-12,.cls-2{fill:#ccc;}.cls-3{isolation:isolate;}.cls-4{fill:#fff;}.cls-5{clip-path:url(#clip-path);}.cls-6{opacity:0.4;mix-blend-mode:multiply;}.cls-7{fill:#b3b3b3;}.cls-8{clip-path:url(#clip-path-2);}.cls-9{clip-path:url(#clip-path-3);}.cls-10{mix-blend-mode:overlay;}.cls-11,.cls-13{fill:#f2f2f2;}.cls-12,.cls-13{stroke:#f2f2f2;stroke-miterlimit:10;}.cls-14{fill:url(#linear-gradient);}.cls-15{clip-path:url(#clip-path-4);}.cls-16{clip-path:url(#clip-path-5);}.cls-17{clip-path:url(#clip-path-6);}.cls-18{clip-path:url(#clip-path-7);}.cls-19{clip-path:url(#clip-path-8);}.cls-20{clip-path:url(#clip-path-9);}</style><clipPath id="clip-path"><rect class="cls-1" width="959" height="823"/></clipPath><clipPath id="clip-path-2"><path class="cls-2" d="M67.59,291.12c-12.32.51-16.78,7.81-18.28,12.07-1.9,5.4-1.78,7.54-1.94,12.45,0,.12,0,.24,0,.36,0,13.74-10.34,24.89-23.09,24.89H-16.12c-12.75,0-23.09,11.14-23.09,24.89s10.34,24.89,23.09,24.89H116.65c12.2,0,22.18,10.2,23,23.11l.07-.07c.32,6.57-.12,8.5,2,14.63,1.5,4.26,6,11.57,18.28,12.08l49,0c12.75,0,23.09,11.14,23.09,24.89S221.76,490.21,209,490.21H177.15c-12.32.51-16.78,7.81-18.28,12.07A29.41,29.41,0,0,0,157,513.16c0,.64.08,1.29.08,1.94,0,13.75-10.34,24.89-23.09,24.89H-293.19c-12.75,0-23.09-11.14-23.09-24.89s10.34-24.89,23.09-24.89h37.54c12.75,0,23.09-11.14,23.09-24.89s-10.34-24.89-23.09-24.89H-333.6c-12.75,0-23.09-11.14-23.09-24.89s10.34-24.89,23.09-24.89h69.27c12.75,0,23.09-11.14,23.09-24.89s-10.34-24.89-23.09-24.89H-426c-12.75,0-23.09-11.14-23.09-24.89s10.34-24.89,23.09-24.89h132.76c12.75,0,23.09-11.14,23.09-24.89s-10.34-24.89-23.09-24.89h5.13c-12.75,0-23.09-11.14-23.09-24.89s10.34-24.89,23.09-24.89h9.32c12.75,0,23.09-11.14,23.09-24.89s-10.34-24.89-23.09-24.89h2.87c-12.75,0-23.09-11.14-23.09-24.89S-288.63,92-275.87,92H151.28c12.75,0,23.09,11.14,23.09,24.89S164,141.79,151.28,141.79H139.74c-12.75,0-23.09,11.14-23.09,24.89s10.34,24.89,23.09,24.89h75.68c12.75,0,23.09,11.14,23.09,24.89s-10.34,24.89-23.09,24.89h-3.7c-10.05,1.47-13.9,7.9-15.27,11.8-1.82,5.17-1.79,7.36-1.93,11.84,0,.41,0,.83,0,1.25,0,13.75-10.34,24.89-23.09,24.89Z"/></clipPath><clipPath id="clip-path-3"><rect class="cls-2" x="-472.42" y="291.11" width="794.62" height="258.19"/></clipPath><linearGradient id="linear-gradient" x1="3545.86" y1="721.4" x2="3629.26" y2="721.4" gradientTransform="matrix(-0.71, -0.71, -0.71, 0.71, 3844.69, 2581.38)" gradientUnits="userSpaceOnUse"><stop offset="0" stop-color="#8a76b5"/><stop offset="0.14" stop-color="#7f79b5"/><stop offset="0.39" stop-color="#6182b4"/><stop offset="0.72" stop-color="#3190b4"/><stop offset="1" stop-color="#029eb3"/></linearGradient><clipPath id="clip-path-4"><path class="cls-2" d="M764.25,979.42c-.49-12-7.61-16.35-11.76-17.81-5.26-1.85-7.35-1.74-12.13-1.89H740c-13.39,0-24.25-10.07-24.25-22.5V897.85c0-12.42-10.86-22.5-24.25-22.5s-24.25,10.07-24.25,22.5v129.37c0,11.88-9.94,21.61-22.52,22.43l.07.06c-6.4.31-8.28-.12-14.26,2-4.15,1.46-11.27,5.81-11.77,17.81l0,47.7c0,12.42-10.86,22.5-24.25,22.5s-24.25-10.07-24.25-22.5v-31c-.49-12-7.61-16.35-11.76-17.81a28.66,28.66,0,0,0-10.59-1.85c-.63,0-1.26.07-1.89.08-13.39,0-24.25-10.07-24.25-22.5V627.87c0-12.43,10.86-22.5,24.25-22.5s24.25,10.07,24.25,22.5v36.58c0,12.42,10.86,22.5,24.25,22.5s24.25-10.07,24.25-22.5v-76c0-12.43,10.86-22.5,24.25-22.5s24.25,10.07,24.25,22.5V656c0,12.43,10.86,22.5,24.25,22.5s24.25-10.07,24.25-22.5V498.5c0-12.42,10.86-22.5,24.25-22.5s24.25,10.07,24.25,22.5V627.87c0,12.43,10.86,22.5,24.25,22.5s24.25-10.07,24.25-22.5v5c0-12.43,10.86-22.5,24.25-22.5s24.25,10.07,24.25,22.5v9.08c0,12.42,10.86,22.5,24.25,22.5s24.25-10.07,24.25-22.5v2.79c0-12.42,10.86-22.5,24.25-22.5s24.25,10.07,24.25,22.5V1061c0,12.43-10.86,22.5-24.25,22.5s-24.25-10.07-24.25-22.5v-11.25c0-12.43-10.86-22.5-24.25-22.5s-24.25,10.07-24.25,22.5v73.75c0,12.42-10.86,22.5-24.25,22.5s-24.25-10.07-24.25-22.5v-3.61c-1.43-9.79-7.7-13.55-11.49-14.88-5-1.77-7.17-1.74-11.54-1.88-.4,0-.81,0-1.22,0-13.39,0-24.25-10.07-24.25-22.5Z"/></clipPath><clipPath id="clip-path-5"><rect class="cls-2" x="512.67" y="453.23" width="251.58" height="774.29"/></clipPath><clipPath id="clip-path-6"><path class="cls-2" d="M253,832.69c.35,8.5,5.39,11.58,8.33,12.61,3.72,1.31,5.2,1.23,8.59,1.34h.25c9.48,0,17.17,7.13,17.17,15.93v27.88c0,8.8,7.69,15.93,17.17,15.93s17.17-7.13,17.17-15.93V798.84c0-8.41,7-15.3,15.95-15.89l0,0c4.53-.22,5.86.09,10.1-1.4,2.94-1,8-4.11,8.33-12.61l0-33.78c0-8.8,7.69-15.93,17.17-15.93s17.17,7.13,17.17,15.93v22c.35,8.5,5.39,11.58,8.33,12.61a20.29,20.29,0,0,0,7.5,1.31c.44,0,.89-.05,1.34-.05,9.48,0,17.17,7.13,17.17,15.93v294.73c0,8.8-7.69,15.93-17.17,15.93s-17.17-7.13-17.17-15.93v-25.9c0-8.8-7.69-15.93-17.17-15.93S356,1046.93,356,1055.73v53.78c0,8.8-7.69,15.93-17.17,15.93s-17.17-7.13-17.17-15.93v-47.79c0-8.8-7.69-15.93-17.17-15.93s-17.17,7.13-17.17,15.93v111.52c0,8.8-7.69,15.93-17.17,15.93s-17.17-7.13-17.17-15.93v-91.61c0-8.8-7.69-15.93-17.17-15.93s-17.17,7.13-17.17,15.93v-3.54c0,8.8-7.69,15.93-17.17,15.93s-17.17-7.13-17.17-15.93v-6.43c0-8.8-7.69-15.93-17.17-15.93s-17.17,7.13-17.17,15.93v-2c0,8.8-7.69,15.93-17.17,15.93s-17.17-7.13-17.17-15.93V774.95c0-8.8,7.69-15.93,17.17-15.93s17.17,7.13,17.17,15.93v8c0,8.8,7.69,15.93,17.17,15.93s17.17-7.13,17.17-15.93V730.69c0-8.8,7.69-15.93,17.17-15.93s17.17,7.13,17.17,15.93v2.55c1,6.93,5.45,9.59,8.14,10.53a21.55,21.55,0,0,0,8.17,1.33l.86,0c9.48,0,17.17,7.13,17.17,15.93Z"/></clipPath><clipPath id="clip-path-7"><rect class="cls-2" x="252.95" y="657.01" width="178.15" height="548.28"/></clipPath><clipPath id="clip-path-8"><path class="cls-2" d="M897.05,162.77c8.5-.35,11.58-5.39,12.61-8.33,1.31-3.72,1.23-5.2,1.34-8.59,0-.08,0-.16,0-.25,0-9.48,7.13-17.17,15.93-17.17h27.88c8.8,0,15.93-7.69,15.93-17.17s-7.13-17.17-15.93-17.17H863.2c-8.41,0-15.3-7-15.89-15.95l0,0c-.22-4.53.09-5.86-1.4-10.1-1-2.94-4.11-8-12.61-8.33l-33.78,0c-8.8,0-15.93-7.69-15.93-17.17s7.13-17.17,15.93-17.17h22C830,25,833,20,834.07,17.07a20.29,20.29,0,0,0,1.31-7.5c0-.44-.05-.89-.05-1.34,0-9.48,7.13-17.17,15.93-17.17H1146c8.8,0,15.93,7.69,15.93,17.17S1154.78,25.4,1146,25.4h-25.9c-8.8,0-15.93,7.69-15.93,17.17s7.13,17.17,15.93,17.17h53.78c8.8,0,15.93,7.69,15.93,17.17s-7.13,17.17-15.93,17.17h-47.79c-8.8,0-15.93,7.69-15.93,17.17s7.13,17.17,15.93,17.17h111.52c8.8,0,15.93,7.69,15.93,17.17s-7.13,17.17-15.93,17.17H1146c-8.8,0-15.93,7.69-15.93,17.17s7.13,17.17,15.93,17.17h-3.54c8.8,0,15.93,7.69,15.93,17.17s-7.13,17.17-15.93,17.17H1136c-8.8,0-15.93,7.69-15.93,17.17s7.13,17.17,15.93,17.17h-2c8.8,0,15.93,7.69,15.93,17.17s-7.13,17.17-15.93,17.17H839.31c-8.8,0-15.93-7.69-15.93-17.17s7.13-17.17,15.93-17.17h8c8.8,0,15.93-7.69,15.93-17.17s-7.13-17.17-15.93-17.17H795.05c-8.8,0-15.93-7.69-15.93-17.17s7.13-17.17,15.93-17.17h2.55c6.93-1,9.59-5.45,10.53-8.14a21.55,21.55,0,0,0,1.33-8.17c0-.28,0-.57,0-.86,0-9.48,7.13-17.17,15.93-17.17Z"/></clipPath><clipPath id="clip-path-9"><rect class="cls-2" x="721.37" y="-15.38" width="548.28" height="178.15"/></clipPath></defs><title>21</title><g class="cls-3"><g id="Layer_1" data-name="Layer 1"><rect class="cls-4" width="959" height="823"/><g class="cls-5"><g class="cls-6"><path class="cls-7" d="M250.85,155c-2.77,0-4.09,2.73-5.37,5.37-1.19,2.46-2.32,4.79-4.47,4.79s-3.28-2.32-4.47-4.79c-1.28-2.64-2.6-5.37-5.37-5.37s-4.09,2.73-5.37,5.37c-1.19,2.46-2.32,4.79-4.47,4.79s-3.28-2.33-4.47-4.79c-1.28-2.64-2.6-5.37-5.37-5.37s-4.09,2.73-5.37,5.37c-1.19,2.46-2.32,4.79-4.47,4.79s-3.28-2.33-4.47-4.79c-1.28-2.64-2.6-5.37-5.37-5.37s-4.09,2.73-5.37,5.37c-1.19,2.46-2.32,4.79-4.47,4.79s-3.28-2.33-4.47-4.79c-1.28-2.64-2.6-5.37-5.37-5.37s-4.09,2.73-5.37,5.37c-1.19,2.46-2.32,4.79-4.47,4.79s-3.28-2.32-4.47-4.79c-1.28-2.64-2.6-5.37-5.37-5.37s-4.09,2.73-5.37,5.37c-1.19,2.46-2.32,4.79-4.47,4.79v1.09c2.76,0,4.09-2.73,5.37-5.37,1.19-2.46,2.32-4.79,4.47-4.79s3.28,2.33,4.47,4.79c1.28,2.64,2.6,5.37,5.37,5.37s4.09-2.73,5.37-5.37c1.19-2.46,2.32-4.79,4.47-4.79s3.28,2.32,4.47,4.79c1.28,2.64,2.6,5.37,5.37,5.37s4.09-2.73,5.37-5.37c1.19-2.46,2.32-4.79,4.47-4.79s3.28,2.33,4.47,4.79c1.28,2.64,2.6,5.37,5.37,5.37s4.09-2.73,5.37-5.37c1.19-2.46,2.32-4.79,4.47-4.79s3.28,2.33,4.47,4.79c1.28,2.64,2.6,5.37,5.37,5.37s4.09-2.73,5.37-5.37c1.19-2.46,2.32-4.79,4.47-4.79s3.28,2.32,4.47,4.79c1.28,2.64,2.6,5.37,5.37,5.37s4.09-2.73,5.37-5.37c1.19-2.46,2.32-4.79,4.47-4.79s3.28,2.33,4.47,4.79c1.28,2.64,2.6,5.37,5.37,5.37v-1.09c-2.15,0-3.28-2.32-4.47-4.79C254.93,157.7,253.61,155,250.85,155Z"/><path class="cls-2" d="M67.59,291.12c-12.32.51-16.78,7.81-18.28,12.07-1.9,5.4-1.78,7.54-1.94,12.45,0,.12,0,.24,0,.36,0,13.74-10.34,24.89-23.09,24.89H-16.12c-12.75,0-23.09,11.14-23.09,24.89s10.34,24.89,23.09,24.89H116.65c12.2,0,22.18,10.2,23,23.11l.07-.07c.32,6.57-.12,8.5,2,14.63,1.5,4.26,6,11.57,18.28,12.08l49,0c12.75,0,23.09,11.14,23.09,24.89S221.76,490.21,209,490.21H177.15c-12.32.51-16.78,7.81-18.28,12.07A29.41,29.41,0,0,0,157,513.16c0,.64.08,1.29.08,1.94,0,13.75-10.34,24.89-23.09,24.89H-293.19c-12.75,0-23.09-11.14-23.09-24.89s10.34-24.89,23.09-24.89h37.54c12.75,0,23.09-11.14,23.09-24.89s-10.34-24.89-23.09-24.89H-333.6c-12.75,0-23.09-11.14-23.09-24.89s10.34-24.89,23.09-24.89h69.27c12.75,0,23.09-11.14,23.09-24.89s-10.34-24.89-23.09-24.89H-426c-12.75,0-23.09-11.14-23.09-24.89s10.34-24.89,23.09-24.89h132.76c12.75,0,23.09-11.14,23.09-24.89s-10.34-24.89-23.09-24.89h5.13c-12.75,0-23.09-11.14-23.09-24.89s10.34-24.89,23.09-24.89h9.32c12.75,0,23.09-11.14,23.09-24.89s-10.34-24.89-23.09-24.89h2.87c-12.75,0-23.09-11.14-23.09-24.89S-288.63,92-275.87,92H151.28c12.75,0,23.09,11.14,23.09,24.89S164,141.79,151.28,141.79H139.74c-12.75,0-23.09,11.14-23.09,24.89s10.34,24.89,23.09,24.89h75.68c12.75,0,23.09,11.14,23.09,24.89s-10.34,24.89-23.09,24.89h-3.7c-10.05,1.47-13.9,7.9-15.27,11.8-1.82,5.17-1.79,7.36-1.93,11.84,0,.41,0,.83,0,1.25,0,13.75-10.34,24.89-23.09,24.89Z"/><g class="cls-8"><rect class="cls-2" x="-472.42" y="291.11" width="794.62" height="258.19"/><g class="cls-9"><g class="cls-10"><polygon class="cls-2" points="-528.24 302.85 -533.77 308.79 22.12 905.55 27.64 899.62 -528.24 302.85"/><polygon class="cls-2" points="-516.35 290.08 -521.88 296.02 34.01 892.78 39.53 886.85 -516.35 290.08"/><polygon class="cls-2" points="-504.46 277.32 -509.98 283.25 45.9 880.01 51.43 874.08 -504.46 277.32"/><polygon class="cls-2" points="-492.56 264.55 -498.09 270.48 57.8 867.25 63.32 861.32 -492.56 264.55"/><polygon class="cls-2" points="-480.67 251.78 -486.2 257.71 69.69 854.48 75.21 848.55 -480.67 251.78"/><polygon class="cls-2" points="-468.78 239.01 -474.3 244.94 81.58 841.71 87.11 835.78 -468.78 239.01"/><polygon class="cls-2" points="-456.88 226.25 -462.41 232.18 93.47 828.94 99 823.01 -456.88 226.25"/><polygon class="cls-2" points="-444.99 213.48 -450.52 219.41 105.37 816.17 110.89 810.24 -444.99 213.48"/><polygon class="cls-2" points="-433.1 200.71 -438.62 206.64 117.26 803.41 122.79 797.48 -433.1 200.71"/><polygon class="cls-2" points="-421.21 187.94 -426.73 193.87 129.15 790.64 134.68 784.71 -421.21 187.94"/><polygon class="cls-2" points="-409.31 175.17 -414.84 181.11 141.05 777.87 146.57 771.94 -409.31 175.17"/><polygon class="cls-2" points="-397.42 162.41 -402.94 168.34 152.94 765.1 158.47 759.17 -397.42 162.41"/><polygon class="cls-2" points="-385.52 149.64 -391.05 155.57 164.83 752.33 170.36 746.4 -385.52 149.64"/><polygon class="cls-2" points="-373.63 136.87 -379.16 142.8 176.73 739.57 182.25 733.63 -373.63 136.87"/><polygon class="cls-2" points="-361.74 124.1 -367.26 130.03 188.62 726.8 194.15 720.87 -361.74 124.1"/><polygon class="cls-2" points="-349.85 111.33 -355.37 117.27 200.51 714.03 206.04 708.1 -349.85 111.33"/><polygon class="cls-2" points="-337.95 98.56 -343.48 104.5 212.41 701.26 217.93 695.33 -337.95 98.56"/><polygon class="cls-2" points="-326.06 85.8 -331.58 91.73 224.3 688.5 229.82 682.56 -326.06 85.8"/><polygon class="cls-2" points="-314.17 73.03 -319.69 78.96 236.19 675.73 241.72 669.8 -314.17 73.03"/><polygon class="cls-2" points="-302.27 60.26 -307.8 66.19 248.09 662.96 253.61 657.03 -302.27 60.26"/><polygon class="cls-2" points="-290.38 47.49 -295.9 53.42 259.98 650.19 265.51 644.26 -290.38 47.49"/><polygon class="cls-2" points="-278.49 34.73 -284.01 40.66 271.87 637.42 277.4 631.49 -278.49 34.73"/><polygon class="cls-2" points="-266.59 21.96 -272.12 27.89 283.77 624.66 289.29 618.72 -266.59 21.96"/><polygon class="cls-2" points="-254.7 9.19 -260.22 15.12 295.66 611.89 301.19 605.96 -254.7 9.19"/><polygon class="cls-2" points="-242.81 -3.58 -248.33 2.35 307.56 599.12 313.08 593.19 -242.81 -3.58"/><polygon class="cls-2" points="-230.91 -16.35 -236.44 -10.41 319.45 586.35 324.97 580.42 -230.91 -16.35"/><polygon class="cls-2" points="-219.02 -29.11 -224.54 -23.18 331.34 573.58 336.87 567.65 -219.02 -29.11"/><polygon class="cls-2" points="-207.13 -41.88 -212.65 -35.95 343.23 560.82 348.76 554.88 -207.13 -41.88"/><polygon class="cls-2" points="-195.23 -54.65 -200.76 -48.72 355.13 548.05 360.65 542.12 -195.23 -54.65"/></g></g><rect class="cls-2" x="-347.7" y="89.06" width="574.03" height="103.01"/><g class="cls-10"><ellipse class="cls-2" cx="188.22" cy="98.67" rx="4.29" ry="4.63"/><ellipse class="cls-2" cx="176.77" cy="98.67" rx="4.29" ry="4.62"/><ellipse class="cls-2" cx="165.33" cy="98.67" rx="4.29" ry="4.63"/><ellipse class="cls-2" cx="153.88" cy="98.67" rx="4.29" ry="4.63"/><ellipse class="cls-2" cx="142.44" cy="98.67" rx="4.29" ry="4.62"/><ellipse class="cls-2" cx="130.99" cy="98.67" rx="4.29" ry="4.63"/><ellipse class="cls-2" cx="119.55" cy="98.67" rx="4.29" ry="4.62"/><ellipse class="cls-2" cx="108.11" cy="98.67" rx="4.29" ry="4.63"/><ellipse class="cls-2" cx="96.66" cy="98.67" rx="4.29" ry="4.63"/><ellipse class="cls-2" cx="85.22" cy="98.67" rx="4.29" ry="4.63"/><ellipse class="cls-2" cx="73.77" cy="98.67" rx="4.29" ry="4.63"/><ellipse class="cls-2" cx="62.33" cy="98.67" rx="4.29" ry="4.62"/><ellipse class="cls-2" cx="50.88" cy="98.67" rx="4.29" ry="4.63"/><ellipse class="cls-2" cx="39.44" cy="98.67" rx="4.29" ry="4.63"/><ellipse class="cls-2" cx="27.99" cy="98.67" rx="4.29" ry="4.62"/><ellipse class="cls-2" cx="16.55" cy="98.67" rx="4.29" ry="4.63"/><ellipse class="cls-2" cx="5.1" cy="98.67" rx="4.29" ry="4.63"/><ellipse class="cls-2" cx="188.22" cy="111.01" rx="4.29" ry="4.63"/><ellipse class="cls-2" cx="176.77" cy="111.01" rx="4.29" ry="4.63"/><ellipse class="cls-2" cx="165.33" cy="111.01" rx="4.29" ry="4.63"/><ellipse class="cls-2" cx="153.88" cy="111.01" rx="4.29" ry="4.63"/><ellipse class="cls-2" cx="142.44" cy="111.01" rx="4.29" ry="4.63"/><ellipse class="cls-2" cx="131" cy="111.01" rx="4.29" ry="4.63"/><ellipse class="cls-2" cx="119.55" cy="111.01" rx="4.29" ry="4.63"/><ellipse class="cls-2" cx="108.11" cy="111.01" rx="4.29" ry="4.63"/><ellipse class="cls-2" cx="96.66" cy="111.01" rx="4.29" ry="4.63"/><ellipse class="cls-2" cx="85.22" cy="111.01" rx="4.29" ry="4.63"/><ellipse class="cls-2" cx="73.77" cy="111.01" rx="4.29" ry="4.63"/><ellipse class="cls-2" cx="62.33" cy="111.01" rx="4.29" ry="4.63"/><ellipse class="cls-2" cx="50.88" cy="111.01" rx="4.29" ry="4.63"/><ellipse class="cls-2" cx="39.44" cy="111.01" rx="4.29" ry="4.63"/><ellipse class="cls-2" cx="27.99" cy="111.01" rx="4.29" ry="4.63"/><ellipse class="cls-2" cx="16.55" cy="111.01" rx="4.29" ry="4.63"/><ellipse class="cls-2" cx="5.1" cy="111.01" rx="4.29" ry="4.63"/><ellipse class="cls-2" cx="188.22" cy="123.34" rx="4.29" ry="4.63"/><ellipse class="cls-2" cx="176.77" cy="123.34" rx="4.29" ry="4.63"/><ellipse class="cls-2" cx="165.33" cy="123.34" rx="4.29" ry="4.63"/><ellipse class="cls-2" cx="153.88" cy="123.34" rx="4.29" ry="4.63"/><ellipse class="cls-2" cx="142.44" cy="123.34" rx="4.29" ry="4.63"/><ellipse class="cls-2" cx="130.99" cy="123.34" rx="4.29" ry="4.63"/><ellipse class="cls-2" cx="119.55" cy="123.34" rx="4.29" ry="4.63"/><ellipse class="cls-2" cx="108.11" cy="123.34" rx="4.29" ry="4.63"/><ellipse class="cls-2" cx="96.66" cy="123.34" rx="4.29" ry="4.63"/><ellipse class="cls-2" cx="85.22" cy="123.34" rx="4.29" ry="4.63"/><ellipse class="cls-2" cx="73.77" cy="123.34" rx="4.29" ry="4.63"/><ellipse class="cls-2" cx="62.33" cy="123.34" rx="4.29" ry="4.63"/><ellipse class="cls-2" cx="50.88" cy="123.34" rx="4.29" ry="4.63"/><ellipse class="cls-2" cx="39.44" cy="123.34" rx="4.29" ry="4.63"/><ellipse class="cls-2" cx="27.99" cy="123.34" rx="4.29" ry="4.63"/><ellipse class="cls-2" cx="16.55" cy="123.34" rx="4.29" ry="4.63"/><ellipse class="cls-2" cx="5.11" cy="123.34" rx="4.29" ry="4.63"/><ellipse class="cls-2" cx="188.22" cy="135.68" rx="4.29" ry="4.63"/><ellipse class="cls-2" cx="176.77" cy="135.68" rx="4.29" ry="4.63"/><ellipse class="cls-2" cx="165.33" cy="135.68" rx="4.29" ry="4.63"/><ellipse class="cls-2" cx="153.88" cy="135.68" rx="4.29" ry="4.63"/><ellipse class="cls-2" cx="142.44" cy="135.68" rx="4.29" ry="4.63"/><ellipse class="cls-2" cx="130.99" cy="135.68" rx="4.29" ry="4.63"/><ellipse class="cls-2" cx="119.55" cy="135.68" rx="4.29" ry="4.63"/><ellipse class="cls-2" cx="108.1" cy="135.68" rx="4.29" ry="4.63"/><ellipse class="cls-2" cx="96.66" cy="135.68" rx="4.29" ry="4.63"/><ellipse class="cls-2" cx="85.22" cy="135.68" rx="4.29" ry="4.63"/><ellipse class="cls-2" cx="73.77" cy="135.68" rx="4.29" ry="4.63"/><ellipse class="cls-2" cx="62.33" cy="135.68" rx="4.29" ry="4.63"/><ellipse class="cls-2" cx="50.88" cy="135.68" rx="4.29" ry="4.63"/><ellipse class="cls-2" cx="39.44" cy="135.68" rx="4.29" ry="4.63"/><ellipse class="cls-2" cx="27.99" cy="135.68" rx="4.29" ry="4.63"/><ellipse class="cls-2" cx="16.55" cy="135.68" rx="4.29" ry="4.63"/><ellipse class="cls-2" cx="5.1" cy="135.68" rx="4.29" ry="4.63"/><ellipse class="cls-2" cx="188.22" cy="148.01" rx="4.29" ry="4.63"/><ellipse class="cls-2" cx="176.77" cy="148.01" rx="4.29" ry="4.63"/><ellipse class="cls-2" cx="165.33" cy="148.01" rx="4.29" ry="4.63"/><ellipse class="cls-2" cx="153.88" cy="148.01" rx="4.29" ry="4.63"/><ellipse class="cls-2" cx="142.44" cy="148.01" rx="4.29" ry="4.63"/><ellipse class="cls-2" cx="130.99" cy="148.01" rx="4.29" ry="4.63"/><ellipse class="cls-2" cx="119.55" cy="148.01" rx="4.29" ry="4.63"/><ellipse class="cls-2" cx="108.11" cy="148.01" rx="4.29" ry="4.63"/><ellipse class="cls-2" cx="96.66" cy="148.01" rx="4.29" ry="4.63"/><ellipse class="cls-2" cx="85.22" cy="148.01" rx="4.29" ry="4.63"/><ellipse class="cls-2" cx="73.77" cy="148.01" rx="4.29" ry="4.63"/><ellipse class="cls-2" cx="62.33" cy="148.01" rx="4.29" ry="4.63"/><ellipse class="cls-2" cx="50.88" cy="148.01" rx="4.29" ry="4.62"/><ellipse class="cls-2" cx="39.44" cy="148.01" rx="4.29" ry="4.62"/><ellipse class="cls-2" cx="27.99" cy="148.01" rx="4.29" ry="4.62"/><ellipse class="cls-2" cx="16.55" cy="148.01" rx="4.29" ry="4.63"/><ellipse class="cls-2" cx="5.11" cy="148.01" rx="4.29" ry="4.63"/><ellipse class="cls-2" cx="188.22" cy="160.35" rx="4.29" ry="4.63"/><ellipse class="cls-2" cx="176.77" cy="160.35" rx="4.29" ry="4.63"/><ellipse class="cls-2" cx="165.33" cy="160.35" rx="4.29" ry="4.63"/><ellipse class="cls-2" cx="153.88" cy="160.35" rx="4.29" ry="4.63"/><ellipse class="cls-2" cx="142.44" cy="160.35" rx="4.29" ry="4.63"/><ellipse class="cls-2" cx="130.99" cy="160.35" rx="4.29" ry="4.63"/><ellipse class="cls-2" cx="119.55" cy="160.35" rx="4.29" ry="4.63"/><ellipse class="cls-2" cx="108.1" cy="160.35" rx="4.29" ry="4.63"/><ellipse class="cls-2" cx="96.66" cy="160.35" rx="4.29" ry="4.63"/><ellipse class="cls-2" cx="85.22" cy="160.35" rx="4.29" ry="4.63"/><ellipse class="cls-2" cx="73.77" cy="160.35" rx="4.29" ry="4.63"/><ellipse class="cls-2" cx="62.33" cy="160.35" rx="4.29" ry="4.63"/><ellipse class="cls-2" cx="50.88" cy="160.35" rx="4.29" ry="4.63"/><ellipse class="cls-2" cx="39.44" cy="160.35" rx="4.29" ry="4.63"/><ellipse class="cls-2" cx="27.99" cy="160.35" rx="4.29" ry="4.63"/><ellipse class="cls-2" cx="16.55" cy="160.35" rx="4.29" ry="4.63"/><ellipse class="cls-2" cx="5.1" cy="160.35" rx="4.29" ry="4.63"/><ellipse class="cls-2" cx="188.22" cy="172.68" rx="4.29" ry="4.63"/><ellipse class="cls-2" cx="176.77" cy="172.68" rx="4.29" ry="4.63"/><ellipse class="cls-2" cx="165.33" cy="172.68" rx="4.29" ry="4.63"/><ellipse class="cls-2" cx="153.88" cy="172.68" rx="4.29" ry="4.63"/><ellipse class="cls-2" cx="142.44" cy="172.68" rx="4.29" ry="4.63"/><ellipse class="cls-2" cx="131" cy="172.68" rx="4.29" ry="4.63"/><ellipse class="cls-2" cx="119.55" cy="172.68" rx="4.29" ry="4.63"/><ellipse class="cls-2" cx="108.11" cy="172.68" rx="4.29" ry="4.63"/><ellipse class="cls-2" cx="96.66" cy="172.68" rx="4.29" ry="4.63"/><ellipse class="cls-2" cx="85.22" cy="172.69" rx="4.29" ry="4.63"/><ellipse class="cls-2" cx="73.77" cy="172.68" rx="4.29" ry="4.63"/><ellipse class="cls-2" cx="62.33" cy="172.69" rx="4.29" ry="4.63"/><ellipse class="cls-2" cx="50.88" cy="172.68" rx="4.29" ry="4.63"/><ellipse class="cls-2" cx="39.44" cy="172.68" rx="4.29" ry="4.63"/><ellipse class="cls-2" cx="27.99" cy="172.68" rx="4.29" ry="4.63"/><ellipse class="cls-2" cx="16.55" cy="172.69" rx="4.29" ry="4.63"/><ellipse class="cls-2" cx="5.11" cy="172.68" rx="4.29" ry="4.63"/><ellipse class="cls-2" cx="188.22" cy="185.02" rx="4.29" ry="4.63"/><ellipse class="cls-2" cx="176.77" cy="185.02" rx="4.29" ry="4.63"/><ellipse class="cls-2" cx="165.33" cy="185.02" rx="4.29" ry="4.63"/><ellipse class="cls-2" cx="153.88" cy="185.02" rx="4.29" ry="4.63"/><ellipse class="cls-2" cx="142.44" cy="185.02" rx="4.29" ry="4.63"/><ellipse class="cls-2" cx="130.99" cy="185.02" rx="4.29" ry="4.63"/><ellipse class="cls-2" cx="119.55" cy="185.02" rx="4.29" ry="4.63"/><ellipse class="cls-2" cx="108.1" cy="185.02" rx="4.29" ry="4.63"/><ellipse class="cls-2" cx="96.66" cy="185.02" rx="4.29" ry="4.63"/><ellipse class="cls-2" cx="85.22" cy="185.02" rx="4.29" ry="4.63"/><ellipse class="cls-2" cx="73.77" cy="185.02" rx="4.29" ry="4.63"/><ellipse class="cls-2" cx="62.33" cy="185.02" rx="4.29" ry="4.63"/><ellipse class="cls-2" cx="50.88" cy="185.02" rx="4.29" ry="4.63"/><ellipse class="cls-2" cx="39.44" cy="185.02" rx="4.29" ry="4.63"/><ellipse class="cls-2" cx="27.99" cy="185.02" rx="4.29" ry="4.63"/><ellipse class="cls-2" cx="16.55" cy="185.02" rx="4.29" ry="4.63"/><ellipse class="cls-2" cx="5.1" cy="185.02" rx="4.29" ry="4.63"/></g><rect class="cls-2" x="-327.18" y="191.38" width="574.03" height="100.24"/></g><path class="cls-11" d="M346.14,343.73c0-13.74-10.34-24.89-23.09-24.89h-204C106.35,318.84,96,330,96,343.73h0c0,13.74,10.34,24.89,23.09,24.89h204c12.75,0,23.09-11.14,23.09-24.89Z"/><path class="cls-12" d="M382.71,263.68c0-13.75-10.34-24.89-23.09-24.89H266c-12.75,0-23.09,11.14-23.09,24.89h0c0,13.74,10.34,24.89,23.09,24.89h93.64c12.75,0,23.09-11.14,23.09-24.89Z"/><path class="cls-13" d="M73.48,586.6c0-13.75-10.34-24.89-23.09-24.89H-110.8c-12.75,0-23.09,11.14-23.09,24.89h0c0,13.74,10.34,24.89,23.09,24.89H50.38c12.75,0,23.09-11.14,23.09-24.89Z"/><path class="cls-2" d="M86.5,43.72C86.5,30,76.16,18.84,63.41,18.84H-97.78c-12.75,0-23.09,11.14-23.09,24.89h0c0,13.74,10.34,24.89,23.09,24.89H63.41c12.75,0,23.09-11.14,23.09-24.89Z"/><ellipse class="cls-11" cx="269.11" cy="464.18" rx="24" ry="25.87"/><ellipse class="cls-11" cx="382" cy="344.84" rx="24" ry="25.87"/></g><g class="cls-6"><path class="cls-14" d="M788.29,506.77c0,2.7,2.66,4,5.23,5.23,2.4,1.16,4.67,2.26,4.67,4.36s-2.27,3.2-4.67,4.36c-2.57,1.25-5.24,2.54-5.24,5.23s2.66,4,5.24,5.23c2.4,1.16,4.66,2.26,4.67,4.36s-2.27,3.19-4.67,4.36c-2.57,1.25-5.23,2.54-5.23,5.23s2.66,4,5.23,5.23c2.4,1.16,4.67,2.26,4.67,4.36s-2.27,3.19-4.67,4.36c-2.57,1.25-5.24,2.53-5.24,5.23s2.66,4,5.23,5.23c2.4,1.16,4.67,2.26,4.67,4.36s-2.27,3.19-4.66,4.36c-2.57,1.25-5.24,2.53-5.24,5.23s2.66,4,5.23,5.23c2.4,1.16,4.67,2.26,4.67,4.36s-2.26,3.2-4.66,4.36c-2.57,1.25-5.24,2.53-5.24,5.23s2.66,4,5.23,5.23c2.4,1.16,4.67,2.26,4.67,4.35h1.06c0-2.69-2.66-4-5.23-5.23-2.4-1.16-4.67-2.26-4.67-4.36s2.27-3.19,4.67-4.35c2.57-1.25,5.23-2.53,5.23-5.23s-2.66-4-5.24-5.23c-2.4-1.16-4.67-2.26-4.66-4.36s2.27-3.2,4.67-4.35c2.57-1.25,5.23-2.53,5.23-5.23s-2.66-4-5.23-5.23c-2.4-1.16-4.67-2.26-4.67-4.36s2.27-3.19,4.66-4.36c2.57-1.25,5.24-2.54,5.24-5.23s-2.66-4-5.24-5.23c-2.4-1.16-4.66-2.26-4.66-4.36s2.27-3.19,4.66-4.36c2.57-1.25,5.24-2.53,5.24-5.23s-2.66-4-5.24-5.23c-2.4-1.16-4.67-2.26-4.66-4.36s2.27-3.2,4.66-4.36c2.57-1.25,5.24-2.54,5.24-5.23s-2.66-4-5.23-5.23c-2.4-1.16-4.66-2.26-4.67-4.36s2.27-3.19,4.67-4.36c2.57-1.25,5.23-2.53,5.23-5.23h-1.06c0,2.1-2.27,3.2-4.66,4.36C791,502.79,788.29,504.08,788.29,506.77Z"/><path class="cls-2" d="M764.25,979.42c-.49-12-7.61-16.35-11.76-17.81-5.26-1.85-7.35-1.74-12.13-1.89H740c-13.39,0-24.25-10.07-24.25-22.5V897.85c0-12.42-10.86-22.5-24.25-22.5s-24.25,10.07-24.25,22.5v129.37c0,11.88-9.94,21.61-22.52,22.43l.07.06c-6.4.31-8.28-.12-14.26,2-4.15,1.46-11.27,5.81-11.77,17.81l0,47.7c0,12.42-10.86,22.5-24.25,22.5s-24.25-10.07-24.25-22.5v-31c-.49-12-7.61-16.35-11.76-17.81a28.66,28.66,0,0,0-10.59-1.85c-.63,0-1.26.07-1.89.08-13.39,0-24.25-10.07-24.25-22.5V627.87c0-12.43,10.86-22.5,24.25-22.5s24.25,10.07,24.25,22.5v36.58c0,12.42,10.86,22.5,24.25,22.5s24.25-10.07,24.25-22.5v-76c0-12.43,10.86-22.5,24.25-22.5s24.25,10.07,24.25,22.5V656c0,12.43,10.86,22.5,24.25,22.5s24.25-10.07,24.25-22.5V498.5c0-12.42,10.86-22.5,24.25-22.5s24.25,10.07,24.25,22.5V627.87c0,12.43,10.86,22.5,24.25,22.5s24.25-10.07,24.25-22.5v5c0-12.43,10.86-22.5,24.25-22.5s24.25,10.07,24.25,22.5v9.08c0,12.42,10.86,22.5,24.25,22.5s24.25-10.07,24.25-22.5v2.79c0-12.42,10.86-22.5,24.25-22.5s24.25,10.07,24.25,22.5V1061c0,12.43-10.86,22.5-24.25,22.5s-24.25-10.07-24.25-22.5v-11.25c0-12.43-10.86-22.5-24.25-22.5s-24.25,10.07-24.25,22.5v73.75c0,12.42-10.86,22.5-24.25,22.5s-24.25-10.07-24.25-22.5v-3.61c-1.43-9.79-7.7-13.55-11.49-14.88-5-1.77-7.17-1.74-11.54-1.88-.4,0-.81,0-1.22,0-13.39,0-24.25-10.07-24.25-22.5Z"/><g class="cls-15"><rect class="cls-2" x="512.67" y="453.23" width="251.58" height="774.29"/><g class="cls-16"><g class="cls-10"><polygon class="cls-2" points="752.82 398.83 747.04 393.44 165.54 935.1 171.32 940.49 752.82 398.83"/><polygon class="cls-2" points="765.26 410.42 759.48 405.03 177.98 946.69 183.76 952.08 765.26 410.42"/><polygon class="cls-2" points="777.7 422 771.92 416.62 190.42 958.28 196.2 963.66 777.7 422"/><polygon class="cls-2" points="790.14 433.59 784.36 428.21 202.87 969.87 208.64 975.25 790.14 433.59"/><polygon class="cls-2" points="802.58 445.18 796.8 439.8 215.31 981.46 221.09 986.84 802.58 445.18"/><polygon class="cls-2" points="815.02 456.77 809.24 451.39 227.75 993.05 233.53 998.43 815.02 456.77"/><polygon class="cls-2" points="827.46 468.36 821.68 462.98 240.19 1004.64 245.97 1010.02 827.46 468.36"/><polygon class="cls-2" points="839.9 479.95 834.13 474.57 252.63 1016.23 258.41 1021.61 839.9 479.95"/><polygon class="cls-2" points="852.34 491.54 846.57 486.15 265.07 1027.82 270.85 1033.2 852.34 491.54"/><polygon class="cls-2" points="864.79 503.13 859.01 497.74 277.51 1039.4 283.29 1044.79 864.79 503.13"/><polygon class="cls-2" points="877.23 514.72 871.45 509.33 289.95 1050.99 295.73 1056.38 877.23 514.72"/><polygon class="cls-2" points="889.67 526.3 883.89 520.92 302.39 1062.58 308.17 1067.96 889.67 526.3"/><polygon class="cls-2" points="902.11 537.89 896.33 532.51 314.84 1074.17 320.62 1079.55 902.11 537.89"/><polygon class="cls-2" points="914.55 549.48 908.77 544.1 327.28 1085.76 333.06 1091.14 914.55 549.48"/><polygon class="cls-2" points="926.99 561.07 921.21 555.69 339.72 1097.35 345.5 1102.73 926.99 561.07"/><polygon class="cls-2" points="939.43 572.66 933.65 567.28 352.16 1108.94 357.94 1114.32 939.43 572.66"/><polygon class="cls-2" points="951.88 584.25 946.1 578.87 364.6 1120.53 370.38 1125.91 951.88 584.25"/><polygon class="cls-2" points="964.32 595.84 958.54 590.46 377.04 1132.12 382.82 1137.5 964.32 595.84"/><polygon class="cls-2" points="976.76 607.43 970.98 602.04 389.48 1143.7 395.26 1149.09 976.76 607.43"/><polygon class="cls-2" points="989.2 619.02 983.42 613.63 401.92 1155.29 407.7 1160.68 989.2 619.02"/><polygon class="cls-2" points="1001.64 630.61 995.86 625.22 414.37 1166.88 420.14 1172.27 1001.64 630.61"/><polygon class="cls-2" points="1014.08 642.2 1008.3 636.81 426.81 1178.47 432.58 1183.85 1014.08 642.2"/><polygon class="cls-2" points="1026.52 653.78 1020.74 648.4 439.25 1190.06 445.03 1195.44 1026.52 653.78"/><polygon class="cls-2" points="1038.96 665.37 1033.18 659.99 451.69 1201.65 457.47 1207.03 1038.96 665.37"/><polygon class="cls-2" points="1051.41 676.96 1045.63 671.58 464.13 1213.24 469.91 1218.62 1051.41 676.96"/><polygon class="cls-2" points="1063.85 688.55 1058.07 683.17 476.57 1224.83 482.35 1230.21 1063.85 688.55"/><polygon class="cls-2" points="1076.29 700.14 1070.51 694.76 489.01 1236.41 494.79 1241.8 1076.29 700.14"/><polygon class="cls-2" points="1088.73 711.73 1082.95 706.35 501.45 1248 507.23 1253.39 1088.73 711.73"/><polygon class="cls-2" points="1101.17 723.32 1095.39 717.93 513.89 1259.59 519.68 1264.98 1101.17 723.32"/></g></g><rect class="cls-2" x="860.76" y="574.75" width="100.37" height="559.34"/><g class="cls-10"><ellipse class="cls-2" cx="951.77" cy="818.16" rx="4.51" ry="4.18"/><ellipse class="cls-2" cx="951.77" cy="807.01" rx="4.51" ry="4.18"/><ellipse class="cls-2" cx="951.77" cy="795.86" rx="4.51" ry="4.18"/><ellipse class="cls-2" cx="951.77" cy="784.71" rx="4.51" ry="4.18"/><ellipse class="cls-2" cx="951.77" cy="773.56" rx="4.51" ry="4.18"/><ellipse class="cls-2" cx="951.77" cy="762.4" rx="4.51" ry="4.18"/><ellipse class="cls-2" cx="951.77" cy="751.25" rx="4.51" ry="4.18"/><ellipse class="cls-2" cx="951.77" cy="740.1" rx="4.51" ry="4.18"/><ellipse class="cls-2" cx="951.77" cy="728.95" rx="4.51" ry="4.18"/><ellipse class="cls-2" cx="951.77" cy="717.8" rx="4.51" ry="4.18"/><ellipse class="cls-2" cx="951.77" cy="706.64" rx="4.51" ry="4.18"/><ellipse class="cls-2" cx="951.77" cy="695.49" rx="4.51" ry="4.18"/><ellipse class="cls-2" cx="951.77" cy="684.34" rx="4.51" ry="4.18"/><ellipse class="cls-2" cx="951.77" cy="673.19" rx="4.51" ry="4.18"/><ellipse class="cls-2" cx="951.77" cy="662.04" rx="4.51" ry="4.18"/><ellipse class="cls-2" cx="951.77" cy="650.89" rx="4.51" ry="4.18"/><ellipse class="cls-2" cx="951.77" cy="639.73" rx="4.51" ry="4.18"/><ellipse class="cls-2" cx="951.77" cy="628.58" rx="4.51" ry="4.18"/><ellipse class="cls-2" cx="951.77" cy="617.43" rx="4.51" ry="4.18"/><ellipse class="cls-2" cx="939.75" cy="818.16" rx="4.51" ry="4.18"/><ellipse class="cls-2" cx="939.75" cy="807.01" rx="4.51" ry="4.18"/><ellipse class="cls-2" cx="939.75" cy="795.86" rx="4.51" ry="4.18"/><ellipse class="cls-2" cx="939.75" cy="784.71" rx="4.51" ry="4.18"/><ellipse class="cls-2" cx="939.75" cy="773.55" rx="4.51" ry="4.18"/><ellipse class="cls-2" cx="939.75" cy="762.4" rx="4.51" ry="4.18"/><ellipse class="cls-2" cx="939.75" cy="751.25" rx="4.51" ry="4.18"/><ellipse class="cls-2" cx="939.75" cy="740.1" rx="4.51" ry="4.18"/><ellipse class="cls-2" cx="939.75" cy="728.95" rx="4.51" ry="4.18"/><ellipse class="cls-2" cx="939.75" cy="717.8" rx="4.51" ry="4.18"/><ellipse class="cls-2" cx="939.75" cy="706.65" rx="4.51" ry="4.18"/><ellipse class="cls-2" cx="939.75" cy="695.49" rx="4.51" ry="4.18"/><ellipse class="cls-2" cx="939.75" cy="684.34" rx="4.51" ry="4.18"/><ellipse class="cls-2" cx="939.75" cy="673.19" rx="4.51" ry="4.18"/><ellipse class="cls-2" cx="939.75" cy="662.04" rx="4.51" ry="4.18"/><ellipse class="cls-2" cx="939.75" cy="650.89" rx="4.51" ry="4.18"/><ellipse class="cls-2" cx="939.75" cy="639.73" rx="4.51" ry="4.18"/><ellipse class="cls-2" cx="939.75" cy="628.58" rx="4.51" ry="4.18"/><ellipse class="cls-2" cx="939.75" cy="617.43" rx="4.51" ry="4.18"/><ellipse class="cls-2" cx="927.73" cy="818.16" rx="4.51" ry="4.18"/><ellipse class="cls-2" cx="927.73" cy="807.01" rx="4.51" ry="4.18"/><ellipse class="cls-2" cx="927.73" cy="795.86" rx="4.51" ry="4.18"/><ellipse class="cls-2" cx="927.73" cy="784.71" rx="4.51" ry="4.18"/><ellipse class="cls-2" cx="927.73" cy="773.55" rx="4.51" ry="4.18"/><ellipse class="cls-2" cx="927.73" cy="762.4" rx="4.51" ry="4.18"/><ellipse class="cls-2" cx="927.73" cy="751.25" rx="4.51" ry="4.18"/><ellipse class="cls-2" cx="927.73" cy="740.1" rx="4.51" ry="4.18"/><ellipse class="cls-2" cx="927.73" cy="728.95" rx="4.51" ry="4.18"/><ellipse class="cls-2" cx="927.73" cy="717.8" rx="4.51" ry="4.18"/><ellipse class="cls-2" cx="927.73" cy="706.64" rx="4.51" ry="4.18"/><ellipse class="cls-2" cx="927.73" cy="695.49" rx="4.51" ry="4.18"/><ellipse class="cls-2" cx="927.73" cy="684.34" rx="4.51" ry="4.18"/><ellipse class="cls-2" cx="927.73" cy="673.19" rx="4.51" ry="4.18"/><ellipse class="cls-2" cx="927.73" cy="662.04" rx="4.51" ry="4.18"/><ellipse class="cls-2" cx="927.73" cy="650.89" rx="4.51" ry="4.18"/><ellipse class="cls-2" cx="927.73" cy="639.73" rx="4.51" ry="4.18"/><ellipse class="cls-2" cx="927.73" cy="628.58" rx="4.51" ry="4.18"/><ellipse class="cls-2" cx="927.73" cy="617.43" rx="4.51" ry="4.18"/><ellipse class="cls-2" cx="915.71" cy="818.16" rx="4.51" ry="4.18"/><ellipse class="cls-2" cx="915.71" cy="807.01" rx="4.51" ry="4.18"/><ellipse class="cls-2" cx="915.71" cy="795.86" rx="4.51" ry="4.18"/><ellipse class="cls-2" cx="915.71" cy="784.71" rx="4.51" ry="4.18"/><ellipse class="cls-2" cx="915.71" cy="773.56" rx="4.51" ry="4.18"/><ellipse class="cls-2" cx="915.71" cy="762.4" rx="4.51" ry="4.18"/><ellipse class="cls-2" cx="915.71" cy="751.25" rx="4.51" ry="4.18"/><ellipse class="cls-2" cx="915.71" cy="740.1" rx="4.51" ry="4.18"/><ellipse class="cls-2" cx="915.71" cy="728.95" rx="4.51" ry="4.18"/><ellipse class="cls-2" cx="915.71" cy="717.8" rx="4.51" ry="4.18"/><ellipse class="cls-2" cx="915.71" cy="706.64" rx="4.51" ry="4.18"/><ellipse class="cls-2" cx="915.71" cy="695.49" rx="4.51" ry="4.18"/><ellipse class="cls-2" cx="915.71" cy="684.34" rx="4.51" ry="4.18"/><ellipse class="cls-2" cx="915.71" cy="673.19" rx="4.51" ry="4.18"/><ellipse class="cls-2" cx="915.71" cy="662.04" rx="4.51" ry="4.18"/><ellipse class="cls-2" cx="915.71" cy="650.89" rx="4.51" ry="4.18"/><ellipse class="cls-2" cx="915.71" cy="639.73" rx="4.51" ry="4.18"/><ellipse class="cls-2" cx="915.71" cy="628.58" rx="4.51" ry="4.18"/><ellipse class="cls-2" cx="915.71" cy="617.43" rx="4.51" ry="4.18"/><ellipse class="cls-2" cx="903.69" cy="818.16" rx="4.51" ry="4.18"/><ellipse class="cls-2" cx="903.69" cy="807.01" rx="4.51" ry="4.18"/><ellipse class="cls-2" cx="903.69" cy="795.86" rx="4.51" ry="4.18"/><ellipse class="cls-2" cx="903.69" cy="784.71" rx="4.51" ry="4.18"/><ellipse class="cls-2" cx="903.69" cy="773.55" rx="4.51" ry="4.18"/><ellipse class="cls-2" cx="903.69" cy="762.4" rx="4.51" ry="4.18"/><ellipse class="cls-2" cx="903.69" cy="751.25" rx="4.51" ry="4.18"/><ellipse class="cls-2" cx="903.69" cy="740.1" rx="4.51" ry="4.18"/><ellipse class="cls-2" cx="903.69" cy="728.95" rx="4.51" ry="4.18"/><path class="cls-2" d="M903.69,713.62a4.19,4.19,0,1,0,4.51,4.18A4.36,4.36,0,0,0,903.69,713.62Z"/><ellipse class="cls-2" cx="903.69" cy="706.64" rx="4.51" ry="4.18"/><ellipse class="cls-2" cx="903.69" cy="695.49" rx="4.51" ry="4.18"/><ellipse class="cls-2" cx="903.69" cy="684.34" rx="4.51" ry="4.18"/><path class="cls-2" d="M903.69,669a4.19,4.19,0,1,0,4.51,4.18A4.36,4.36,0,0,0,903.69,669Z"/><path class="cls-2" d="M903.69,657.86A4.19,4.19,0,1,0,908.2,662,4.35,4.35,0,0,0,903.69,657.86Z"/><ellipse class="cls-2" cx="903.69" cy="650.89" rx="4.51" ry="4.18"/><ellipse class="cls-2" cx="903.69" cy="639.73" rx="4.51" ry="4.18"/><ellipse class="cls-2" cx="903.69" cy="628.58" rx="4.51" ry="4.18"/><ellipse class="cls-2" cx="903.69" cy="617.43" rx="4.51" ry="4.18"/><ellipse class="cls-2" cx="891.67" cy="818.16" rx="4.51" ry="4.18"/><ellipse class="cls-2" cx="891.67" cy="807.01" rx="4.51" ry="4.18"/><ellipse class="cls-2" cx="891.67" cy="795.86" rx="4.51" ry="4.18"/><ellipse class="cls-2" cx="891.67" cy="784.71" rx="4.51" ry="4.18"/><ellipse class="cls-2" cx="891.67" cy="773.55" rx="4.51" ry="4.18"/><ellipse class="cls-2" cx="891.67" cy="762.4" rx="4.51" ry="4.18"/><ellipse class="cls-2" cx="891.67" cy="751.25" rx="4.51" ry="4.18"/><ellipse class="cls-2" cx="891.67" cy="740.1" rx="4.51" ry="4.18"/><ellipse class="cls-2" cx="891.67" cy="728.95" rx="4.51" ry="4.18"/><ellipse class="cls-2" cx="891.67" cy="717.8" rx="4.51" ry="4.18"/><ellipse class="cls-2" cx="891.67" cy="706.65" rx="4.51" ry="4.18"/><ellipse class="cls-2" cx="891.67" cy="695.49" rx="4.51" ry="4.18"/><ellipse class="cls-2" cx="891.67" cy="684.34" rx="4.51" ry="4.18"/><ellipse class="cls-2" cx="891.67" cy="673.19" rx="4.51" ry="4.18"/><ellipse class="cls-2" cx="891.67" cy="662.04" rx="4.51" ry="4.18"/><ellipse class="cls-2" cx="891.67" cy="650.89" rx="4.51" ry="4.18"/><ellipse class="cls-2" cx="891.67" cy="639.73" rx="4.51" ry="4.18"/><ellipse class="cls-2" cx="891.67" cy="628.58" rx="4.51" ry="4.18"/><ellipse class="cls-2" cx="891.67" cy="617.43" rx="4.51" ry="4.18"/><ellipse class="cls-2" cx="879.65" cy="818.16" rx="4.51" ry="4.18"/><ellipse class="cls-2" cx="879.65" cy="807.01" rx="4.51" ry="4.18"/><ellipse class="cls-2" cx="879.65" cy="795.86" rx="4.51" ry="4.18"/><ellipse class="cls-2" cx="879.65" cy="784.71" rx="4.51" ry="4.18"/><ellipse class="cls-2" cx="879.65" cy="773.55" rx="4.51" ry="4.18"/><ellipse class="cls-2" cx="879.65" cy="762.4" rx="4.51" ry="4.18"/><ellipse class="cls-2" cx="879.65" cy="751.25" rx="4.51" ry="4.18"/><ellipse class="cls-2" cx="879.65" cy="740.1" rx="4.51" ry="4.18"/><ellipse class="cls-2" cx="879.65" cy="728.95" rx="4.51" ry="4.18"/><ellipse class="cls-2" cx="879.65" cy="717.8" rx="4.51" ry="4.18"/><ellipse class="cls-2" cx="879.65" cy="706.65" rx="4.51" ry="4.18"/><ellipse class="cls-2" cx="879.65" cy="695.49" rx="4.51" ry="4.18"/><ellipse class="cls-2" cx="879.65" cy="684.34" rx="4.51" ry="4.18"/><ellipse class="cls-2" cx="879.65" cy="673.19" rx="4.51" ry="4.18"/><ellipse class="cls-2" cx="879.65" cy="662.04" rx="4.51" ry="4.18"/><ellipse class="cls-2" cx="879.65" cy="650.89" rx="4.51" ry="4.18"/><ellipse class="cls-2" cx="879.65" cy="639.74" rx="4.51" ry="4.18"/><ellipse class="cls-2" cx="879.65" cy="628.58" rx="4.51" ry="4.18"/><ellipse class="cls-2" cx="879.65" cy="617.43" rx="4.51" ry="4.18"/><ellipse class="cls-2" cx="867.63" cy="818.16" rx="4.51" ry="4.18"/><ellipse class="cls-2" cx="867.63" cy="807.01" rx="4.51" ry="4.18"/><ellipse class="cls-2" cx="867.63" cy="795.86" rx="4.51" ry="4.18"/><ellipse class="cls-2" cx="867.63" cy="784.71" rx="4.51" ry="4.18"/><ellipse class="cls-2" cx="867.63" cy="773.56" rx="4.51" ry="4.18"/><ellipse class="cls-2" cx="867.63" cy="762.4" rx="4.51" ry="4.18"/><ellipse class="cls-2" cx="867.63" cy="751.25" rx="4.51" ry="4.18"/><ellipse class="cls-2" cx="867.63" cy="740.1" rx="4.51" ry="4.18"/><ellipse class="cls-2" cx="867.63" cy="728.95" rx="4.51" ry="4.18"/><ellipse class="cls-2" cx="867.63" cy="717.8" rx="4.51" ry="4.18"/><ellipse class="cls-2" cx="867.63" cy="706.64" rx="4.51" ry="4.18"/><ellipse class="cls-2" cx="867.63" cy="695.49" rx="4.51" ry="4.18"/><ellipse class="cls-2" cx="867.63" cy="684.34" rx="4.51" ry="4.18"/><ellipse class="cls-2" cx="867.63" cy="673.19" rx="4.51" ry="4.18"/><ellipse class="cls-2" cx="867.63" cy="662.04" rx="4.51" ry="4.18"/><ellipse class="cls-2" cx="867.63" cy="650.89" rx="4.51" ry="4.18"/><ellipse class="cls-2" cx="867.63" cy="639.73" rx="4.51" ry="4.18"/><ellipse class="cls-2" cx="867.63" cy="628.58" rx="4.51" ry="4.18"/><ellipse class="cls-2" cx="867.63" cy="617.43" rx="4.51" ry="4.18"/></g><rect class="cls-2" x="763.76" y="594.75" width="97.67" height="559.34"/></g><path class="cls-13" d="M476.33,985.15c13.39,0,24.25-10.07,24.25-22.5V805.59c0-12.42-10.85-22.5-24.25-22.5h0c-13.39,0-24.25,10.07-24.25,22.5V962.65c0,12.43,10.86,22.5,24.25,22.5Z"/></g><g class="cls-6"><path class="cls-7" d="M159,706.25c0,1.91,1.88,2.82,3.71,3.7s3.3,1.6,3.3,3.09-1.6,2.26-3.3,3.09-3.71,1.8-3.71,3.7,1.89,2.82,3.71,3.7,3.3,1.6,3.3,3.09-1.61,2.26-3.3,3.08-3.71,1.8-3.71,3.7,1.88,2.82,3.71,3.7,3.3,1.6,3.3,3.09-1.6,2.26-3.3,3.08S159,745.07,159,747s1.88,2.82,3.71,3.7,3.3,1.6,3.3,3.08-1.6,2.26-3.3,3.09-3.71,1.79-3.71,3.7,1.88,2.82,3.71,3.7,3.3,1.6,3.3,3.08-1.6,2.26-3.3,3.08-3.71,1.79-3.71,3.7,1.88,2.82,3.71,3.7,3.3,1.6,3.3,3.08h.75c0-1.91-1.88-2.82-3.71-3.7s-3.3-1.6-3.3-3.08,1.6-2.26,3.3-3.08,3.71-1.79,3.71-3.7-1.88-2.82-3.71-3.7-3.3-1.6-3.3-3.08,1.6-2.26,3.3-3.08,3.71-1.79,3.71-3.7-1.88-2.82-3.71-3.7-3.3-1.6-3.3-3.08,1.6-2.26,3.3-3.08,3.71-1.8,3.71-3.7-1.88-2.82-3.71-3.7-3.3-1.6-3.3-3.08,1.6-2.26,3.3-3.09,3.71-1.8,3.71-3.7-1.88-2.82-3.71-3.7-3.3-1.6-3.3-3.08,1.6-2.26,3.3-3.08,3.71-1.8,3.71-3.7-1.88-2.82-3.71-3.7-3.3-1.6-3.3-3.09,1.61-2.26,3.3-3.09,3.71-1.8,3.71-3.7H166c0,1.49-1.6,2.26-3.3,3.09S159,704.34,159,706.25Z"/><path class="cls-2" d="M253,832.69c.35,8.5,5.39,11.58,8.33,12.61,3.72,1.31,5.2,1.23,8.59,1.34h.25c9.48,0,17.17,7.13,17.17,15.93v27.88c0,8.8,7.69,15.93,17.17,15.93s17.17-7.13,17.17-15.93V798.84c0-8.41,7-15.3,15.95-15.89l0,0c4.53-.22,5.86.09,10.1-1.4,2.94-1,8-4.11,8.33-12.61l0-33.78c0-8.8,7.69-15.93,17.17-15.93s17.17,7.13,17.17,15.93v22c.35,8.5,5.39,11.58,8.33,12.61a20.29,20.29,0,0,0,7.5,1.31c.44,0,.89-.05,1.34-.05,9.48,0,17.17,7.13,17.17,15.93v294.73c0,8.8-7.69,15.93-17.17,15.93s-17.17-7.13-17.17-15.93v-25.9c0-8.8-7.69-15.93-17.17-15.93S356,1046.93,356,1055.73v53.78c0,8.8-7.69,15.93-17.17,15.93s-17.17-7.13-17.17-15.93v-47.79c0-8.8-7.69-15.93-17.17-15.93s-17.17,7.13-17.17,15.93v111.52c0,8.8-7.69,15.93-17.17,15.93s-17.17-7.13-17.17-15.93v-91.61c0-8.8-7.69-15.93-17.17-15.93s-17.17,7.13-17.17,15.93v-3.54c0,8.8-7.69,15.93-17.17,15.93s-17.17-7.13-17.17-15.93v-6.43c0-8.8-7.69-15.93-17.17-15.93s-17.17,7.13-17.17,15.93v-2c0,8.8-7.69,15.93-17.17,15.93s-17.17-7.13-17.17-15.93V774.95c0-8.8,7.69-15.93,17.17-15.93s17.17,7.13,17.17,15.93v8c0,8.8,7.69,15.93,17.17,15.93s17.17-7.13,17.17-15.93V730.69c0-8.8,7.69-15.93,17.17-15.93s17.17,7.13,17.17,15.93v2.55c1,6.93,5.45,9.59,8.14,10.53a21.55,21.55,0,0,0,8.17,1.33l.86,0c9.48,0,17.17,7.13,17.17,15.93Z"/><g class="cls-17"><rect class="cls-2" x="252.95" y="657.01" width="178.15" height="548.28"/><g class="cls-18"><g class="cls-10"><polygon class="cls-2" points="217 1202.78 221.09 1206.59 632.85 823.04 628.76 819.23 217 1202.78"/><polygon class="cls-2" points="208.19 1194.57 212.28 1198.39 624.04 814.83 619.95 811.02 208.19 1194.57"/><polygon class="cls-2" points="199.38 1186.37 203.47 1190.18 615.23 806.63 611.14 802.82 199.38 1186.37"/><polygon class="cls-2" points="190.57 1178.16 194.66 1181.97 606.42 798.42 602.33 794.61 190.57 1178.16"/><polygon class="cls-2" points="181.76 1169.96 185.85 1173.77 597.61 790.22 593.52 786.4 181.76 1169.96"/><polygon class="cls-2" points="172.95 1161.75 177.04 1165.56 588.8 782.01 584.71 778.2 172.95 1161.75"/><polygon class="cls-2" points="164.14 1153.54 168.23 1157.36 579.99 773.8 575.9 769.99 164.14 1153.54"/><polygon class="cls-2" points="155.33 1145.34 159.42 1149.15 571.18 765.6 567.09 761.78 155.33 1145.34"/><polygon class="cls-2" points="146.52 1137.13 150.61 1140.94 562.37 757.39 558.28 753.58 146.52 1137.13"/><polygon class="cls-2" points="137.71 1128.92 141.8 1132.74 553.56 749.18 549.47 745.37 137.71 1128.92"/><polygon class="cls-2" points="128.9 1120.72 132.99 1124.53 544.75 740.98 540.66 737.17 128.9 1120.72"/><polygon class="cls-2" points="120.09 1112.51 124.18 1116.32 535.94 732.77 531.85 728.96 120.09 1112.51"/><polygon class="cls-2" points="111.28 1104.31 115.37 1108.12 527.13 724.57 523.04 720.75 111.28 1104.31"/><polygon class="cls-2" points="102.47 1096.1 106.56 1099.91 518.32 716.36 514.23 712.55 102.47 1096.1"/><polygon class="cls-2" points="93.66 1087.89 97.75 1091.71 509.51 708.15 505.42 704.34 93.66 1087.89"/><polygon class="cls-2" points="84.85 1079.69 88.94 1083.5 500.7 699.95 496.61 696.13 84.85 1079.69"/><polygon class="cls-2" points="76.04 1071.48 80.13 1075.29 491.89 691.74 487.8 687.93 76.04 1071.48"/><polygon class="cls-2" points="67.23 1063.28 71.32 1067.09 483.08 683.53 478.99 679.72 67.23 1063.28"/><polygon class="cls-2" points="58.42 1055.07 62.51 1058.88 474.27 675.33 470.18 671.52 58.42 1055.07"/><polygon class="cls-2" points="49.61 1046.86 53.7 1050.67 465.46 667.12 461.37 663.31 49.61 1046.86"/><polygon class="cls-2" points="40.8 1038.66 44.9 1042.47 456.65 658.92 452.56 655.11 40.8 1038.66"/><polygon class="cls-2" points="31.99 1030.45 36.09 1034.26 447.85 650.71 443.75 646.9 31.99 1030.45"/><polygon class="cls-2" points="23.18 1022.24 27.27 1026.06 439.04 642.5 434.94 638.69 23.18 1022.24"/><polygon class="cls-2" points="14.37 1014.04 18.47 1017.85 430.23 634.3 426.13 630.49 14.37 1014.04"/></g></g><rect class="cls-2" x="113.53" y="723.17" width="71.07" height="396.07"/><g class="cls-10"><ellipse class="cls-2" cx="120.16" cy="749.46" rx="3.19" ry="2.96"/><ellipse class="cls-2" cx="120.16" cy="757.36" rx="3.19" ry="2.96"/><ellipse class="cls-2" cx="120.16" cy="765.26" rx="3.19" ry="2.96"/><ellipse class="cls-2" cx="120.16" cy="773.15" rx="3.19" ry="2.96"/><ellipse class="cls-2" cx="120.16" cy="781.05" rx="3.19" ry="2.96"/><ellipse class="cls-2" cx="120.16" cy="788.95" rx="3.19" ry="2.96"/><ellipse class="cls-2" cx="120.16" cy="796.84" rx="3.19" ry="2.96"/><ellipse class="cls-2" cx="120.16" cy="804.74" rx="3.19" ry="2.96"/><ellipse class="cls-2" cx="120.16" cy="812.64" rx="3.19" ry="2.96"/><ellipse class="cls-2" cx="120.16" cy="820.53" rx="3.19" ry="2.96"/><ellipse class="cls-2" cx="128.67" cy="749.46" rx="3.19" ry="2.96"/><ellipse class="cls-2" cx="128.67" cy="757.36" rx="3.19" ry="2.96"/><ellipse class="cls-2" cx="128.67" cy="765.26" rx="3.19" ry="2.96"/><ellipse class="cls-2" cx="128.67" cy="773.15" rx="3.19" ry="2.96"/><ellipse class="cls-2" cx="128.67" cy="781.05" rx="3.19" ry="2.96"/><ellipse class="cls-2" cx="128.67" cy="788.95" rx="3.19" ry="2.96"/><ellipse class="cls-2" cx="128.67" cy="796.84" rx="3.19" ry="2.96"/><ellipse class="cls-2" cx="128.67" cy="804.74" rx="3.19" ry="2.96"/><ellipse class="cls-2" cx="128.67" cy="812.64" rx="3.19" ry="2.96"/><ellipse class="cls-2" cx="128.67" cy="820.53" rx="3.19" ry="2.96"/><ellipse class="cls-2" cx="137.18" cy="749.46" rx="3.19" ry="2.96"/><ellipse class="cls-2" cx="137.18" cy="757.36" rx="3.19" ry="2.96"/><ellipse class="cls-2" cx="137.18" cy="765.26" rx="3.19" ry="2.96"/><ellipse class="cls-2" cx="137.19" cy="773.15" rx="3.19" ry="2.96"/><ellipse class="cls-2" cx="137.18" cy="781.05" rx="3.19" ry="2.96"/><ellipse class="cls-2" cx="137.19" cy="788.95" rx="3.19" ry="2.96"/><ellipse class="cls-2" cx="137.19" cy="796.84" rx="3.19" ry="2.96"/><ellipse class="cls-2" cx="137.18" cy="804.74" rx="3.19" ry="2.96"/><ellipse class="cls-2" cx="137.19" cy="812.64" rx="3.19" ry="2.96"/><ellipse class="cls-2" cx="137.18" cy="820.53" rx="3.19" ry="2.96"/><ellipse class="cls-2" cx="145.7" cy="749.46" rx="3.19" ry="2.96"/><ellipse class="cls-2" cx="145.7" cy="757.36" rx="3.19" ry="2.96"/><ellipse class="cls-2" cx="145.7" cy="765.26" rx="3.19" ry="2.96"/><ellipse class="cls-2" cx="145.7" cy="773.15" rx="3.19" ry="2.96"/><ellipse class="cls-2" cx="145.7" cy="781.05" rx="3.19" ry="2.96"/><ellipse class="cls-2" cx="145.7" cy="788.95" rx="3.19" ry="2.96"/><ellipse class="cls-2" cx="145.7" cy="796.84" rx="3.19" ry="2.96"/><ellipse class="cls-2" cx="145.7" cy="804.74" rx="3.19" ry="2.96"/><ellipse class="cls-2" cx="145.7" cy="812.64" rx="3.19" ry="2.96"/><ellipse class="cls-2" cx="145.7" cy="820.53" rx="3.19" ry="2.96"/><ellipse class="cls-2" cx="154.21" cy="749.46" rx="3.19" ry="2.96"/><ellipse class="cls-2" cx="154.21" cy="757.36" rx="3.19" ry="2.96"/><ellipse class="cls-2" cx="154.21" cy="765.26" rx="3.19" ry="2.96"/><ellipse class="cls-2" cx="154.21" cy="773.15" rx="3.19" ry="2.96"/><ellipse class="cls-2" cx="154.21" cy="781.05" rx="3.19" ry="2.96"/><ellipse class="cls-2" cx="154.21" cy="788.95" rx="3.19" ry="2.96"/><ellipse class="cls-2" cx="154.21" cy="796.84" rx="3.19" ry="2.96"/><ellipse class="cls-2" cx="154.21" cy="804.74" rx="3.19" ry="2.96"/><ellipse class="cls-2" cx="154.21" cy="812.64" rx="3.19" ry="2.96"/><ellipse class="cls-2" cx="154.21" cy="820.53" rx="3.19" ry="2.96"/><ellipse class="cls-2" cx="162.72" cy="749.46" rx="3.19" ry="2.96"/><ellipse class="cls-2" cx="162.72" cy="757.36" rx="3.19" ry="2.96"/><ellipse class="cls-2" cx="162.72" cy="765.26" rx="3.19" ry="2.96"/><ellipse class="cls-2" cx="162.72" cy="773.15" rx="3.19" ry="2.96"/><ellipse class="cls-2" cx="162.72" cy="781.05" rx="3.19" ry="2.96"/><ellipse class="cls-2" cx="162.72" cy="788.95" rx="3.19" ry="2.96"/><ellipse class="cls-2" cx="162.72" cy="796.84" rx="3.19" ry="2.96"/><ellipse class="cls-2" cx="162.72" cy="804.74" rx="3.19" ry="2.96"/><ellipse class="cls-2" cx="162.72" cy="812.64" rx="3.19" ry="2.96"/><ellipse class="cls-2" cx="162.72" cy="820.53" rx="3.19" ry="2.96"/><ellipse class="cls-2" cx="171.23" cy="749.46" rx="3.19" ry="2.96"/><ellipse class="cls-2" cx="171.23" cy="757.36" rx="3.19" ry="2.96"/><ellipse class="cls-2" cx="171.23" cy="765.26" rx="3.19" ry="2.96"/><ellipse class="cls-2" cx="171.23" cy="773.15" rx="3.19" ry="2.96"/><ellipse class="cls-2" cx="171.23" cy="781.05" rx="3.19" ry="2.96"/><ellipse class="cls-2" cx="171.23" cy="788.95" rx="3.19" ry="2.96"/><ellipse class="cls-2" cx="171.23" cy="796.84" rx="3.19" ry="2.96"/><ellipse class="cls-2" cx="171.23" cy="804.74" rx="3.19" ry="2.96"/><ellipse class="cls-2" cx="171.23" cy="812.64" rx="3.19" ry="2.96"/><ellipse class="cls-2" cx="171.23" cy="820.53" rx="3.19" ry="2.96"/><ellipse class="cls-2" cx="179.74" cy="749.46" rx="3.19" ry="2.96"/><ellipse class="cls-2" cx="179.74" cy="757.36" rx="3.19" ry="2.96"/><ellipse class="cls-2" cx="179.74" cy="765.26" rx="3.19" ry="2.96"/><ellipse class="cls-2" cx="179.74" cy="773.15" rx="3.19" ry="2.96"/><ellipse class="cls-2" cx="179.74" cy="781.05" rx="3.19" ry="2.96"/><ellipse class="cls-2" cx="179.74" cy="788.95" rx="3.19" ry="2.96"/><ellipse class="cls-2" cx="179.74" cy="796.84" rx="3.19" ry="2.96"/><ellipse class="cls-2" cx="179.74" cy="804.74" rx="3.19" ry="2.96"/><ellipse class="cls-2" cx="179.74" cy="812.64" rx="3.19" ry="2.96"/><ellipse class="cls-2" cx="179.74" cy="820.53" rx="3.19" ry="2.96"/></g><rect class="cls-2" x="184.13" y="709.01" width="69.16" height="396.07"/></g><path class="cls-11" d="M289.25,640.5c-9.48,0-17.17,7.13-17.17,15.93V797.16c0,8.8,7.69,15.93,17.17,15.93h0c9.48,0,17.17-7.13,17.17-15.93V656.43c0-8.8-7.69-15.93-17.17-15.93Z"/><path class="cls-12" d="M234,615.26c-9.48,0-17.17,7.13-17.17,15.93v64.61c0,8.8,7.69,15.93,17.17,15.93h0c9.48,0,17.17-7.13,17.17-15.93V631.2c0-8.8-7.69-15.93-17.17-15.93Z"/><path class="cls-2" d="M82.25,819.65c-9.48,0-17.17,7.13-17.17,15.93V946.79c0,8.8,7.69,15.93,17.17,15.93h0c9.48,0,17.17-7.13,17.17-15.93V835.58c0-8.8-7.69-15.93-17.17-15.93Z"/><ellipse class="cls-11" cx="372.36" cy="693.65" rx="17.85" ry="16.56"/><ellipse class="cls-11" cx="290.01" cy="615.76" rx="17.85" ry="16.56"/></g><g class="cls-6"><path class="cls-7" d="M770.61,256.71c1.91,0,2.82-1.88,3.7-3.71s1.6-3.3,3.09-3.3,2.26,1.6,3.09,3.3,1.8,3.71,3.7,3.71,2.82-1.89,3.7-3.71,1.6-3.3,3.09-3.3,2.26,1.61,3.08,3.3,1.8,3.71,3.7,3.71,2.82-1.88,3.7-3.71,1.6-3.3,3.09-3.3,2.26,1.6,3.08,3.3,1.79,3.71,3.7,3.71,2.82-1.88,3.7-3.71,1.6-3.3,3.08-3.3,2.26,1.6,3.09,3.3,1.79,3.71,3.7,3.71,2.82-1.88,3.7-3.71,1.6-3.3,3.08-3.3,2.26,1.6,3.08,3.3,1.79,3.71,3.7,3.71,2.82-1.88,3.7-3.71,1.6-3.3,3.08-3.3v-.75c-1.91,0-2.82,1.88-3.7,3.71s-1.6,3.3-3.08,3.3-2.26-1.6-3.08-3.3-1.79-3.71-3.7-3.71-2.82,1.88-3.7,3.71-1.6,3.3-3.08,3.3-2.26-1.6-3.08-3.3-1.79-3.71-3.7-3.71-2.82,1.88-3.7,3.71-1.6,3.3-3.08,3.3-2.26-1.6-3.08-3.3-1.8-3.71-3.7-3.71-2.82,1.88-3.7,3.71-1.6,3.3-3.08,3.3-2.26-1.6-3.09-3.3-1.8-3.71-3.7-3.71-2.82,1.88-3.7,3.71-1.6,3.3-3.08,3.3-2.26-1.6-3.08-3.3-1.8-3.71-3.7-3.71-2.82,1.88-3.7,3.71-1.6,3.3-3.09,3.3-2.26-1.61-3.09-3.3-1.8-3.71-3.7-3.71v.75c1.49,0,2.26,1.6,3.09,3.3S768.7,256.71,770.61,256.71Z"/><path class="cls-2" d="M897.05,162.77c8.5-.35,11.58-5.39,12.61-8.33,1.31-3.72,1.23-5.2,1.34-8.59,0-.08,0-.16,0-.25,0-9.48,7.13-17.17,15.93-17.17h27.88c8.8,0,15.93-7.69,15.93-17.17s-7.13-17.17-15.93-17.17H863.2c-8.41,0-15.3-7-15.89-15.95l0,0c-.22-4.53.09-5.86-1.4-10.1-1-2.94-4.11-8-12.61-8.33l-33.78,0c-8.8,0-15.93-7.69-15.93-17.17s7.13-17.17,15.93-17.17h22C830,25,833,20,834.07,17.07a20.29,20.29,0,0,0,1.31-7.5c0-.44-.05-.89-.05-1.34,0-9.48,7.13-17.17,15.93-17.17H1146c8.8,0,15.93,7.69,15.93,17.17S1154.78,25.4,1146,25.4h-25.9c-8.8,0-15.93,7.69-15.93,17.17s7.13,17.17,15.93,17.17h53.78c8.8,0,15.93,7.69,15.93,17.17s-7.13,17.17-15.93,17.17h-47.79c-8.8,0-15.93,7.69-15.93,17.17s7.13,17.17,15.93,17.17h111.52c8.8,0,15.93,7.69,15.93,17.17s-7.13,17.17-15.93,17.17H1146c-8.8,0-15.93,7.69-15.93,17.17s7.13,17.17,15.93,17.17h-3.54c8.8,0,15.93,7.69,15.93,17.17s-7.13,17.17-15.93,17.17H1136c-8.8,0-15.93,7.69-15.93,17.17s7.13,17.17,15.93,17.17h-2c8.8,0,15.93,7.69,15.93,17.17s-7.13,17.17-15.93,17.17H839.31c-8.8,0-15.93-7.69-15.93-17.17s7.13-17.17,15.93-17.17h8c8.8,0,15.93-7.69,15.93-17.17s-7.13-17.17-15.93-17.17H795.05c-8.8,0-15.93-7.69-15.93-17.17s7.13-17.17,15.93-17.17h2.55c6.93-1,9.59-5.45,10.53-8.14a21.55,21.55,0,0,0,1.33-8.17c0-.28,0-.57,0-.86,0-9.48,7.13-17.17,15.93-17.17Z"/><g class="cls-19"><rect class="cls-2" x="721.37" y="-15.38" width="548.28" height="178.15"/><g class="cls-20"><g class="cls-10"><polygon class="cls-2" points="1308.17 154.67 1311.98 150.58 928.43 -261.18 924.62 -257.09 1308.17 154.67"/><polygon class="cls-2" points="1299.96 163.48 1303.78 159.39 920.22 -252.37 916.41 -248.28 1299.96 163.48"/><polygon class="cls-2" points="1291.76 172.29 1295.57 168.2 912.02 -243.56 908.21 -239.47 1291.76 172.29"/><polygon class="cls-2" points="1283.55 181.1 1287.36 177.01 903.81 -234.75 900 -230.66 1283.55 181.1"/><polygon class="cls-2" points="1275.35 189.91 1279.16 185.82 895.61 -225.94 891.79 -221.85 1275.35 189.91"/><polygon class="cls-2" points="1267.14 198.72 1270.95 194.63 887.4 -217.13 883.59 -213.04 1267.14 198.72"/><polygon class="cls-2" points="1258.93 207.53 1262.74 203.44 879.19 -208.32 875.38 -204.23 1258.93 207.53"/><polygon class="cls-2" points="1250.73 216.34 1254.54 212.25 870.99 -199.51 867.17 -195.42 1250.73 216.34"/><polygon class="cls-2" points="1242.52 225.15 1246.33 221.06 862.78 -190.7 858.97 -186.61 1242.52 225.15"/><polygon class="cls-2" points="1234.31 233.96 1238.13 229.87 854.57 -181.89 850.76 -177.8 1234.31 233.96"/><polygon class="cls-2" points="1226.11 242.77 1229.92 238.68 846.37 -173.08 842.56 -168.99 1226.11 242.77"/><polygon class="cls-2" points="1217.9 251.58 1221.71 247.49 838.16 -164.27 834.35 -160.18 1217.9 251.58"/><polygon class="cls-2" points="1209.69 260.39 1213.51 256.3 829.96 -155.46 826.14 -151.37 1209.69 260.39"/><polygon class="cls-2" points="1201.49 269.2 1205.3 265.11 821.75 -146.65 817.94 -142.56 1201.49 269.2"/><polygon class="cls-2" points="1193.28 278.01 1197.1 273.92 813.54 -137.84 809.73 -133.75 1193.28 278.01"/><polygon class="cls-2" points="1185.08 286.82 1188.89 282.73 805.34 -129.03 801.52 -124.94 1185.08 286.82"/><polygon class="cls-2" points="1176.87 295.63 1180.68 291.54 797.13 -120.22 793.32 -116.13 1176.87 295.63"/><polygon class="cls-2" points="1168.66 304.44 1172.48 300.35 788.92 -111.41 785.11 -107.32 1168.66 304.44"/><polygon class="cls-2" points="1160.46 313.25 1164.27 309.16 780.72 -102.6 776.9 -98.51 1160.46 313.25"/><polygon class="cls-2" points="1152.25 322.06 1156.06 317.96 772.51 -93.8 768.7 -89.7 1152.25 322.06"/><polygon class="cls-2" points="1144.05 330.87 1147.86 326.77 764.31 -84.98 760.49 -80.89 1144.05 330.87"/><polygon class="cls-2" points="1135.84 339.68 1139.65 335.59 756.1 -76.17 752.29 -72.08 1135.84 339.68"/><polygon class="cls-2" points="1127.63 348.49 1131.44 344.39 747.89 -67.37 744.08 -63.27 1127.63 348.49"/><polygon class="cls-2" points="1119.43 357.3 1123.24 353.2 739.69 -58.56 735.87 -54.46 1119.43 357.3"/><polygon class="cls-2" points="1111.22 366.11 1115.03 362.01 731.48 -49.75 727.67 -45.65 1111.22 366.11"/><polygon class="cls-2" points="1103.01 374.92 1106.83 370.82 723.27 -40.94 719.46 -36.84 1103.01 374.92"/><polygon class="cls-2" points="1094.81 383.73 1098.62 379.63 715.07 -32.13 711.26 -28.03 1094.81 383.73"/><polygon class="cls-2" points="1086.6 392.54 1090.41 388.44 706.86 -23.32 703.05 -19.22 1086.6 392.54"/><polygon class="cls-2" points="1078.4 401.35 1082.21 397.25 698.66 -14.51 694.84 -10.41 1078.4 401.35"/></g></g><rect class="cls-2" x="787.53" y="231.11" width="396.07" height="71.07"/><g class="cls-10"><ellipse class="cls-2" cx="813.82" cy="295.56" rx="2.96" ry="3.19"/><ellipse class="cls-2" cx="821.72" cy="295.56" rx="2.96" ry="3.19"/><ellipse class="cls-2" cx="829.61" cy="295.56" rx="2.96" ry="3.19"/><ellipse class="cls-2" cx="837.51" cy="295.56" rx="2.96" ry="3.19"/><ellipse class="cls-2" cx="845.41" cy="295.56" rx="2.96" ry="3.19"/><ellipse class="cls-2" cx="853.3" cy="295.56" rx="2.96" ry="3.19"/><ellipse class="cls-2" cx="861.2" cy="295.56" rx="2.96" ry="3.19"/><ellipse class="cls-2" cx="869.1" cy="295.56" rx="2.96" ry="3.19"/><ellipse class="cls-2" cx="876.99" cy="295.56" rx="2.96" ry="3.19"/><ellipse class="cls-2" cx="884.89" cy="295.56" rx="2.96" ry="3.19"/><ellipse class="cls-2" cx="892.79" cy="295.56" rx="2.96" ry="3.19"/><ellipse class="cls-2" cx="900.68" cy="295.56" rx="2.96" ry="3.19"/><ellipse class="cls-2" cx="908.58" cy="295.56" rx="2.96" ry="3.19"/><ellipse class="cls-2" cx="916.48" cy="295.56" rx="2.96" ry="3.19"/><ellipse class="cls-2" cx="924.37" cy="295.56" rx="2.96" ry="3.19"/><ellipse class="cls-2" cx="932.27" cy="295.56" rx="2.96" ry="3.19"/><ellipse class="cls-2" cx="940.17" cy="295.56" rx="2.96" ry="3.19"/><ellipse class="cls-2" cx="948.06" cy="295.56" rx="2.96" ry="3.19"/><ellipse class="cls-2" cx="955.96" cy="295.56" rx="2.96" ry="3.19"/><ellipse class="cls-2" cx="813.82" cy="287.05" rx="2.96" ry="3.19"/><ellipse class="cls-2" cx="821.72" cy="287.05" rx="2.96" ry="3.19"/><ellipse class="cls-2" cx="829.61" cy="287.04" rx="2.96" ry="3.19"/><ellipse class="cls-2" cx="837.51" cy="287.04" rx="2.96" ry="3.19"/><ellipse class="cls-2" cx="845.41" cy="287.04" rx="2.96" ry="3.19"/><ellipse class="cls-2" cx="853.3" cy="287.04" rx="2.96" ry="3.19"/><ellipse class="cls-2" cx="861.2" cy="287.04" rx="2.96" ry="3.19"/><ellipse class="cls-2" cx="869.1" cy="287.05" rx="2.96" ry="3.19"/><ellipse class="cls-2" cx="876.99" cy="287.04" rx="2.96" ry="3.19"/><ellipse class="cls-2" cx="884.89" cy="287.04" rx="2.96" ry="3.19"/><ellipse class="cls-2" cx="892.79" cy="287.05" rx="2.96" ry="3.19"/><ellipse class="cls-2" cx="900.68" cy="287.04" rx="2.96" ry="3.19"/><ellipse class="cls-2" cx="908.58" cy="287.05" rx="2.96" ry="3.19"/><ellipse class="cls-2" cx="916.48" cy="287.04" rx="2.96" ry="3.19"/><ellipse class="cls-2" cx="924.37" cy="287.05" rx="2.96" ry="3.19"/><ellipse class="cls-2" cx="932.27" cy="287.04" rx="2.96" ry="3.19"/><ellipse class="cls-2" cx="940.17" cy="287.04" rx="2.96" ry="3.19"/><ellipse class="cls-2" cx="948.06" cy="287.05" rx="2.96" ry="3.19"/><ellipse class="cls-2" cx="955.96" cy="287.04" rx="2.96" ry="3.19"/><ellipse class="cls-2" cx="813.82" cy="278.53" rx="2.96" ry="3.19"/><ellipse class="cls-2" cx="821.72" cy="278.53" rx="2.96" ry="3.19"/><ellipse class="cls-2" cx="829.61" cy="278.53" rx="2.96" ry="3.19"/><ellipse class="cls-2" cx="837.51" cy="278.53" rx="2.96" ry="3.19"/><ellipse class="cls-2" cx="845.41" cy="278.53" rx="2.96" ry="3.19"/><ellipse class="cls-2" cx="853.3" cy="278.53" rx="2.96" ry="3.19"/><ellipse class="cls-2" cx="861.2" cy="278.53" rx="2.96" ry="3.19"/><ellipse class="cls-2" cx="869.1" cy="278.53" rx="2.96" ry="3.19"/><ellipse class="cls-2" cx="876.99" cy="278.53" rx="2.96" ry="3.19"/><ellipse class="cls-2" cx="884.89" cy="278.53" rx="2.96" ry="3.19"/><ellipse class="cls-2" cx="892.79" cy="278.53" rx="2.96" ry="3.19"/><ellipse class="cls-2" cx="900.68" cy="278.53" rx="2.96" ry="3.19"/><ellipse class="cls-2" cx="908.58" cy="278.53" rx="2.96" ry="3.19"/><ellipse class="cls-2" cx="916.48" cy="278.53" rx="2.96" ry="3.19"/><ellipse class="cls-2" cx="924.37" cy="278.53" rx="2.96" ry="3.19"/><ellipse class="cls-2" cx="932.27" cy="278.53" rx="2.96" ry="3.19"/><ellipse class="cls-2" cx="940.17" cy="278.53" rx="2.96" ry="3.19"/><ellipse class="cls-2" cx="948.06" cy="278.53" rx="2.96" ry="3.19"/><ellipse class="cls-2" cx="955.96" cy="278.53" rx="2.96" ry="3.19"/><ellipse class="cls-2" cx="813.82" cy="270.02" rx="2.96" ry="3.19"/><ellipse class="cls-2" cx="821.72" cy="270.02" rx="2.96" ry="3.19"/><ellipse class="cls-2" cx="829.61" cy="270.02" rx="2.96" ry="3.19"/><ellipse class="cls-2" cx="837.51" cy="270.02" rx="2.96" ry="3.19"/><ellipse class="cls-2" cx="845.41" cy="270.02" rx="2.96" ry="3.19"/><ellipse class="cls-2" cx="853.3" cy="270.02" rx="2.96" ry="3.19"/><ellipse class="cls-2" cx="861.2" cy="270.02" rx="2.96" ry="3.19"/><ellipse class="cls-2" cx="869.1" cy="270.02" rx="2.96" ry="3.19"/><ellipse class="cls-2" cx="876.99" cy="270.02" rx="2.96" ry="3.19"/><ellipse class="cls-2" cx="884.89" cy="270.02" rx="2.96" ry="3.19"/><ellipse class="cls-2" cx="892.79" cy="270.02" rx="2.96" ry="3.19"/><ellipse class="cls-2" cx="900.68" cy="270.02" rx="2.96" ry="3.19"/><ellipse class="cls-2" cx="908.58" cy="270.02" rx="2.96" ry="3.19"/><ellipse class="cls-2" cx="916.48" cy="270.02" rx="2.96" ry="3.19"/><ellipse class="cls-2" cx="924.37" cy="270.02" rx="2.96" ry="3.19"/><ellipse class="cls-2" cx="932.27" cy="270.02" rx="2.96" ry="3.19"/><ellipse class="cls-2" cx="940.17" cy="270.02" rx="2.96" ry="3.19"/><ellipse class="cls-2" cx="948.06" cy="270.02" rx="2.96" ry="3.19"/><ellipse class="cls-2" cx="955.96" cy="270.02" rx="2.96" ry="3.19"/><ellipse class="cls-2" cx="813.82" cy="261.51" rx="2.96" ry="3.19"/><ellipse class="cls-2" cx="821.72" cy="261.51" rx="2.96" ry="3.19"/><ellipse class="cls-2" cx="829.61" cy="261.51" rx="2.96" ry="3.19"/><ellipse class="cls-2" cx="837.51" cy="261.51" rx="2.96" ry="3.19"/><ellipse class="cls-2" cx="845.41" cy="261.51" rx="2.96" ry="3.19"/><ellipse class="cls-2" cx="853.3" cy="261.51" rx="2.96" ry="3.19"/><ellipse class="cls-2" cx="861.2" cy="261.51" rx="2.96" ry="3.19"/><ellipse class="cls-2" cx="869.1" cy="261.51" rx="2.96" ry="3.19"/><ellipse class="cls-2" cx="876.99" cy="261.51" rx="2.96" ry="3.19"/><ellipse class="cls-2" cx="884.89" cy="261.51" rx="2.96" ry="3.19"/><ellipse class="cls-2" cx="892.79" cy="261.51" rx="2.96" ry="3.19"/><ellipse class="cls-2" cx="900.68" cy="261.51" rx="2.96" ry="3.19"/><ellipse class="cls-2" cx="908.58" cy="261.51" rx="2.96" ry="3.19"/><ellipse class="cls-2" cx="916.48" cy="261.51" rx="2.96" ry="3.19"/><ellipse class="cls-2" cx="924.37" cy="261.51" rx="2.96" ry="3.19"/><ellipse class="cls-2" cx="932.27" cy="261.51" rx="2.96" ry="3.19"/><ellipse class="cls-2" cx="940.17" cy="261.51" rx="2.96" ry="3.19"/><ellipse class="cls-2" cx="948.06" cy="261.51" rx="2.96" ry="3.19"/><ellipse class="cls-2" cx="955.96" cy="261.51" rx="2.96" ry="3.19"/><ellipse class="cls-2" cx="813.82" cy="253" rx="2.96" ry="3.19"/><ellipse class="cls-2" cx="821.72" cy="253" rx="2.96" ry="3.19"/><ellipse class="cls-2" cx="829.61" cy="253" rx="2.96" ry="3.19"/><ellipse class="cls-2" cx="837.51" cy="253" rx="2.96" ry="3.19"/><ellipse class="cls-2" cx="845.41" cy="253" rx="2.96" ry="3.19"/><ellipse class="cls-2" cx="853.3" cy="253" rx="2.96" ry="3.19"/><ellipse class="cls-2" cx="861.2" cy="253" rx="2.96" ry="3.19"/><ellipse class="cls-2" cx="869.1" cy="253" rx="2.96" ry="3.19"/><ellipse class="cls-2" cx="876.99" cy="253" rx="2.96" ry="3.19"/><ellipse class="cls-2" cx="884.89" cy="253" rx="2.96" ry="3.19"/><ellipse class="cls-2" cx="892.79" cy="253" rx="2.96" ry="3.19"/><ellipse class="cls-2" cx="900.68" cy="253" rx="2.96" ry="3.19"/><ellipse class="cls-2" cx="908.58" cy="253" rx="2.96" ry="3.19"/><ellipse class="cls-2" cx="916.48" cy="253" rx="2.96" ry="3.19"/><ellipse class="cls-2" cx="924.37" cy="253" rx="2.96" ry="3.19"/><ellipse class="cls-2" cx="932.27" cy="253" rx="2.96" ry="3.19"/><ellipse class="cls-2" cx="940.17" cy="253" rx="2.96" ry="3.19"/><ellipse class="cls-2" cx="948.06" cy="253" rx="2.96" ry="3.19"/><ellipse class="cls-2" cx="955.96" cy="253" rx="2.96" ry="3.19"/><ellipse class="cls-2" cx="813.82" cy="244.49" rx="2.96" ry="3.19"/><ellipse class="cls-2" cx="821.72" cy="244.49" rx="2.96" ry="3.19"/><ellipse class="cls-2" cx="829.61" cy="244.49" rx="2.96" ry="3.19"/><ellipse class="cls-2" cx="837.51" cy="244.49" rx="2.96" ry="3.19"/><ellipse class="cls-2" cx="845.41" cy="244.49" rx="2.96" ry="3.19"/><ellipse class="cls-2" cx="853.3" cy="244.49" rx="2.96" ry="3.19"/><ellipse class="cls-2" cx="861.2" cy="244.49" rx="2.96" ry="3.19"/><ellipse class="cls-2" cx="869.1" cy="244.49" rx="2.96" ry="3.19"/><ellipse class="cls-2" cx="876.99" cy="244.49" rx="2.96" ry="3.19"/><ellipse class="cls-2" cx="884.89" cy="244.49" rx="2.96" ry="3.19"/><ellipse class="cls-2" cx="892.79" cy="244.49" rx="2.96" ry="3.19"/><ellipse class="cls-2" cx="900.68" cy="244.49" rx="2.96" ry="3.19"/><ellipse class="cls-2" cx="908.58" cy="244.49" rx="2.96" ry="3.19"/><ellipse class="cls-2" cx="916.48" cy="244.49" rx="2.96" ry="3.19"/><ellipse class="cls-2" cx="924.37" cy="244.49" rx="2.96" ry="3.19"/><ellipse class="cls-2" cx="932.27" cy="244.49" rx="2.96" ry="3.19"/><ellipse class="cls-2" cx="940.17" cy="244.49" rx="2.96" ry="3.19"/><ellipse class="cls-2" cx="948.06" cy="244.49" rx="2.96" ry="3.19"/><ellipse class="cls-2" cx="955.96" cy="244.49" rx="2.96" ry="3.19"/><ellipse class="cls-2" cx="813.82" cy="235.98" rx="2.96" ry="3.19"/><ellipse class="cls-2" cx="821.72" cy="235.98" rx="2.96" ry="3.19"/><ellipse class="cls-2" cx="829.61" cy="235.98" rx="2.96" ry="3.19"/><ellipse class="cls-2" cx="837.51" cy="235.98" rx="2.96" ry="3.19"/><ellipse class="cls-2" cx="845.41" cy="235.98" rx="2.96" ry="3.19"/><ellipse class="cls-2" cx="853.3" cy="235.98" rx="2.96" ry="3.19"/><ellipse class="cls-2" cx="861.2" cy="235.98" rx="2.96" ry="3.19"/><ellipse class="cls-2" cx="869.1" cy="235.98" rx="2.96" ry="3.19"/><ellipse class="cls-2" cx="876.99" cy="235.98" rx="2.96" ry="3.19"/><ellipse class="cls-2" cx="884.89" cy="235.98" rx="2.96" ry="3.19"/><ellipse class="cls-2" cx="892.79" cy="235.98" rx="2.96" ry="3.19"/><ellipse class="cls-2" cx="900.68" cy="235.98" rx="2.96" ry="3.19"/><ellipse class="cls-2" cx="908.58" cy="235.98" rx="2.96" ry="3.19"/><ellipse class="cls-2" cx="916.48" cy="235.98" rx="2.96" ry="3.19"/><ellipse class="cls-2" cx="924.37" cy="235.98" rx="2.96" ry="3.19"/><ellipse class="cls-2" cx="932.27" cy="235.98" rx="2.96" ry="3.19"/><ellipse class="cls-2" cx="940.17" cy="235.98" rx="2.96" ry="3.19"/><ellipse class="cls-2" cx="948.06" cy="235.98" rx="2.96" ry="3.19"/><ellipse class="cls-2" cx="955.96" cy="235.98" rx="2.96" ry="3.19"/></g><rect class="cls-2" x="773.37" y="162.43" width="396.07" height="69.16"/></g><path class="cls-11" d="M704.85,126.47c0,9.48,7.13,17.17,15.93,17.17H861.51c8.8,0,15.93-7.69,15.93-17.17h0c0-9.48-7.13-17.17-15.93-17.17H720.79c-8.8,0-15.93,7.69-15.93,17.17Z"/><path class="cls-12" d="M679.62,181.7c0,9.48,7.13,17.17,15.93,17.17h64.61c8.8,0,15.93-7.69,15.93-17.17h0c0-9.48-7.13-17.17-15.93-17.17H695.55c-8.8,0-15.93,7.69-15.93,17.17Z"/><path class="cls-2" d="M884,333.47c0,9.48,7.13,17.17,15.93,17.17h111.22c8.8,0,15.93-7.69,15.93-17.17h0c0-9.48-7.13-17.17-15.93-17.17H899.94c-8.8,0-15.93,7.69-15.93,17.17Z"/><ellipse class="cls-11" cx="758.01" cy="43.36" rx="16.56" ry="17.85"/><ellipse class="cls-11" cx="680.12" cy="125.71" rx="16.56" ry="17.85"/></g></g></g></g></svg>