<svg id="Layer_1" data-name="Layer 1" xmlns="http://www.w3.org/2000/svg" viewBox="0 0 30 30"><defs><style>.cls-1{fill:#ed1c24;}</style></defs><title>28</title><path class="cls-1" d="M25.61,4.39A15,15,0,0,0,4.39,25.61,15,15,0,0,0,25.61,4.39ZM18.34,15.27,22.08,19a.77.77,0,0,1,0,1.09l-2.16,2.16a.78.78,0,0,1-1.09,0l-3.74-3.74a.2.2,0,0,0-.27,0l-3.74,3.74a.78.78,0,0,1-1.09,0L7.82,20.11a.78.78,0,0,1,0-1.09l3.74-3.74a.2.2,0,0,0,0-.27l-3.9-3.9a.77.77,0,0,1,0-1.09L9.82,7.85a.77.77,0,0,1,1.09,0l3.9,3.9a.2.2,0,0,0,.27,0L19,7.85a.78.78,0,0,1,1.09,0L22.24,10a.77.77,0,0,1,0,1.09L18.34,15a.2.2,0,0,0,0,.27Zm0,0"/></svg>