<svg id="Layer_1" data-name="Layer 1" xmlns="http://www.w3.org/2000/svg" viewBox="0 0 40.99 40.43"><defs><style>.cls-1{fill:#16202c;}.cls-2{fill:#fff;opacity:0.7;}</style></defs><title>30</title><rect class="cls-1" width="40.99" height="40.43"/><path class="cls-2" d="M25.65,24.23l-2.79-.7-.16-.65a9.25,9.25,0,0,0,3-.93.37.37,0,0,0,.18-.29.37.37,0,0,0-.14-.31s-1.32-1.09-1.32-4.82c0-3.14-.74-4.74-2.19-4.74H22a2.33,2.33,0,0,0-2-.73c-1.37,0-4.37,1.38-4.37,5.47,0,3.73-1.3,4.81-1.31,4.81a.36.36,0,0,0,0,.6,9.05,9.05,0,0,0,3,.93l-.16.64-2.79.7a4.09,4.09,0,0,0-3.1,4,.36.36,0,0,0,.36.36H28.39a.37.37,0,0,0,.36-.37A4.09,4.09,0,0,0,25.65,24.23Z"/></svg>