<svg id="Layer_1" data-name="Layer 1" xmlns="http://www.w3.org/2000/svg" xmlns:xlink="http://www.w3.org/1999/xlink" viewBox="0 0 269.25 35"><defs><style>.cls-1,.cls-2{fill:none;}.cls-2{stroke-linecap:round;stroke-linejoin:round;stroke-width:16px;stroke:url(#radial-gradient);}.cls-3{fill:#95d600;}.cls-4{clip-path:url(#clip-path);}.cls-5{fill:#fff;}.cls-6{fill:#3e8ede;}.cls-7{fill:#ed1e79;}</style><radialGradient id="radial-gradient" cx="753.52" cy="110.86" r="76.58" gradientTransform="translate(-708.06 -37.75) scale(1.13 0.5)" gradientUnits="userSpaceOnUse"><stop offset="0.26" stop-color="#ee5ea0"/><stop offset="1" stop-color="#ba1b8c"/></radialGradient><clipPath id="clip-path"><rect class="cls-1" x="6.62" y="9.24" width="21" height="15.91"/></clipPath></defs><title>31</title><line class="cls-2" x1="252.15" y1="17.68" x2="27.15" y2="17.68"/><circle class="cls-3" cx="17.5" cy="17.5" r="17.5"/><g class="cls-4"><path class="cls-5" d="M16,24a2.41,2.41,0,0,1-3.41,0L7.33,18.74a2.41,2.41,0,0,1,3.41-3.41l3.15,3.15a.61.61,0,0,0,.86,0l8.53-8.53a2.41,2.41,0,1,1,3.41,3.41Zm0,0"/></g><circle class="cls-6" cx="95.58" cy="17.5" r="17.5"/><path class="cls-5" d="M96.58,14.79c0-.63-.45-1-1.26-1a6.58,6.58,0,0,0-3.78,1.75l-1.54-3a10.35,10.35,0,0,1,5.95-2.13c2.82,0,4.92,1.48,4.92,3.68,0,1.56-1.16,3.09-2.7,4.65l-2.48,2.48h5.47V24.5H90.47V21.88l4.9-5.08A3.71,3.71,0,0,0,96.58,14.79Z"/><circle class="cls-7" cx="173.66" cy="17.5" r="17.5"/><path class="cls-5" d="M179.31,19.94c0,2.69-2.21,4.56-5.67,4.56A9.77,9.77,0,0,1,168,22.74l1.64-3.12a5,5,0,0,0,3.65,1.82c1.3,0,2-.51,2-1.46s-.69-1.46-2-1.46h-2.47V16.36l2.92-2.82h-5v-3h9.89v2.31L175.17,16l.67.12A3.82,3.82,0,0,1,179.31,19.94Z"/><circle class="cls-7" cx="251.75" cy="17.5" r="17.5"/><path class="cls-5" d="M256.38,15.16,252,9.89a.52.52,0,0,0-.73,0l-4.39,5.27a.44.44,0,0,0,.34.72h2.2v4.9a.44.44,0,0,0,.44.44h3.57a.44.44,0,0,0,.44-.44v-4.9H256A.44.44,0,0,0,256.38,15.16Z"/><path class="cls-5" d="M258.68,18.59h-1.76a.44.44,0,0,0-.44.44V22.1h-9.73V19a.44.44,0,0,0-.44-.44h-1.76a.44.44,0,0,0-.44.44v4.39a1.32,1.32,0,0,0,1.32,1.32h12.36a1.32,1.32,0,0,0,1.32-1.32V19A.44.44,0,0,0,258.68,18.59Z"/></svg>