<svg id="Layer_1" data-name="Layer 1" xmlns="http://www.w3.org/2000/svg" viewBox="0 0 126 30"><defs><style>.cls-1{fill:#95d600;}.cls-2{fill:#32450a;}</style></defs><title>32</title><rect class="cls-1" width="126" height="30" rx="7.56" ry="7.56"/><path class="cls-2" d="M110.89,14.13l-6.27-6.27a1.22,1.22,0,0,0-1.74,0l-.72.72a1.21,1.21,0,0,0,0,1.73L105,13.15H98.2a1,1,0,0,0-.81.36,1.29,1.29,0,0,0-.31.87v1.23a1.29,1.29,0,0,0,.31.87,1,1,0,0,0,.81.36H105l-2.82,2.82a1.23,1.23,0,0,0,0,1.75l.72.72a1.24,1.24,0,0,0,1.74,0l6.27-6.27a1.19,1.19,0,0,0,.36-.88,1.14,1.14,0,0,0-.36-.87Zm0,0"/><path class="cls-2" d="M18.89,6C21.58,6,23,7.61,23,10.42V11H20.35v-.73c0-1.26-.5-1.73-1.38-1.73s-1.38.48-1.38,1.73c0,3.61,5.4,4.29,5.4,9.31C23,22.37,21.58,24,18.87,24s-4.12-1.61-4.12-4.42V18.48h2.61v1.25c0,1.26.55,1.71,1.43,1.71s1.43-.45,1.43-1.71c0-3.61-5.4-4.29-5.4-9.31C14.83,7.61,16.21,6,18.89,6Z"/><path class="cls-2" d="M24.57,6.2h2.76V23.77H24.57Z"/><path class="cls-2" d="M33.48,14h3.87v5.57c0,2.81-1.41,4.42-4.12,4.42s-4.12-1.61-4.12-4.42V10.42C29.11,7.61,30.52,6,33.23,6s4.12,1.61,4.12,4.42v1.71H34.74V10.24c0-1.26-.55-1.73-1.43-1.73s-1.43.48-1.43,1.73v9.49c0,1.26.55,1.71,1.43,1.71s1.43-.45,1.43-1.71V16.49H33.48Z"/><path class="cls-2" d="M41.77,6.2V19.76c0,1.26.55,1.71,1.43,1.71s1.43-.45,1.43-1.71V6.2h2.61V19.58c0,2.81-1.41,4.42-4.12,4.42S39,22.39,39,19.58V6.2Z"/><path class="cls-2" d="M49.12,6.2h2.76V23.77H49.12Z"/><path class="cls-2" d="M56.65,13.61h3.79v2.51H56.65v5.15h4.77v2.51H53.89V6.2h7.53V8.71H56.65Z"/><path class="cls-2" d="M65.59,11V23.77H63.11V6.2h3.46l2.84,10.52V6.2h2.46V23.77H69Z"/><path class="cls-2" d="M73,6.2h8.54V8.71H78.7V23.77H75.94V8.71H73Z"/><path class="cls-2" d="M85.55,13.61h3.79v2.51H85.55v5.15h4.77v2.51H82.79V6.2h7.53V8.71H85.55Z"/></svg>