<svg id="Layer_1" data-name="Layer 1" xmlns="http://www.w3.org/2000/svg" viewBox="0 0 40.99 40.43"><defs><style>.cls-1{opacity:0.3;}.cls-2{fill:#c7c7c7;}.cls-3{opacity:0.7;}.cls-4{fill:#fff;}</style></defs><title>33</title><g class="cls-1"><rect class="cls-2" width="40.99" height="40.43"/></g><g class="cls-3"><path class="cls-4" d="M27.76,13.67h-.53v-.53a1.58,1.58,0,0,0-3.16,0v.53H22v-.53a1.58,1.58,0,0,0-3.16,0v.53H16.62v-.53a1.58,1.58,0,0,0-3.16,0v.53h-.53a1.58,1.58,0,0,0-1.58,1.58V28a1.58,1.58,0,0,0,1.58,1.58H27.76A1.58,1.58,0,0,0,29.34,28V15.25A1.58,1.58,0,0,0,27.76,13.67Zm-2.64-.53a.53.53,0,0,1,1.05,0v2.11a.53.53,0,1,1-1.05,0Zm-5.27,0a.53.53,0,0,1,1.05,0v2.11a.53.53,0,1,1-1.05,0Zm-5.34,0a.53.53,0,0,1,1.05,0v2.11a.53.53,0,0,1-1.05,0Zm-1.58,1.58h.53v.53a1.58,1.58,0,0,0,3.16,0v-.53H18.8v.53a1.58,1.58,0,1,0,3.16,0v-.53h2.11v.53a1.58,1.58,0,1,0,3.16,0v-.53h.53a.53.53,0,0,1,.53.53V18H12.4V15.25A.53.53,0,0,1,12.93,14.72ZM28.29,28a.53.53,0,0,1-.53.53H12.93A.53.53,0,0,1,12.4,28V19H28.29Z" transform="translate(0 0)"/><path class="cls-4" d="M14,27.45H26.71a.53.53,0,0,0,.53-.53V20.59a.53.53,0,0,0-.53-.53H14a.53.53,0,0,0-.53.53v6.33A.53.53,0,0,0,14,27.45Zm3.69-3.16h2.18v2.11H17.67Zm-1.05,2.11H14.51V24.28h2.11Zm4.29-2.11H23v2.11H20.91Zm3.16,0h2.11v2.11H24.07Zm2.11-1.05H24.07V21.12h2.11Zm-3.16,0H20.91V21.12H23Zm-3.16,0H17.67V21.12h2.18Zm-3.23,0H14.51V21.12h2.11Z" transform="translate(0 0)"/></g></svg>