<svg id="Layer_1" data-name="Layer 1" xmlns="http://www.w3.org/2000/svg" xmlns:xlink="http://www.w3.org/1999/xlink" viewBox="0 0 40.99 40.43"><defs><style>.cls-1{fill:none;}.cls-2{opacity:0.3;}.cls-3{fill:#c7c7c7;}.cls-4{clip-path:url(#clip-path);}.cls-5{fill:#fff;opacity:0.7;}</style><clipPath id="clip-path"><rect class="cls-1" x="11.73" y="10.37" width="17.5" height="18.78" transform="translate(0.46 39.98) rotate(-89.26)"/></clipPath></defs><title>36</title><g class="cls-2"><rect class="cls-3" width="40.99" height="40.43"/></g><g class="cls-4"><path class="cls-5" d="M29.53,19l-2.8-2.88,0-3.28a1.07,1.07,0,0,0-2.15,0V14l-2.09-2.14a2.83,2.83,0,0,0-3.91,0l-7.19,7a1.07,1.07,0,0,0,1.5,1.54l7.19-7a.63.63,0,0,1,.87,0l7,7.2A1.07,1.07,0,1,0,29.53,19Zm0,0"/></g><path class="cls-5" d="M20.9,15.36a.53.53,0,0,0-.75,0l-6.33,6.16a.53.53,0,0,0-.16.37l-.06,4.56a1.94,1.94,0,0,0,1.91,2l3.09,0,.06-4.79,3.49,0-.06,4.79,3.09,0a1.94,1.94,0,0,0,2-1.91l.06-4.56a.53.53,0,0,0-.15-.38Zm0,0"/></svg>