<svg id="Layer_1" data-name="Layer 1" xmlns="http://www.w3.org/2000/svg" xmlns:xlink="http://www.w3.org/1999/xlink" viewBox="0 0 40.99 40.43"><defs><style>.cls-1{fill:none;}.cls-2{opacity:0.3;}.cls-3{fill:#c7c7c7;}.cls-4{clip-path:url(#clip-path);}.cls-5{fill:#fff;opacity:0.7;}</style><clipPath id="clip-path"><rect class="cls-1" x="12.2" y="12.01" width="17.44" height="17.5"/></clipPath></defs><title>37</title><g class="cls-2"><rect class="cls-3" width="40.99" height="40.43"/></g><g class="cls-4"><path class="cls-5" d="M29,25.6l-2.66-2.66a1.39,1.39,0,0,0-2,0l-1.34,1.34-.26-.15a13.36,13.36,0,0,1-3.22-2.33,13.39,13.39,0,0,1-2.34-3.23l-.14-.26.9-.9.44-.44a1.39,1.39,0,0,0,0-2L15.83,12.4a1.38,1.38,0,0,0-2,0l-.75.75,0,0a4.35,4.35,0,0,0-.62,1.09,4.48,4.48,0,0,0-.27,1.11c-.35,2.91,1,5.57,4.59,9.19,5,5,9,4.62,9.19,4.6a4.49,4.49,0,0,0,1.11-.28,4.29,4.29,0,0,0,1.08-.62h0l.76-.74a1.39,1.39,0,0,0,0-2Zm0,0"/></g></svg>