<svg id="Layer_1" data-name="Layer 1" xmlns="http://www.w3.org/2000/svg" xmlns:xlink="http://www.w3.org/1999/xlink" viewBox="0 0 40.99 40.43"><defs><style>.cls-1{fill:none;}.cls-2{opacity:0.3;}.cls-3{fill:#c7c7c7;}.cls-4{clip-path:url(#clip-path);}.cls-5{fill:#fff;opacity:0.7;}</style><clipPath id="clip-path"><rect class="cls-1" x="7.87" y="10.38" width="26.25" height="17.5"/></clipPath></defs><title>38</title><g class="cls-2"><rect class="cls-3" width="40.99" height="40.43"/></g><g class="cls-4"><path class="cls-5" d="M33.85,20.44h-2.3a.53.53,0,0,0-.36.24l-.66,1a1.39,1.39,0,0,0-.16.43c-.11.58-.69,2.08-3.66,2.08-3.69,0-3.37-5.48-3.25-6.68a.67.67,0,0,0-.11-.41l-2.49-3.4c-.08-.1-.24-.27-.37-.27H19.11c-.13,0-.29,0-.37-.09l-1.55-1.93a.53.53,0,0,0-.37-.16H15c-.13,0-.36.16-.36.29V12c0,.13,0,.13-.1.13H13.12a.72.72,0,0,1-.41-.09l-1.94-1.53a.74.74,0,0,0-.41-.12H8.05a.17.17,0,0,0-.17.23l1.26,4.71c0,.12,0,.31-.17.31H8.05c-.13,0-.16,0-.07.08L9.5,17.18a1.86,1.86,0,0,1,.28.32l2.53,4.21a.25.25,0,0,0,.32.09l.51-.25a.25.25,0,0,0,.12-.32l-3-7.49c0-.12,0-.3.14-.3h.46c.13,0,.29.17.36.28l4.35,6.57a2,2,0,0,1,.19.44l.79,2.79a.77.77,0,0,0,.25.36l4.23,3a.62.62,0,0,0,.41.09l4.1-.86a.68.68,0,0,1,.42.07l2,1.18a.31.31,0,0,0,.36,0l.6-.57a.61.61,0,0,1,.39-.13h1.38a.15.15,0,0,0,.13-.23l-.25-.52a.36.36,0,0,1,.06-.38l2.9-2.9a1,1,0,0,0,.22-.39L34,20.71a.21.21,0,0,0-.18-.27Zm0,0"/></g></svg>