<svg id="Layer_1" data-name="Layer 1" xmlns="http://www.w3.org/2000/svg" xmlns:xlink="http://www.w3.org/1999/xlink" viewBox="0 0 20.71 12"><defs><style>.cls-1{fill:none;}.cls-2{clip-path:url(#clip-path);}.cls-3{fill:#3d4a5a;}</style><clipPath id="clip-path"><rect class="cls-1" width="20.71" height="12"/></clipPath></defs><title>39</title><g class="cls-2"><path class="cls-3" d="M20.68,1.61a1.69,1.69,0,0,1-.46,1.18l-8.75,8.75a1.44,1.44,0,0,1-1.12.46,1.44,1.44,0,0,1-1.12-.46L.49,2.79a1.59,1.59,0,0,1,0-2.3,1.51,1.51,0,0,1,2.24,0l7.63,7.63L18,.49a1.51,1.51,0,0,1,2.24,0,1.54,1.54,0,0,1,.46,1.12Zm0,0"/></g></svg>