<svg id="Layer_1" data-name="Layer 1" xmlns="http://www.w3.org/2000/svg" viewBox="0 0 290.11 160"><defs><style>.cls-1{fill:#ed1e79;}.cls-2{fill:#95d600;}.cls-3{fill:#beff0b;}.cls-4{fill:#00adee;}.cls-5{fill:#daefa9;}.cls-6{fill:#0e9347;}.cls-7{fill:#0d8944;}.cls-8{fill:#3bb54a;}.cls-9{fill:#89c763;}.cls-10{fill:#ffca5d;}.cls-11{fill:#f6b545;}.cls-12{fill:#ffcb5b;}.cls-13{fill:#ffe27a;}.cls-14{fill:#f19920;}.cls-15{fill:#e78825;}</style></defs><title>40</title><rect class="cls-1" x="0.05" width="290.01" height="51.18" rx="12" ry="12"/><path class="cls-2" d="M16.78,18.64,17.3,28V38.89H13.22V28l.52-9.4Zm-3.49-1.82V12.88h3.94v3.94Z"/><path class="cls-3" d="M25.77,12.58c4,0,6,2.38,6,6.54v.82H27.93V18.86c0-1.86-.74-2.56-2-2.56s-2,.71-2,2.56c0,5.35,8,6.35,8,13.78,0,4.16-2.08,6.54-6.09,6.54s-6.09-2.38-6.09-6.54V31h3.86V32.9c0,1.86.82,2.53,2.12,2.53s2.12-.67,2.12-2.53c0-5.35-8-6.35-8-13.78C19.75,15,21.8,12.58,25.77,12.58Z"/><path class="cls-3" d="M33.83,19.12c0-4.16,2.19-6.54,6.2-6.54s6.2,2.38,6.2,6.54V32.64c0,4.16-2.19,6.54-6.2,6.54s-6.2-2.38-6.2-6.54ZM37.92,32.9c0,1.86.82,2.56,2.12,2.56s2.12-.71,2.12-2.56v-14c0-1.86-.82-2.56-2.12-2.56s-2.12.71-2.12,2.56Z"/><path class="cls-3" d="M48.88,12.88H53V35.17h6.72v3.71H48.88Z"/><path class="cls-3" d="M61.47,12.88h4.09v26H61.47Z"/><path class="cls-3" d="M80.38,29.19v3.45c0,4.16-2.08,6.54-6.09,6.54s-6.09-2.38-6.09-6.54V19.12c0-4.16,2.08-6.54,6.09-6.54s6.09,2.38,6.09,6.54v2.53H76.52V18.86c0-1.86-.82-2.56-2.12-2.56s-2.12.71-2.12,2.56v14c0,1.86.82,2.53,2.12,2.53s2.12-.67,2.12-2.53V29.19Z"/><path class="cls-3" d="M82.87,12.88H87v26H82.87Z"/><path class="cls-3" d="M88.74,12.88h12.63V16.6H97.1V38.89H93V16.6H88.74Z"/><path class="cls-3" d="M115,38.89h-4.12l-.71-4.72h-5l-.71,4.72h-3.75l4.16-26h6Zm-9.32-8.25h3.94l-2-13.15Z"/><path class="cls-4" d="M121.43,12.88h12.63V16.6h-4.27V38.89H125.7V16.6h-4.27Z"/><path class="cls-4" d="M139.74,12.88V32.94c0,1.86.82,2.53,2.12,2.53S144,34.8,144,32.94V12.88h3.86v19.8c0,4.16-2.08,6.54-6.09,6.54s-6.09-2.38-6.09-6.54V12.88Z"/><path class="cls-5" d="M169.61,38.89h-4.12l-.71-4.72h-5l-.71,4.72h-3.75l4.16-26h6Zm-9.32-8.25h3.94l-2-13.15Z"/><path class="cls-5" d="M171.51,12.88H178c4.09,0,6.09,2.27,6.09,6.43V32.46c0,4.16-2,6.43-6.09,6.43h-6.46Zm4.09,3.71V35.17h2.3c1.3,0,2.08-.67,2.08-2.53V19.12c0-1.86-.78-2.53-2.08-2.53Z"/><path class="cls-5" d="M190.75,23.84h5.61v3.71h-5.61v7.62h7.06v3.71H186.66v-26h11.14V16.6h-7.06Z"/><path class="cls-5" d="M200.33,12.88h4.09V35.17h6.72v3.71H200.33Z"/><path class="cls-5" d="M226.15,38.89H222l-.71-4.72h-5l-.71,4.72h-3.75l4.16-26h6Zm-9.32-8.25h3.94l-2-13.15Z"/><path class="cls-5" d="M231.69,20.05V38.89H228v-26h5.13l4.2,15.56V12.88H241v26h-4.2Z"/><path class="cls-5" d="M242.72,12.88h12.63V16.6h-4.27V38.89H247V16.6h-4.27Z"/><path class="cls-5" d="M256.8,19.12c0-4.16,2.19-6.54,6.2-6.54s6.2,2.38,6.2,6.54V32.64c0,4.16-2.19,6.54-6.2,6.54s-6.2-2.38-6.2-6.54Zm4.09,13.78c0,1.86.82,2.56,2.12,2.56s2.12-.71,2.12-2.56v-14c0-1.86-.82-2.56-2.12-2.56s-2.12.71-2.12,2.56Z"/><path class="cls-2" d="M272.37,33.13l-.52-9.4V12.88h4.09V23.73l-.52,9.4Zm3.49,1.82v3.94h-3.94V34.95Z"/><path class="cls-6" d="M200.36,119.29H84a5.83,5.83,0,0,1-5.82-5.82v-64A5.83,5.83,0,0,1,84,43.69H200.36a5.83,5.83,0,0,1,5.82,5.82v64A5.83,5.83,0,0,1,200.36,119.29Z"/><path class="cls-7" d="M185.82,96a19.46,19.46,0,0,0-16.28,8.43,21.69,21.69,0,0,0-9.89-2.62,20.35,20.35,0,0,0-20.06,17.45h60.77a5.91,5.91,0,0,0,5.82-4.94A20.71,20.71,0,0,0,185.82,96Z"/><path class="cls-8" d="M188.73,113.47H95.68A11.67,11.67,0,0,0,84,101.84V61.13A11.67,11.67,0,0,0,95.68,49.5h93.05a11.67,11.67,0,0,0,11.63,11.63v40.71A11.67,11.67,0,0,0,188.73,113.47Z"/><path class="cls-6" d="M185.82,96a19.46,19.46,0,0,0-16.28,8.43,21.69,21.69,0,0,0-9.89-2.62,20,20,0,0,0-18.32,11.63h47.4a11.61,11.61,0,0,1,11.34-11.63A21,21,0,0,0,185.82,96Z"/><ellipse class="cls-6" cx="142.21" cy="81.49" rx="23.26" ry="26.17"/><circle class="cls-6" cx="107.31" cy="81.49" r="5.82"/><circle class="cls-6" cx="177.1" cy="81.49" r="5.82"/><path class="cls-9" d="M145.11,78.58H139.3a2.91,2.91,0,1,1,0-5.82H148a2.91,2.91,0,1,0,0-5.82h-2.91a2.91,2.91,0,0,0-5.82,0,8.72,8.72,0,0,0,0,17.45h5.82a2.91,2.91,0,1,1,0,5.82h-8.72a2.91,2.91,0,0,0,0,5.82h2.91a2.91,2.91,0,0,0,5.82,0,8.72,8.72,0,1,0,0-17.45Z"/><circle class="cls-10" cx="153.84" cy="122.2" r="20.36"/><circle class="cls-11" cx="180.01" cy="116.38" r="20.36"/><path class="cls-12" d="M180,96a20.36,20.36,0,1,0,20.36,20.36A20.23,20.23,0,0,0,180,96Zm0,34.89a14.54,14.54,0,1,1,14.54-14.54A14.4,14.4,0,0,1,180,130.92Z"/><path class="cls-11" d="M180,136.45h0a20,20,0,0,0,20.36-20.06h-.29a3.09,3.09,0,0,0-2.91,2.62,17.58,17.58,0,0,1-5.52,10.47,16.48,16.48,0,0,1-9,4.36A2.61,2.61,0,0,0,180,136.45Z"/><path class="cls-13" d="M180,96.32h0a20,20,0,0,0-20.36,20.06h.29a3.09,3.09,0,0,0,2.91-2.62,17.58,17.58,0,0,1,5.52-10.47,16.48,16.48,0,0,1,9-4.36A2.61,2.61,0,0,0,180,96.32Z"/><path class="cls-14" d="M167.5,118.42A14.4,14.4,0,0,1,182,103.88a13.72,13.72,0,0,1,9.31,3.49,14.49,14.49,0,0,0-25.88,9,13.94,13.94,0,0,0,5.23,11A13.64,13.64,0,0,1,167.5,118.42Z"/><path class="cls-12" d="M188.73,125.4a1.07,1.07,0,0,1-.87-.29,1.41,1.41,0,0,1,0-2,9.7,9.7,0,0,0,2.62-6.69,1.45,1.45,0,0,1,2.91,0,13.43,13.43,0,0,1-3.2,8.72A3.16,3.16,0,0,1,188.73,125.4Z"/><path class="cls-14" d="M180,125.11a2.75,2.75,0,0,1-2.91-2.91V110.57a2.91,2.91,0,1,1,5.82,0V122.2A2.75,2.75,0,0,1,180,125.11Z"/><path class="cls-14" d="M190.77,133.54a23.63,23.63,0,0,0-14-15.7,24.31,24.31,0,0,0-11-16,21,21,0,0,0-5.82,14.25,20.23,20.23,0,0,0,20.36,20.36A16.86,16.86,0,0,0,190.77,133.54Z"/><path class="cls-15" d="M170.7,127.43a15.3,15.3,0,0,1-3.49-9.31,14.08,14.08,0,0,1,4.65-10.47,12.65,12.65,0,0,0-1.74-2,14.25,14.25,0,0,0-4.65,10.76A13.94,13.94,0,0,0,170.7,127.43Z"/><path class="cls-15" d="M177.1,118.13v4.07a2.91,2.91,0,0,0,5.82,0v-.58A23.77,23.77,0,0,0,177.1,118.13Z"/><path class="cls-11" d="M190.77,133.54a18.58,18.58,0,0,0-2.33-5.52,14.07,14.07,0,0,1-8.43,2.91,14.4,14.4,0,0,1-14.54-14.54,14.25,14.25,0,0,1,4.65-10.76,17.74,17.74,0,0,0-4.65-3.49,21,21,0,0,0-5.82,14.25A20.23,20.23,0,0,0,180,136.74,19.5,19.5,0,0,0,190.77,133.54Z"/><path class="cls-14" d="M189.9,130.92a20.1,20.1,0,0,1-7.27,2.91,3.09,3.09,0,0,0-2.62,2.91h0a19.5,19.5,0,0,0,10.76-3.2Z"/><path class="cls-12" d="M165.47,102.13a21,21,0,0,0-5.82,14.25h.29a3.09,3.09,0,0,0,2.91-2.62,18.09,18.09,0,0,1,5.23-10.18A11.79,11.79,0,0,1,165.47,102.13Z"/><circle class="cls-11" cx="153.84" cy="122.2" r="20.36"/><path class="cls-14" d="M150.93,136.74a20.15,20.15,0,0,0,.87,5.82h2a20.29,20.29,0,0,0,19.48-26.17h-2A20.23,20.23,0,0,0,150.93,136.74Z"/><path class="cls-12" d="M153.84,101.84a20.36,20.36,0,1,0,20.36,20.36A20.23,20.23,0,0,0,153.84,101.84Zm0,34.89a14.54,14.54,0,1,1,14.54-14.54A14.4,14.4,0,0,1,153.84,136.74Z"/><path class="cls-11" d="M153.84,142.26h0a20,20,0,0,0,20.36-20.06h-.29a3.09,3.09,0,0,0-2.91,2.62,17.58,17.58,0,0,1-5.52,10.47,16.48,16.48,0,0,1-9,4.36A2.61,2.61,0,0,0,153.84,142.26Z"/><path class="cls-13" d="M153.84,102.13h0a20,20,0,0,0-20.36,20.06h.29a3.09,3.09,0,0,0,2.91-2.62,17.58,17.58,0,0,1,5.52-10.47,16.48,16.48,0,0,1,9-4.36A2.61,2.61,0,0,0,153.84,102.13Z"/><path class="cls-14" d="M141.33,124.23a14.4,14.4,0,0,1,14.54-14.54,13.72,13.72,0,0,1,9.31,3.49,14.49,14.49,0,0,0-25.88,9,13.94,13.94,0,0,0,5.23,11A13.64,13.64,0,0,1,141.33,124.23Z"/><path class="cls-12" d="M162.56,131.21a1.07,1.07,0,0,1-.87-.29,1.41,1.41,0,0,1,0-2,9.7,9.7,0,0,0,2.62-6.69,1.45,1.45,0,0,1,2.91,0,13.43,13.43,0,0,1-3.2,8.72A3.16,3.16,0,0,1,162.56,131.21Z"/><path class="cls-14" d="M153.84,130.92a2.75,2.75,0,0,1-2.91-2.91V116.38a2.91,2.91,0,1,1,5.82,0V128A2.75,2.75,0,0,1,153.84,130.92Z"/><path class="cls-11" d="M167.21,116.67a17,17,0,0,1,1.16,5.52,14.4,14.4,0,0,1-14.54,14.54,9.89,9.89,0,0,1-2.91-.29v.29a20.15,20.15,0,0,0,.87,5.82h2a20.29,20.29,0,0,0,19.48-26.17h-2A19.2,19.2,0,0,0,167.21,116.67Z"/><circle class="cls-11" cx="168.38" cy="139.64" r="20.36"/><path class="cls-12" d="M168.38,119.29a20.36,20.36,0,1,0,20.36,20.36A20.23,20.23,0,0,0,168.38,119.29Zm0,34.89a14.54,14.54,0,1,1,14.54-14.54A14.4,14.4,0,0,1,168.38,154.18Z"/><path class="cls-11" d="M168.38,159.71h0a20,20,0,0,0,20.36-20.06h-.29a3.09,3.09,0,0,0-2.91,2.62A17.58,17.58,0,0,1,180,152.73a16.48,16.48,0,0,1-9,4.36A2.61,2.61,0,0,0,168.38,159.71Z"/><path class="cls-13" d="M168.38,119.58h0A20,20,0,0,0,148,139.64h.29a3.09,3.09,0,0,0,2.91-2.62,17.58,17.58,0,0,1,5.52-10.47,16.48,16.48,0,0,1,9-4.36A2.61,2.61,0,0,0,168.38,119.58Z"/><path class="cls-14" d="M155.87,141.68a14.4,14.4,0,0,1,14.54-14.54,13.72,13.72,0,0,1,9.31,3.49,14.49,14.49,0,0,0-25.88,9,13.94,13.94,0,0,0,5.23,11A13.64,13.64,0,0,1,155.87,141.68Z"/><path class="cls-12" d="M177.1,148.66a1.07,1.07,0,0,1-.87-.29,1.41,1.41,0,0,1,0-2,9.7,9.7,0,0,0,2.62-6.69,1.45,1.45,0,0,1,2.91,0,13.43,13.43,0,0,1-3.2,8.72A3.16,3.16,0,0,1,177.1,148.66Z"/><path class="cls-14" d="M168.38,148.37a2.75,2.75,0,0,1-2.91-2.91V133.83a2.91,2.91,0,0,1,5.82,0v11.63A2.75,2.75,0,0,1,168.38,148.37Z"/></svg>