<svg id="Layer_1" data-name="Layer 1" xmlns="http://www.w3.org/2000/svg" xmlns:xlink="http://www.w3.org/1999/xlink" viewBox="0 0 40.99 40.43"><defs><style>.cls-1{fill:none;}.cls-2{opacity:0.3;}.cls-3{fill:#c7c7c7;}.cls-4{clip-path:url(#clip-path);}.cls-5{fill:#fff;opacity:0.7;}</style><clipPath id="clip-path"><rect class="cls-1" x="10.68" y="9.83" width="17.6" height="20"/></clipPath></defs><title>42</title><g class="cls-2"><rect class="cls-3" width="40.99" height="40.43"/></g><g class="cls-4"><path class="cls-5" d="M23.8,25.84a2.83,2.83,0,0,1-1.44-2.66,3,3,0,0,1,.54-1.59c-.59-.33-1-.55-1.19-.64a.15.15,0,0,1-.09-.14V17.56a1.52,1.52,0,0,0,.68-1.27V12.91a3,3,0,0,0-3-3h-.73a3,3,0,0,0-3,3v3.38a1.52,1.52,0,0,0,.68,1.27v3.26a.15.15,0,0,1-.09.14A26.88,26.88,0,0,0,11.28,24a1.64,1.64,0,0,0-.6,1.26v2.32h7.13l.71-3.23c-1.42-2,.11-2.08.37-2.09s1.8.1.37,2.09L20,27.61h2.37l0-.13c.07-.25.14-.49.21-.73a1.5,1.5,0,0,1,.23-.48,1.11,1.11,0,0,1,.89-.45Zm0,0"/><path class="cls-5" d="M27.11,24.51A11,11,0,0,0,25.93,24a2.66,2.66,0,0,1-.65-.37.56.56,0,0,1,.14-1,1.19,1.19,0,0,1,.4-.08,3,3,0,0,1,1.49.3c.23.11.31.08.39-.17s.16-.52.23-.78a.28.28,0,0,0-.18-.37,3.8,3.8,0,0,0-.94-.28c-.43-.07-.43-.07-.43-.5,0-.61,0-.61-.61-.6h-.26c-.28,0-.33.06-.34.34,0,.13,0,.25,0,.39,0,.38,0,.37-.37.51a2,2,0,0,0-1.48,1.88,1.91,1.91,0,0,0,1.09,1.83,11.13,11.13,0,0,0,1.36.61,2.16,2.16,0,0,1,.5.29.68.68,0,0,1-.16,1.19,1.62,1.62,0,0,1-.87.12,3.84,3.84,0,0,1-1.33-.4c-.25-.13-.32-.09-.4.17s-.14.46-.2.69-.05.39.24.53a4.19,4.19,0,0,0,1.19.34c.32,0,.33.07.34.4,0,.15,0,.3,0,.46s.09.3.29.31h.67a.26.26,0,0,0,.28-.29c0-.21,0-.42,0-.62a.33.33,0,0,1,.29-.37,2.24,2.24,0,0,0,1.17-.76,2.13,2.13,0,0,0-.7-3.22Zm0,0"/></g></svg>