<svg id="Layer_1" data-name="Layer 1" xmlns="http://www.w3.org/2000/svg" viewBox="0 0 40.99 40.43"><defs><style>.cls-1{opacity:0.3;}.cls-2{fill:#c7c7c7;}.cls-3{opacity:0.7;}.cls-4{fill:#fff;}</style></defs><title>43</title><g class="cls-1"><rect class="cls-2" width="40.99" height="40.43"/></g><g class="cls-3"><path class="cls-4" d="M21.47,14.74h-5.8a.77.77,0,0,0,0,1.55h5.8a.77.77,0,0,0,0-1.55Zm0,0"/><path class="cls-4" d="M22.24,18.41a.77.77,0,0,0-.77-.77h-5.8a.77.77,0,0,0,0,1.55h5.8a.77.77,0,0,0,.77-.77Zm0,0"/><path class="cls-4" d="M18.57,22.08a.77.77,0,1,0,0-1.55h-2.9a.77.77,0,0,0,0,1.55Zm0,0"/><path class="cls-4" d="M24.41,24.71l-.81.54v1.92h-10V13.26h10v3.05l1.55-2.68V12.49a.77.77,0,0,0-.77-.77H12.78a.77.77,0,0,0-.77.77V27.94a.77.77,0,0,0,.77.77H24.37a.77.77,0,0,0,.77-.77V23.68l-.37.64a1.15,1.15,0,0,1-.37.39Zm0,0"/><path class="cls-4" d="M29,15.29A2.21,2.21,0,0,0,27.81,14a2.21,2.21,0,0,0-1.67-.38.39.39,0,0,0-.22.18L21.09,22.2a.38.38,0,0,0-.05.17l-.18,3a.38.38,0,0,0,.6.35L24,24.07a.38.38,0,0,0,.12-.13l4.83-8.37a.39.39,0,0,0,0-.28Zm-6.54,9.1A3.34,3.34,0,0,0,22,24.1a3.19,3.19,0,0,0-.47-.23l.05-.9a2.81,2.81,0,0,1,1.6.92Zm0,0"/><path class="cls-4" d="M17.39,25.65c0,.16.2.2.33.25s.25,0,.35-.09c.59-.29,1.39,0,2,0a.29.29,0,0,0,0-.58A12.05,12.05,0,0,0,18,25.22a.36.36,0,0,0-.06-.18.46.46,0,0,0-.48-.27l0-.08a.27.27,0,0,0-.18-.13,1.2,1.2,0,0,0,.2-1,.29.29,0,0,0-.25-.14c-.39,0-.72.39-1,.64a18.73,18.73,0,0,0-1.7,2c-.23.3.28.58.5.29a21,21,0,0,1,1.5-1.76c-.13.21-.27.42-.41.62s.29.59.5.29a.66.66,0,0,1,.19-.18l0,.11h0l0,.07c-.13.33.35.47.53.22l.12-.2a1,1,0,0,0,0,.18Zm0,0"/></g></svg>