<svg id="Layer_1" data-name="Layer 1" xmlns="http://www.w3.org/2000/svg" xmlns:xlink="http://www.w3.org/1999/xlink" viewBox="0 0 40.99 40.43"><defs><style>.cls-1{fill:none;}.cls-2{opacity:0.3;}.cls-3{fill:#c7c7c7;}.cls-4{fill:#fff;opacity:0.7;}.cls-5{clip-path:url(#clip-path);}</style><clipPath id="clip-path"><rect class="cls-1" x="9.66" y="11.95" width="20.61" height="18"/></clipPath></defs><title>44</title><g class="cls-2"><rect class="cls-3" width="40.99" height="40.43"/></g><path class="cls-4" d="M25.07,17c-.62-.25-.79-.4-.79-.67s.16-.47.62-.47a1.73,1.73,0,0,1,.72.16l.11,0a.21.21,0,0,0,.2-.14l.11-.29a.18.18,0,0,0-.1-.23,4.34,4.34,0,0,0-.75-.19,0,0,0,0,1,0,0v-.42a.23.23,0,0,0-.23-.23h-.2a.23.23,0,0,0-.23.23v.44s0,0,0,.05a1.2,1.2,0,0,0-1,1.17c0,.71.59,1,1.23,1.28s.72.4.72.7-.29.55-.71.55a2.52,2.52,0,0,1-.85-.23l-.1,0a.22.22,0,0,0-.21.14l-.11.29a.19.19,0,0,0,.1.23,3.78,3.78,0,0,0,.9.25s0,0,0,0v.43a.23.23,0,0,0,.23.23h.21a.23.23,0,0,0,.23-.23V19.6a0,0,0,0,1,0,0,1.26,1.26,0,0,0,1.06-1.24c0-.62-.35-1-1.15-1.34Zm0,0"/><g class="cls-5"><path class="cls-4" d="M24.81,11.95a5.45,5.45,0,1,0,5.45,5.45,5.45,5.45,0,0,0-5.45-5.45Zm0,9.63A4.19,4.19,0,1,1,29,17.4a4.19,4.19,0,0,1-4.18,4.18Zm0,0"/><path class="cls-4" d="M29.15,25.48A13.86,13.86,0,0,1,24.81,27c-1.41.22-4.07-.31-4.07-.94,0-.24,2.33.59,3.74.21,1.08-.29.93-1.3.34-1.43s-4-1.39-5.48-1.43a25.26,25.26,0,0,0-3.22.37c-.28,0-.46,0-.48.31-.08,1.26-.24,3.82-.33,5.16,0,0,0,.41.35.14a1.63,1.63,0,0,1,1.27-.52c.7.16,6.76,1.27,7.6,1.07A21.1,21.1,0,0,0,29.77,27c1-1,.22-2-.62-1.52Zm0,0"/><path class="cls-4" d="M14,23.69l-3.17-.16a.57.57,0,0,0-.56.41l-.58,5.24a.35.35,0,0,0,.34.45h3.52a.47.47,0,0,0,.48-.43l.39-5a.43.43,0,0,0-.41-.47Zm-1.87,5.25a.88.88,0,1,1,.88-.88.88.88,0,0,1-.88.88Zm0,0"/></g></svg>