<svg id="Layer_1" data-name="Layer 1" xmlns="http://www.w3.org/2000/svg" viewBox="0 0 40.99 40.43"><defs><style>.cls-1{fill:#16202c;}.cls-2{fill:#038dff;}</style></defs><title>46</title><rect class="cls-1" width="40.99" height="40.43"/><path class="cls-2" d="M30.55,10.83H9.45a1.73,1.73,0,0,0-1.73,1.73V27.1a1.73,1.73,0,0,0,1.73,1.72H30.55a1.73,1.73,0,0,0,1.73-1.72V12.55a1.73,1.73,0,0,0-1.73-1.73Zm.91,16.28a.91.91,0,0,1-.91.91H9.45a.91.91,0,0,1-.91-.91V17H31.45ZM8.55,12.87v-.32a.91.91,0,0,1,.91-.91H30.55a.91.91,0,0,1,.91.91v.32Zm0,0"/><path class="cls-2" d="M28.45,26.78h1.78v-9h-9v9ZM22,18.6h7.36V26h-.82a1.3,1.3,0,0,0-.72-1.15L27,24.38a2.11,2.11,0,0,0,.86-1.15,1,1,0,0,0,.46-.81v-.27a1,1,0,0,0-.32-.71c-.15-.78-.67-1.62-2.27-1.62h-.18a1.22,1.22,0,0,1-.79-.18.86.86,0,0,1-.22-.19.48.48,0,0,0-.71,0,.47.47,0,0,0-.11.36c0,.1,0,.23.06.36a1,1,0,0,1,0,.24l0,.11-.11.24a3.18,3.18,0,0,0-.19.7,1,1,0,0,0-.32.71v.27a1,1,0,0,0,.46.81,2.1,2.1,0,0,0,.85,1.14l-.9.45A1.3,1.3,0,0,0,22.86,26H22Zm0,0"/><path class="cls-2" d="M10.18,19.42h3.68a.41.41,0,0,0,0-.82H10.18a.41.41,0,1,0,0,.82Zm0,0"/><path class="cls-2" d="M15.5,19.42h3.68a.41.41,0,0,0,0-.82H15.5a.41.41,0,0,0,0,.82Zm0,0"/><path class="cls-2" d="M10.18,21.46h.41a.41.41,0,0,0,0-.82h-.41a.41.41,0,1,0,0,.82Zm0,0"/><path class="cls-2" d="M13,21.46a.41.41,0,1,0,0-.82h-.82a.41.41,0,0,0,0,.82Zm0,0"/><path class="cls-2" d="M14.68,21.46h.41a.41.41,0,0,0,0-.82h-.41a.41.41,0,1,0,0,.82Zm0,0"/><path class="cls-2" d="M17.54,21.46a.41.41,0,1,0,0-.82h-.82a.41.41,0,1,0,0,.82Zm0,0"/><path class="cls-2" d="M18.89,20.77a.41.41,0,0,0-.12.29.42.42,0,0,0,.12.29.41.41,0,1,0,0-.58Zm0,0"/><path class="cls-2" d="M12.49,22.86a2.7,2.7,0,0,0-1.31,2.28l-.51-.43c-.4-.34-1,.24-.58.58l1.15,1a.41.41,0,0,0,.7-.29c0-.89.07-1.94,1-2.4.47-.24.05-1-.41-.71Zm0,0"/><path class="cls-2" d="M18,24.08c-.6,0-1.62.81-2,.05a.41.41,0,0,0-.56-.15c-.58.36-1.34.87-1.95.21-.36-.39-.94.19-.58.58.77.83,1.75.58,2.62.11a1.69,1.69,0,0,0,.69.44c.37.13,1.67-.5,1.77-.36.31.42,1,0,.71-.41a.9.9,0,0,0-.67-.46Zm0,0"/></svg>