<svg id="Layer_1" data-name="Layer 1" xmlns="http://www.w3.org/2000/svg" viewBox="0 0 40.99 40.43"><defs><style>.cls-1{fill:#16202c;}.cls-2{fill:#fff;opacity:0.7;}</style></defs><title>47</title><rect class="cls-1" width="40.99" height="40.43"/><path class="cls-2" d="M15.48,11.38V18H10V29.38H20.17V23.9H23.3v5.48H28v-18ZM11.17,28.2v-9h4.3v9ZM19,25.47H17.43V23.9H19Zm0-3.13H17.43V20.77H19Zm0-3.13H17.43V17.64H19Zm0-3.13H17.43V14.51H19Zm3.52,6.26H21V20.77h1.57Zm0-3.13H21V17.64h1.57Zm0-3.13H21V14.51h1.57ZM26,25.47H24.48V23.9H26Zm0-3.13H24.48V20.77H26Zm0-3.13H24.48V17.64H26Zm0-3.13H24.48V14.51H26Z"/></svg>