<svg id="Layer_1" data-name="Layer 1" xmlns="http://www.w3.org/2000/svg" viewBox="0 0 40.99 40.43"><defs><style>.cls-1{fill:#16202c;}.cls-2{fill:#95d600;}</style></defs><title>48</title><rect class="cls-1" width="40.99" height="40.43"/><path class="cls-2" d="M23.62,29.82h-1.5a.38.38,0,0,1-.37-.37v-1.5a.38.38,0,0,1,.11-.27l6-6a.38.38,0,0,1,.53,0l1.5,1.5a.38.38,0,0,1,0,.53l-6,6A.37.37,0,0,1,23.62,29.82Zm-1.12-.75h1l5.62-5.62-1-1L22.49,28.1Z"/><path class="cls-2" d="M28.12,25.32a.38.38,0,0,1-.27-.11l-1.5-1.5a.37.37,0,0,1,.53-.53l1.5,1.5a.37.37,0,0,1-.26.64Z"/><path class="cls-2" d="M20.24,28.32H12.37a.38.38,0,0,1-.37-.37V16.69a.38.38,0,0,1,.11-.27l4.5-4.5a.38.38,0,0,1,.27-.11h8.25a.38.38,0,0,1,.38.38v10.5a.38.38,0,0,1-.75,0V12.57H17l-4.28,4.28V27.57h7.5a.38.38,0,0,1,0,.75Z"/><path class="cls-2" d="M16.87,17.07h-4.5a.38.38,0,0,1,0-.75h4.13V12.19a.38.38,0,1,1,.75,0v4.5A.38.38,0,0,1,16.87,17.07Z"/><path class="cls-2" d="M21.37,19.32c-1,0-1.8-.52-1.87-1.21a.38.38,0,1,1,.75-.08c0,.26.49.54,1.13.54s1.13-.3,1.13-.56-.19-.41-1.11-.55h-.08c-.5-.08-1.82-.28-1.82-1.31,0-.74.82-1.31,1.88-1.31s1.8.52,1.87,1.21a.38.38,0,1,1-.75.08c0-.26-.49-.54-1.13-.54s-1.13.3-1.13.56.19.41,1.11.56h.08c.5.08,1.81.28,1.81,1.31C23.24,18.74,22.42,19.32,21.37,19.32Z"/><path class="cls-2" d="M17.62,20.07H13.87a.38.38,0,1,1,0-.75h3.75a.38.38,0,0,1,0,.75Z"/><path class="cls-2" d="M22.12,23.07H13.87a.38.38,0,1,1,0-.75h8.25a.38.38,0,0,1,0,.75Z"/><path class="cls-2" d="M16.87,26.07h-3a.38.38,0,1,1,0-.75h3a.38.38,0,0,1,0,.75Z"/><path class="cls-2" d="M21.37,20.07a.38.38,0,0,1-.37-.37V14.44a.38.38,0,1,1,.75,0v5.25A.38.38,0,0,1,21.37,20.07Z"/></svg>