<svg id="Layer_1" data-name="Layer 1" xmlns="http://www.w3.org/2000/svg" xmlns:xlink="http://www.w3.org/1999/xlink" viewBox="0 0 40.99 40.43"><defs><style>.cls-1{fill:none;}.cls-2{fill:#16202c;}.cls-3{fill:#038dff;}.cls-4{clip-path:url(#clip-path);}</style><clipPath id="clip-path"><rect class="cls-1" x="11.54" y="10.89" width="17.8" height="20"/></clipPath></defs><title>49</title><rect class="cls-2" width="40.99" height="40.43"/><path class="cls-3" d="M15.14,14V10.9a1,1,0,0,0-.58.29l-2.73,2.75a1,1,0,0,0-.28.57h3.1a.49.49,0,0,0,.49-.49Zm0,0"/><g class="cls-4"><path class="cls-3" d="M11.54,26.36a1,1,0,0,0,1,1h5.2a5.76,5.76,0,0,1-.63-1A5.67,5.67,0,0,1,16.64,25a1.19,1.19,0,0,1-.89-.54H14.16a.53.53,0,0,1,0-1.07h1.48a1.19,1.19,0,0,1,1-.76,5.72,5.72,0,0,1,.31-1H14.16a.53.53,0,0,1,0-1.07h3.37a5.86,5.86,0,0,1,.67-.81,5.79,5.79,0,0,1,1.28-1H14.16a.53.53,0,0,1,0-1.07h7.08a1.19,1.19,0,0,1,2.22.47,5.66,5.66,0,0,1,1.29.44V11.9a1,1,0,0,0-1-1H16.18V14a1.54,1.54,0,0,1-1.53,1.53H11.54ZM18.4,13.84h3.79a.53.53,0,1,1,0,1.07H18.4a.53.53,0,0,1,0-1.07Zm0,0"/><path class="cls-3" d="M29.09,30.64a.79.79,0,0,0,0-1.11l-2.6-2.6a5.22,5.22,0,0,0,1-2.45h.33a.67.67,0,1,0,0-1.33h-.33a5.24,5.24,0,0,0-2.2-3.63L25,19.35l-.26-.15a5.17,5.17,0,0,0-1.81-.58v-.33a.67.67,0,1,0-1.33,0v.33a5.3,5.3,0,0,0-.76.15,5.25,5.25,0,0,0-3.77,4.38h-.33a.66.66,0,0,0-.18,1.31l.18,0h.33a5.22,5.22,0,0,0,1.36,2.89l.26.26.3.26A5.22,5.22,0,0,0,21.62,29v.33a.67.67,0,1,0,1.33,0V29a5.22,5.22,0,0,0,2.43-1l.19.19L28,30.64a.78.78,0,0,0,1.11,0Zm-3.81-4.28a4,4,0,0,1-.31.32,4.15,4.15,0,0,1-.6.46l-.27.15a3.94,3.94,0,0,1-2.79.33,3.81,3.81,0,0,1-.73-.26,3.94,3.94,0,0,1-2.2-2.92,3.95,3.95,0,0,1,0-1.07A3.92,3.92,0,0,1,19,21.61a4,4,0,0,1,1.07-1.07,3.94,3.94,0,0,1,4.67.2L25,21c.09.09.18.18.26.28a3.94,3.94,0,0,1,0,5.11Zm0,0"/></g><path class="cls-3" d="M23.75,23.67a1.8,1.8,0,0,0-.55-.36,4.15,4.15,0,0,0-.51-.16V21.79a.59.59,0,0,1,.12.1.89.89,0,0,1,.18.46.21.21,0,0,0,.24.18l.65-.1a.21.21,0,0,0,.18-.24,1.65,1.65,0,0,0-.57-1.08,1.67,1.67,0,0,0-.8-.35v-.12a.21.21,0,0,0-.21-.21h-.37a.21.21,0,0,0-.21.21v.12a1.73,1.73,0,0,0-.88.37,1.7,1.7,0,0,0-.36,2,1.37,1.37,0,0,0,.55.55,3,3,0,0,0,.69.29v1.57a.82.82,0,0,1-.27-.23,1.44,1.44,0,0,1-.22-.65.21.21,0,0,0-.09-.14.21.21,0,0,0-.16,0l-.64.12a.21.21,0,0,0-.17.22,2,2,0,0,0,.28.93,1.54,1.54,0,0,0,.6.57,2.32,2.32,0,0,0,.66.21V27a.21.21,0,0,0,.21.21h.37A.21.21,0,0,0,22.7,27v-.45a1.7,1.7,0,0,0,1-.52,1.74,1.74,0,0,0,.48-1.24,1.71,1.71,0,0,0-.11-.63,1.56,1.56,0,0,0-.33-.51ZM21.86,23a.7.7,0,0,1-.24-.18.67.67,0,0,1,0-.84.64.64,0,0,1,.22-.16Zm1,2.47a.75.75,0,0,1-.24.19V24.26a.84.84,0,0,1,.31.2.64.64,0,0,1,.12.42.79.79,0,0,1-.19.54Zm0,0"/></svg>