<svg id="Layer_1" data-name="Layer 1" xmlns="http://www.w3.org/2000/svg" xmlns:xlink="http://www.w3.org/1999/xlink" viewBox="0 0 19.94 19.94"><defs><style>.cls-1{fill:none;}.cls-2{clip-path:url(#clip-path);}.cls-3{fill:#646a75;}</style><clipPath id="clip-path" transform="translate(0 0.02)"><rect class="cls-1" width="19.92" height="20"/></clipPath></defs><title>51</title><g class="cls-2"><path class="cls-3" d="M10,0a10,10,0,1,0,10,10A10,10,0,0,0,10,0ZM7.38,5.4,9.48,3.29a.7.7,0,0,1,.5-.21h0a.7.7,0,0,1,.5.21L12.6,5.4a.71.71,0,0,1-1,1l-.93-.93V9.24a.71.71,0,1,1-1.41,0V5.51l-.88.88a.71.71,0,0,1-1-1Zm8,8.5h0a1.93,1.93,0,0,1-2.13,1.7H6.68a1.93,1.93,0,0,1-2.13-1.7V9.31a1.93,1.93,0,0,1,2.13-1.7h.89l.31,0,.31,0h0V9H6.68c-.48,0-.75.24-.75.32v4.59c0,.08.27.32.75.32h6.59c.48,0,.75-.24.75-.32V9.31c0-.08-.27-.32-.75-.32H11.7V7.61h.1l.3,0,.31,0h.85a1.93,1.93,0,0,1,2.13,1.7Zm0,0" transform="translate(0 0.02)"/></g></svg>