<svg id="Layer_1" data-name="Layer 1" xmlns="http://www.w3.org/2000/svg" viewBox="0 0 126 30"><defs><style>.cls-1{fill:#95d600;}.cls-2{fill:#32450a;}</style></defs><title>52</title><rect class="cls-1" width="126" height="30" rx="7.56" ry="7.56"/><path class="cls-2" d="M110.89,14.13l-6.27-6.27a1.22,1.22,0,0,0-1.74,0l-.72.72a1.21,1.21,0,0,0,0,1.73L105,13.15H98.2a1,1,0,0,0-.81.36,1.29,1.29,0,0,0-.31.87v1.23a1.29,1.29,0,0,0,.31.87,1,1,0,0,0,.81.36H105l-2.82,2.82a1.23,1.23,0,0,0,0,1.75l.72.72a1.24,1.24,0,0,0,1.74,0l6.27-6.27a1.19,1.19,0,0,0,.36-.88,1.14,1.14,0,0,0-.36-.87Zm0,0"/><path class="cls-2" d="M15.6,14.06h3.65v2.57H15.6v7.43H12.77v-18h7.48V8.64H15.6Z"/><path class="cls-2" d="M21.62,6.07h2.83v18H21.62Z"/><path class="cls-2" d="M29,11v13H26.48v-18H30l2.91,10.77V6.07h2.52v18H32.55Z"/><path class="cls-2" d="M46.64,24.07H43.78l-.49-3.27H39.82l-.49,3.27h-2.6l2.88-18h4.14Zm-6.45-5.71h2.73l-1.36-9.1Z"/><path class="cls-2" d="M47.95,6.07h2.83V21.5h4.65v2.57H47.95Z"/><path class="cls-2" d="M56.66,6.07h2.83v18H56.66Z"/><path class="cls-2" d="M69.39,6.07V8.59L64,21.5h5.37v2.57H61.11V21.55L66.49,8.64H61.37V6.07Z"/><path class="cls-2" d="M80.22,24.07H77.36l-.49-3.27H73.4l-.49,3.27h-2.6l2.88-18h4.14Zm-6.45-5.71h2.73l-1.36-9.1Z"/><path class="cls-2" d="M87.44,24.07a5.54,5.54,0,0,1-.26-2.21V19c0-1.67-.56-2.29-1.85-2.29h-1v7.33H81.53v-18h4.27c2.93,0,4.19,1.36,4.19,4.14v1.41c0,1.85-.59,3.06-1.85,3.65,1.41.59,1.88,2,1.88,3.83v2.78a5.29,5.29,0,0,0,.31,2.19ZM84.36,8.64v5.53h1.11c1.05,0,1.7-.46,1.7-1.9V10.49c0-1.29-.44-1.85-1.44-1.85Z"/></svg>