<svg id="Layer_1" data-name="Layer 1" xmlns="http://www.w3.org/2000/svg" viewBox="0 0 22.5 22.5"><defs><style>.cls-1{fill:#00adee;}</style></defs><title>53</title><path class="cls-1" d="M0,11.25A11.25,11.25,0,1,0,11.25,0,11.26,11.26,0,0,0,0,11.25ZM11.25,1.91a9.33,9.33,0,0,1,7.09,15.41,26.74,26.74,0,0,0-4.27-2.65.16.16,0,0,1-.08-.14v-1.4a5.14,5.14,0,0,0,.41-1.31c.19.13.5.06.85-1.15.28-1,.11-1.32-.13-1.4.79-3.76-1-3.88-1-3.88a2.52,2.52,0,0,0-1-.91,3.32,3.32,0,0,0-2-.43,3,3,0,0,0-.8.15,3.59,3.59,0,0,0-.89.45,4.71,4.71,0,0,0-.91.75,3.66,3.66,0,0,0-1,1.73A3.19,3.19,0,0,0,7.6,9c-.32,0-.7.16-.34,1.42.26.93.51,1.18.69,1.2a4.66,4.66,0,0,0,.56,1.65v1.21a.15.15,0,0,1-.08.14,27.32,27.32,0,0,0-4.27,2.65A9.34,9.34,0,0,1,11.25,1.91Zm0,0"/></svg>