<svg xmlns="http://www.w3.org/2000/svg" xmlns:xlink="http://www.w3.org/1999/xlink" viewBox="0 0 143 104"><defs><style>.cls-1{fill:none;}.cls-2{fill:#95d600;}.cls-3{isolation:isolate;}.cls-4{clip-path:url(#clip-path);}.cls-5{fill:url(#linear-gradient);}.cls-6{clip-path:url(#clip-path-2);}.cls-7{clip-path:url(#clip-path-3);}.cls-8{mix-blend-mode:overlay;}.cls-9{fill:url(#linear-gradient-2);}.cls-10{fill:url(#radial-gradient);}.cls-11{fill:url(#radial-gradient-2);}.cls-12{fill:url(#radial-gradient-3);}.cls-13{fill:url(#radial-gradient-4);}.cls-14{fill:url(#linear-gradient-3);}</style><clipPath id="clip-path"><rect class="cls-1" x="19.5" y="-19.5" width="104" height="143" transform="translate(19.5 123.5) rotate(-90)"/></clipPath><linearGradient id="linear-gradient" x1="76.29" y1="-503.8" x2="98.42" y2="-503.8" gradientTransform="translate(402.21 477.29) rotate(-45)" gradientUnits="userSpaceOnUse"><stop offset="0" stop-color="#8a76b5"/><stop offset="0.14" stop-color="#7f79b5"/><stop offset="0.39" stop-color="#6182b4"/><stop offset="0.72" stop-color="#3190b4"/><stop offset="1" stop-color="#029db3"/></linearGradient><clipPath id="clip-path-2"><path class="cls-2" d="M77.3,94.15c-.12,3.2-1.88,4.36-2.91,4.75a7.34,7.34,0,0,1-3,.51H71.3a6,6,0,0,0-6,6v10.51a6,6,0,0,1-12,0V81.39a6,6,0,0,0-5.58-6l0,0a8.81,8.81,0,0,1-3.53-.53c-1-.39-2.79-1.55-2.91-4.75V57.37a6,6,0,1,0-12,0v8.28c-.12,3.2-1.88,4.36-2.91,4.75a6.64,6.64,0,0,1-2.62.49l-.47,0a6,6,0,0,0-6,6V188a6,6,0,1,0,12,0v-9.76a6,6,0,1,1,12,0v20.27a6,6,0,0,0,12,0v-18a6,6,0,0,1,12,0v42a6,6,0,0,0,12,0V188a6,6,0,0,1,12,0v-1.33a6,6,0,1,0,12,0v-2.42a6,6,0,0,1,12,0v-.75a6,6,0,1,0,12,0V72.38a6,6,0,1,0-12,0v3a6,6,0,1,1-12,0V55.7a6,6,0,0,0-12,0v1a4.58,4.58,0,0,1-2.85,4,7,7,0,0,1-2.86.5h-.3a6,6,0,0,0-6,6Z"/></clipPath><clipPath id="clip-path-3"><rect class="cls-2" x="15" y="27.93" width="62.3" height="206.66"/></clipPath><linearGradient id="linear-gradient-2" x1="35.67" y1="-537.87" x2="85.19" y2="-537.87" gradientTransform="translate(402.21 477.29) rotate(-45)" gradientUnits="userSpaceOnUse"><stop offset="0.35" stop-color="#00adee"/><stop offset="0.46" stop-color="#24b7b4"/><stop offset="0.61" stop-color="#4cc275"/><stop offset="0.74" stop-color="#6bcb42"/><stop offset="0.85" stop-color="#82d11e"/><stop offset="0.94" stop-color="#90d508"/><stop offset="1" stop-color="#95d600"/></linearGradient><radialGradient id="radial-gradient" cx="-195.83" cy="-109.97" r="130.54" gradientTransform="matrix(0.61, -0.61, 0.61, 0.61, 279.21, -87.71)" gradientUnits="userSpaceOnUse"><stop offset="0.49" stop-color="#ee5ea0"/><stop offset="0.55" stop-color="#dd489a"/><stop offset="0.63" stop-color="#ce3494"/><stop offset="0.72" stop-color="#c2268f"/><stop offset="0.82" stop-color="#bc1e8d"/><stop offset="1" stop-color="#ba1b8c"/></radialGradient><radialGradient id="radial-gradient-2" cx="-316.55" cy="-143.88" r="186.02" gradientTransform="matrix(0.61, -0.61, 0.61, 0.61, 299.33, -79.38)" gradientUnits="userSpaceOnUse"><stop offset="0.49" stop-color="#00adee"/><stop offset="1" stop-color="#64c5be"/></radialGradient><radialGradient id="radial-gradient-3" cx="-206.37" cy="-39.25" r="186.02" gradientTransform="matrix(0.61, -0.61, 0.61, 0.61, 299.33, -79.38)" gradientUnits="userSpaceOnUse"><stop offset="0.49" stop-color="#ee5ea0"/><stop offset="1" stop-color="#9d3e96"/></radialGradient><radialGradient id="radial-gradient-4" cx="-318.05" cy="-71.08" r="102.98" gradientTransform="matrix(0.61, -0.61, 0.61, 0.61, 279.21, -87.71)" gradientUnits="userSpaceOnUse"><stop offset="0.26" stop-color="#ee5ea0"/><stop offset="1" stop-color="#ba1b8c"/></radialGradient><linearGradient id="linear-gradient-3" x1="605.73" y1="-207.53" x2="561.5" y2="-176.31" gradientTransform="translate(267.4 611.77) rotate(-90)" gradientUnits="userSpaceOnUse"><stop offset="0" stop-color="#944d9d"/><stop offset="0.13" stop-color="#89539f"/><stop offset="0.37" stop-color="#6b63a3"/><stop offset="0.68" stop-color="#3b7eaa"/><stop offset="1" stop-color="#029db3"/></linearGradient></defs><title>54</title><g class="cls-3"><g id="Layer_1" data-name="Layer 1"><g class="cls-4"><path class="cls-5" d="M110.15,46.49c0,.72-.66,1.06-1.3,1.4s-1.16.6-1.16,1.16.56.85,1.16,1.16,1.3.68,1.3,1.4-.66,1.06-1.3,1.4-1.16.6-1.16,1.16.56.85,1.16,1.16,1.3.68,1.3,1.4-.66,1.06-1.3,1.4-1.16.6-1.16,1.16.56.85,1.16,1.16,1.3.68,1.3,1.4-.66,1.06-1.3,1.4-1.16.6-1.16,1.16.56.85,1.16,1.16,1.3.68,1.3,1.4-.66,1.06-1.3,1.4-1.16.6-1.16,1.16.56.85,1.16,1.16,1.3.68,1.3,1.4-.66,1.06-1.3,1.4-1.16.6-1.16,1.16h-.26c0-.72.66-1.06,1.3-1.4s1.16-.6,1.16-1.16-.56-.85-1.16-1.16-1.3-.68-1.3-1.4.66-1.06,1.3-1.4,1.16-.6,1.16-1.16-.56-.85-1.16-1.16-1.3-.68-1.3-1.4.66-1.06,1.3-1.4,1.16-.6,1.16-1.16-.56-.85-1.16-1.16-1.3-.68-1.3-1.4.66-1.06,1.3-1.4,1.16-.6,1.16-1.16-.56-.85-1.16-1.16-1.3-.68-1.3-1.4.66-1.06,1.3-1.4,1.16-.6,1.16-1.16-.56-.85-1.16-1.16-1.3-.68-1.3-1.4.66-1.06,1.3-1.4,1.16-.6,1.16-1.16-.56-.85-1.16-1.16-1.3-.68-1.3-1.4h.26c0,.56.56.85,1.15,1.16S110.15,45.77,110.15,46.49Z"/><path class="cls-2" d="M77.3,94.15c-.12,3.2-1.88,4.36-2.91,4.75a7.34,7.34,0,0,1-3,.51H71.3a6,6,0,0,0-6,6v10.51a6,6,0,0,1-12,0V81.39a6,6,0,0,0-5.58-6l0,0a8.81,8.81,0,0,1-3.53-.53c-1-.39-2.79-1.55-2.91-4.75V57.37a6,6,0,1,0-12,0v8.28c-.12,3.2-1.88,4.36-2.91,4.75a6.64,6.64,0,0,1-2.62.49l-.47,0a6,6,0,0,0-6,6V188a6,6,0,1,0,12,0v-9.76a6,6,0,1,1,12,0v20.27a6,6,0,0,0,12,0v-18a6,6,0,0,1,12,0v42a6,6,0,0,0,12,0V188a6,6,0,0,1,12,0v-1.33a6,6,0,1,0,12,0v-2.42a6,6,0,0,1,12,0v-.75a6,6,0,1,0,12,0V72.38a6,6,0,1,0-12,0v3a6,6,0,1,1-12,0V55.7a6,6,0,0,0-12,0v1a4.58,4.58,0,0,1-2.85,4,7,7,0,0,1-2.86.5h-.3a6,6,0,0,0-6,6Z"/><g class="cls-6"><rect class="cls-2" x="15" y="27.93" width="62.3" height="206.66"/><g class="cls-7"><g class="cls-8"><polygon class="cls-2" points="77.55 246.02 76.12 247.45 -67.87 102.88 -66.44 101.45 77.55 246.02"/><polygon class="cls-2" points="80.63 242.92 79.2 244.36 -64.79 99.79 -63.36 98.35 80.63 242.92"/><polygon class="cls-2" points="83.71 239.83 82.28 241.27 -61.71 96.7 -60.28 95.26 83.71 239.83"/><polygon class="cls-2" points="86.79 236.74 85.36 238.17 -58.63 93.6 -57.2 92.17 86.79 236.74"/><polygon class="cls-2" points="89.87 233.64 88.44 235.08 -55.55 90.51 -54.12 89.07 89.87 233.64"/><polygon class="cls-2" points="92.95 230.55 91.52 231.99 -52.47 87.42 -51.04 85.98 92.95 230.55"/><polygon class="cls-2" points="96.03 227.46 94.6 228.89 -49.39 84.32 -47.96 82.89 96.03 227.46"/><polygon class="cls-2" points="99.12 224.37 97.69 225.8 -46.31 81.23 -44.88 79.79 99.12 224.37"/><polygon class="cls-2" points="102.2 221.27 100.77 222.71 -43.23 78.14 -41.8 76.7 102.2 221.27"/><polygon class="cls-2" points="105.28 218.18 103.85 219.62 -40.15 75.05 -38.72 73.61 105.28 218.18"/><polygon class="cls-2" points="108.36 215.09 106.93 216.52 -37.06 71.95 -35.63 70.52 108.36 215.09"/><polygon class="cls-2" points="111.44 211.99 110.01 213.43 -33.98 68.86 -32.55 67.42 111.44 211.99"/><polygon class="cls-2" points="114.52 208.9 113.09 210.34 -30.9 65.77 -29.47 64.33 114.52 208.9"/><polygon class="cls-2" points="117.6 205.81 116.17 207.24 -27.82 62.67 -26.39 61.23 117.6 205.81"/><polygon class="cls-2" points="120.68 202.71 119.25 204.15 -24.74 59.58 -23.31 58.14 120.68 202.71"/><polygon class="cls-2" points="123.76 199.62 122.33 201.06 -21.66 56.49 -20.23 55.05 123.76 199.62"/><polygon class="cls-2" points="126.84 196.53 125.41 197.96 -18.58 53.39 -17.15 51.96 126.84 196.53"/><polygon class="cls-2" points="129.92 193.43 128.49 194.87 -15.5 50.3 -14.07 48.86 129.92 193.43"/><polygon class="cls-2" points="133 190.34 131.57 191.78 -12.42 47.21 -10.99 45.77 133 190.34"/><polygon class="cls-2" points="136.09 187.25 134.65 188.68 -9.34 44.11 -7.91 42.68 136.09 187.25"/><polygon class="cls-2" points="139.17 184.15 137.74 185.59 -6.26 41.02 -4.83 39.58 139.17 184.15"/><polygon class="cls-2" points="142.25 181.06 140.81 182.5 -3.18 37.93 -1.75 36.49 142.25 181.06"/><polygon class="cls-2" points="145.33 177.97 143.9 179.41 -0.1 34.84 1.33 33.4 145.33 177.97"/><polygon class="cls-2" points="148.41 174.88 146.98 176.31 2.98 31.74 4.42 30.3 148.41 174.88"/><polygon class="cls-2" points="151.49 171.78 150.06 173.22 6.07 28.65 7.5 27.21 151.49 171.78"/><polygon class="cls-2" points="154.57 168.69 153.14 170.13 9.15 25.55 10.58 24.12 154.57 168.69"/><polygon class="cls-2" points="157.65 165.59 156.22 167.03 12.23 22.46 13.66 21.02 157.65 165.59"/><polygon class="cls-2" points="160.73 162.5 159.3 163.94 15.31 19.37 16.74 17.93 160.73 162.5"/></g></g><rect class="cls-2" x="101.2" y="52.87" width="24.85" height="149.29"/><g class="cls-8"><circle class="cls-2" cx="123.74" cy="62.78" r="1.12"/><circle class="cls-2" cx="123.74" cy="65.75" r="1.12"/><circle class="cls-2" cx="123.74" cy="68.73" r="1.12"/><circle class="cls-2" cx="123.74" cy="71.71" r="1.12"/><circle class="cls-2" cx="123.74" cy="74.68" r="1.12"/><circle class="cls-2" cx="123.74" cy="77.66" r="1.12"/><circle class="cls-2" cx="123.74" cy="80.64" r="1.12"/><circle class="cls-2" cx="123.74" cy="83.61" r="1.12"/><circle class="cls-2" cx="123.74" cy="86.59" r="1.12"/><circle class="cls-2" cx="123.74" cy="89.56" r="1.12"/><circle class="cls-2" cx="123.74" cy="92.54" r="1.12"/><circle class="cls-2" cx="123.74" cy="95.52" r="1.12"/><circle class="cls-2" cx="123.74" cy="98.49" r="1.12"/><circle class="cls-2" cx="123.74" cy="101.47" r="1.12"/><circle class="cls-2" cx="123.74" cy="104.45" r="1.12"/><circle class="cls-2" cx="120.76" cy="62.78" r="1.12"/><circle class="cls-2" cx="120.76" cy="65.75" r="1.12"/><circle class="cls-2" cx="120.76" cy="68.73" r="1.12"/><circle class="cls-2" cx="120.76" cy="71.71" r="1.12"/><circle class="cls-2" cx="120.76" cy="74.68" r="1.12"/><circle class="cls-2" cx="120.76" cy="77.66" r="1.12"/><circle class="cls-2" cx="120.76" cy="80.64" r="1.12"/><circle class="cls-2" cx="120.76" cy="83.61" r="1.12"/><circle class="cls-2" cx="120.76" cy="86.59" r="1.12"/><circle class="cls-2" cx="120.76" cy="89.56" r="1.12"/><circle class="cls-2" cx="120.76" cy="92.54" r="1.12"/><circle class="cls-2" cx="120.76" cy="95.52" r="1.12"/><circle class="cls-2" cx="120.76" cy="98.49" r="1.12"/><circle class="cls-2" cx="120.76" cy="101.47" r="1.12"/><circle class="cls-2" cx="120.76" cy="104.45" r="1.12"/><circle class="cls-2" cx="117.78" cy="62.78" r="1.12"/><circle class="cls-2" cx="117.78" cy="65.75" r="1.12"/><circle class="cls-2" cx="117.78" cy="68.73" r="1.12"/><circle class="cls-2" cx="117.78" cy="71.71" r="1.12"/><circle class="cls-2" cx="117.78" cy="74.68" r="1.12"/><circle class="cls-2" cx="117.78" cy="77.66" r="1.12"/><circle class="cls-2" cx="117.78" cy="80.64" r="1.12"/><circle class="cls-2" cx="117.78" cy="83.61" r="1.12"/><circle class="cls-2" cx="117.78" cy="86.59" r="1.12"/><circle class="cls-2" cx="117.78" cy="89.56" r="1.12"/><circle class="cls-2" cx="117.78" cy="92.54" r="1.12"/><circle class="cls-2" cx="117.78" cy="95.52" r="1.12"/><circle class="cls-2" cx="117.78" cy="98.49" r="1.12"/><circle class="cls-2" cx="117.78" cy="101.47" r="1.12"/><circle class="cls-2" cx="117.78" cy="104.45" r="1.12"/><circle class="cls-2" cx="114.81" cy="62.78" r="1.12"/><circle class="cls-2" cx="114.81" cy="65.75" r="1.12"/><circle class="cls-2" cx="114.81" cy="68.73" r="1.12"/><circle class="cls-2" cx="114.81" cy="71.71" r="1.12"/><circle class="cls-2" cx="114.81" cy="74.68" r="1.12"/><circle class="cls-2" cx="114.81" cy="77.66" r="1.12"/><circle class="cls-2" cx="114.81" cy="80.64" r="1.12"/><circle class="cls-2" cx="114.81" cy="83.61" r="1.12"/><circle class="cls-2" cx="114.81" cy="86.59" r="1.12"/><circle class="cls-2" cx="114.81" cy="89.57" r="1.12"/><circle class="cls-2" cx="114.81" cy="92.54" r="1.12"/><circle class="cls-2" cx="114.81" cy="95.52" r="1.12"/><circle class="cls-2" cx="114.81" cy="98.49" r="1.12"/><circle class="cls-2" cx="114.81" cy="101.47" r="1.12"/><circle class="cls-2" cx="114.81" cy="104.45" r="1.12"/><circle class="cls-2" cx="111.83" cy="62.78" r="1.12"/><circle class="cls-2" cx="111.83" cy="65.75" r="1.12"/><circle class="cls-2" cx="111.83" cy="68.73" r="1.12"/><circle class="cls-2" cx="111.83" cy="71.71" r="1.12"/><circle class="cls-2" cx="111.83" cy="74.68" r="1.12"/><circle class="cls-2" cx="111.83" cy="77.66" r="1.12"/><circle class="cls-2" cx="111.83" cy="80.64" r="1.12"/><circle class="cls-2" cx="111.83" cy="83.61" r="1.12"/><circle class="cls-2" cx="111.83" cy="86.59" r="1.12"/><circle class="cls-2" cx="111.83" cy="89.56" r="1.12"/><circle class="cls-2" cx="111.83" cy="92.54" r="1.12"/><circle class="cls-2" cx="111.83" cy="95.52" r="1.12"/><circle class="cls-2" cx="111.83" cy="98.49" r="1.12"/><circle class="cls-2" cx="111.83" cy="101.47" r="1.12"/><circle class="cls-2" cx="111.83" cy="104.45" r="1.12"/><circle class="cls-2" cx="108.85" cy="62.78" r="1.12"/><circle class="cls-2" cx="108.85" cy="65.75" r="1.12"/><circle class="cls-2" cx="108.85" cy="68.73" r="1.12"/><circle class="cls-2" cx="108.85" cy="71.71" r="1.12"/><circle class="cls-2" cx="108.85" cy="74.68" r="1.12"/><circle class="cls-2" cx="108.85" cy="77.66" r="1.12"/><circle class="cls-2" cx="108.85" cy="80.64" r="1.12"/><circle class="cls-2" cx="108.85" cy="83.61" r="1.12"/><circle class="cls-2" cx="108.85" cy="86.59" r="1.12"/><circle class="cls-2" cx="108.85" cy="89.57" r="1.12"/><circle class="cls-2" cx="108.85" cy="92.54" r="1.12"/><circle class="cls-2" cx="108.85" cy="95.52" r="1.12"/><circle class="cls-2" cx="108.85" cy="98.49" r="1.12"/><circle class="cls-2" cx="108.85" cy="101.47" r="1.12"/><circle class="cls-2" cx="108.85" cy="104.45" r="1.12"/><circle class="cls-2" cx="105.88" cy="62.78" r="1.12"/><circle class="cls-2" cx="105.88" cy="65.75" r="1.12"/><circle class="cls-2" cx="105.88" cy="68.73" r="1.12"/><circle class="cls-2" cx="105.88" cy="71.71" r="1.12"/><circle class="cls-2" cx="105.88" cy="74.68" r="1.12"/><circle class="cls-2" cx="105.88" cy="77.66" r="1.12"/><circle class="cls-2" cx="105.88" cy="80.64" r="1.12"/><circle class="cls-2" cx="105.88" cy="83.61" r="1.12"/><circle class="cls-2" cx="105.88" cy="86.59" r="1.12"/><circle class="cls-2" cx="105.88" cy="89.56" r="1.12"/><circle class="cls-2" cx="105.88" cy="92.54" r="1.12"/><circle class="cls-2" cx="105.88" cy="95.52" r="1.12"/><circle class="cls-2" cx="105.88" cy="98.49" r="1.12"/><circle class="cls-2" cx="105.88" cy="101.47" r="1.12"/><circle class="cls-2" cx="105.88" cy="104.45" r="1.12"/><circle class="cls-2" cx="102.9" cy="62.78" r="1.12"/><circle class="cls-2" cx="102.9" cy="65.75" r="1.12"/><circle class="cls-2" cx="102.9" cy="68.73" r="1.12"/><circle class="cls-2" cx="102.9" cy="71.71" r="1.12"/><circle class="cls-2" cx="102.9" cy="74.68" r="1.12"/><circle class="cls-2" cx="102.9" cy="77.66" r="1.12"/><circle class="cls-2" cx="102.9" cy="80.64" r="1.12"/><circle class="cls-2" cx="102.9" cy="83.61" r="1.12"/><circle class="cls-2" cx="102.9" cy="86.59" r="1.12"/><circle class="cls-2" cx="102.9" cy="89.57" r="1.12"/><circle class="cls-2" cx="102.9" cy="92.54" r="1.12"/><circle class="cls-2" cx="102.9" cy="95.52" r="1.12"/><circle class="cls-2" cx="102.9" cy="98.49" r="1.12"/><circle class="cls-2" cx="102.9" cy="101.47" r="1.12"/><circle class="cls-2" cx="102.9" cy="104.45" r="1.12"/></g><rect class="cls-2" x="77.18" y="47.53" width="24.19" height="149.29"/></g><path class="cls-9" d="M64.61,21.7a6,6,0,0,1,6,6v53a6,6,0,0,1-6,6h0a6,6,0,0,1-6-6v-53a6,6,0,0,1,6-6Z"/><path class="cls-10" d="M83.92,12.19a6,6,0,0,1,6,6V42.55a6,6,0,0,1-6,6h0a6,6,0,0,1-6-6V18.2a6,6,0,0,1,6-6Z"/><path class="cls-11" d="M6,92.62a6,6,0,0,1,6,6v41.92a6,6,0,0,1-6,6H6a6,6,0,0,1-6-6V98.62a6,6,0,0,1,6-6Z"/><path class="cls-12" d="M137,89.23a6,6,0,0,1,6,6v41.92a6,6,0,0,1-6,6h0a6,6,0,0,1-6-6V95.24a6,6,0,0,1,6-6Z"/><circle class="cls-13" cx="35.54" cy="41.74" r="6.24"/><circle class="cls-14" cx="64.34" cy="12.38" r="6.24"/></g></g></g></svg>