<svg id="Layer_1" data-name="Layer 1" xmlns="http://www.w3.org/2000/svg" viewBox="0 0 19.63 19.63"><defs><style>.cls-1{fill:#00c7e8;}.cls-2{fill:#fff;}</style></defs><title>56</title><rect class="cls-1" width="19.63" height="19.63"/><path class="cls-2" d="M9.6,5.18a1.93,1.93,0,0,1,.29.23,2.5,2.5,0,0,1,.3.4,2.28,2.28,0,0,1,.25.51,2.49,2.49,0,0,1,.09.69,2,2,0,0,1-.32,1.15,3.92,3.92,0,0,1-.32.39c-.12.12-.25.24-.4.36a1.73,1.73,0,0,0-.22.27.65.65,0,0,0-.12.39.5.5,0,0,0,.12.34,1.64,1.64,0,0,0,.2.23l.46.37a4.69,4.69,0,0,1,.74.77A1.93,1.93,0,0,1,11,12.39a2.24,2.24,0,0,1-.86,1.73,3.91,3.91,0,0,1-2.58.81,3.27,3.27,0,0,1-2.11-.6A1.64,1.64,0,0,1,4.74,13a1.92,1.92,0,0,1,1-1.64,4.17,4.17,0,0,1,1.36-.5,9.86,9.86,0,0,1,1.19-.12,2.5,2.5,0,0,1-.26-.41.89.89,0,0,1-.13-.51A.74.74,0,0,1,8,9.55c0-.09.05-.16.08-.23l-.43,0A2,2,0,0,1,6,8.67a2,2,0,0,1-.6-1.43,2.45,2.45,0,0,1,.84-1.8,3,3,0,0,1,1.19-.61,5.91,5.91,0,0,1,1.15-.13h2.69l-.83.48Zm.52,7.75A1.27,1.27,0,0,0,9.79,12a8.29,8.29,0,0,0-1.1-.89H8.38a3.26,3.26,0,0,0-.52,0,7,7,0,0,0-.86.19l-.29.12a2.24,2.24,0,0,0-.38.24,1.46,1.46,0,0,0-.31.41,1.23,1.23,0,0,0-.15.62,1.36,1.36,0,0,0,.64,1.16,2.76,2.76,0,0,0,1.67.48A2.31,2.31,0,0,0,9.64,14,1.26,1.26,0,0,0,10.12,12.93ZM8.25,9a1.26,1.26,0,0,0,.88-.38,1.37,1.37,0,0,0,.22-.53,4.06,4.06,0,0,0,0-.46A3.54,3.54,0,0,0,9,6a1.83,1.83,0,0,0-.5-.63,1.29,1.29,0,0,0-.73-.24,1.18,1.18,0,0,0-.91.44,1.65,1.65,0,0,0-.3,1A3.14,3.14,0,0,0,7,8.1a2.18,2.18,0,0,0,.53.63A1.21,1.21,0,0,0,8.25,9Z" transform="translate(0 0)"/><polygon class="cls-2" points="14.91 6.16 13.49 6.16 13.49 4.75 12.81 4.75 12.81 6.16 11.4 6.16 11.4 6.84 12.81 6.84 12.81 8.25 13.49 8.25 13.49 6.84 14.91 6.84 14.91 6.16"/></svg>