<svg id="Layer_1" data-name="Layer 1" xmlns="http://www.w3.org/2000/svg" viewBox="0 0 19.64 19.63"><defs><style>.cls-1{fill:#ed1e79;}.cls-2{fill:#fff;}</style></defs><title>57</title><rect class="cls-1" width="19.63" height="19.63"/><path class="cls-2" d="M14.64,6.82a3.71,3.71,0,0,1-1.13.31A2,2,0,0,0,14.38,6a3.93,3.93,0,0,1-1.26.48A2,2,0,0,0,9.7,7.87a2.09,2.09,0,0,0,0,.45A5.62,5.62,0,0,1,5.68,6.26a2,2,0,0,0,.61,2.63,1.83,1.83,0,0,1-.9-.25v0A2,2,0,0,0,7,10.61a2.19,2.19,0,0,1-.52.07,2.6,2.6,0,0,1-.37,0A2,2,0,0,0,7.93,12a3.94,3.94,0,0,1-2.45.85,3.17,3.17,0,0,1-.47,0A5.63,5.63,0,0,0,13.66,8.1c0-.08,0-.17,0-.25A4.16,4.16,0,0,0,14.64,6.82Z"/></svg>