<svg id="Layer_1" data-name="Layer 1" xmlns="http://www.w3.org/2000/svg" xmlns:xlink="http://www.w3.org/1999/xlink" viewBox="0 0 270 50"><defs><style>.cls-1,.cls-2{fill:none;}.cls-2{stroke-linecap:round;stroke-linejoin:round;stroke-width:16px;stroke:url(#radial-gradient);}.cls-3{fill:#95d600;}.cls-4{clip-path:url(#clip-path);}.cls-5{fill:#fff;}.cls-6{clip-path:url(#clip-path-2);}.cls-7{fill:#3e8ede;}.cls-8{fill:#ed1e79;}</style><radialGradient id="radial-gradient" cx="753.85" cy="92.36" r="76.58" gradientTransform="translate(-708.06 -21) scale(1.13 0.5)" gradientUnits="userSpaceOnUse"><stop offset="0.26" stop-color="#ee5ea0"/><stop offset="1" stop-color="#ba1b8c"/></radialGradient><clipPath id="clip-path"><rect class="cls-1" x="7" y="16.74" width="21" height="15.91"/></clipPath><clipPath id="clip-path-2"><rect class="cls-1" x="85" y="16.74" width="21" height="15.91"/></clipPath></defs><title>58</title><line class="cls-2" x1="252.52" y1="25.18" x2="27.52" y2="25.18"/><circle class="cls-3" cx="17.88" cy="25" r="17.5"/><g class="cls-4"><path class="cls-5" d="M16.4,31.52a2.41,2.41,0,0,1-3.41,0L7.71,26.24a2.41,2.41,0,1,1,3.41-3.41L14.27,26a.61.61,0,0,0,.86,0l8.53-8.53a2.41,2.41,0,1,1,3.41,3.41Zm0,0"/></g><circle class="cls-3" cx="95.96" cy="25" r="17.5"/><g class="cls-6"><path class="cls-5" d="M94.4,31.52a2.41,2.41,0,0,1-3.41,0l-5.29-5.29a2.41,2.41,0,1,1,3.41-3.41L92.27,26a.61.61,0,0,0,.86,0l8.53-8.53a2.41,2.41,0,1,1,3.41,3.41Zm0,0"/></g><circle class="cls-7" cx="174.04" cy="25" r="17.5"/><path class="cls-5" d="M179.69,27.44c0,2.69-2.21,4.56-5.67,4.56a9.77,9.77,0,0,1-5.63-1.76L170,27.12a5,5,0,0,0,3.65,1.82c1.3,0,2-.51,2-1.46S175,26,173.69,26h-2.47V23.86L174.14,21h-5V18H179v2.31l-3.48,3.2.67.12A3.82,3.82,0,0,1,179.69,27.44Z"/><circle class="cls-8" cx="252.12" cy="25" r="17.5"/><path class="cls-5" d="M256.76,22.66l-4.39-5.27a.52.52,0,0,0-.73,0l-4.39,5.27a.44.44,0,0,0,.34.72h2.2v4.9a.44.44,0,0,0,.44.44h3.57a.44.44,0,0,0,.44-.44v-4.9h2.2A.44.44,0,0,0,256.76,22.66Z"/><path class="cls-5" d="M259.06,26.09H257.3a.44.44,0,0,0-.44.44V29.6h-9.73V26.53a.44.44,0,0,0-.44-.44h-1.76a.44.44,0,0,0-.44.44v4.39a1.32,1.32,0,0,0,1.32,1.32h12.36a1.32,1.32,0,0,0,1.32-1.32V26.53A.44.44,0,0,0,259.06,26.09Z"/></svg>