<svg xmlns="http://www.w3.org/2000/svg" xmlns:xlink="http://www.w3.org/1999/xlink" viewBox="0 0 550 550"><defs><style>.cls-1{fill:none;}.cls-12,.cls-2{fill:#ccc;}.cls-3{isolation:isolate;}.cls-4{fill:#1a2750;}.cls-5{clip-path:url(#clip-path);}.cls-6{mix-blend-mode:color-burn;}.cls-7{fill:#b3b3b3;}.cls-8{clip-path:url(#clip-path-2);}.cls-9{clip-path:url(#clip-path-3);}.cls-10{mix-blend-mode:overlay;}.cls-11,.cls-13{fill:#f2f2f2;}.cls-12,.cls-13{stroke:#f2f2f2;stroke-miterlimit:10;}.cls-14{clip-path:url(#clip-path-4);}.cls-15{clip-path:url(#clip-path-5);}.cls-16{fill:#16202c;}</style><clipPath id="clip-path"><rect class="cls-1" width="550" height="549.61" rx="20" ry="20"/></clipPath><clipPath id="clip-path-2"><path class="cls-2" d="M359.29,140.1a8.84,8.84,0,0,0-6.76-8.4,21.93,21.93,0,0,0-7-.89h-.2c-7.7,0-13.94-4.75-13.94-10.61V101.64c0-5.86-6.24-10.61-13.94-10.61s-13.94,4.75-13.94,10.61v61c0,5.6-5.71,10.19-12.95,10.58l0,0c-3.68.15-4.76-.06-8.2.93a8.84,8.84,0,0,0-6.76,8.4v22.49c0,5.86-6.24,10.61-13.94,10.61s-13.94-4.75-13.94-10.61V190.44A8.84,8.84,0,0,0,241,182a19.76,19.76,0,0,0-6.09-.87c-.36,0-.72,0-1.09,0-7.7,0-13.94-4.75-13.94-10.61V-25.65c0-5.86,6.24-10.61,13.94-10.61s13.94,4.75,13.94,10.61V-8.4c0,5.86,6.24,10.61,13.94,10.61S275.65-2.55,275.65-8.4V-44.21c0-5.86,6.24-10.61,13.94-10.61s13.94,4.75,13.94,10.61v31.82c0,5.86,6.24,10.61,13.94,10.61s13.94-4.75,13.94-10.61V-86.65c0-5.86,6.24-10.61,13.94-10.61s13.94,4.75,13.94,10.61v61c0,5.86,6.24,10.61,13.94,10.61s13.94-4.75,13.94-10.61v2.36c0-5.86,6.24-10.61,13.94-10.61s13.94,4.75,13.94,10.61V-19c0,5.86,6.24,10.61,13.94,10.61S442.94-13.15,442.94-19v1.32c0-5.86,6.24-10.61,13.94-10.61s13.94,4.75,13.94,10.61V178.55c0,5.86-6.24,10.61-13.94,10.61s-13.94-4.75-13.94-10.61v-5.3c0-5.86-6.24-10.61-13.94-10.61s-13.94,4.75-13.94,10.61V208c0,5.86-6.24,10.61-13.94,10.61s-13.94-4.75-13.94-10.61v-1.7a8.84,8.84,0,0,0-6.61-7,21,21,0,0,0-6.63-.88h-.7c-7.7,0-13.94-4.75-13.94-10.61Z"/></clipPath><clipPath id="clip-path-3"><rect class="cls-2" x="214.67" y="-107.99" width="144.63" height="365.07"/></clipPath><clipPath id="clip-path-4"><path class="cls-2" d="M406.72,463.61a8.84,8.84,0,0,0,6.76,8.4,21.93,21.93,0,0,0,7,.89h.2c7.7,0,13.94,4.75,13.94,10.61v18.56c0,5.86,6.24,10.61,13.94,10.61s13.94-4.75,13.94-10.61v-61c0-5.6,5.71-10.19,12.95-10.58l0,0c3.68-.15,4.76.06,8.2-.93a8.84,8.84,0,0,0,6.76-8.4V398.64c0-5.86,6.24-10.61,13.94-10.61s13.94,4.75,13.94,10.61v14.63a8.84,8.84,0,0,0,6.76,8.4,19.76,19.76,0,0,0,6.09.87c.36,0,.72,0,1.09,0,7.7,0,13.94,4.75,13.94,10.61V629.37c0,5.86-6.24,10.61-13.94,10.61s-13.94-4.75-13.94-10.61V612.12c0-5.86-6.24-10.61-13.94-10.61s-13.94,4.75-13.94,10.61v35.81c0,5.86-6.24,10.61-13.94,10.61s-13.94-4.75-13.94-10.61V616.11c0-5.86-6.24-10.61-13.94-10.61s-13.94,4.75-13.94,10.61v74.26c0,5.86-6.24,10.61-13.94,10.61s-13.94-4.75-13.94-10.61v-61c0-5.86-6.24-10.61-13.94-10.61s-13.94,4.75-13.94,10.61V627c0,5.86-6.24,10.61-13.94,10.61S351,632.87,351,627v-4.28c0-5.86-6.24-10.61-13.94-10.61s-13.94,4.75-13.94,10.61v-1.32c0,5.86-6.24,10.61-13.94,10.61s-13.94-4.75-13.94-10.61V425.16c0-5.86,6.24-10.61,13.94-10.61s13.94,4.75,13.94,10.61v5.3c0,5.86,6.24,10.61,13.94,10.61S351,436.33,351,430.47V395.7c0-5.86,6.24-10.61,13.94-10.61s13.94,4.75,13.94,10.61v1.7a8.84,8.84,0,0,0,6.61,7,21,21,0,0,0,6.63.88h.7c7.7,0,13.94,4.75,13.94,10.61Z"/></clipPath><clipPath id="clip-path-5"><rect class="cls-2" x="406.72" y="346.63" width="144.63" height="365.07"/></clipPath></defs><title>recuadro-azul</title><g class="cls-3"><g id="Layer_1" data-name="Layer 1"><rect class="cls-4" width="550" height="550" rx="20" ry="20"/><g class="cls-5"><g class="cls-6"><path class="cls-7" d="M435.56,224.3c0-1.27-1.53-1.88-3-2.47s-2.68-1.06-2.68-2.05,1.3-1.51,2.68-2.05,3-1.2,3-2.47-1.53-1.88-3-2.47-2.68-1.06-2.68-2.05,1.3-1.51,2.68-2.05,3-1.2,3-2.47-1.53-1.88-3-2.47-2.68-1.07-2.68-2.05,1.3-1.51,2.68-2.05,3-1.2,3-2.47-1.53-1.88-3-2.47-2.68-1.06-2.68-2.05,1.3-1.51,2.68-2.05,3-1.19,3-2.47-1.53-1.88-3-2.47-2.68-1.06-2.68-2.05,1.3-1.51,2.68-2.05,3-1.19,3-2.47-1.53-1.88-3-2.47-2.68-1.06-2.68-2.05h-.61c0,1.27,1.53,1.88,3,2.46s2.68,1.06,2.68,2.05-1.3,1.51-2.68,2.05-3,1.2-3,2.47,1.53,1.88,3,2.46,2.68,1.06,2.68,2.05-1.3,1.51-2.68,2.05-3,1.19-3,2.47,1.53,1.88,3,2.47,2.68,1.06,2.68,2.05-1.3,1.51-2.68,2.05-3,1.2-3,2.47,1.53,1.88,3,2.47,2.68,1.07,2.68,2.05-1.3,1.51-2.68,2.05-3,1.2-3,2.47,1.53,1.88,3,2.47,2.68,1.06,2.68,2.05-1.3,1.51-2.68,2.05-3,1.2-3,2.47,1.53,1.88,3,2.47,2.68,1.06,2.68,2.05-1.3,1.51-2.68,2.05-3,1.2-3,2.47h.61c0-1,1.3-1.51,2.68-2.05S435.56,225.57,435.56,224.3Z"/><path class="cls-2" d="M359.29,140.1a8.84,8.84,0,0,0-6.76-8.4,21.93,21.93,0,0,0-7-.89h-.2c-7.7,0-13.94-4.75-13.94-10.61V101.64c0-5.86-6.24-10.61-13.94-10.61s-13.94,4.75-13.94,10.61v61c0,5.6-5.71,10.19-12.95,10.58l0,0c-3.68.15-4.76-.06-8.2.93a8.84,8.84,0,0,0-6.76,8.4v22.49c0,5.86-6.24,10.61-13.94,10.61s-13.94-4.75-13.94-10.61V190.44A8.84,8.84,0,0,0,241,182a19.76,19.76,0,0,0-6.09-.87c-.36,0-.72,0-1.09,0-7.7,0-13.94-4.75-13.94-10.61V-25.65c0-5.86,6.24-10.61,13.94-10.61s13.94,4.75,13.94,10.61V-8.4c0,5.86,6.24,10.61,13.94,10.61S275.65-2.55,275.65-8.4V-44.21c0-5.86,6.24-10.61,13.94-10.61s13.94,4.75,13.94,10.61v31.82c0,5.86,6.24,10.61,13.94,10.61s13.94-4.75,13.94-10.61V-86.65c0-5.86,6.24-10.61,13.94-10.61s13.94,4.75,13.94,10.61v61c0,5.86,6.24,10.61,13.94,10.61s13.94-4.75,13.94-10.61v2.36c0-5.86,6.24-10.61,13.94-10.61s13.94,4.75,13.94,10.61V-19c0,5.86,6.24,10.61,13.94,10.61S442.94-13.15,442.94-19v1.32c0-5.86,6.24-10.61,13.94-10.61s13.94,4.75,13.94,10.61V178.55c0,5.86-6.24,10.61-13.94,10.61s-13.94-4.75-13.94-10.61v-5.3c0-5.86-6.24-10.61-13.94-10.61s-13.94,4.75-13.94,10.61V208c0,5.86-6.24,10.61-13.94,10.61s-13.94-4.75-13.94-10.61v-1.7a8.84,8.84,0,0,0-6.61-7,21,21,0,0,0-6.63-.88h-.7c-7.7,0-13.94-4.75-13.94-10.61Z"/><g class="cls-8"><rect class="cls-2" x="214.67" y="-107.99" width="144.63" height="365.07"/><g class="cls-9"><g class="cls-10"><polygon class="cls-2" points="352.72 -133.64 349.4 -136.18 15.11 119.21 18.44 121.75 352.72 -133.64"/><polygon class="cls-2" points="359.88 -128.18 356.55 -130.72 22.27 124.67 25.59 127.21 359.88 -128.18"/><polygon class="cls-2" points="367.03 -122.71 363.71 -125.25 29.42 130.14 32.74 132.68 367.03 -122.71"/><polygon class="cls-2" points="374.18 -117.25 370.86 -119.79 36.57 135.6 39.89 138.14 374.18 -117.25"/><polygon class="cls-2" points="381.33 -111.78 378.01 -114.32 43.72 141.07 47.05 143.6 381.33 -111.78"/><polygon class="cls-2" points="388.49 -106.32 385.16 -108.86 50.88 146.53 54.2 149.07 388.49 -106.32"/><polygon class="cls-2" points="395.64 -100.86 392.31 -103.39 58.03 152 61.35 154.53 395.64 -100.86"/><polygon class="cls-2" points="402.79 -95.39 399.47 -97.93 65.18 157.46 68.5 160 402.79 -95.39"/><polygon class="cls-2" points="409.94 -89.93 406.62 -92.47 72.33 162.92 75.65 165.46 409.94 -89.93"/><polygon class="cls-2" points="417.09 -84.47 413.77 -87 79.48 168.39 82.81 170.93 417.09 -84.47"/><polygon class="cls-2" points="424.25 -79 420.92 -81.54 86.64 173.85 89.96 176.39 424.25 -79"/><polygon class="cls-2" points="431.4 -73.54 428.07 -76.08 93.79 179.32 97.11 181.85 431.4 -73.54"/><polygon class="cls-2" points="438.55 -68.07 435.23 -70.61 100.94 184.78 104.26 187.32 438.55 -68.07"/><polygon class="cls-2" points="445.7 -62.61 442.38 -65.15 108.09 190.24 111.42 192.78 445.7 -62.61"/><polygon class="cls-2" points="452.85 -57.14 449.53 -59.68 115.24 195.71 118.57 198.25 452.85 -57.14"/><polygon class="cls-2" points="460.01 -51.68 456.68 -54.22 122.4 201.17 125.72 203.71 460.01 -51.68"/><polygon class="cls-2" points="467.16 -46.22 463.84 -48.75 129.55 206.64 132.87 209.18 467.16 -46.22"/><polygon class="cls-2" points="474.31 -40.75 470.99 -43.29 136.7 212.1 140.02 214.64 474.31 -40.75"/><polygon class="cls-2" points="481.46 -35.29 478.14 -37.83 143.85 217.56 147.18 220.1 481.46 -35.29"/><polygon class="cls-2" points="488.62 -29.82 485.29 -32.36 151 223.03 154.33 225.57 488.62 -29.82"/><polygon class="cls-2" points="495.77 -24.36 492.44 -26.9 158.16 228.49 161.48 231.03 495.77 -24.36"/><polygon class="cls-2" points="502.92 -18.89 499.6 -21.43 165.31 233.96 168.63 236.5 502.92 -18.89"/><polygon class="cls-2" points="510.07 -13.43 506.75 -15.97 172.46 239.42 175.78 241.96 510.07 -13.43"/><polygon class="cls-2" points="517.22 -7.97 513.9 -10.51 179.61 244.88 182.94 247.42 517.22 -7.97"/><polygon class="cls-2" points="524.38 -2.5 521.05 -5.04 186.77 250.35 190.09 252.89 524.38 -2.5"/><polygon class="cls-2" points="531.53 2.96 528.21 0.42 193.92 255.81 197.24 258.35 531.53 2.96"/><polygon class="cls-2" points="538.68 8.43 535.36 5.89 201.07 261.28 204.39 263.82 538.68 8.43"/><polygon class="cls-2" points="545.83 13.89 542.51 11.35 208.22 266.74 211.54 269.28 545.83 13.89"/><polygon class="cls-2" points="552.98 19.35 549.66 16.82 215.37 272.2 218.7 274.74 552.98 19.35"/></g></g><rect class="cls-2" x="414.78" y="-50.7" width="57.7" height="263.73"/><g class="cls-10"><ellipse class="cls-2" cx="467.1" cy="195.52" rx="2.59" ry="1.97"/><ellipse class="cls-2" cx="467.1" cy="190.27" rx="2.59" ry="1.97"/><ellipse class="cls-2" cx="467.1" cy="185.01" rx="2.59" ry="1.97"/><ellipse class="cls-2" cx="467.1" cy="179.75" rx="2.59" ry="1.97"/><ellipse class="cls-2" cx="467.1" cy="174.49" rx="2.59" ry="1.97"/><ellipse class="cls-2" cx="467.1" cy="169.23" rx="2.59" ry="1.97"/><ellipse class="cls-2" cx="467.1" cy="163.98" rx="2.59" ry="1.97"/><ellipse class="cls-2" cx="467.1" cy="158.72" rx="2.59" ry="1.97"/><ellipse class="cls-2" cx="467.1" cy="153.46" rx="2.59" ry="1.97"/><ellipse class="cls-2" cx="467.1" cy="148.2" rx="2.59" ry="1.97"/><ellipse class="cls-2" cx="467.1" cy="142.94" rx="2.59" ry="1.97"/><ellipse class="cls-2" cx="467.1" cy="137.68" rx="2.59" ry="1.97"/><ellipse class="cls-2" cx="467.1" cy="132.43" rx="2.59" ry="1.97"/><ellipse class="cls-2" cx="467.1" cy="127.17" rx="2.59" ry="1.97"/><ellipse class="cls-2" cx="467.1" cy="121.91" rx="2.59" ry="1.97"/><ellipse class="cls-2" cx="467.1" cy="116.65" rx="2.59" ry="1.97"/><ellipse class="cls-2" cx="467.1" cy="111.39" rx="2.59" ry="1.97"/><ellipse class="cls-2" cx="467.1" cy="106.14" rx="2.59" ry="1.97"/><ellipse class="cls-2" cx="467.1" cy="100.88" rx="2.59" ry="1.97"/><ellipse class="cls-2" cx="467.1" cy="95.62" rx="2.59" ry="1.97"/><ellipse class="cls-2" cx="467.1" cy="90.36" rx="2.59" ry="1.97"/><ellipse class="cls-2" cx="467.1" cy="85.11" rx="2.59" ry="1.97"/><ellipse class="cls-2" cx="467.1" cy="79.85" rx="2.59" ry="1.97"/><ellipse class="cls-2" cx="467.1" cy="74.59" rx="2.59" ry="1.97"/><ellipse class="cls-2" cx="467.1" cy="69.33" rx="2.59" ry="1.97"/><ellipse class="cls-2" cx="467.1" cy="64.07" rx="2.59" ry="1.97"/><ellipse class="cls-2" cx="467.1" cy="58.81" rx="2.59" ry="1.97"/><ellipse class="cls-2" cx="467.1" cy="53.56" rx="2.59" ry="1.97"/><ellipse class="cls-2" cx="467.1" cy="48.3" rx="2.59" ry="1.97"/><ellipse class="cls-2" cx="467.1" cy="43.04" rx="2.59" ry="1.97"/><ellipse class="cls-2" cx="467.1" cy="37.78" rx="2.59" ry="1.97"/><ellipse class="cls-2" cx="467.1" cy="32.53" rx="2.59" ry="1.97"/><ellipse class="cls-2" cx="467.1" cy="27.27" rx="2.59" ry="1.97"/><ellipse class="cls-2" cx="467.1" cy="22.01" rx="2.59" ry="1.97"/><ellipse class="cls-2" cx="467.1" cy="16.75" rx="2.59" ry="1.97"/><ellipse class="cls-2" cx="467.1" cy="11.49" rx="2.59" ry="1.97"/><ellipse class="cls-2" cx="467.1" cy="6.24" rx="2.59" ry="1.97"/><ellipse class="cls-2" cx="467.1" cy="0.98" rx="2.59" ry="1.97"/><ellipse class="cls-2" cx="460.19" cy="195.52" rx="2.59" ry="1.97"/><ellipse class="cls-2" cx="460.19" cy="190.26" rx="2.59" ry="1.97"/><ellipse class="cls-2" cx="460.19" cy="185.01" rx="2.59" ry="1.97"/><ellipse class="cls-2" cx="460.19" cy="179.75" rx="2.59" ry="1.97"/><ellipse class="cls-2" cx="460.19" cy="174.49" rx="2.59" ry="1.97"/><ellipse class="cls-2" cx="460.19" cy="169.23" rx="2.59" ry="1.97"/><ellipse class="cls-2" cx="460.19" cy="163.97" rx="2.59" ry="1.97"/><ellipse class="cls-2" cx="460.19" cy="158.72" rx="2.59" ry="1.97"/><ellipse class="cls-2" cx="460.19" cy="153.46" rx="2.59" ry="1.97"/><ellipse class="cls-2" cx="460.19" cy="148.2" rx="2.59" ry="1.97"/><ellipse class="cls-2" cx="460.19" cy="142.94" rx="2.59" ry="1.97"/><ellipse class="cls-2" cx="460.19" cy="137.68" rx="2.59" ry="1.97"/><ellipse class="cls-2" cx="460.19" cy="132.43" rx="2.59" ry="1.97"/><ellipse class="cls-2" cx="460.19" cy="127.17" rx="2.59" ry="1.97"/><ellipse class="cls-2" cx="460.19" cy="121.91" rx="2.59" ry="1.97"/><ellipse class="cls-2" cx="460.19" cy="116.65" rx="2.59" ry="1.97"/><ellipse class="cls-2" cx="460.19" cy="111.4" rx="2.59" ry="1.97"/><ellipse class="cls-2" cx="460.19" cy="106.14" rx="2.59" ry="1.97"/><ellipse class="cls-2" cx="460.19" cy="100.88" rx="2.59" ry="1.97"/><ellipse class="cls-2" cx="460.19" cy="95.62" rx="2.59" ry="1.97"/><ellipse class="cls-2" cx="460.19" cy="90.36" rx="2.59" ry="1.97"/><ellipse class="cls-2" cx="460.19" cy="85.11" rx="2.59" ry="1.97"/><ellipse class="cls-2" cx="460.19" cy="79.85" rx="2.59" ry="1.97"/><ellipse class="cls-2" cx="460.19" cy="74.59" rx="2.59" ry="1.97"/><ellipse class="cls-2" cx="460.19" cy="69.33" rx="2.59" ry="1.97"/><ellipse class="cls-2" cx="460.19" cy="64.07" rx="2.59" ry="1.97"/><ellipse class="cls-2" cx="460.19" cy="58.81" rx="2.59" ry="1.97"/><ellipse class="cls-2" cx="460.19" cy="53.56" rx="2.59" ry="1.97"/><ellipse class="cls-2" cx="460.19" cy="48.3" rx="2.59" ry="1.97"/><ellipse class="cls-2" cx="460.19" cy="43.04" rx="2.59" ry="1.97"/><ellipse class="cls-2" cx="460.19" cy="37.78" rx="2.59" ry="1.97"/><ellipse class="cls-2" cx="460.19" cy="32.53" rx="2.59" ry="1.97"/><ellipse class="cls-2" cx="460.19" cy="27.27" rx="2.59" ry="1.97"/><ellipse class="cls-2" cx="460.19" cy="22.01" rx="2.59" ry="1.97"/><ellipse class="cls-2" cx="460.19" cy="16.75" rx="2.59" ry="1.97"/><ellipse class="cls-2" cx="460.19" cy="11.49" rx="2.59" ry="1.97"/><ellipse class="cls-2" cx="460.19" cy="6.24" rx="2.59" ry="1.97"/><ellipse class="cls-2" cx="460.19" cy="0.98" rx="2.59" ry="1.97"/><ellipse class="cls-2" cx="453.28" cy="195.52" rx="2.59" ry="1.97"/><ellipse class="cls-2" cx="453.28" cy="190.27" rx="2.59" ry="1.97"/><ellipse class="cls-2" cx="453.28" cy="185.01" rx="2.59" ry="1.97"/><ellipse class="cls-2" cx="453.28" cy="179.75" rx="2.59" ry="1.97"/><ellipse class="cls-2" cx="453.28" cy="174.49" rx="2.59" ry="1.97"/><ellipse class="cls-2" cx="453.28" cy="169.23" rx="2.59" ry="1.97"/><ellipse class="cls-2" cx="453.28" cy="163.97" rx="2.59" ry="1.97"/><ellipse class="cls-2" cx="453.28" cy="158.72" rx="2.59" ry="1.97"/><ellipse class="cls-2" cx="453.28" cy="153.46" rx="2.59" ry="1.97"/><ellipse class="cls-2" cx="453.28" cy="148.2" rx="2.59" ry="1.97"/><ellipse class="cls-2" cx="453.28" cy="142.94" rx="2.59" ry="1.97"/><ellipse class="cls-2" cx="453.28" cy="137.69" rx="2.59" ry="1.97"/><ellipse class="cls-2" cx="453.28" cy="132.43" rx="2.59" ry="1.97"/><ellipse class="cls-2" cx="453.28" cy="127.17" rx="2.59" ry="1.97"/><ellipse class="cls-2" cx="453.28" cy="121.91" rx="2.59" ry="1.97"/><ellipse class="cls-2" cx="453.28" cy="116.65" rx="2.59" ry="1.97"/><ellipse class="cls-2" cx="453.28" cy="111.4" rx="2.59" ry="1.97"/><ellipse class="cls-2" cx="453.28" cy="106.14" rx="2.59" ry="1.97"/><ellipse class="cls-2" cx="453.28" cy="100.88" rx="2.59" ry="1.97"/><ellipse class="cls-2" cx="453.28" cy="95.62" rx="2.59" ry="1.97"/><ellipse class="cls-2" cx="453.28" cy="90.36" rx="2.59" ry="1.97"/><ellipse class="cls-2" cx="453.28" cy="85.11" rx="2.59" ry="1.97"/><ellipse class="cls-2" cx="453.28" cy="79.85" rx="2.59" ry="1.97"/><ellipse class="cls-2" cx="453.28" cy="74.59" rx="2.59" ry="1.97"/><ellipse class="cls-2" cx="453.28" cy="69.33" rx="2.59" ry="1.97"/><ellipse class="cls-2" cx="453.28" cy="64.07" rx="2.59" ry="1.97"/><ellipse class="cls-2" cx="453.28" cy="58.82" rx="2.59" ry="1.97"/><ellipse class="cls-2" cx="453.28" cy="53.56" rx="2.59" ry="1.97"/><ellipse class="cls-2" cx="453.28" cy="48.3" rx="2.59" ry="1.97"/><ellipse class="cls-2" cx="453.28" cy="43.04" rx="2.59" ry="1.97"/><ellipse class="cls-2" cx="453.28" cy="37.78" rx="2.59" ry="1.97"/><ellipse class="cls-2" cx="453.28" cy="32.53" rx="2.59" ry="1.97"/><ellipse class="cls-2" cx="453.28" cy="27.27" rx="2.59" ry="1.97"/><ellipse class="cls-2" cx="453.28" cy="22.01" rx="2.59" ry="1.97"/><ellipse class="cls-2" cx="453.28" cy="16.75" rx="2.59" ry="1.97"/><ellipse class="cls-2" cx="453.28" cy="11.49" rx="2.59" ry="1.97"/><ellipse class="cls-2" cx="453.28" cy="6.24" rx="2.59" ry="1.97"/><ellipse class="cls-2" cx="453.28" cy="0.98" rx="2.59" ry="1.97"/><ellipse class="cls-2" cx="446.37" cy="195.52" rx="2.59" ry="1.97"/><ellipse class="cls-2" cx="446.37" cy="190.26" rx="2.59" ry="1.97"/><ellipse class="cls-2" cx="446.37" cy="185.01" rx="2.59" ry="1.97"/><ellipse class="cls-2" cx="446.37" cy="179.75" rx="2.59" ry="1.97"/><ellipse class="cls-2" cx="446.37" cy="174.49" rx="2.59" ry="1.97"/><ellipse class="cls-2" cx="446.37" cy="169.23" rx="2.59" ry="1.97"/><ellipse class="cls-2" cx="446.37" cy="163.98" rx="2.59" ry="1.97"/><ellipse class="cls-2" cx="446.37" cy="158.72" rx="2.59" ry="1.97"/><ellipse class="cls-2" cx="446.37" cy="153.46" rx="2.59" ry="1.97"/><ellipse class="cls-2" cx="446.37" cy="148.2" rx="2.59" ry="1.97"/><ellipse class="cls-2" cx="446.37" cy="142.94" rx="2.59" ry="1.97"/><ellipse class="cls-2" cx="446.37" cy="137.69" rx="2.59" ry="1.97"/><ellipse class="cls-2" cx="446.37" cy="132.43" rx="2.59" ry="1.97"/><ellipse class="cls-2" cx="446.37" cy="127.17" rx="2.59" ry="1.97"/><ellipse class="cls-2" cx="446.37" cy="121.91" rx="2.59" ry="1.97"/><ellipse class="cls-2" cx="446.37" cy="116.65" rx="2.59" ry="1.97"/><ellipse class="cls-2" cx="446.37" cy="111.39" rx="2.59" ry="1.97"/><ellipse class="cls-2" cx="446.37" cy="106.14" rx="2.59" ry="1.97"/><ellipse class="cls-2" cx="446.37" cy="100.88" rx="2.59" ry="1.97"/><ellipse class="cls-2" cx="446.37" cy="95.62" rx="2.59" ry="1.97"/><ellipse class="cls-2" cx="446.37" cy="90.36" rx="2.59" ry="1.97"/><ellipse class="cls-2" cx="446.37" cy="85.11" rx="2.59" ry="1.97"/><ellipse class="cls-2" cx="446.37" cy="79.85" rx="2.59" ry="1.97"/><ellipse class="cls-2" cx="446.37" cy="74.59" rx="2.59" ry="1.97"/><ellipse class="cls-2" cx="446.37" cy="69.33" rx="2.59" ry="1.97"/><ellipse class="cls-2" cx="446.37" cy="64.07" rx="2.59" ry="1.97"/><ellipse class="cls-2" cx="446.37" cy="58.81" rx="2.59" ry="1.97"/><ellipse class="cls-2" cx="446.37" cy="53.56" rx="2.59" ry="1.97"/><ellipse class="cls-2" cx="446.37" cy="48.3" rx="2.59" ry="1.97"/><ellipse class="cls-2" cx="446.37" cy="43.04" rx="2.59" ry="1.97"/><ellipse class="cls-2" cx="446.37" cy="37.78" rx="2.59" ry="1.97"/><ellipse class="cls-2" cx="446.37" cy="32.53" rx="2.59" ry="1.97"/><ellipse class="cls-2" cx="446.37" cy="27.27" rx="2.59" ry="1.97"/><ellipse class="cls-2" cx="446.37" cy="22.01" rx="2.59" ry="1.97"/><ellipse class="cls-2" cx="446.37" cy="16.75" rx="2.59" ry="1.97"/><ellipse class="cls-2" cx="446.37" cy="11.49" rx="2.59" ry="1.97"/><ellipse class="cls-2" cx="446.37" cy="6.23" rx="2.59" ry="1.97"/><ellipse class="cls-2" cx="446.37" cy="0.98" rx="2.59" ry="1.97"/><ellipse class="cls-2" cx="439.46" cy="195.52" rx="2.59" ry="1.97"/><ellipse class="cls-2" cx="439.46" cy="190.26" rx="2.59" ry="1.97"/><ellipse class="cls-2" cx="439.46" cy="185.01" rx="2.59" ry="1.97"/><ellipse class="cls-2" cx="439.46" cy="179.75" rx="2.59" ry="1.97"/><ellipse class="cls-2" cx="439.46" cy="174.49" rx="2.59" ry="1.97"/><ellipse class="cls-2" cx="439.46" cy="169.23" rx="2.59" ry="1.97"/><ellipse class="cls-2" cx="439.46" cy="163.97" rx="2.59" ry="1.97"/><ellipse class="cls-2" cx="439.46" cy="158.72" rx="2.59" ry="1.97"/><ellipse class="cls-2" cx="439.46" cy="153.46" rx="2.59" ry="1.97"/><ellipse class="cls-2" cx="439.46" cy="148.2" rx="2.59" ry="1.97"/><ellipse class="cls-2" cx="439.46" cy="142.94" rx="2.59" ry="1.97"/><ellipse class="cls-2" cx="439.46" cy="137.68" rx="2.59" ry="1.97"/><ellipse class="cls-2" cx="439.46" cy="132.43" rx="2.59" ry="1.97"/><ellipse class="cls-2" cx="439.46" cy="127.17" rx="2.59" ry="1.97"/><ellipse class="cls-2" cx="439.46" cy="121.91" rx="2.59" ry="1.97"/><ellipse class="cls-2" cx="439.46" cy="116.65" rx="2.59" ry="1.97"/><ellipse class="cls-2" cx="439.46" cy="111.4" rx="2.59" ry="1.97"/><ellipse class="cls-2" cx="439.46" cy="106.14" rx="2.59" ry="1.97"/><ellipse class="cls-2" cx="439.46" cy="100.88" rx="2.59" ry="1.97"/><ellipse class="cls-2" cx="439.46" cy="95.62" rx="2.59" ry="1.97"/><ellipse class="cls-2" cx="439.46" cy="90.36" rx="2.59" ry="1.97"/><ellipse class="cls-2" cx="439.46" cy="85.1" rx="2.59" ry="1.97"/><ellipse class="cls-2" cx="439.46" cy="79.85" rx="2.59" ry="1.97"/><ellipse class="cls-2" cx="439.46" cy="74.59" rx="2.59" ry="1.97"/><ellipse class="cls-2" cx="439.46" cy="69.33" rx="2.59" ry="1.97"/><ellipse class="cls-2" cx="439.46" cy="64.07" rx="2.59" ry="1.97"/><ellipse class="cls-2" cx="439.46" cy="58.81" rx="2.59" ry="1.97"/><ellipse class="cls-2" cx="439.46" cy="53.56" rx="2.59" ry="1.97"/><ellipse class="cls-2" cx="439.46" cy="48.3" rx="2.59" ry="1.97"/><ellipse class="cls-2" cx="439.46" cy="43.04" rx="2.59" ry="1.97"/><ellipse class="cls-2" cx="439.46" cy="37.78" rx="2.59" ry="1.97"/><ellipse class="cls-2" cx="439.46" cy="32.53" rx="2.59" ry="1.97"/><ellipse class="cls-2" cx="439.46" cy="27.27" rx="2.59" ry="1.97"/><ellipse class="cls-2" cx="439.46" cy="22.01" rx="2.59" ry="1.97"/><ellipse class="cls-2" cx="439.46" cy="16.75" rx="2.59" ry="1.97"/><ellipse class="cls-2" cx="439.46" cy="11.49" rx="2.59" ry="1.97"/><ellipse class="cls-2" cx="439.46" cy="6.24" rx="2.59" ry="1.97"/><ellipse class="cls-2" cx="439.46" cy="0.98" rx="2.59" ry="1.97"/><ellipse class="cls-2" cx="432.55" cy="195.52" rx="2.59" ry="1.97"/><ellipse class="cls-2" cx="432.55" cy="190.27" rx="2.59" ry="1.97"/><ellipse class="cls-2" cx="432.55" cy="185.01" rx="2.59" ry="1.97"/><ellipse class="cls-2" cx="432.55" cy="179.75" rx="2.59" ry="1.97"/><ellipse class="cls-2" cx="432.55" cy="174.49" rx="2.59" ry="1.97"/><ellipse class="cls-2" cx="432.55" cy="169.23" rx="2.59" ry="1.97"/><ellipse class="cls-2" cx="432.55" cy="163.98" rx="2.59" ry="1.97"/><ellipse class="cls-2" cx="432.55" cy="158.72" rx="2.59" ry="1.97"/><ellipse class="cls-2" cx="432.55" cy="153.46" rx="2.59" ry="1.97"/><ellipse class="cls-2" cx="432.55" cy="148.2" rx="2.59" ry="1.97"/><ellipse class="cls-2" cx="432.55" cy="142.94" rx="2.59" ry="1.97"/><ellipse class="cls-2" cx="432.55" cy="137.69" rx="2.59" ry="1.97"/><ellipse class="cls-2" cx="432.55" cy="132.43" rx="2.59" ry="1.97"/><ellipse class="cls-2" cx="432.55" cy="127.17" rx="2.59" ry="1.97"/><ellipse class="cls-2" cx="432.55" cy="121.91" rx="2.59" ry="1.97"/><ellipse class="cls-2" cx="432.55" cy="116.65" rx="2.59" ry="1.97"/><ellipse class="cls-2" cx="432.55" cy="111.4" rx="2.59" ry="1.97"/><ellipse class="cls-2" cx="432.55" cy="106.14" rx="2.59" ry="1.97"/><ellipse class="cls-2" cx="432.55" cy="100.88" rx="2.59" ry="1.97"/><ellipse class="cls-2" cx="432.55" cy="95.62" rx="2.59" ry="1.97"/><ellipse class="cls-2" cx="432.55" cy="90.36" rx="2.59" ry="1.97"/><ellipse class="cls-2" cx="432.55" cy="85.1" rx="2.59" ry="1.97"/><ellipse class="cls-2" cx="432.55" cy="79.85" rx="2.59" ry="1.97"/><ellipse class="cls-2" cx="432.55" cy="74.59" rx="2.59" ry="1.97"/><ellipse class="cls-2" cx="432.55" cy="69.33" rx="2.59" ry="1.97"/><ellipse class="cls-2" cx="432.55" cy="64.07" rx="2.59" ry="1.97"/><ellipse class="cls-2" cx="432.55" cy="58.82" rx="2.59" ry="1.97"/><ellipse class="cls-2" cx="432.55" cy="53.56" rx="2.59" ry="1.97"/><ellipse class="cls-2" cx="432.55" cy="48.3" rx="2.59" ry="1.97"/><ellipse class="cls-2" cx="432.55" cy="43.04" rx="2.59" ry="1.97"/><ellipse class="cls-2" cx="432.55" cy="37.78" rx="2.59" ry="1.97"/><ellipse class="cls-2" cx="432.55" cy="32.53" rx="2.59" ry="1.97"/><ellipse class="cls-2" cx="432.55" cy="27.27" rx="2.59" ry="1.97"/><ellipse class="cls-2" cx="432.55" cy="22.01" rx="2.59" ry="1.97"/><ellipse class="cls-2" cx="432.55" cy="16.75" rx="2.59" ry="1.97"/><ellipse class="cls-2" cx="432.55" cy="11.49" rx="2.59" ry="1.97"/><ellipse class="cls-2" cx="432.55" cy="6.24" rx="2.59" ry="1.97"/><ellipse class="cls-2" cx="432.55" cy="0.98" rx="2.59" ry="1.97"/><ellipse class="cls-2" cx="425.64" cy="195.52" rx="2.59" ry="1.97"/><ellipse class="cls-2" cx="425.64" cy="190.26" rx="2.59" ry="1.97"/><ellipse class="cls-2" cx="425.64" cy="185.01" rx="2.59" ry="1.97"/><ellipse class="cls-2" cx="425.64" cy="179.75" rx="2.59" ry="1.97"/><ellipse class="cls-2" cx="425.64" cy="174.49" rx="2.59" ry="1.97"/><ellipse class="cls-2" cx="425.64" cy="169.23" rx="2.59" ry="1.97"/><ellipse class="cls-2" cx="425.64" cy="163.97" rx="2.59" ry="1.97"/><ellipse class="cls-2" cx="425.64" cy="158.72" rx="2.59" ry="1.97"/><ellipse class="cls-2" cx="425.64" cy="153.46" rx="2.59" ry="1.97"/><ellipse class="cls-2" cx="425.64" cy="148.2" rx="2.59" ry="1.97"/><ellipse class="cls-2" cx="425.64" cy="142.94" rx="2.59" ry="1.97"/><ellipse class="cls-2" cx="425.64" cy="137.68" rx="2.59" ry="1.97"/><ellipse class="cls-2" cx="425.64" cy="132.43" rx="2.59" ry="1.97"/><ellipse class="cls-2" cx="425.64" cy="127.17" rx="2.59" ry="1.97"/><ellipse class="cls-2" cx="425.64" cy="121.91" rx="2.59" ry="1.97"/><ellipse class="cls-2" cx="425.64" cy="116.65" rx="2.59" ry="1.97"/><ellipse class="cls-2" cx="425.64" cy="111.4" rx="2.59" ry="1.97"/><ellipse class="cls-2" cx="425.64" cy="106.14" rx="2.59" ry="1.97"/><ellipse class="cls-2" cx="425.64" cy="100.88" rx="2.59" ry="1.97"/><ellipse class="cls-2" cx="425.64" cy="95.62" rx="2.59" ry="1.97"/><ellipse class="cls-2" cx="425.64" cy="90.36" rx="2.59" ry="1.97"/><ellipse class="cls-2" cx="425.64" cy="85.11" rx="2.59" ry="1.97"/><ellipse class="cls-2" cx="425.64" cy="79.85" rx="2.59" ry="1.97"/><ellipse class="cls-2" cx="425.64" cy="74.59" rx="2.59" ry="1.97"/><ellipse class="cls-2" cx="425.64" cy="69.33" rx="2.59" ry="1.97"/><ellipse class="cls-2" cx="425.64" cy="64.07" rx="2.59" ry="1.97"/><ellipse class="cls-2" cx="425.64" cy="58.82" rx="2.59" ry="1.97"/><ellipse class="cls-2" cx="425.64" cy="53.56" rx="2.59" ry="1.97"/><ellipse class="cls-2" cx="425.64" cy="48.3" rx="2.59" ry="1.97"/><ellipse class="cls-2" cx="425.64" cy="43.04" rx="2.59" ry="1.97"/><ellipse class="cls-2" cx="425.64" cy="37.78" rx="2.59" ry="1.97"/><ellipse class="cls-2" cx="425.64" cy="32.53" rx="2.59" ry="1.97"/><ellipse class="cls-2" cx="425.64" cy="27.27" rx="2.59" ry="1.97"/><ellipse class="cls-2" cx="425.64" cy="22.01" rx="2.59" ry="1.97"/><ellipse class="cls-2" cx="425.64" cy="16.75" rx="2.59" ry="1.97"/><ellipse class="cls-2" cx="425.64" cy="11.49" rx="2.59" ry="1.97"/><ellipse class="cls-2" cx="425.64" cy="6.24" rx="2.59" ry="1.97"/><ellipse class="cls-2" cx="425.64" cy="0.98" rx="2.59" ry="1.97"/><ellipse class="cls-2" cx="418.73" cy="195.52" rx="2.59" ry="1.97"/><ellipse class="cls-2" cx="418.73" cy="190.27" rx="2.59" ry="1.97"/><ellipse class="cls-2" cx="418.73" cy="185.01" rx="2.59" ry="1.97"/><ellipse class="cls-2" cx="418.73" cy="179.75" rx="2.59" ry="1.97"/><ellipse class="cls-2" cx="418.73" cy="174.49" rx="2.59" ry="1.97"/><ellipse class="cls-2" cx="418.73" cy="169.23" rx="2.59" ry="1.97"/><ellipse class="cls-2" cx="418.73" cy="163.97" rx="2.59" ry="1.97"/><ellipse class="cls-2" cx="418.73" cy="158.72" rx="2.59" ry="1.97"/><ellipse class="cls-2" cx="418.73" cy="153.46" rx="2.59" ry="1.97"/><ellipse class="cls-2" cx="418.73" cy="148.2" rx="2.59" ry="1.97"/><ellipse class="cls-2" cx="418.73" cy="142.94" rx="2.59" ry="1.97"/><ellipse class="cls-2" cx="418.73" cy="137.69" rx="2.59" ry="1.97"/><ellipse class="cls-2" cx="418.73" cy="132.43" rx="2.59" ry="1.97"/><ellipse class="cls-2" cx="418.73" cy="127.17" rx="2.59" ry="1.97"/><ellipse class="cls-2" cx="418.73" cy="121.91" rx="2.59" ry="1.97"/><ellipse class="cls-2" cx="418.73" cy="116.65" rx="2.59" ry="1.97"/><ellipse class="cls-2" cx="418.73" cy="111.4" rx="2.59" ry="1.97"/><ellipse class="cls-2" cx="418.73" cy="106.14" rx="2.59" ry="1.97"/><ellipse class="cls-2" cx="418.73" cy="100.88" rx="2.59" ry="1.97"/><ellipse class="cls-2" cx="418.73" cy="95.62" rx="2.59" ry="1.97"/><ellipse class="cls-2" cx="418.73" cy="90.36" rx="2.59" ry="1.97"/><ellipse class="cls-2" cx="418.73" cy="85.11" rx="2.59" ry="1.97"/><ellipse class="cls-2" cx="418.73" cy="79.85" rx="2.59" ry="1.97"/><ellipse class="cls-2" cx="418.73" cy="74.59" rx="2.59" ry="1.97"/><ellipse class="cls-2" cx="418.73" cy="69.33" rx="2.59" ry="1.97"/><ellipse class="cls-2" cx="418.73" cy="64.07" rx="2.59" ry="1.97"/><ellipse class="cls-2" cx="418.73" cy="58.82" rx="2.59" ry="1.97"/><ellipse class="cls-2" cx="418.73" cy="53.56" rx="2.59" ry="1.97"/><ellipse class="cls-2" cx="418.73" cy="48.3" rx="2.59" ry="1.97"/><ellipse class="cls-2" cx="418.73" cy="43.04" rx="2.59" ry="1.97"/><ellipse class="cls-2" cx="418.73" cy="37.78" rx="2.59" ry="1.97"/><ellipse class="cls-2" cx="418.73" cy="32.52" rx="2.59" ry="1.97"/><ellipse class="cls-2" cx="418.73" cy="27.27" rx="2.59" ry="1.97"/><ellipse class="cls-2" cx="418.73" cy="22.01" rx="2.59" ry="1.97"/><ellipse class="cls-2" cx="418.73" cy="16.75" rx="2.59" ry="1.97"/><ellipse class="cls-2" cx="418.73" cy="11.49" rx="2.59" ry="1.97"/><ellipse class="cls-2" cx="418.73" cy="6.24" rx="2.59" ry="1.97"/><ellipse class="cls-2" cx="418.73" cy="0.98" rx="2.59" ry="1.97"/></g><rect class="cls-2" x="359.02" y="-41.27" width="56.15" height="263.73"/></g><path class="cls-11" d="M329.83,268.08c7.7,0,13.94-4.75,13.94-10.61v-93.7c0-5.86-6.24-10.61-13.94-10.61h0c-7.7,0-13.94,4.75-13.94,10.61v93.7c0,5.86,6.24,10.61,13.94,10.61Z"/><path class="cls-12" d="M374.67,284.88c7.7,0,13.94-4.75,13.94-10.61v-43c0-5.86-6.24-10.61-13.94-10.61h0c-7.7,0-13.94,4.75-13.94,10.61v43c0,5.86,6.24,10.61,13.94,10.61Z"/><path class="cls-13" d="M193.78,142.81c7.7,0,13.94-4.75,13.94-10.61V58.14c0-5.86-6.24-10.61-13.94-10.61h0c-7.7,0-13.94,4.75-13.94,10.61V132.2c0,5.86,6.24,10.61,13.94,10.61Z"/><path class="cls-2" d="M497.88,148.79c7.7,0,13.94-4.75,13.94-10.61V64.13c0-5.86-6.24-10.61-13.94-10.61h0c-7.7,0-13.94,4.75-13.94,10.61v74.05c0,5.86,6.24,10.61,13.94,10.61Z"/><ellipse class="cls-11" cx="262.36" cy="232.69" rx="14.49" ry="11.03"/><ellipse class="cls-11" cx="329.21" cy="284.55" rx="14.49" ry="11.03"/><ellipse class="cls-11" cx="496.99" cy="35.2" rx="14.49" ry="11.03"/></g><g class="cls-6"><path class="cls-7" d="M330.46,379.42c0,1.27,1.53,1.88,3,2.47s2.68,1.06,2.68,2.05-1.3,1.51-2.68,2.05-3,1.2-3,2.47,1.53,1.88,3,2.47,2.68,1.06,2.68,2.05-1.3,1.51-2.68,2.05-3,1.2-3,2.47,1.53,1.88,3,2.47,2.68,1.07,2.68,2.05-1.3,1.51-2.68,2.05-3,1.2-3,2.47,1.53,1.88,3,2.47,2.68,1.06,2.68,2.05-1.3,1.51-2.68,2.05-3,1.19-3,2.47,1.53,1.88,3,2.47,2.68,1.06,2.68,2.05-1.3,1.51-2.68,2.05-3,1.19-3,2.47,1.53,1.88,3,2.47,2.68,1.06,2.68,2.05h.61c0-1.27-1.53-1.88-3-2.46s-2.68-1.06-2.68-2.05,1.3-1.51,2.68-2.05,3-1.2,3-2.47-1.53-1.88-3-2.46-2.68-1.06-2.68-2.05,1.3-1.51,2.68-2.05,3-1.19,3-2.47-1.53-1.88-3-2.47-2.68-1.06-2.68-2.05,1.3-1.51,2.68-2.05,3-1.2,3-2.47-1.53-1.88-3-2.47-2.68-1.07-2.68-2.05,1.3-1.51,2.68-2.05,3-1.2,3-2.47-1.53-1.88-3-2.47-2.68-1.06-2.68-2.05,1.3-1.51,2.68-2.05,3-1.2,3-2.47-1.53-1.88-3-2.47-2.68-1.06-2.68-2.05,1.3-1.51,2.68-2.05,3-1.2,3-2.47h-.61c0,1-1.3,1.51-2.68,2.05S330.46,378.15,330.46,379.42Z"/><path class="cls-2" d="M406.72,463.61a8.84,8.84,0,0,0,6.76,8.4,21.93,21.93,0,0,0,7,.89h.2c7.7,0,13.94,4.75,13.94,10.61v18.56c0,5.86,6.24,10.61,13.94,10.61s13.94-4.75,13.94-10.61v-61c0-5.6,5.71-10.19,12.95-10.58l0,0c3.68-.15,4.76.06,8.2-.93a8.84,8.84,0,0,0,6.76-8.4V398.64c0-5.86,6.24-10.61,13.94-10.61s13.94,4.75,13.94,10.61v14.63a8.84,8.84,0,0,0,6.76,8.4,19.76,19.76,0,0,0,6.09.87c.36,0,.72,0,1.09,0,7.7,0,13.94,4.75,13.94,10.61V629.37c0,5.86-6.24,10.61-13.94,10.61s-13.94-4.75-13.94-10.61V612.12c0-5.86-6.24-10.61-13.94-10.61s-13.94,4.75-13.94,10.61v35.81c0,5.86-6.24,10.61-13.94,10.61s-13.94-4.75-13.94-10.61V616.11c0-5.86-6.24-10.61-13.94-10.61s-13.94,4.75-13.94,10.61v74.26c0,5.86-6.24,10.61-13.94,10.61s-13.94-4.75-13.94-10.61v-61c0-5.86-6.24-10.61-13.94-10.61s-13.94,4.75-13.94,10.61V627c0,5.86-6.24,10.61-13.94,10.61S351,632.87,351,627v-4.28c0-5.86-6.24-10.61-13.94-10.61s-13.94,4.75-13.94,10.61v-1.32c0,5.86-6.24,10.61-13.94,10.61s-13.94-4.75-13.94-10.61V425.16c0-5.86,6.24-10.61,13.94-10.61s13.94,4.75,13.94,10.61v5.3c0,5.86,6.24,10.61,13.94,10.61S351,436.33,351,430.47V395.7c0-5.86,6.24-10.61,13.94-10.61s13.94,4.75,13.94,10.61v1.7a8.84,8.84,0,0,0,6.61,7,21,21,0,0,0,6.63.88h.7c7.7,0,13.94,4.75,13.94,10.61Z"/><g class="cls-14"><rect class="cls-2" x="406.72" y="346.63" width="144.63" height="365.07"/><g class="cls-15"><g class="cls-10"><polygon class="cls-2" points="413.29 737.36 416.62 739.9 750.9 484.5 747.58 481.97 413.29 737.36"/><polygon class="cls-2" points="406.14 731.89 409.46 734.43 743.75 479.04 740.43 476.5 406.14 731.89"/><polygon class="cls-2" points="398.99 726.43 402.31 728.97 736.6 473.58 733.28 471.04 398.99 726.43"/><polygon class="cls-2" points="391.84 720.97 395.16 723.5 729.45 468.11 726.13 465.58 391.84 720.97"/><polygon class="cls-2" points="384.69 715.5 388.01 718.04 722.3 462.65 718.97 460.11 384.69 715.5"/><polygon class="cls-2" points="377.53 710.04 380.86 712.58 715.14 457.19 711.82 454.65 377.53 710.04"/><polygon class="cls-2" points="370.38 704.57 373.7 707.11 707.99 451.72 704.67 449.18 370.38 704.57"/><polygon class="cls-2" points="363.23 699.11 366.55 701.65 700.84 446.26 697.52 443.72 363.23 699.11"/><polygon class="cls-2" points="356.08 693.64 359.4 696.18 693.69 440.79 690.37 438.25 356.08 693.64"/><polygon class="cls-2" points="348.93 688.18 352.25 690.72 686.53 435.33 683.21 432.79 348.93 688.18"/><polygon class="cls-2" points="341.77 682.72 345.1 685.25 679.38 429.87 676.06 427.33 341.77 682.72"/><polygon class="cls-2" points="334.62 677.25 337.94 679.79 672.23 424.4 668.91 421.86 334.62 677.25"/><polygon class="cls-2" points="327.47 671.79 330.79 674.33 665.08 418.94 661.76 416.4 327.47 671.79"/><polygon class="cls-2" points="320.32 666.32 323.64 668.86 657.93 413.47 654.6 410.93 320.32 666.32"/><polygon class="cls-2" points="313.16 660.86 316.49 663.4 650.77 408.01 647.45 405.47 313.16 660.86"/><polygon class="cls-2" points="306.01 655.4 309.33 657.93 643.62 402.54 640.3 400 306.01 655.4"/><polygon class="cls-2" points="298.86 649.93 302.18 652.47 636.47 397.08 633.15 394.54 298.86 649.93"/><polygon class="cls-2" points="291.71 644.47 295.03 647.01 629.32 391.62 626 389.08 291.71 644.47"/><polygon class="cls-2" points="284.56 639 287.88 641.54 622.16 386.15 618.84 383.61 284.56 639"/><polygon class="cls-2" points="277.4 633.54 280.73 636.08 615.01 380.69 611.69 378.15 277.4 633.54"/><polygon class="cls-2" points="270.25 628.08 273.57 630.61 607.86 375.22 604.54 372.69 270.25 628.08"/><polygon class="cls-2" points="263.1 622.61 266.42 625.15 600.71 369.76 597.39 367.22 263.1 622.61"/><polygon class="cls-2" points="255.95 617.15 259.27 619.68 593.56 364.3 590.23 361.76 255.95 617.15"/><polygon class="cls-2" points="248.79 611.68 252.12 614.22 586.4 358.83 583.08 356.29 248.79 611.68"/><polygon class="cls-2" points="241.64 606.22 244.96 608.76 579.25 353.37 575.93 350.83 241.64 606.22"/><polygon class="cls-2" points="234.49 600.75 237.81 603.29 572.1 347.9 568.78 345.36 234.49 600.75"/><polygon class="cls-2" points="227.34 595.29 230.66 597.83 564.95 342.44 561.63 339.9 227.34 595.29"/><polygon class="cls-2" points="220.19 589.83 223.51 592.36 557.8 336.98 554.47 334.44 220.19 589.83"/><polygon class="cls-2" points="213.03 584.36 216.36 586.9 550.64 331.51 547.32 328.97 213.03 584.36"/></g></g><rect class="cls-2" x="293.54" y="390.68" width="57.7" height="263.73"/><g class="cls-10"><ellipse class="cls-2" cx="298.92" cy="408.19" rx="2.59" ry="1.97"/><ellipse class="cls-2" cx="298.92" cy="413.45" rx="2.59" ry="1.97"/><ellipse class="cls-2" cx="298.92" cy="418.71" rx="2.59" ry="1.97"/><ellipse class="cls-2" cx="298.92" cy="423.97" rx="2.59" ry="1.97"/><ellipse class="cls-2" cx="298.92" cy="429.23" rx="2.59" ry="1.97"/><ellipse class="cls-2" cx="298.92" cy="434.48" rx="2.59" ry="1.97"/><ellipse class="cls-2" cx="298.92" cy="439.74" rx="2.59" ry="1.97"/><ellipse class="cls-2" cx="298.92" cy="445" rx="2.59" ry="1.97"/><ellipse class="cls-2" cx="298.92" cy="450.26" rx="2.59" ry="1.97"/><ellipse class="cls-2" cx="298.92" cy="455.51" rx="2.59" ry="1.97"/><ellipse class="cls-2" cx="298.92" cy="460.77" rx="2.59" ry="1.97"/><ellipse class="cls-2" cx="298.92" cy="466.03" rx="2.59" ry="1.97"/><ellipse class="cls-2" cx="298.92" cy="471.29" rx="2.59" ry="1.97"/><ellipse class="cls-2" cx="298.92" cy="476.55" rx="2.59" ry="1.97"/><ellipse class="cls-2" cx="298.92" cy="481.81" rx="2.59" ry="1.97"/><ellipse class="cls-2" cx="298.92" cy="487.06" rx="2.59" ry="1.97"/><ellipse class="cls-2" cx="298.92" cy="492.32" rx="2.59" ry="1.97"/><ellipse class="cls-2" cx="298.92" cy="497.58" rx="2.59" ry="1.97"/><ellipse class="cls-2" cx="298.92" cy="502.84" rx="2.59" ry="1.97"/><ellipse class="cls-2" cx="298.92" cy="508.1" rx="2.59" ry="1.97"/><ellipse class="cls-2" cx="298.92" cy="513.35" rx="2.59" ry="1.97"/><ellipse class="cls-2" cx="298.92" cy="518.61" rx="2.59" ry="1.97"/><ellipse class="cls-2" cx="298.92" cy="523.87" rx="2.59" ry="1.97"/><ellipse class="cls-2" cx="298.92" cy="529.13" rx="2.59" ry="1.97"/><ellipse class="cls-2" cx="298.92" cy="534.38" rx="2.59" ry="1.97"/><ellipse class="cls-2" cx="298.92" cy="539.64" rx="2.59" ry="1.97"/><ellipse class="cls-2" cx="298.92" cy="544.9" rx="2.59" ry="1.97"/><ellipse class="cls-2" cx="298.92" cy="550.16" rx="2.59" ry="1.97"/><ellipse class="cls-2" cx="305.83" cy="408.19" rx="2.59" ry="1.97"/><ellipse class="cls-2" cx="305.83" cy="413.45" rx="2.59" ry="1.97"/><ellipse class="cls-2" cx="305.83" cy="418.71" rx="2.59" ry="1.97"/><ellipse class="cls-2" cx="305.83" cy="423.97" rx="2.59" ry="1.97"/><ellipse class="cls-2" cx="305.83" cy="429.23" rx="2.59" ry="1.97"/><ellipse class="cls-2" cx="305.83" cy="434.48" rx="2.59" ry="1.97"/><ellipse class="cls-2" cx="305.83" cy="439.74" rx="2.59" ry="1.97"/><ellipse class="cls-2" cx="305.83" cy="445" rx="2.59" ry="1.97"/><ellipse class="cls-2" cx="305.83" cy="450.26" rx="2.59" ry="1.97"/><ellipse class="cls-2" cx="305.83" cy="455.51" rx="2.59" ry="1.97"/><ellipse class="cls-2" cx="305.83" cy="460.77" rx="2.59" ry="1.97"/><ellipse class="cls-2" cx="305.83" cy="466.03" rx="2.59" ry="1.97"/><ellipse class="cls-2" cx="305.83" cy="471.29" rx="2.59" ry="1.97"/><ellipse class="cls-2" cx="305.83" cy="476.55" rx="2.59" ry="1.97"/><ellipse class="cls-2" cx="305.83" cy="481.81" rx="2.59" ry="1.97"/><ellipse class="cls-2" cx="305.83" cy="487.06" rx="2.59" ry="1.97"/><ellipse class="cls-2" cx="305.83" cy="492.32" rx="2.59" ry="1.97"/><ellipse class="cls-2" cx="305.83" cy="497.58" rx="2.59" ry="1.97"/><ellipse class="cls-2" cx="305.83" cy="502.84" rx="2.59" ry="1.97"/><ellipse class="cls-2" cx="305.83" cy="508.09" rx="2.59" ry="1.97"/><ellipse class="cls-2" cx="305.83" cy="513.35" rx="2.59" ry="1.97"/><ellipse class="cls-2" cx="305.83" cy="518.61" rx="2.59" ry="1.97"/><ellipse class="cls-2" cx="305.83" cy="523.87" rx="2.59" ry="1.97"/><ellipse class="cls-2" cx="305.83" cy="529.13" rx="2.59" ry="1.97"/><ellipse class="cls-2" cx="305.83" cy="534.38" rx="2.59" ry="1.97"/><ellipse class="cls-2" cx="305.83" cy="539.64" rx="2.59" ry="1.97"/><ellipse class="cls-2" cx="305.83" cy="544.9" rx="2.59" ry="1.97"/><ellipse class="cls-2" cx="305.83" cy="550.16" rx="2.59" ry="1.97"/><ellipse class="cls-2" cx="312.74" cy="408.19" rx="2.59" ry="1.97"/><ellipse class="cls-2" cx="312.74" cy="413.45" rx="2.59" ry="1.97"/><ellipse class="cls-2" cx="312.74" cy="418.71" rx="2.59" ry="1.97"/><ellipse class="cls-2" cx="312.74" cy="423.97" rx="2.59" ry="1.97"/><ellipse class="cls-2" cx="312.74" cy="429.22" rx="2.59" ry="1.97"/><ellipse class="cls-2" cx="312.74" cy="434.48" rx="2.59" ry="1.97"/><ellipse class="cls-2" cx="312.74" cy="439.74" rx="2.59" ry="1.97"/><ellipse class="cls-2" cx="312.74" cy="445" rx="2.59" ry="1.97"/><ellipse class="cls-2" cx="312.74" cy="450.26" rx="2.59" ry="1.97"/><ellipse class="cls-2" cx="312.74" cy="455.51" rx="2.59" ry="1.97"/><ellipse class="cls-2" cx="312.74" cy="460.77" rx="2.59" ry="1.97"/><ellipse class="cls-2" cx="312.74" cy="466.03" rx="2.59" ry="1.97"/><ellipse class="cls-2" cx="312.74" cy="471.29" rx="2.59" ry="1.97"/><ellipse class="cls-2" cx="312.74" cy="476.55" rx="2.59" ry="1.97"/><ellipse class="cls-2" cx="312.74" cy="481.81" rx="2.59" ry="1.97"/><ellipse class="cls-2" cx="312.74" cy="487.06" rx="2.59" ry="1.97"/><ellipse class="cls-2" cx="312.74" cy="492.32" rx="2.59" ry="1.97"/><ellipse class="cls-2" cx="312.74" cy="497.58" rx="2.59" ry="1.97"/><ellipse class="cls-2" cx="312.74" cy="502.84" rx="2.59" ry="1.97"/><ellipse class="cls-2" cx="312.74" cy="508.1" rx="2.59" ry="1.97"/><ellipse class="cls-2" cx="312.74" cy="513.35" rx="2.59" ry="1.97"/><ellipse class="cls-2" cx="312.74" cy="518.61" rx="2.59" ry="1.97"/><ellipse class="cls-2" cx="312.74" cy="523.87" rx="2.59" ry="1.97"/><ellipse class="cls-2" cx="312.74" cy="529.13" rx="2.59" ry="1.97"/><ellipse class="cls-2" cx="312.74" cy="534.38" rx="2.59" ry="1.97"/><ellipse class="cls-2" cx="312.74" cy="539.64" rx="2.59" ry="1.97"/><ellipse class="cls-2" cx="312.74" cy="544.9" rx="2.59" ry="1.97"/><ellipse class="cls-2" cx="312.74" cy="550.16" rx="2.59" ry="1.97"/><ellipse class="cls-2" cx="319.65" cy="408.19" rx="2.59" ry="1.97"/><ellipse class="cls-2" cx="319.65" cy="413.45" rx="2.59" ry="1.97"/><ellipse class="cls-2" cx="319.65" cy="418.71" rx="2.59" ry="1.97"/><ellipse class="cls-2" cx="319.65" cy="423.97" rx="2.59" ry="1.97"/><ellipse class="cls-2" cx="319.65" cy="429.23" rx="2.59" ry="1.97"/><ellipse class="cls-2" cx="319.65" cy="434.48" rx="2.59" ry="1.97"/><ellipse class="cls-2" cx="319.65" cy="439.74" rx="2.59" ry="1.97"/><ellipse class="cls-2" cx="319.65" cy="445" rx="2.59" ry="1.97"/><ellipse class="cls-2" cx="319.65" cy="450.26" rx="2.59" ry="1.97"/><ellipse class="cls-2" cx="319.65" cy="455.52" rx="2.59" ry="1.97"/><ellipse class="cls-2" cx="319.65" cy="460.77" rx="2.59" ry="1.97"/><ellipse class="cls-2" cx="319.65" cy="466.03" rx="2.59" ry="1.97"/><ellipse class="cls-2" cx="319.65" cy="471.29" rx="2.59" ry="1.97"/><ellipse class="cls-2" cx="319.65" cy="476.55" rx="2.59" ry="1.97"/><ellipse class="cls-2" cx="319.65" cy="481.81" rx="2.59" ry="1.97"/><ellipse class="cls-2" cx="319.65" cy="487.06" rx="2.59" ry="1.97"/><ellipse class="cls-2" cx="319.65" cy="492.32" rx="2.59" ry="1.97"/><ellipse class="cls-2" cx="319.65" cy="497.58" rx="2.59" ry="1.97"/><ellipse class="cls-2" cx="319.65" cy="502.84" rx="2.59" ry="1.97"/><ellipse class="cls-2" cx="319.65" cy="508.1" rx="2.59" ry="1.97"/><ellipse class="cls-2" cx="319.65" cy="513.35" rx="2.59" ry="1.97"/><ellipse class="cls-2" cx="319.65" cy="518.61" rx="2.59" ry="1.97"/><ellipse class="cls-2" cx="319.65" cy="523.87" rx="2.59" ry="1.97"/><ellipse class="cls-2" cx="319.65" cy="529.13" rx="2.59" ry="1.97"/><ellipse class="cls-2" cx="319.65" cy="534.38" rx="2.59" ry="1.97"/><ellipse class="cls-2" cx="319.65" cy="539.64" rx="2.59" ry="1.97"/><ellipse class="cls-2" cx="319.65" cy="544.9" rx="2.59" ry="1.97"/><ellipse class="cls-2" cx="319.65" cy="550.16" rx="2.59" ry="1.97"/><ellipse class="cls-2" cx="326.56" cy="408.19" rx="2.59" ry="1.97"/><ellipse class="cls-2" cx="326.56" cy="413.45" rx="2.59" ry="1.97"/><ellipse class="cls-2" cx="326.56" cy="418.71" rx="2.59" ry="1.97"/><ellipse class="cls-2" cx="326.56" cy="423.97" rx="2.59" ry="1.97"/><ellipse class="cls-2" cx="326.56" cy="429.23" rx="2.59" ry="1.97"/><ellipse class="cls-2" cx="326.56" cy="434.48" rx="2.59" ry="1.97"/><ellipse class="cls-2" cx="326.56" cy="439.74" rx="2.59" ry="1.97"/><ellipse class="cls-2" cx="326.56" cy="445" rx="2.59" ry="1.97"/><ellipse class="cls-2" cx="326.56" cy="450.26" rx="2.59" ry="1.97"/><ellipse class="cls-2" cx="326.56" cy="455.51" rx="2.59" ry="1.97"/><ellipse class="cls-2" cx="326.56" cy="460.77" rx="2.59" ry="1.97"/><ellipse class="cls-2" cx="326.56" cy="466.03" rx="2.59" ry="1.97"/><ellipse class="cls-2" cx="326.56" cy="471.29" rx="2.59" ry="1.97"/><ellipse class="cls-2" cx="326.56" cy="476.55" rx="2.59" ry="1.97"/><ellipse class="cls-2" cx="326.56" cy="481.81" rx="2.59" ry="1.97"/><ellipse class="cls-2" cx="326.56" cy="487.06" rx="2.59" ry="1.97"/><ellipse class="cls-2" cx="326.56" cy="492.32" rx="2.59" ry="1.97"/><ellipse class="cls-2" cx="326.56" cy="497.58" rx="2.59" ry="1.97"/><ellipse class="cls-2" cx="326.56" cy="502.84" rx="2.59" ry="1.97"/><ellipse class="cls-2" cx="326.56" cy="508.09" rx="2.59" ry="1.97"/><ellipse class="cls-2" cx="326.56" cy="513.35" rx="2.59" ry="1.97"/><ellipse class="cls-2" cx="326.56" cy="518.61" rx="2.59" ry="1.97"/><ellipse class="cls-2" cx="326.56" cy="523.87" rx="2.59" ry="1.97"/><ellipse class="cls-2" cx="326.56" cy="529.13" rx="2.59" ry="1.97"/><ellipse class="cls-2" cx="326.56" cy="534.38" rx="2.59" ry="1.97"/><ellipse class="cls-2" cx="326.56" cy="539.64" rx="2.59" ry="1.97"/><ellipse class="cls-2" cx="326.56" cy="544.9" rx="2.59" ry="1.97"/><ellipse class="cls-2" cx="326.56" cy="550.16" rx="2.59" ry="1.97"/><ellipse class="cls-2" cx="333.47" cy="408.19" rx="2.59" ry="1.97"/><ellipse class="cls-2" cx="333.47" cy="413.45" rx="2.59" ry="1.97"/><ellipse class="cls-2" cx="333.47" cy="418.71" rx="2.59" ry="1.97"/><ellipse class="cls-2" cx="333.47" cy="423.97" rx="2.59" ry="1.97"/><ellipse class="cls-2" cx="333.47" cy="429.23" rx="2.59" ry="1.97"/><ellipse class="cls-2" cx="333.47" cy="434.48" rx="2.59" ry="1.97"/><ellipse class="cls-2" cx="333.47" cy="439.74" rx="2.59" ry="1.97"/><ellipse class="cls-2" cx="333.47" cy="445" rx="2.59" ry="1.97"/><ellipse class="cls-2" cx="333.47" cy="450.26" rx="2.59" ry="1.97"/><ellipse class="cls-2" cx="333.47" cy="455.52" rx="2.59" ry="1.97"/><ellipse class="cls-2" cx="333.47" cy="460.77" rx="2.59" ry="1.97"/><ellipse class="cls-2" cx="333.47" cy="466.03" rx="2.59" ry="1.97"/><ellipse class="cls-2" cx="333.47" cy="471.29" rx="2.59" ry="1.97"/><ellipse class="cls-2" cx="333.47" cy="476.55" rx="2.59" ry="1.97"/><ellipse class="cls-2" cx="333.47" cy="481.81" rx="2.59" ry="1.97"/><ellipse class="cls-2" cx="333.47" cy="487.06" rx="2.59" ry="1.97"/><ellipse class="cls-2" cx="333.47" cy="492.32" rx="2.59" ry="1.97"/><ellipse class="cls-2" cx="333.47" cy="497.58" rx="2.59" ry="1.97"/><ellipse class="cls-2" cx="333.47" cy="502.84" rx="2.59" ry="1.97"/><ellipse class="cls-2" cx="333.47" cy="508.09" rx="2.59" ry="1.97"/><ellipse class="cls-2" cx="333.47" cy="513.35" rx="2.59" ry="1.97"/><ellipse class="cls-2" cx="333.47" cy="518.61" rx="2.59" ry="1.97"/><ellipse class="cls-2" cx="333.47" cy="523.87" rx="2.59" ry="1.97"/><ellipse class="cls-2" cx="333.47" cy="529.13" rx="2.59" ry="1.97"/><ellipse class="cls-2" cx="333.47" cy="534.38" rx="2.59" ry="1.97"/><ellipse class="cls-2" cx="333.47" cy="539.64" rx="2.59" ry="1.97"/><ellipse class="cls-2" cx="333.47" cy="544.9" rx="2.59" ry="1.97"/><ellipse class="cls-2" cx="333.47" cy="550.16" rx="2.59" ry="1.97"/><ellipse class="cls-2" cx="340.38" cy="408.19" rx="2.59" ry="1.97"/><ellipse class="cls-2" cx="340.38" cy="413.45" rx="2.59" ry="1.97"/><ellipse class="cls-2" cx="340.38" cy="418.71" rx="2.59" ry="1.97"/><ellipse class="cls-2" cx="340.38" cy="423.97" rx="2.59" ry="1.97"/><ellipse class="cls-2" cx="340.38" cy="429.23" rx="2.59" ry="1.97"/><ellipse class="cls-2" cx="340.38" cy="434.48" rx="2.59" ry="1.97"/><ellipse class="cls-2" cx="340.38" cy="439.74" rx="2.59" ry="1.97"/><ellipse class="cls-2" cx="340.38" cy="445" rx="2.59" ry="1.97"/><ellipse class="cls-2" cx="340.38" cy="450.26" rx="2.59" ry="1.97"/><ellipse class="cls-2" cx="340.38" cy="455.51" rx="2.59" ry="1.97"/><ellipse class="cls-2" cx="340.38" cy="460.77" rx="2.59" ry="1.97"/><ellipse class="cls-2" cx="340.38" cy="466.03" rx="2.59" ry="1.97"/><ellipse class="cls-2" cx="340.38" cy="471.29" rx="2.59" ry="1.97"/><ellipse class="cls-2" cx="340.38" cy="476.55" rx="2.59" ry="1.97"/><ellipse class="cls-2" cx="340.38" cy="481.81" rx="2.59" ry="1.97"/><ellipse class="cls-2" cx="340.38" cy="487.06" rx="2.59" ry="1.97"/><ellipse class="cls-2" cx="340.38" cy="492.32" rx="2.59" ry="1.97"/><ellipse class="cls-2" cx="340.38" cy="497.58" rx="2.59" ry="1.97"/><ellipse class="cls-2" cx="340.38" cy="502.84" rx="2.59" ry="1.97"/><ellipse class="cls-2" cx="340.38" cy="508.1" rx="2.59" ry="1.97"/><ellipse class="cls-2" cx="340.38" cy="513.35" rx="2.59" ry="1.97"/><ellipse class="cls-2" cx="340.38" cy="518.61" rx="2.59" ry="1.97"/><ellipse class="cls-2" cx="340.38" cy="523.87" rx="2.59" ry="1.97"/><ellipse class="cls-2" cx="340.38" cy="529.13" rx="2.59" ry="1.97"/><ellipse class="cls-2" cx="340.38" cy="534.39" rx="2.59" ry="1.97"/><ellipse class="cls-2" cx="340.38" cy="539.64" rx="2.59" ry="1.97"/><ellipse class="cls-2" cx="340.38" cy="544.9" rx="2.59" ry="1.97"/><ellipse class="cls-2" cx="340.38" cy="550.16" rx="2.59" ry="1.97"/><ellipse class="cls-2" cx="347.29" cy="408.19" rx="2.59" ry="1.97"/><ellipse class="cls-2" cx="347.29" cy="413.45" rx="2.59" ry="1.97"/><ellipse class="cls-2" cx="347.29" cy="418.71" rx="2.59" ry="1.97"/><ellipse class="cls-2" cx="347.29" cy="423.97" rx="2.59" ry="1.97"/><ellipse class="cls-2" cx="347.29" cy="429.23" rx="2.59" ry="1.97"/><ellipse class="cls-2" cx="347.29" cy="434.48" rx="2.59" ry="1.97"/><ellipse class="cls-2" cx="347.29" cy="439.74" rx="2.59" ry="1.97"/><ellipse class="cls-2" cx="347.29" cy="445" rx="2.59" ry="1.97"/><ellipse class="cls-2" cx="347.29" cy="450.26" rx="2.59" ry="1.97"/><ellipse class="cls-2" cx="347.29" cy="455.52" rx="2.59" ry="1.97"/><ellipse class="cls-2" cx="347.29" cy="460.77" rx="2.59" ry="1.97"/><ellipse class="cls-2" cx="347.29" cy="466.03" rx="2.59" ry="1.97"/><ellipse class="cls-2" cx="347.29" cy="471.29" rx="2.59" ry="1.97"/><ellipse class="cls-2" cx="347.29" cy="476.55" rx="2.59" ry="1.97"/><ellipse class="cls-2" cx="347.29" cy="481.81" rx="2.59" ry="1.97"/><ellipse class="cls-2" cx="347.29" cy="487.06" rx="2.59" ry="1.97"/><ellipse class="cls-2" cx="347.29" cy="492.32" rx="2.59" ry="1.97"/><ellipse class="cls-2" cx="347.29" cy="497.58" rx="2.59" ry="1.97"/><ellipse class="cls-2" cx="347.29" cy="502.84" rx="2.59" ry="1.97"/><ellipse class="cls-2" cx="347.29" cy="508.09" rx="2.59" ry="1.97"/><ellipse class="cls-2" cx="347.29" cy="513.35" rx="2.59" ry="1.97"/><ellipse class="cls-2" cx="347.29" cy="518.61" rx="2.59" ry="1.97"/><ellipse class="cls-2" cx="347.29" cy="523.87" rx="2.59" ry="1.97"/><ellipse class="cls-2" cx="347.29" cy="529.13" rx="2.59" ry="1.97"/><ellipse class="cls-2" cx="347.29" cy="534.39" rx="2.59" ry="1.97"/><ellipse class="cls-2" cx="347.29" cy="539.64" rx="2.59" ry="1.97"/><ellipse class="cls-2" cx="347.29" cy="544.9" rx="2.59" ry="1.97"/><ellipse class="cls-2" cx="347.29" cy="550.16" rx="2.59" ry="1.97"/></g><rect class="cls-2" x="350.85" y="381.26" width="56.15" height="263.73"/></g><path class="cls-11" d="M436.19,335.64c-7.7,0-13.94,4.75-13.94,10.61v93.7c0,5.86,6.24,10.61,13.94,10.61h0c7.7,0,13.94-4.75,13.94-10.61v-93.7c0-5.86-6.24-10.61-13.94-10.61Z"/><path class="cls-12" d="M391.35,318.84c-7.7,0-13.94,4.75-13.94,10.61v43c0,5.86,6.24,10.61,13.94,10.61h0c7.7,0,13.94-4.75,13.94-10.61v-43c0-5.86-6.24-10.61-13.94-10.61Z"/><path class="cls-2" d="M268.14,454.92c-7.7,0-13.94,4.75-13.94,10.61v74.06c0,5.86,6.24,10.61,13.94,10.61h0c7.7,0,13.94-4.75,13.94-10.61V465.53c0-5.86-6.24-10.61-13.94-10.61Z"/><ellipse class="cls-11" cx="503.66" cy="371.03" rx="14.49" ry="11.03"/><ellipse class="cls-11" cx="436.81" cy="319.17" rx="14.49" ry="11.03"/></g></g><path class="cls-16" d="M550,85.94V24c0-13.2-13.2-24-29.33-24H29.33C13.2,0,0,10.8,0,24V85.94Z"/></g></g></svg>