<svg id="Layer_1" data-name="Layer 1" xmlns="http://www.w3.org/2000/svg" viewBox="0 0 29.06 19.38"><defs><style>.cls-1{fill:#ed1e79;}.cls-2{fill:#770f3d;}</style></defs><title>59</title><rect class="cls-1" width="29.06" height="19.38" rx="5" ry="5"/><path class="cls-2" d="M23.09,5.06a1.06,1.06,0,0,0-.84-.41H10.45a1.06,1.06,0,0,0-.84.41l5.81,4.27a1.57,1.57,0,0,0,1.84,0Z"/><path class="cls-2" d="M9.4,12.52v.76a1.06,1.06,0,0,0,1.06,1.06h11.8a1.06,1.06,0,0,0,1.06-1.06V5.86L17.73,9.95a2.35,2.35,0,0,1-2.76,0L9.4,5.86v5.5H8.19a.58.58,0,0,0,0,1.16H9.4Z"/><path class="cls-2" d="M8.62,9.34a.58.58,0,0,0-.44-.2H6.54a.58.58,0,1,0,0,1.16H8.19a.58.58,0,0,0,.44-1Z"/></svg>