<svg id="Layer_1" data-name="Layer 1" xmlns="http://www.w3.org/2000/svg" xmlns:xlink="http://www.w3.org/1999/xlink" viewBox="0 0 351.39 114.03"><defs><style>.cls-1{fill:#373c7b;}.cls-2{fill:url(#linear-gradient);}.cls-3{fill:url(#linear-gradient-2);}.cls-4{fill:url(#linear-gradient-3);}.cls-5{fill:#93c83d;}.cls-6{fill:#4d4d4d;}.cls-7{fill:#3e8ede;}</style><linearGradient id="linear-gradient" y1="37.23" x2="53.78" y2="37.23" gradientUnits="userSpaceOnUse"><stop offset="0" stop-color="#ba1b8c"/><stop offset="0" stop-color="#ba1b8c"/><stop offset="0.3" stop-color="#923094"/><stop offset="0.58" stop-color="#753f99"/><stop offset="0.82" stop-color="#63499d"/><stop offset="0.99" stop-color="#5d4c9e"/></linearGradient><linearGradient id="linear-gradient-2" x1="56.9" x2="56.9" y2="77.11" gradientUnits="userSpaceOnUse"><stop offset="0" stop-color="#584ea0"/><stop offset="0.19" stop-color="#4366af"/><stop offset="0.54" stop-color="#208dc7"/><stop offset="0.82" stop-color="#0aa5d6"/><stop offset="0.99" stop-color="#02aedc"/></linearGradient><linearGradient id="linear-gradient-3" x1="0.13" y1="52.67" x2="85.25" y2="52.67" gradientUnits="userSpaceOnUse"><stop offset="0" stop-color="#97c93c"/><stop offset="0.99" stop-color="#00b5de"/></linearGradient></defs><title>75</title><path class="cls-1" d="M100.26,51.62H95.7L87.48,25h4.09L98,46.37,104.45,25h4.09Z"/><path class="cls-1" d="M111.2,38.25q0-7.9,8.06-7.91a19.18,19.18,0,0,1,2.39.16,14.3,14.3,0,0,1,6.15,2.39q0-5.46-7.48-5.46l.27-2.81a15.24,15.24,0,0,1,6.37,1,19.17,19.17,0,0,1,2,1.17,4,4,0,0,1,1.33,1.54q.48,1,.8,1.67a6.19,6.19,0,0,1,.43,1.94q.16,1.86.16,3.87V51.62q-5.52.53-8.81.53-11.62,0-11.62-9.5Zm16.6,10.13v-12A22.45,22.45,0,0,0,120,34h-.74a4.57,4.57,0,0,0-3,1A4.31,4.31,0,0,0,115,38.57v4.14q0,6,8.28,6A30.94,30.94,0,0,0,127.8,48.38Z"/><path class="cls-1" d="M141.2,26.42a10.83,10.83,0,0,1,6.58-1.8,11.66,11.66,0,0,1,4.83,1q4.51,2.07,4.51,7.69V51.62h-3.82V33.85q0-3.13-1.91-4.43a7.86,7.86,0,0,0-4.54-1.3,11.32,11.32,0,0,0-5.49,1.59V51.62h-3.82V25h3.61Z"/><path class="cls-1" d="M174.12,48.54a21.19,21.19,0,0,0,4.93-.64l.9,3.4a24.19,24.19,0,0,1-6.15.9,17.66,17.66,0,0,1-5.41-.85q-5.52-1.8-5.52-9.28V35.28A12.35,12.35,0,0,1,164.36,29q2.55-4.4,8.38-4.4a16.62,16.62,0,0,1,7.11,1.7l-1.06,3A17.11,17.11,0,0,0,173,28.12a6,6,0,0,0-4.54,1.8,7,7,0,0,0-1.72,5v7.69Q166.69,48.54,174.12,48.54Z"/><path class="cls-1" d="M203.26,51.62H185.65V14.48h17.72v5.83H191.49v9.39h7.27l-1.64,5.57h-5.62v11h11.78Z"/><path class="cls-1" d="M232.87,51.62h-6.95l-4.67-7.43-4.62,7.43h-7.27l8.28-13.21L209.37,25h7.37l4.56,7.59L226.08,25h7.22l-8.44,13.32Z"/><path class="cls-1" d="M245.07,61.59l-5.84,1.17V25h5.52l.32.37a9.78,9.78,0,0,1,4.08-.8q4.93,0,7.51,2.86a10.69,10.69,0,0,1,2.57,7.43v7.37q0,4.83-2.71,7.4a10,10,0,0,1-7.16,2.57,15.09,15.09,0,0,1-2-.11,7.17,7.17,0,0,1-1.46-.37,5,5,0,0,0-.82-.26Zm8.33-20.69V34.7q0-4.35-4-4.35a4.33,4.33,0,0,0-3.24,1.09,4.11,4.11,0,0,0-1.06,3v7.21q0,4.78,4.3,4.77,2.44,0,3.24-1.27A8.39,8.39,0,0,0,253.39,40.9Z"/><path class="cls-1" d="M270.87,51.62H265V25h5.41l.42.21a12.35,12.35,0,0,1,3.55-.64h1.06c.67,0,1.17,0,1.49.05q.74.11,2.92.58l-1.38,5.68a6.4,6.4,0,0,0-2.86-.74,5.74,5.74,0,0,0-2.28.48,3.93,3.93,0,0,0-2.49,3.87Z"/><path class="cls-1" d="M303.1,41.54l-13.21.69v1.49q0,2.71,2.44,3.08a5.21,5.21,0,0,0,.74.05q2.39,0,6.58-2.12l2.12,5A17.28,17.28,0,0,1,293,52.26h-.42a9.8,9.8,0,0,1-6.15-1.8q-2.44-2-2.44-5.94V33.63a8.49,8.49,0,0,1,2.68-6.68,10.25,10.25,0,0,1,7.08-2.39,9.53,9.53,0,0,1,6.87,2.36,8.64,8.64,0,0,1,2.47,6.55Zm-5.89-5.15V33.58a3,3,0,0,0-1-2.44,3.75,3.75,0,0,0-2.49-.85,3.63,3.63,0,0,0-2.92,1.06,3.52,3.52,0,0,0-.9,2.33v3.18Z"/><path class="cls-1" d="M307.65,44.88l5.84-.58a2.4,2.4,0,0,0,1,1.8,4.48,4.48,0,0,0,3,.85,3.86,3.86,0,0,0,2.7-.88,2.69,2.69,0,0,0,1-2,2.92,2.92,0,0,0-1.25-2.47,10.06,10.06,0,0,0-3.05-1.49q-1.81-.56-3.63-1.27A8.13,8.13,0,0,1,310,36.45a7.46,7.46,0,0,1-1.67-4.19,3.85,3.85,0,0,1-.05-.64,6.8,6.8,0,0,1,2.07-4.77q2.23-2.44,7.06-2.44a12.24,12.24,0,0,1,3.18.4,9.41,9.41,0,0,1,2.12.77l.64.37-1.7,5.41q-1.22-1.22-4.24-1.22a4.45,4.45,0,0,0-2.2.43q-.72.42-.64.93a5.74,5.74,0,0,1,.08.88q.16.79,1.57,1.46a34.2,34.2,0,0,0,3.21,1.3A26.66,26.66,0,0,1,323,36.71,8.27,8.27,0,0,1,326,39.58a8.17,8.17,0,0,1,1.25,4.56A7.86,7.86,0,0,1,324.79,50q-2.49,2.41-7.32,2.41a10.74,10.74,0,0,1-7.11-2.17A7.05,7.05,0,0,1,307.65,44.88Z"/><path class="cls-1" d="M331.76,44.88l5.84-.58a2.4,2.4,0,0,0,1,1.8,4.48,4.48,0,0,0,3,.85,3.86,3.86,0,0,0,2.7-.88,2.69,2.69,0,0,0,1-2A2.92,2.92,0,0,0,344,41.57a10.06,10.06,0,0,0-3.05-1.49q-1.81-.56-3.63-1.27a8.13,8.13,0,0,1-3.24-2.36,7.46,7.46,0,0,1-1.67-4.19,3.85,3.85,0,0,1-.05-.64,6.8,6.8,0,0,1,2.07-4.77q2.23-2.44,7.06-2.44a12.24,12.24,0,0,1,3.18.4,9.41,9.41,0,0,1,2.12.77l.64.37-1.7,5.41q-1.22-1.22-4.24-1.22a4.45,4.45,0,0,0-2.2.43q-.72.42-.64.93a5.74,5.74,0,0,1,.08.88q.16.79,1.57,1.46a34.2,34.2,0,0,0,3.21,1.3,26.66,26.66,0,0,1,3.61,1.59,8.27,8.27,0,0,1,3.05,2.86,8.17,8.17,0,0,1,1.25,4.56A7.86,7.86,0,0,1,348.9,50q-2.49,2.41-7.32,2.41a10.74,10.74,0,0,1-7.11-2.17A7.05,7.05,0,0,1,331.76,44.88Z"/><path class="cls-2" d="M.62,62.37s-2.77,7,3.43,10.95c0,0,6.86,4,11.61-3.56l25.06-38,13.06-21S50.61,2.61,44.68.37c0,0-10-2.37-14,7Z"/><path class="cls-3" d="M28.49,11.4,48,43.64,65.92,74.36s9.23,6.19,15.57,0c0,0,6.86-4.6,2.24-14.1L50.51,5.09s-3.86-5.92-9.4-5a10.71,10.71,0,0,0-8.83,4.46Z"/><path class="cls-4" d="M.49,30.51a6.45,6.45,0,0,0,2.28,7.32L65.92,74.36s11.67,8.19,18.18-3c0,0,3.83-5-2.5-14.59L12.85,30S3.95,25.37.49,30.51Z"/><path class="cls-5" d="M.7,30.51A6.45,6.45,0,0,0,3,37.83L66.13,74.36s11.67,8.19,18.18-3c0,0,3.83-5-2.5-14.59L13.06,30S4.16,25.37.7,30.51Z"/><path class="cls-6" d="M32.7,109.54H11.23a1.19,1.19,0,0,1-1.16-1.12,1.14,1.14,0,0,1,1.16-1.07H32.7a1.14,1.14,0,0,1,1.16,1.07A1.19,1.19,0,0,1,32.7,109.54Z"/><path class="cls-6" d="M55.77,114a1.18,1.18,0,0,1-1.18-1.18V108H50.33v4.85A1.18,1.18,0,0,1,49.15,114,1.19,1.19,0,0,1,48,112.85v-9.6A3.19,3.19,0,0,1,51.28,100h2.36a3.19,3.19,0,0,1,3.31,3.22v9.6A1.19,1.19,0,0,1,55.77,114Zm-1.18-10.78c0-.84-.52-1-1.29-1H51.64c-.79,0-1.31.19-1.31,1v2.58h4.25Z"/><path class="cls-6" d="M71.38,112.12a2.81,2.81,0,0,1-2.68,1.72H63.86V101a.88.88,0,0,1,.88-.86h4.49c1.93,0,3.69,1.2,3.69,3A48.59,48.59,0,0,1,71.38,112.12Zm-1.67-9.79H66.24v9.32h2.13c.58,0,.77-.11,1-.71.3-.82,1.22-7.39,1.22-7.8A.85.85,0,0,0,69.7,102.33Z"/><path class="cls-6" d="M86.64,113.8a25.39,25.39,0,0,1-3.44.24c-2.19,0-4-.67-4-3.33v-7.37c0-2.68,1.78-3.35,4-3.35a25.34,25.34,0,0,1,3.44.26,1,1,0,0,1,.92,1,1.13,1.13,0,0,1-1.18,1.16c-.28,0-1.52-.26-2.66-.26-1.44,0-2.13.19-2.13,1v2.58h2.83a1.1,1.1,0,0,1,0,2.19H81.6v2.92c0,.84.69,1,2.13,1,1.14,0,2.38-.24,2.66-.24a1.12,1.12,0,0,1,1.18,1.14A1,1,0,0,1,86.64,113.8Z"/><path class="cls-6" d="M100.24,113.82H96.39c-1.63,0-2.49-.67-2.49-2V101.12a1.19,1.19,0,0,1,1.18-1.18,1.18,1.18,0,0,1,1.18,1.18v10.5h4a1.11,1.11,0,0,1,1.05,1.12A1.06,1.06,0,0,1,100.24,113.82Z"/><path class="cls-6" d="M114.82,114a1.18,1.18,0,0,1-1.18-1.18V108h-4.25v4.85A1.18,1.18,0,0,1,108.2,114a1.19,1.19,0,0,1-1.18-1.18v-9.6a3.19,3.19,0,0,1,3.31-3.22h2.36a3.19,3.19,0,0,1,3.31,3.22v9.6A1.19,1.19,0,0,1,114.82,114Zm-1.18-10.78c0-.84-.52-1-1.29-1h-1.65c-.79,0-1.31.19-1.31,1v2.58h4.25Z"/><path class="cls-6" d="M130.94,114a2,2,0,0,1-2.19-1.48l-3.48-10v10.35a1.18,1.18,0,0,1-1.18,1.18,1.19,1.19,0,0,1-1.18-1.18V102.22a2.19,2.19,0,0,1,2.28-2.3,2,2,0,0,1,2.23,1.48l3.46,10V101.12a1.18,1.18,0,1,1,2.36,0V111.8A2.18,2.18,0,0,1,130.94,114Z"/><path class="cls-6" d="M147.24,102.33h-2.36v10.52a1.19,1.19,0,0,1-2.38,0V102.33h-2.38a1.11,1.11,0,0,1-1.05-1.1,1.08,1.08,0,0,1,1.07-1.1h7.11a1.1,1.1,0,0,1,0,2.19Z"/><path class="cls-6" d="M160.19,113.92h-2.94a3.21,3.21,0,0,1-3.31-3.22v-7.45a3.21,3.21,0,0,1,3.31-3.22h2.94a3.21,3.21,0,0,1,3.31,3.22v7.45A3.21,3.21,0,0,1,160.19,113.92Zm.94-10.67c0-.84-.52-1-1.29-1h-2.23c-.79,0-1.31.19-1.31,1v7.47c0,.84.52,1,1.29,1h2.23c.79,0,1.31-.19,1.31-1Z"/><path class="cls-6" d="M187.57,112.12a2.81,2.81,0,0,1-2.68,1.72h-4.83V101a.88.88,0,0,1,.88-.86h4.49c1.93,0,3.69,1.2,3.69,3A48.59,48.59,0,0,1,187.57,112.12Zm-1.67-9.79h-3.46v9.32h2.13c.58,0,.77-.11,1-.71.3-.82,1.22-7.39,1.22-7.8A.85.85,0,0,0,185.89,102.33Z"/><path class="cls-6" d="M202.84,113.8a25.39,25.39,0,0,1-3.44.24c-2.19,0-4-.67-4-3.33v-7.37c0-2.68,1.78-3.35,4-3.35a25.34,25.34,0,0,1,3.44.26,1,1,0,0,1,.92,1,1.13,1.13,0,0,1-1.18,1.16c-.28,0-1.52-.26-2.66-.26-1.44,0-2.13.19-2.13,1v2.58h2.83a1.1,1.1,0,0,1,0,2.19h-2.88v2.92c0,.84.69,1,2.13,1,1.14,0,2.38-.24,2.66-.24a1.12,1.12,0,0,1,1.18,1.14A1,1,0,0,1,202.84,113.8Z"/><path class="cls-7" d="M227.81,114a2,2,0,0,1-2.19-1.48l-3.48-10v10.35A1.18,1.18,0,0,1,221,114a1.19,1.19,0,0,1-1.18-1.18V102.22a2.19,2.19,0,0,1,2.28-2.3,2,2,0,0,1,2.23,1.48l3.46,10V101.12a1.18,1.18,0,1,1,2.36,0V111.8A2.18,2.18,0,0,1,227.81,114Z"/><path class="cls-7" d="M243.25,113.92h-2.94A3.21,3.21,0,0,1,237,110.7v-7.45a3.21,3.21,0,0,1,3.31-3.22h2.94a3.21,3.21,0,0,1,3.31,3.22v7.45A3.21,3.21,0,0,1,243.25,113.92Zm.94-10.67c0-.84-.52-1-1.29-1h-2.23c-.79,0-1.31.19-1.31,1v7.47c0,.84.52,1,1.29,1h2.23c.79,0,1.31-.19,1.31-1Zm.13-5.37-2.25,1.29a.78.78,0,0,1-.45.11.73.73,0,0,1-.77-.71.89.89,0,0,1,.37-.69l2.19-1.57a.84.84,0,0,1,.49-.15.88.88,0,0,1,.88.9A.9.9,0,0,1,244.32,97.88Z"/><path class="cls-7" d="M266.55,114a1.24,1.24,0,0,1-1.18-1l-1.2-10.46L262.73,112a2.26,2.26,0,0,1-2.36,2,2.24,2.24,0,0,1-2.3-2l-1.31-9.49-1.35,10.57a1.16,1.16,0,0,1-1.16.94,1.18,1.18,0,0,1-1.18-1.25l1.37-10.89a2.16,2.16,0,0,1,2.19-2,2.29,2.29,0,0,1,2.43,2l1.35,9.58,1.46-9.58a2.3,2.3,0,0,1,2.43-2,2.18,2.18,0,0,1,2.19,2l1.27,10.89A1.18,1.18,0,0,1,266.55,114Z"/><path class="cls-7" d="M275.44,114a1.22,1.22,0,0,1-1.22-1.18V101.17a1.24,1.24,0,0,1,1.22-1.22,1.16,1.16,0,0,1,1.14,1.18v11.73A1.16,1.16,0,0,1,275.44,114Z"/><path class="cls-7" d="M291.48,114a2,2,0,0,1-2.19-1.48l-3.48-10v10.35a1.18,1.18,0,0,1-1.18,1.18,1.19,1.19,0,0,1-1.18-1.18V102.22a2.19,2.19,0,0,1,2.28-2.3A2,2,0,0,1,288,101.4l3.46,10V101.12a1.18,1.18,0,1,1,2.36,0V111.8A2.18,2.18,0,0,1,291.48,114Z"/><path class="cls-7" d="M308.49,114a1.18,1.18,0,0,1-1.18-1.18V108h-4.25v4.85a1.18,1.18,0,0,1-1.18,1.18,1.19,1.19,0,0,1-1.18-1.18v-9.6A3.19,3.19,0,0,1,304,100h2.36a3.19,3.19,0,0,1,3.31,3.22v9.6A1.19,1.19,0,0,1,308.49,114Zm-1.18-10.78c0-.84-.52-1-1.29-1h-1.65c-.79,0-1.31.19-1.31,1v2.58h4.25Z"/><path class="cls-6" d="M346.41,109.54H324.93a1.19,1.19,0,0,1-1.16-1.12,1.14,1.14,0,0,1,1.16-1.07h21.47a1.14,1.14,0,0,1,1.16,1.07A1.19,1.19,0,0,1,346.41,109.54Z"/></svg>