<svg id="Layer_1" data-name="Layer 1" xmlns="http://www.w3.org/2000/svg" xmlns:xlink="http://www.w3.org/1999/xlink" viewBox="0 0 240 119.6"><defs><style>.cls-1{fill:none;}.cls-2{fill:#7de314;}.cls-3{fill:url(#_3);}.cls-4{fill:url(#_3-2);}.cls-10,.cls-5{fill:#fff;}.cls-5{fill-rule:evenodd;}.cls-6{fill:#01cc9b;}.cls-7{fill:url(#_2);}.cls-8{fill:url(#_2-2);}.cls-9{clip-path:url(#clip-path);}.cls-11{fill:#14a0c0;}.cls-12{fill:url(#linear-gradient);}.cls-13{fill:url(#linear-gradient-2);}.cls-14{fill:#5059ab;}.cls-15{fill:url(#linear-gradient-3);}.cls-16{fill:url(#linear-gradient-4);}.cls-17{clip-path:url(#clip-path-3);}.cls-18{fill:#16202c;}</style><linearGradient id="_3" x1="2.09" y1="64.58" x2="38.35" y2="88.09" gradientUnits="userSpaceOnUse"><stop offset="0" stop-color="#5eaa0f"/><stop offset="1" stop-color="#7de314"/></linearGradient><linearGradient id="_3-2" x1="41.33" y1="90.4" x2="16.23" y2="73.67" xlink:href="#_3"/><linearGradient id="_2" x1="76.64" y1="-2.67" x2="76.64" y2="42.77" gradientUnits="userSpaceOnUse"><stop offset="0" stop-color="#019974"/><stop offset="1" stop-color="#01cc9b"/></linearGradient><linearGradient id="_2-2" x1="76.64" y1="42.35" x2="76.64" y2="4.9" xlink:href="#_2"/><clipPath id="clip-path"><rect class="cls-1" x="66.56" y="10.1" width="20.81" height="22"/></clipPath><linearGradient id="linear-gradient" x1="182.6" y1="5.78" x2="144.65" y2="33.27" gradientUnits="userSpaceOnUse"><stop offset="0" stop-color="#0f7890"/><stop offset="1" stop-color="#14a0c0"/></linearGradient><linearGradient id="linear-gradient-2" x1="133.19" y1="39.21" x2="170.64" y2="15.3" xlink:href="#linear-gradient"/><linearGradient id="linear-gradient-3" x1="198.3" y1="88.87" x2="237.34" y2="67.36" gradientUnits="userSpaceOnUse"><stop offset="0" stop-color="#5059ab"/><stop offset="1" stop-color="#3c4380"/></linearGradient><linearGradient id="linear-gradient-4" x1="190.81" y1="95.4" x2="228.27" y2="71.5" gradientUnits="userSpaceOnUse"><stop offset="0" stop-color="#3c4380"/><stop offset="1" stop-color="#5059ab"/></linearGradient><clipPath id="clip-path-3"><rect class="cls-1" x="208.19" y="67.06" width="19.62" height="22"/></clipPath></defs><title>99</title><path class="cls-2" d="M71.31,77.87A62.77,62.77,0,0,0,55,117.19a1.8,1.8,0,0,1-1.79,1.73H14.35a1.81,1.81,0,0,1-1.88-1.85,109.88,109.88,0,0,1,1.62-16.44,2.4,2.4,0,0,1,2.78-1.95q1,.17,2,.25A22.4,22.4,0,0,0,34.65,59.13a2.4,2.4,0,0,1-.38-3.35q3.2-4.07,6.87-7.93a1.8,1.8,0,0,1,2.57,0L71.27,75.37A1.81,1.81,0,0,1,71.31,77.87Z"/><path class="cls-2" d="M41.24,76.59A20.64,20.64,0,1,1,31.68,59.2,20.64,20.64,0,0,1,41.24,76.59Z"/><path class="cls-3" d="M41.24,76.59A20.64,20.64,0,1,1,31.68,59.2,20.64,20.64,0,0,1,41.24,76.59Z"/><circle class="cls-4" cx="20.62" cy="76.59" r="16.11"/><path class="cls-5" d="M17.45,78a3.17,3.17,0,1,1,2.89,3.43A3.17,3.17,0,0,1,17.45,78Zm10-5.3-.94-1a0,0,0,0,0-.06,0l-.7.65a7.92,7.92,0,0,0-3.69-1.82V69.11A.1.1,0,0,0,22,69H19.24a.1.1,0,0,0-.1.1v1.35a7.91,7.91,0,0,0-3.79,1.8l-.59-.54a0,0,0,0,0-.06,0l-.94,1a0,0,0,0,0,0,.06l.56.52a7.94,7.94,0,1,0,12.44.07l.69-.63a0,0,0,0,0,0-.06Zm-6.94-1.63a7.22,7.22,0,1,0,7.22,7.22,7.22,7.22,0,0,0-7.22-7.22Zm8.3.77a.23.23,0,0,1,0,.32l-.71.65a.23.23,0,0,1-.32,0l-1.33-1.44a.23.23,0,0,1,0-.32l.71-.65a.23.23,0,0,1,.32,0l1.33,1.44Zm-16.43,0,1.33-1.44a.22.22,0,0,1,.32,0l.71.65a.22.22,0,0,1,0,.32l-1.33,1.44a.23.23,0,0,1-.32,0l-.71-.65a.23.23,0,0,1,0-.32ZM18.11,67h5a.24.24,0,0,1,.24.24v1.35a.24.24,0,0,1-.24.24h-5a.24.24,0,0,1-.24-.24V67.22a.24.24,0,0,1,.24-.24Zm1.45,11.15a1,1,0,1,0,1.08-.91,1,1,0,0,0-1.08.91Zm-4-1.08-.8.12a.09.09,0,0,0-.08.08l-.08.9a.09.09,0,0,0,.06.09l.77.25a5.13,5.13,0,0,0,.21,1.23l-.62.49a.09.09,0,0,0,0,.11l.38.82a.09.09,0,0,0,.1.05l.77-.16a5.19,5.19,0,0,0,.81,1l-.29.72a.09.09,0,0,0,0,.11l.74.52a.09.09,0,0,0,.11,0l.57-.51a5.11,5.11,0,0,0,1.21.44l.11.75a.09.09,0,0,0,.08.08l.9.08a.09.09,0,0,0,.09-.06l.23-.72a5.13,5.13,0,0,0,1.27-.23l.46.59a.09.09,0,0,0,.11,0l.82-.38a.09.09,0,0,0,.05-.1l-.16-.74a5.17,5.17,0,0,0,1-.84l.7.28a.09.09,0,0,0,.11,0l.52-.74a.09.09,0,0,0,0-.11l-.51-.57a5.14,5.14,0,0,0,.42-1.2l.77-.11a.09.09,0,0,0,.08-.08l.08-.9a.09.09,0,0,0-.06-.09l-.75-.25a5.13,5.13,0,0,0-.23-1.23l.62-.49a.09.09,0,0,0,0-.11l-.38-.82a.09.09,0,0,0-.1-.05l-.8.17a5.16,5.16,0,0,0-.8-.93l.3-.76a.09.09,0,0,0,0-.11L23.61,73a.09.09,0,0,0-.11,0l-.62.56a5.12,5.12,0,0,0-1.15-.4l-.12-.82a.09.09,0,0,0-.08-.08l-.9-.08a.09.09,0,0,0-.09.06l-.26.8a5.17,5.17,0,0,0-1.19.22l-.52-.66a.09.09,0,0,0-.11,0l-.82.38a.09.09,0,0,0-.05.1l.17.82a5.2,5.2,0,0,0-.93.78l-.77-.31a.09.09,0,0,0-.11,0l-.52.74a.09.09,0,0,0,0,.11l.55.62a5.15,5.15,0,0,0-.42,1.15Zm1.29.86a3.75,3.75,0,1,0,4.06-3.42A3.75,3.75,0,0,0,16.86,77.91Z"/><path class="cls-6" d="M116.51,16.73V55.65a1.8,1.8,0,0,1-1.73,1.79A62.78,62.78,0,0,0,75.46,73.72a1.81,1.81,0,0,1-2.5,0L45.44,46.16a1.79,1.79,0,0,1,0-2.6A111.54,111.54,0,0,1,55.7,34.89a2.39,2.39,0,0,1,3.32.44,22.36,22.36,0,0,0,39.8-16.57,2.4,2.4,0,0,1,2-2.69,110.52,110.52,0,0,1,13.83-1.2A1.8,1.8,0,0,1,116.51,16.73Z"/><path class="cls-6" d="M76.64,1A20.56,20.56,0,1,0,97.2,21.59,20.58,20.58,0,0,0,76.64,1Z"/><path class="cls-7" d="M76.64,1A20.56,20.56,0,1,0,97.2,21.59,20.58,20.58,0,0,0,76.64,1Z"/><circle class="cls-8" cx="76.64" cy="21.59" r="16.11"/><g class="cls-9"><path class="cls-10" d="M80.06,21.48a1.45,1.45,0,0,0,1.07-1l.54-1.59.22.07a.19.19,0,0,0,.24-.12l.29-.85a.19.19,0,0,0-.12-.24l-7-2.38a.19.19,0,0,0-.24.12l-.29.85a.19.19,0,0,0,.12.24l.22.07-.55,1.62a1.17,1.17,0,0,0,.24,1.41l1.42,1.7-.16.46c-.54.12-2,.43-2.15.48a1.45,1.45,0,0,0-1.07,1l-.46,1.37-.22-.07a.19.19,0,0,0-.24.12l-.29.85a.19.19,0,0,0,.12.24l7,2.38a.19.19,0,0,0,.24-.12l.29-.85a.19.19,0,0,0-.12-.24l-.22-.07.47-1.4a1.17,1.17,0,0,0-.24-1.41l-1.42-1.7.16-.46c.54-.12,2-.43,2.15-.48Zm-3,1.24,1.54,1.84a.89.89,0,0,1,.2.29,1,1,0,0,1-.08.46l-.47,1.4L73,24.91l.46-1.37a.78.78,0,0,1,.61-.56c.15,0,1.45-.33,2.29-.51a.34.34,0,0,0,.25-.23l.28-.83a.34.34,0,0,0-.06-.33l-1.54-1.84h0a.89.89,0,0,1-.2-.29,1,1,0,0,1,.08-.46l.55-1.62L81,18.66l-.54,1.59a.78.78,0,0,1-.61.56c-.15,0-1.45.33-2.29.51a.34.34,0,0,0-.25.23l-.28.83a.34.34,0,0,0,.06.33Zm0,0"/><path class="cls-10" d="M81.26,29.26l-.47.25-.07,0-.08,0a8.63,8.63,0,0,1-2.14.68h0l-.53.08h0a8.89,8.89,0,0,1-1,.05,8.74,8.74,0,0,1-8.23-5.82l-.05-.16a8.73,8.73,0,0,1,0-5.5l0-.06.05-.15,0-.07a8.76,8.76,0,0,1,6.09-5.44h0l.13,0h0a8.73,8.73,0,0,1,1.91-.22v.9c0,.28.18.36.39.18l1.9-1.61a.41.41,0,0,0,0-.65l-1.92-1.57c-.22-.18-.39-.09-.39.19v.9a10.33,10.33,0,0,0-7.29,3q-.29.29-.55.59h0l0,0a10.31,10.31,0,0,0-2.47,6.43s0,0,0,.06,0,.16,0,.24,0,.26,0,.39v0A10.31,10.31,0,0,0,68.72,28v0c.13.17.26.33.4.49l0,0,.44.47a10.32,10.32,0,0,0,5.6,2.9h0a10.51,10.51,0,0,0,1.72.14,10.31,10.31,0,0,0,4.39-1l.09,0,.09,0,.56-.3a.84.84,0,0,0-.82-1.46Zm0,0"/></g><path class="cls-10" d="M84.2,16.8a.84.84,0,0,0,1.39-.93c-.12-.17-.24-.35-.37-.52a.84.84,0,0,0-1.33,1l.31.43Zm0,0"/><path class="cls-10" d="M85.26,19c.05.17.1.34.15.51a.84.84,0,0,0,.81.63l.21,0a.84.84,0,0,0,.6-1c-.05-.2-.11-.41-.17-.61a.84.84,0,1,0-1.59.51Zm0,0"/><g class="cls-9"><path class="cls-10" d="M84.73,27.3a.84.84,0,0,0-1.18.09l-.36.39a.84.84,0,1,0,1.2,1.17l.43-.47a.84.84,0,0,0-.09-1.18Zm0,0"/><path class="cls-10" d="M86.54,21.13a.84.84,0,0,0-.86.81c0,.18,0,.36,0,.53a.84.84,0,0,0,.76.91h.08a.84.84,0,0,0,.83-.76c0-.21,0-.42,0-.63a.84.84,0,0,0-.81-.86Zm0,0"/></g><path class="cls-10" d="M86.17,24.37a.84.84,0,0,0-1.08.47c-.06.16-.13.33-.21.49a.84.84,0,1,0,1.52.7c.09-.19.17-.39.25-.58a.84.84,0,0,0-.47-1.08Zm0,0"/><path class="cls-10" d="M83.32,14.49a.84.84,0,0,0-.17-1.17L82.63,13a.84.84,0,1,0-.91,1.4l.44.3a.84.84,0,0,0,1.17-.17Zm0,0"/><path class="cls-11" d="M190,46.16,162.82,73.33a2.32,2.32,0,0,1-3.2.09,62.49,62.49,0,0,0-39-16,1.8,1.8,0,0,1-1.74-1.79V16.73a1.8,1.8,0,0,1,1.8-1.85h0a111.12,111.12,0,0,1,15,1.38,2.15,2.15,0,0,1,1.82,2.36q-.13,1-.17,2a23.38,23.38,0,0,0,41.28,16,2.1,2.1,0,0,1,2.89-.3q4.31,3.36,8.39,7.24h0A1.8,1.8,0,0,1,190,46.16Z"/><path class="cls-12" d="M160.78,0a21.59,21.59,0,1,0,21.59,21.59A21.62,21.62,0,0,0,160.78,0Z"/><circle class="cls-13" cx="160.78" cy="21.59" r="16.95"/><path class="cls-10" d="M159.63,24.75a6.88,6.88,0,1,0-6.87-6.87A6.88,6.88,0,0,0,159.63,24.75Zm.23-6.42h-.46a1.6,1.6,0,0,1-.23-3.19v-.48a.46.46,0,0,1,.92,0v.46H161a.46.46,0,1,1,0,.92h-1.6a.69.69,0,0,0,0,1.38h.46a1.6,1.6,0,0,1,.23,3.19v.48a.46.46,0,0,1-.92,0v-.46h-.92a.46.46,0,0,1,0-.92h1.6a.69.69,0,0,0,0-1.37Z"/><path class="cls-10" d="M168.33,28.42a.92.92,0,0,0-.92.92V30l-4.88-4.53a.92.92,0,0,0-1.17-.06l-3.06,2.3-4-3.62a.92.92,0,0,0-1.23,1.36l4.58,4.13a.92.92,0,0,0,1.16.05l3.05-2.29L166,31.17h-.42a.92.92,0,1,0,0,1.83h2.75a.92.92,0,0,0,.92-.92V29.33A.92.92,0,0,0,168.33,28.42Z"/><path class="cls-14" d="M155.54,86.32a3.89,3.89,0,0,1-3.88,3.74h0a45.24,45.24,0,0,1,11.3,27,2.7,2.7,0,0,0,5.4-.38A48.56,48.56,0,0,0,155.54,86.32Z"/><path class="cls-11" d="M149.67,88a2.68,2.68,0,0,0,3.85.13,2.81,2.81,0,0,0-.36-4.27A48.85,48.85,0,0,0,120.6,69.48a3.86,3.86,0,0,1-.1,5.4A45,45,0,0,1,149.67,88Z"/><path class="cls-6" d="M83.93,82.28a3.89,3.89,0,0,1,3.7,3.88s0,0,0,.06a44.9,44.9,0,0,1,30.22-11.41,2.63,2.63,0,0,0,2.61-2.69c0-1.5-1-2.63-3.29-2.72A48.85,48.85,0,0,0,83.93,82.28Z"/><path class="cls-2" d="M85.25,88.49h0c1.67-1.76,1.45-3.4.21-4.4a2.68,2.68,0,0,0-3.61.17A48.81,48.81,0,0,0,67.1,116.64a2.7,2.7,0,0,0,5.39.38A45.25,45.25,0,0,1,85.25,88.49Z"/><path class="cls-14" d="M223,117.08a1.81,1.81,0,0,1-1.88,1.85H182.19a1.8,1.8,0,0,1-1.79-1.73,62.77,62.77,0,0,0-16.29-39.32,1.81,1.81,0,0,1,0-2.5c5.09-5.1,25.69-25.69,27.55-27.56a1.8,1.8,0,0,1,2.56,0,110.78,110.78,0,0,1,8.67,10.27,1.8,1.8,0,0,1-.26,2.4,23.38,23.38,0,0,0,15.74,40.67q.69,0,1.37,0a1.79,1.79,0,0,1,1.89,1.49A111,111,0,0,1,223,117.08Z"/><path class="cls-15" d="M218.41,56.2A21.59,21.59,0,1,0,240,77.79,21.62,21.62,0,0,0,218.41,56.2Z"/><circle class="cls-16" cx="218.41" cy="77.79" r="16.95"/><g class="cls-17"><path class="cls-10" d="M214,76.95a7,7,0,0,1-.15-.73,2.44,2.44,0,0,1,1,2.1,2.69,2.69,0,0,1,0,.39s.31,1.45,2.39,1.31a6,6,0,0,0,2-.55c-.34-1.9-1.71-4.46-1.55-6.6a3.59,3.59,0,0,1,.12-.73c.06-.21.24-.39.23-.61a3.6,3.6,0,0,0-2.17,3.55A8.18,8.18,0,0,1,213.46,70a7.84,7.84,0,0,1,.57-3h-.12c-1.84,1.12-2.9,3.26-2.44,6.15a12.12,12.12,0,0,1,.38,2.17,4,4,0,0,1-.61,2.06c.34-1.86-.18-3.85-1.56-4.46a6.23,6.23,0,0,1-.23,3.51c-.12.24-.29.44-.42.65a6.35,6.35,0,0,0-.84,2.37v.91c.31,2,1.73,3.08,3.59,3.63.25.07.54.25.8.12a2.27,2.27,0,0,1-1.34-1.72c-.13-1.37,1-2.53.65-3.93a1.52,1.52,0,0,1,.73,1.64c.22,0,.36-.25.49-.42a3.69,3.69,0,0,0,.88-2.71Zm0,0"/><path class="cls-10" d="M213.88,79.35v8.46c4.64,4.23,9.28-4.23,13.92,0V79.35c-4.64-4.23-9.28,4.23-13.92,0Zm7,7.36a2,2,0,0,1-3.13-2c0-1.7,1.4-3.41,3.13-4.27a2,2,0,0,1,3.13,2c0,1.69-1.4,3.41-3.13,4.26Zm0,0"/></g><path class="cls-10" d="M221.83,83.08a2.33,2.33,0,0,0-.85,0V81.81c.25-.11.43-.09.55,0a.56.56,0,0,1,.11.31l.48-.2a.66.66,0,0,0-.3-.61,1,1,0,0,0-.83.05V81l-.26.12v.36a2,2,0,0,0-.85.72,1.6,1.6,0,0,0-.31.87.61.61,0,0,0,.28.6,1.3,1.3,0,0,0,.87,0v1.48c-.31.11-.52.1-.63-.06a.94.94,0,0,1-.12-.49l-.48.2a1.18,1.18,0,0,0,.15.68c.19.26.55.29,1.08.09v.53L221,86v-.53a3.05,3.05,0,0,0,.75-.56,1.74,1.74,0,0,0,.47-1.23c0-.34-.13-.54-.37-.61Zm-1.11.12a.79.79,0,0,1-.49,0,.33.33,0,0,1-.18-.34,1,1,0,0,1,.15-.49,1.14,1.14,0,0,1,.51-.45Zm.9,1.24a1.32,1.32,0,0,1-.64.63V83.64a1.23,1.23,0,0,1,.48,0c.17,0,.25.18.25.41a1,1,0,0,1-.09.42Zm0,0"/><path class="cls-18" d="M112.87,101.59A9.74,9.74,0,0,1,123,99.27l44.37-84.45-42,85.66a9.75,9.75,0,1,1-12.5,1.1Z"/></svg>